<?xml version="1.0" encoding="utf-8"?>
<!-- Generator: Adobe Illustrator 23.0.4, SVG Export Plug-In . SVG Version: 6.00 Build 0)  -->
<svg version="1.1" id="Layer_1" xmlns="http://www.w3.org/2000/svg" xmlns:xlink="http://www.w3.org/1999/xlink" x="0px" y="0px"
	 viewBox="0 0 64 64" style="enable-background:new 0 0 64 64;" xml:space="preserve">
<path d="M32.54,20.42c-0.07-0.07-0.16-0.1-0.23-0.15c-0.09-0.06-0.16-0.13-0.26-0.16c-0.08-0.03-0.17-0.03-0.26-0.05
	c-0.1-0.02-0.2-0.05-0.31-0.05c-0.08,0-0.16,0.03-0.25,0.05c-0.11,0.02-0.21,0.03-0.32,0.07c-0.09,0.04-0.16,0.1-0.24,0.16
	c-0.08,0.05-0.17,0.09-0.25,0.16l-22,22c-0.59,0.59-0.59,1.54,0,2.12C8.73,44.85,9.12,45,9.5,45s0.77-0.15,1.06-0.44L31.52,23.6
	l21.94,20.99C53.75,44.86,54.13,45,54.5,45c0.39,0,0.79-0.16,1.08-0.46c0.57-0.6,0.55-1.55-0.05-2.12L32.54,20.42z"/>
</svg>
