<?xml version="1.0" encoding="utf-8"?>
<!-- Generator: Adobe Illustrator 23.0.4, SVG Export Plug-In . SVG Version: 6.00 Build 0)  -->
<svg version="1.1" id="Layer_1" xmlns="http://www.w3.org/2000/svg" xmlns:xlink="http://www.w3.org/1999/xlink" x="0px" y="0px"
	 viewBox="0 0 64 64" style="enable-background:new 0 0 64 64;" xml:space="preserve">
<g>
	<path d="M31.91,5.35c-14.73,0-26.72,11.99-26.72,26.72c0,14.73,11.99,26.72,26.72,26.72S58.63,46.8,58.63,32.06
		C58.63,17.33,46.64,5.35,31.91,5.35z M31.91,55.78c-13.08,0-23.72-10.64-23.72-23.72c0-13.08,10.64-23.72,23.72-23.72
		s23.72,10.64,23.72,23.72C55.63,45.14,44.99,55.78,31.91,55.78z"/>
	<path d="M44.61,37.59l-11.2-6.47V12.82c0-0.83-0.67-1.5-1.5-1.5s-1.5,0.67-1.5,1.5v19.25c0,0.71,0.49,1.3,1.15,1.46l11.55,6.67
		c0.24,0.14,0.49,0.2,0.75,0.2c0.52,0,1.02-0.27,1.3-0.75C45.58,38.92,45.33,38,44.61,37.59z"/>
	<path d="M8.94,52.92l-5.78,5.95c-0.58,0.59-0.56,1.54,0.03,2.12c0.29,0.28,0.67,0.42,1.05,0.42c0.39,0,0.78-0.15,1.08-0.45
		l5.78-5.95c0.58-0.59,0.56-1.54-0.03-2.12C10.47,52.31,9.52,52.32,8.94,52.92z"/>
	<path d="M55.31,52.92c-0.58-0.59-1.53-0.61-2.12-0.03c-0.59,0.58-0.61,1.53-0.03,2.12l5.78,5.95c0.29,0.3,0.68,0.45,1.08,0.45
		c0.38,0,0.75-0.14,1.05-0.42c0.59-0.58,0.61-1.53,0.03-2.12L55.31,52.92z"/>
	<path d="M4.27,20.58c0.04,0,0.07,0,0.11,0c0.59,0,1.13-0.34,1.37-0.89C8.55,13.43,13.86,8.37,20.3,5.83
		c0.59-0.23,0.96-0.8,0.95-1.43c-0.02-0.63-0.42-1.18-1.02-1.38c-1.4-0.47-2.85-0.71-4.3-0.71C8.47,2.3,2.41,8.36,2.41,15.81
		c0,1.22,0.18,2.46,0.52,3.68C3.1,20.1,3.64,20.53,4.27,20.58z"/>
	<path d="M43.36,5.83c6.44,2.54,11.75,7.6,14.56,13.87c0.24,0.54,0.78,0.89,1.37,0.89c0.04,0,0.07,0,0.11,0
		c0.63-0.05,1.16-0.48,1.33-1.09c0.34-1.22,0.52-2.46,0.52-3.68c0-7.45-6.06-13.51-13.51-13.51c-1.45,0-2.9,0.24-4.3,0.71
		c-0.6,0.2-1.01,0.75-1.02,1.38C42.4,5.02,42.78,5.59,43.36,5.83z"/>
</g>
</svg>
