<?xml version="1.0" encoding="utf-8"?>
<!-- Generator: Adobe Illustrator 23.0.4, SVG Export Plug-In . SVG Version: 6.00 Build 0)  -->
<svg version="1.1" id="Layer_1" xmlns="http://www.w3.org/2000/svg" xmlns:xlink="http://www.w3.org/1999/xlink" x="0px" y="0px"
	 viewBox="0 0 64 64" style="enable-background:new 0 0 64 64;" xml:space="preserve">
<path d="M49.08,60.23c0-0.01,0.01-0.02,0.01-0.03L56.71,5.5H58c0.83,0,1.5-0.67,1.5-1.5S58.83,2.5,58,2.5H6C5.17,2.5,4.5,3.17,4.5,4
	S5.17,5.5,6,5.5h1.29l7.62,54.71c0,0.01,0.01,0.02,0.01,0.03c0.03,0.16,0.08,0.31,0.15,0.45c0.01,0.02,0.02,0.05,0.04,0.07
	c0.08,0.13,0.17,0.25,0.29,0.35c0.02,0.02,0.04,0.03,0.06,0.05c0.12,0.1,0.25,0.18,0.4,0.24c0.02,0.01,0.03,0.01,0.05,0.02
	c0.15,0.05,0.32,0.09,0.49,0.09c0,0,0,0,0,0c0,0,0,0,0,0c0,0,0,0,0,0h31.2c0,0,0,0,0,0c0,0,0,0,0,0c0,0,0,0,0,0
	c0.17,0,0.34-0.04,0.49-0.09c0.02-0.01,0.03-0.01,0.05-0.02c0.15-0.06,0.28-0.14,0.4-0.24c0.02-0.02,0.04-0.03,0.06-0.05
	c0.11-0.1,0.21-0.22,0.29-0.35c0.01-0.02,0.02-0.04,0.04-0.07C49,60.55,49.05,60.4,49.08,60.23z M43.71,58.5l-3.24-3.68l5.74-6.56
	l1.31,1.49l-1.22,8.75H43.71z M29.42,58.5l-3.22-3.68L32,48.23l5.81,6.59l-3.22,3.68H29.42z M17.71,58.5l-1.22-8.75l1.31-1.49
	l5.74,6.55l-3.24,3.68H17.71z M23.44,6.1l-5.96,6.32L11.43,5.5H22.9L23.44,6.1z M41.1,5.5h11.48l-6.06,6.92L40.56,6.1L41.1,5.5z
	 M48.51,42.59l-2.3,2.63l-5.77-6.59l6.06-6.88l3.05,3.39L48.51,42.59z M48.01,46.2l-0.13,0.93l-0.34-0.39L48.01,46.2z M26.22,38.64
	l5.78-6.6l5.78,6.6L32,45.2L26.22,38.64z M30.67,46.71l-5.8,6.59l-5.74-6.56l5.77-6.59L30.67,46.71z M39.11,40.15l5.77,6.59
	l-5.74,6.56l-5.8-6.59L39.11,40.15z M39.11,37.12l-5.78-6.61l5.95-6.8l5.88,6.54L39.11,37.12z M40.61,22.2l5.96-6.81l4.99,5.3
	l-0.38,2.73l-4.69,5.33L40.61,22.2z M51.92,18.15l-4.02-4.27l5.49-6.27L51.92,18.15z M45.19,13.93l-5.93,6.77l-5.92-6.58l5.87-6.53
	L45.19,13.93z M37.93,22.22L32,29l-5.93-6.78l5.93-6.6L37.93,22.22z M24.74,20.7l-5.93-6.77l5.98-6.34l5.87,6.53L24.74,20.7z
	 M16.11,13.88l-4.02,4.27L10.62,7.61L16.11,13.88z M12.44,20.69l4.99-5.3l5.96,6.81l-5.88,6.54l-4.69-5.33L12.44,20.69z
	 M24.72,23.72l5.95,6.8l-5.78,6.61l-6.04-6.86L24.72,23.72z M23.56,38.64l-5.77,6.59l-2.3-2.63l-1.04-7.45l3.04-3.39L23.56,38.64z
	 M16.46,46.74l-0.34,0.39l-0.13-0.93L16.46,46.74z M24.86,56.33l1.9,2.17h-3.8L24.86,56.33z M39.14,56.33l1.91,2.17h-3.8
	L39.14,56.33z M49.91,32.55l-2.07-2.31l2.85-3.23L49.91,32.55z M37.24,5.5l0.6,0.63L32,12.63l-5.84-6.49l0.6-0.63H37.24z
	 M13.32,27.01l2.85,3.23l-2.07,2.31L13.32,27.01z"/>
</svg>
