<?xml version="1.0" encoding="utf-8"?>
<!-- Generator: Adobe Illustrator 25.0.0, SVG Export Plug-In . SVG Version: 6.00 Build 0)  -->
<svg version="1.1" id="Layer_1" xmlns="http://www.w3.org/2000/svg" xmlns:xlink="http://www.w3.org/1999/xlink" x="0px" y="0px"
	 viewBox="0 0 64 64" style="enable-background:new 0 0 64 64;" xml:space="preserve">
<g>
	<path d="M56.66,46.91c-5.11-4.54-13.22-6.05-17.59-6.55c-0.11-0.01-0.23-0.02-0.34-0.02c-0.9,0-1.77,0.41-2.34,1.12l-3.78,4.71
		c-3.19-1.76-6.72-4.81-9.79-8.51c-0.02-0.02-0.04-0.04-0.05-0.06c-3.01-3.43-5.24-7.09-6.42-10.52l5.26-3.01
		c0.89-0.51,1.46-1.44,1.51-2.47c0.19-4.4-0.03-12.64-3.74-18.43l-0.75-1.2c-0.55-0.89-1.52-1.41-2.54-1.41
		c-0.13,0-0.26,0.01-0.38,0.02L6.18,1.81C5,1.96,4.01,2.8,3.68,3.95c-4.74,16.49-1.72,32.26,8.29,43.29
		c8.04,10,20.23,15.51,34.34,15.51c2.33,0,4.73-0.15,7.13-0.45c1.19-0.15,2.17-0.98,2.51-2.13l2.7-9.21
		c0.33-1.13-0.03-2.34-0.91-3.11L56.66,46.91z M53.08,59.33c-2.32,0.29-4.57,0.43-6.77,0.43c-13.74,0-24.87-5.47-32.06-14.46
		C5.26,35.44,1.88,21.1,6.57,4.78l9.52-1.23l0.77,1.23c2.8,4.37,3.52,10.9,3.27,16.68l-7.3,4.17c1.04,4.69,3.91,9.64,7.69,13.94
		c3.66,4.4,8.49,8.56,12.96,10.32l5.26-6.55c5.75,0.65,12.08,2.39,15.96,5.83l1.09,0.95L53.08,59.33z"/>
	<path d="M61.68,19.91c0.01-0.14-0.03-0.28-0.06-0.41c-0.01-0.03-0.01-0.07-0.02-0.1c-0.07-0.22-0.18-0.42-0.35-0.6l-11-11
		c-0.14-0.14-0.31-0.25-0.49-0.33c-0.01,0-0.02,0-0.02-0.01c-0.17-0.07-0.35-0.11-0.55-0.11s-0.38,0.04-0.55,0.11
		c-0.01,0-0.02,0-0.02,0.01c-0.37,0.15-0.66,0.45-0.82,0.82c0,0.01,0,0.02-0.01,0.02c-0.07,0.17-0.11,0.35-0.11,0.55v5.5h-15.5
		c-0.83,0-1.5,0.67-1.5,1.5v7c0,0.83,0.67,1.5,1.5,1.5h15.5v5.5c0,0.16,0.03,0.31,0.08,0.45c0.01,0.02,0.01,0.04,0.02,0.07
		c0.06,0.17,0.16,0.32,0.27,0.46c0.01,0.01,0.01,0.02,0.02,0.03c0.01,0.01,0.02,0.02,0.03,0.02c0.04,0.05,0.09,0.09,0.14,0.13
		c0.03,0.02,0.06,0.05,0.09,0.07c0.06,0.04,0.12,0.07,0.18,0.1c0.03,0.01,0.05,0.03,0.08,0.04c0.09,0.04,0.18,0.07,0.28,0.09
		c0,0,0,0,0.01,0c0.1,0.02,0.2,0.03,0.3,0.03c0.17,0,0.34-0.04,0.49-0.09c0.02-0.01,0.04-0.01,0.05-0.02
		c0.16-0.06,0.3-0.15,0.43-0.26c0.01-0.01,0.02-0.01,0.03-0.02l11-9.96c0.18-0.16,0.3-0.37,0.38-0.58c0.01-0.02,0.01-0.03,0.01-0.05
		C61.64,20.22,61.68,20.06,61.68,19.91z"/>
</g>
</svg>
