<?xml version="1.0" encoding="utf-8"?>
<!-- Generator: Adobe Illustrator 23.0.4, SVG Export Plug-In . SVG Version: 6.00 Build 0)  -->
<svg version="1.1" id="Layer_1" xmlns="http://www.w3.org/2000/svg" xmlns:xlink="http://www.w3.org/1999/xlink" x="0px" y="0px"
	 viewBox="0 0 64 64" style="enable-background:new 0 0 64 64;" xml:space="preserve">
<style type="text/css">
	.st0{fill:none;stroke:#000000;stroke-width:3;stroke-miterlimit:10;}
</style>
<path class="st0" d="M36.5,83.5"/>
<g>
	<path d="M15.5,1h-10C3.02,1,1,3.02,1,5.5v53C1,60.98,3.02,63,5.5,63h10c2.48,0,4.5-2.02,4.5-4.5v-53C20,3.02,17.98,1,15.5,1z
		 M17,58.5c0,0.83-0.67,1.5-1.5,1.5h-10C4.67,60,4,59.33,4,58.5v-53C4,4.67,4.67,4,5.5,4h10C16.33,4,17,4.67,17,5.5V58.5z"/>
	<path d="M10.5,11.5c-2.76,0-5,2.24-5,5s2.24,5,5,5s5-2.24,5-5S13.26,11.5,10.5,11.5z M10.5,19.5c-1.65,0-3-1.35-3-3s1.35-3,3-3
		s3,1.35,3,3S12.15,19.5,10.5,19.5z"/>
	<path d="M35.5,1h-10C23.02,1,21,3.02,21,5.5v53c0,2.48,2.02,4.5,4.5,4.5h10c2.48,0,4.5-2.02,4.5-4.5v-53C40,3.02,37.98,1,35.5,1z
		 M37,58.5c0,0.83-0.67,1.5-1.5,1.5h-10c-0.83,0-1.5-0.67-1.5-1.5v-53C24,4.67,24.67,4,25.5,4h10C36.33,4,37,4.67,37,5.5V58.5z"/>
	<path d="M30.5,11.5c-2.76,0-5,2.24-5,5s2.24,5,5,5s5-2.24,5-5S33.26,11.5,30.5,11.5z M30.5,19.5c-1.65,0-3-1.35-3-3s1.35-3,3-3
		s3,1.35,3,3S32.15,19.5,30.5,19.5z"/>
	<path d="M59.65,4.77c-0.1-1.19-0.67-2.28-1.59-3.05c-0.92-0.77-2.08-1.14-3.28-1.04l-9.96,0.87c-2.47,0.22-4.31,2.4-4.09,4.88
		l4.62,52.8c0.1,1.19,0.67,2.28,1.59,3.05c0.82,0.69,1.83,1.06,2.88,1.06c0.13,0,0.26-0.01,0.4-0.02l9.96-0.87
		c1.19-0.1,2.28-0.67,3.05-1.59c0.77-0.92,1.14-2.09,1.04-3.28L59.65,4.77z M60.94,58.93c-0.26,0.31-0.62,0.5-1.02,0.53l-9.96,0.87
		c-0.38,0.04-0.78-0.09-1.09-0.35c-0.31-0.26-0.5-0.62-0.53-1.02l-4.62-52.8c-0.07-0.82,0.54-1.55,1.36-1.63l9.96-0.87
		c0.04,0,0.09-0.01,0.13-0.01c0.35,0,0.69,0.12,0.96,0.35c0.31,0.26,0.5,0.62,0.53,1.02l4.62,52.8
		C61.32,58.23,61.2,58.62,60.94,58.93z"/>
	<path d="M50.71,11.58c-1.33,0.12-2.54,0.74-3.4,1.77c-0.86,1.02-1.27,2.32-1.15,3.65c0.23,2.6,2.42,4.56,4.98,4.56
		c0.14,0,0.29-0.01,0.44-0.02c2.75-0.24,4.79-2.67,4.54-5.42c-0.12-1.33-0.74-2.54-1.77-3.39C53.34,11.87,52.05,11.46,50.71,11.58z
		 M51.41,19.55c-1.66,0.15-3.11-1.08-3.25-2.73c-0.07-0.8,0.18-1.58,0.69-2.19c0.52-0.61,1.24-0.99,2.04-1.06
		c0.09-0.01,0.18-0.01,0.27-0.01c0.7,0,1.38,0.24,1.92,0.7c0.61,0.52,0.99,1.24,1.06,2.04C54.28,17.95,53.06,19.4,51.41,19.55z"/>
</g>
</svg>
