<?xml version="1.0" encoding="utf-8"?>
<!-- Generator: Adobe Illustrator 23.0.4, SVG Export Plug-In . SVG Version: 6.00 Build 0)  -->
<svg version="1.1" id="Layer_1" xmlns="http://www.w3.org/2000/svg" xmlns:xlink="http://www.w3.org/1999/xlink" x="0px" y="0px"
	 viewBox="0 0 64 64" style="enable-background:new 0 0 64 64;" xml:space="preserve">
<style type="text/css">
	.st0{fill:none;stroke:#000000;stroke-width:3;stroke-miterlimit:10;}
</style>
<path class="st0" d="M36.5,83.5"/>
<g>
	<path d="M15.5,1h-10C3.02,1,1,3.02,1,5.5v53C1,60.98,3.02,63,5.5,63h10c2.48,0,4.5-2.02,4.5-4.5v-53C20,3.02,17.98,1,15.5,1z
		 M17,58.5c0,0.83-0.67,1.5-1.5,1.5h-10C4.67,60,4,59.33,4,58.5v-53C4,4.67,4.67,4,5.5,4h10C16.33,4,17,4.67,17,5.5V58.5z"/>
	<path d="M10.5,11.5c-2.76,0-5,2.24-5,5s2.24,5,5,5s5-2.24,5-5S13.26,11.5,10.5,11.5z M10.5,19.5c-1.65,0-3-1.35-3-3s1.35-3,3-3
		s3,1.35,3,3S12.15,19.5,10.5,19.5z"/>
	<path d="M35.5,1h-10C23.02,1,21,3.02,21,5.5v53c0,2.48,2.02,4.5,4.5,4.5h10c2.48,0,4.5-2.02,4.5-4.5v-53C40,3.02,37.98,1,35.5,1z
		 M37,58.5c0,0.83-0.67,1.5-1.5,1.5h-10c-0.83,0-1.5-0.67-1.5-1.5v-53C24,4.67,24.67,4,25.5,4h10C36.33,4,37,4.67,37,5.5V58.5z"/>
	<path d="M30.5,11.5c-2.76,0-5,2.24-5,5s2.24,5,5,5s5-2.24,5-5S33.26,11.5,30.5,11.5z M30.5,19.5c-1.65,0-3-1.35-3-3s1.35-3,3-3
		s3,1.35,3,3S32.15,19.5,30.5,19.5z"/>
	<path d="M59.65,4.77L59.65,4.77c-0.22-2.47-2.38-4.32-4.88-4.09l-9.96,0.87c-2.47,0.22-4.31,2.4-4.09,4.88l4.62,52.8
		c0.21,2.34,2.17,4.11,4.48,4.11c0.13,0,0.26-0.01,0.39-0.02l9.96-0.87c1.19-0.1,2.28-0.67,3.05-1.59c0.77-0.92,1.14-2.09,1.04-3.28
		L59.65,4.77z M53.64,16.34c0.12,1.37-0.9,2.59-2.27,2.71c-1.38,0.11-2.59-0.9-2.71-2.27c-0.06-0.67,0.15-1.31,0.58-1.82
		c0.43-0.51,1.03-0.83,1.7-0.88c0.07-0.01,0.15-0.01,0.22-0.01c0.59,0,1.15,0.2,1.6,0.59C53.27,15.07,53.58,15.68,53.64,16.34z"/>
</g>
</svg>
