<?xml version="1.0" encoding="utf-8"?>
<!-- Generator: Adobe Illustrator 23.0.4, SVG Export Plug-In . SVG Version: 6.00 Build 0)  -->
<svg version="1.1" id="Layer_1" xmlns="http://www.w3.org/2000/svg" xmlns:xlink="http://www.w3.org/1999/xlink" x="0px" y="0px"
	 viewBox="0 0 64 64" style="enable-background:new 0 0 64 64;" xml:space="preserve">
<style type="text/css">
	.st0{fill:none;stroke:#000000;stroke-width:3;stroke-miterlimit:10;}
	.st1{fill:none;}
</style>
<path class="st0" d="M36.5,83.5"/>
<g>
	<path class="st1" d="M37,4H27c-0.83,0-1.5,0.67-1.5,1.5v53c0,0.83,0.67,1.5,1.5,1.5h10c0.83,0,1.5-0.67,1.5-1.5v-53
		C38.5,4.67,37.83,4,37,4z M32,21.5c-2.76,0-5-2.24-5-5s2.24-5,5-5s5,2.24,5,5S34.76,21.5,32,21.5z"/>
	<circle class="st1" cx="32" cy="16.5" r="3"/>
	<path d="M37,1H27c-2.48,0-4.5,2.02-4.5,4.5v53c0,2.48,2.02,4.5,4.5,4.5h10c2.48,0,4.5-2.02,4.5-4.5v-53C41.5,3.02,39.48,1,37,1z
		 M38.5,58.5c0,0.83-0.67,1.5-1.5,1.5H27c-0.83,0-1.5-0.67-1.5-1.5v-53C25.5,4.67,26.17,4,27,4h10c0.83,0,1.5,0.67,1.5,1.5V58.5z"/>
	<path d="M32,11.5c-2.76,0-5,2.24-5,5s2.24,5,5,5s5-2.24,5-5S34.76,11.5,32,11.5z M32,19.5c-1.65,0-3-1.35-3-3s1.35-3,3-3
		s3,1.35,3,3S33.65,19.5,32,19.5z"/>
</g>
</svg>
