<?xml version="1.0" encoding="utf-8"?>
<!-- Generator: Adobe Illustrator 23.1.1, SVG Export Plug-In . SVG Version: 6.00 Build 0)  -->
<svg version="1.1" id="Layer_1" xmlns="http://www.w3.org/2000/svg" xmlns:xlink="http://www.w3.org/1999/xlink" x="0px" y="0px"
	 viewBox="0 0 64 64" style="enable-background:new 0 0 64 64;" xml:space="preserve">
<style type="text/css">
	.st0{fill:none;}
</style>
<g>
	<rect x="15.5" y="19.5" class="st0" width="33" height="3"/>
	<rect x="15.5" y="25.5" class="st0" width="33" height="19"/>
	<path d="M18,58.5H4.5V46c0-0.83-0.67-1.5-1.5-1.5S1.5,45.17,1.5,46v14c0,0.83,0.67,1.5,1.5,1.5h15c0.83,0,1.5-0.67,1.5-1.5
		S18.83,58.5,18,58.5z"/>
	<path d="M3,19.5c0.83,0,1.5-0.67,1.5-1.5V5.5H18c0.83,0,1.5-0.67,1.5-1.5S18.83,2.5,18,2.5H3C2.17,2.5,1.5,3.17,1.5,4v14
		C1.5,18.83,2.17,19.5,3,19.5z"/>
	<path d="M61,44.5c-0.83,0-1.5,0.67-1.5,1.5v12.5H46c-0.83,0-1.5,0.67-1.5,1.5s0.67,1.5,1.5,1.5h15c0.83,0,1.5-0.67,1.5-1.5V46
		C62.5,45.17,61.83,44.5,61,44.5z"/>
	<path d="M61,2.5H46c-0.83,0-1.5,0.67-1.5,1.5s0.67,1.5,1.5,1.5h13.5V18c0,0.83,0.67,1.5,1.5,1.5s1.5-0.67,1.5-1.5V4
		C62.5,3.17,61.83,2.5,61,2.5z"/>
	<path d="M12.5,18v28c0,0.83,0.67,1.5,1.5,1.5h36c0.83,0,1.5-0.67,1.5-1.5V18c0-0.83-0.67-1.5-1.5-1.5H14
		C13.17,16.5,12.5,17.17,12.5,18z M15.5,25.5h33v19h-33V25.5z M48.5,22.5h-33v-3h33V22.5z"/>
</g>
</svg>
