<?xml version="1.0" encoding="utf-8"?>
<!-- Generator: Adobe Illustrator 23.0.4, SVG Export Plug-In . SVG Version: 6.00 Build 0)  -->
<svg version="1.1" id="Layer_1" xmlns="http://www.w3.org/2000/svg" xmlns:xlink="http://www.w3.org/1999/xlink" x="0px" y="0px"
	 viewBox="0 0 64 64" style="enable-background:new 0 0 64 64;" xml:space="preserve">
<g>
	<path d="M55.47,14.16c0-2.98-2.08-5.4-4.64-5.4h-4.84c-0.83,0-1.5,0.67-1.5,1.5s0.67,1.5,1.5,1.5h4.84c0.87,0,1.64,1.12,1.64,2.4
		L52.5,45.7c-0.02,0.1-0.03,0.2-0.03,0.31V57.1c0,1.28-0.77,2.4-1.64,2.4H13.14c-0.87,0-1.64-1.12-1.64-2.4V14.16
		c0-1.28,0.77-2.4,1.64-2.4h4.92c0.83,0,1.5-0.67,1.5-1.5s-0.67-1.5-1.5-1.5h-4.92c-2.56,0-4.64,2.42-4.64,5.4V57.1
		c0,2.98,2.08,5.4,4.64,5.4h37.69c2.56,0,4.64-2.42,4.64-5.4V46.31c0.02-0.1,0.03-0.2,0.03-0.31L55.47,14.16z"/>
	<path d="M25,13.5h14c2.48,0,4.5-2.02,4.5-4.5S41.48,4.5,39,4.5h-2.1c-0.46-2.28-2.48-4-4.9-4s-4.43,1.72-4.9,4H25
		c-2.48,0-4.5,2.02-4.5,4.5S22.52,13.5,25,13.5z M32,3.5c1.1,0,2,0.9,2,2s-0.9,2-2,2c-1.1,0-2-0.9-2-2S30.9,3.5,32,3.5z"/>
</g>
</svg>
