<?xml version="1.0" encoding="utf-8"?>
<!-- Generator: Adobe Illustrator 23.0.3, SVG Export Plug-In . SVG Version: 6.00 Build 0)  -->
<svg version="1.1" id="Layer_1" xmlns="http://www.w3.org/2000/svg" xmlns:xlink="http://www.w3.org/1999/xlink" x="0px" y="0px"
	 viewBox="0 0 64 64" style="enable-background:new 0 0 64 64;" xml:space="preserve">
<g>
	<path d="M32,1C14.91,1,1,14.91,1,32c0,17.09,13.91,31,31,31c17.09,0,31-13.91,31-31C63,14.91,49.09,1,32,1z M32,60
		C16.56,60,4,47.44,4,32S16.56,4,32,4s28,12.56,28,28S47.44,60,32,60z"/>
	<path d="M46.73,38.69L33.5,31.05V9.48c0-0.83-0.67-1.5-1.5-1.5s-1.5,0.67-1.5,1.5V32c0,0.73,0.51,1.33,1.2,1.47l13.53,7.81
		c0.24,0.14,0.49,0.2,0.75,0.2c0.52,0,1.02-0.27,1.3-0.75C47.69,40.02,47.45,39.1,46.73,38.69z"/>
</g>
</svg>
