<?xml version="1.0" encoding="utf-8"?>
<!-- Generator: Adobe Illustrator 23.0.4, SVG Export Plug-In . SVG Version: 6.00 Build 0)  -->
<svg version="1.1" id="Layer_1" xmlns="http://www.w3.org/2000/svg" xmlns:xlink="http://www.w3.org/1999/xlink" x="0px" y="0px"
	 viewBox="0 0 64 64" style="enable-background:new 0 0 64 64;" xml:space="preserve">
<style type="text/css">
	.st0{fill:none;}
</style>
<g>
	<path class="st0" d="M55.53,32.31c-0.63-0.31-0.95-1.02-0.78-1.71c0.01-0.03,0.01-0.05,0.02-0.08c0.03-0.38,0.04-0.76,0.04-1.14
		c0-8.21-6.68-14.89-14.89-14.89c-4.2,0-8.23,1.79-11.04,4.91l-0.46,0.47c-0.52,0.54-1.34,0.61-1.95,0.18
		c-1.38-0.98-3.01-1.5-4.71-1.5c-4.53,0-8.35,3.75-8.35,8.18c0,0.72-0.52,1.34-1.23,1.48C7.46,29.09,3.9,33.45,3.9,38.37
		c0,5.58,4.54,10.13,10.13,10.13h37.69c4.71,0,8.54-3.83,8.54-8.54C60.25,36.7,58.44,33.77,55.53,32.31z"/>
	<path d="M57.79,30.14c0.01-0.25,0.02-0.51,0.02-0.76c0-9.86-8.02-17.89-17.89-17.89c-4.84,0-9.49,1.98-12.82,5.42
		c-1.63-0.89-3.45-1.36-5.34-1.36c-5.74,0-10.65,4.46-11.28,9.98C4.94,27.12,0.9,32.43,0.9,38.37c0,7.24,5.89,13.13,13.13,13.13
		h38.06c0.07,0,0.14,0,0.21-0.01c6.1-0.3,10.97-5.36,10.97-11.53C63.25,35.91,61.19,32.24,57.79,30.14z M51.71,48.5H14.02
		C8.44,48.5,3.9,43.96,3.9,38.37c0-4.92,3.56-9.29,8.29-10.15c0.71-0.13,1.23-0.75,1.23-1.48c0-4.44,3.83-8.18,8.35-8.18
		c1.7,0,3.33,0.52,4.71,1.5c0.6,0.43,1.43,0.35,1.95-0.18l0.46-0.47c2.82-3.12,6.84-4.91,11.04-4.91c8.21,0,14.89,6.68,14.89,14.89
		c0,0.38-0.01,0.76-0.04,1.14c-0.01,0.02-0.01,0.05-0.02,0.08c-0.17,0.68,0.15,1.39,0.78,1.71c2.92,1.46,4.73,4.39,4.73,7.65
		C60.25,44.67,56.42,48.5,51.71,48.5z"/>
</g>
</svg>
