<?xml version="1.0" encoding="utf-8"?>
<!-- Generator: Adobe Illustrator 23.0.4, SVG Export Plug-In . SVG Version: 6.00 Build 0)  -->
<svg version="1.1" id="Layer_1" xmlns="http://www.w3.org/2000/svg" xmlns:xlink="http://www.w3.org/1999/xlink" x="0px" y="0px"
	 viewBox="0 0 64 64" style="enable-background:new 0 0 64 64;" xml:space="preserve">
<g>
	<path d="M58.4,49.4c0.3-0.5,0.3-1.2,0-1.7l-2.6-3.9c0.2-0.4,0.4-0.8,0.5-1.2L61,42c0.6-0.1,1.1-0.5,1.3-1.1
		c0.8-2.8,1.2-5.8,1.2-8.7c0-0.6-0.3-1.1-0.9-1.4L58.3,29c0-0.5-0.1-0.9-0.2-1.3l3.6-3c0.5-0.4,0.7-1,0.5-1.6
		c-0.8-2.8-2.1-5.5-3.6-8c-0.3-0.5-0.9-0.8-1.5-0.7l-4.6,0.8c-0.3-0.4-0.6-0.7-0.8-1L53,9.8c0.2-0.6,0-1.2-0.5-1.6
		c-2.2-1.9-4.7-3.5-7.3-4.8c-0.5-0.2-1.2-0.2-1.6,0.2l-3.5,3.2c-0.4-0.1-0.8-0.3-1.2-0.4l-1.2-4.5c-0.2-0.6-0.6-1-1.2-1.1
		c-3-0.4-5.8-0.4-8.8,0c-0.6,0.1-1.1,0.5-1.2,1.1l-1.2,4.5c-0.4,0.1-0.8,0.2-1.2,0.4l-3.5-3.2c-0.5-0.4-1.1-0.5-1.6-0.2
		c-2.7,1.2-5.1,2.8-7.4,4.8c-0.5,0.4-0.6,1-0.5,1.6l1.4,4.5c-0.3,0.3-0.6,0.6-0.9,1L7,14.5c-0.6-0.1-1.2,0.2-1.5,0.7
		c-1.6,2.5-2.8,5.2-3.6,8c-0.2,0.6,0,1.2,0.5,1.6l3.6,3c-0.1,0.4-0.1,0.9-0.2,1.3l-4.3,1.9c-0.6,0.2-0.9,0.8-0.9,1.4
		c0,2.9,0.4,5.9,1.2,8.7C1.9,41.6,2.4,42,3,42l4.6,0.6C7.8,43,8,43.4,8.2,43.8l-2.6,3.9c-0.3,0.5-0.3,1.2,0,1.7
		c1.6,2.5,3.5,4.7,5.7,6.6c0.4,0.4,1.1,0.5,1.6,0.2l4.2-2c0.4,0.2,0.7,0.5,1.1,0.7l-0.1,4.7c0,0.6,0.3,1.2,0.9,1.4
		c2.7,1.2,5.5,2,8.4,2.5c0.1,0,0.1,0,0.2,0c0.5,0,1-0.3,1.3-0.7l2.4-4c0.4,0,0.9,0,1.3,0l2.4,4c0.3,0.5,0.9,0.8,1.5,0.7
		c2.9-0.4,5.7-1.3,8.4-2.5c0.5-0.2,0.9-0.8,0.9-1.4l-0.1-4.7c0.4-0.2,0.7-0.5,1.1-0.7l4.2,2c0.5,0.3,1.2,0.2,1.6-0.2
		C54.9,54.1,56.8,51.8,58.4,49.4z M47.4,51.1c-0.5-0.2-1.1-0.2-1.5,0.1c-0.8,0.6-1.6,1.1-2.3,1.5c-0.5,0.3-0.8,0.8-0.8,1.3l0.1,4.6
		c-1.9,0.8-3.8,1.3-5.7,1.7l-2.4-3.9c-0.3-0.5-0.8-0.7-1.3-0.7c0,0-0.1,0-0.1,0l-0.4,0c-0.6,0-1.3,0-1.9,0l-0.4,0
		c-0.5,0-1.1,0.2-1.4,0.7l-2.4,3.9c-1.9-0.4-3.9-0.9-5.7-1.7l0.1-4.6c0-0.5-0.3-1.1-0.8-1.3c-0.8-0.4-1.5-0.9-2.3-1.5
		c-0.5-0.3-1-0.4-1.5-0.1l-4.1,2c-1.5-1.4-2.8-2.9-3.9-4.5l2.5-3.8c0.3-0.5,0.3-1,0.1-1.5c-0.4-0.8-0.8-1.6-1.1-2.5
		c-0.2-0.5-0.7-0.9-1.2-1l-4.5-0.5c-0.5-2-0.8-3.9-0.8-6l4.2-1.8c0.5-0.2,0.8-0.7,0.9-1.2c0.1-1,0.2-2,0.4-2.8
		c0.1-0.5-0.1-1.1-0.5-1.5L5,23.1c0.6-1.9,1.5-3.7,2.5-5.5l4.5,0.8c0.6,0.1,1.1-0.1,1.4-0.6c0.6-0.8,1.2-1.5,1.8-2.1
		c0.4-0.4,0.5-1,0.4-1.5l-1.4-4.4c1.6-1.3,3.2-2.3,5-3.2l3.4,3.1c0.4,0.4,1,0.5,1.5,0.3c0.9-0.3,1.8-0.6,2.6-0.8
		c0.5-0.1,1-0.5,1.1-1.1L29,3.6c2-0.2,3.9-0.2,6,0l1.2,4.4c0.1,0.5,0.6,0.9,1.1,1.1c0.9,0.2,1.8,0.5,2.6,0.8
		c0.5,0.2,1.1,0.1,1.5-0.3l3.4-3.1c1.8,0.9,3.5,2,5,3.2l-1.4,4.4c-0.2,0.5,0,1.1,0.3,1.5c0.6,0.6,1.2,1.3,1.8,2.1
		c0.3,0.4,0.9,0.7,1.4,0.6l4.5-0.8c1,1.7,1.8,3.6,2.5,5.5L55.5,26c-0.4,0.4-0.6,0.9-0.5,1.5c0.2,0.8,0.3,1.7,0.4,2.8
		c0,0.5,0.4,1,0.9,1.2l4.2,1.8c-0.1,2-0.4,4-0.8,6l-4.5,0.5c-0.5,0.1-1,0.4-1.2,1c-0.4,1-0.7,1.8-1.1,2.5c-0.3,0.5-0.2,1.1,0.1,1.5
		l2.5,3.8c-1.1,1.6-2.5,3.2-3.9,4.5L47.4,51.1z"/>
	<path d="M32,17.5c-8,0-14.5,6.5-14.5,14.5S24,46.5,32,46.5S46.5,40,46.5,32S40,17.5,32,17.5z M32,43.5c-6.3,0-11.5-5.2-11.5-11.5
		S25.7,20.5,32,20.5S43.5,25.7,43.5,32S38.3,43.5,32,43.5z"/>
</g>
</svg>
