<?xml version="1.0" encoding="utf-8"?>
<!-- Generator: Adobe Illustrator 23.0.3, SVG Export Plug-In . SVG Version: 6.00 Build 0)  -->
<svg version="1.1" id="Layer_1" xmlns="http://www.w3.org/2000/svg" xmlns:xlink="http://www.w3.org/1999/xlink" x="0px" y="0px"
	 viewBox="0 0 64 64" style="enable-background:new 0 0 64 64;" xml:space="preserve">
<style type="text/css">
	.st0{fill:none;stroke:#000000;stroke-width:3;stroke-miterlimit:10;}
	.st1{fill:none;}
</style>
<path class="st0" d="M36.5,83.5"/>
<g>
	<circle class="st1" cx="32" cy="32" r="13"/>
	<path d="M60.82,40.56c0.76-2.63,1.17-5.41,1.18-8.29l-5.1-2.21c-0.08-1-0.2-1.98-0.4-2.94l4.26-3.56c-0.8-2.72-1.98-5.28-3.47-7.61
		l-5.49,0.91c-0.6-0.78-1.23-1.53-1.91-2.24l1.67-5.32c-2.1-1.82-4.46-3.35-7-4.53l-4.13,3.75c-0.92-0.33-1.85-0.61-2.81-0.84
		L36.17,2.3C34.8,2.11,33.41,2,32,2s-2.8,0.11-4.17,0.3l-1.45,5.39c-0.96,0.22-1.9,0.51-2.81,0.84l-4.13-3.75
		c-2.55,1.18-4.9,2.71-7,4.53l1.67,5.32c-0.68,0.7-1.32,1.46-1.91,2.24l-5.49-0.91c-1.49,2.34-2.66,4.89-3.47,7.61l4.26,3.56
		c-0.19,0.96-0.32,1.94-0.4,2.94L2,32.27c0.01,2.88,0.43,5.65,1.18,8.29l5.52,0.68c0.36,0.93,0.75,1.83,1.21,2.7l-3.09,4.62
		c1.52,2.36,3.36,4.49,5.46,6.33l5.01-2.43c0.79,0.58,1.61,1.12,2.46,1.61l-0.12,5.58c2.5,1.14,5.18,1.95,7.99,2.36l2.91-4.78
		c0.49,0.03,0.97,0.07,1.46,0.07s0.97-0.05,1.46-0.07L36.38,62c2.81-0.41,5.49-1.22,7.99-2.36l-0.12-5.58
		c0.86-0.49,1.67-1.03,2.46-1.61l5.01,2.43c2.1-1.84,3.94-3.97,5.46-6.33l-3.09-4.62c0.46-0.87,0.85-1.77,1.21-2.7L60.82,40.56z
		 M32,45c-7.18,0-13-5.82-13-13s5.82-13,13-13s13,5.82,13,13S39.18,45,32,45z"/>
</g>
</svg>
