<svg id="Layer_1" data-name="Layer 1" xmlns="http://www.w3.org/2000/svg" viewBox="0 0 59 58"><defs><style>.cls-1{fill:none;}</style></defs><title>compare</title><polygon class="cls-1" points="55.77 27.5 46.5 11.49 37.23 27.5 55.77 27.5"/><polygon class="cls-1" points="21.77 35.5 12.5 19.5 3.23 35.5 21.77 35.5"/><path d="M15,50.5A12.5,12.5,0,0,0,27.49,38.12V38h0a1.44,1.44,0,0,0-.19-.75l-11-19-.05-.07a1.13,1.13,0,0,0-.1-.13l-.09-.11-.11-.1-.13-.09-.07-.05-.05,0a.59.59,0,0,0-.14-.06l-.13-.05-.15,0-.13,0h-.29l-.16,0-.12,0-.15.06-.13.06-.05,0-.07.05-.13.09-.11.1-.09.11a1.13,1.13,0,0,0-.1.13l-.05.07-11,19a1.44,1.44,0,0,0-.19.75h0v.12A12.5,12.5,0,0,0,15,50.5ZM15,22l9.27,16H5.73Z" transform="translate(-2.5 -2.5)"/><path d="M61.5,30.08V30h0a1.44,1.44,0,0,0-.19-.75l-11-19,0-.06a.71.71,0,0,0-.1-.14l-.09-.1L50,9.84l-.13-.09-.07-.05,0,0-.14-.06-.13,0-.14,0-.15,0h-.28l-.15,0-.14,0-.13,0a.59.59,0,0,0-.14.06l0,0-.07.05-.13.09-.11.11-.09.1a.71.71,0,0,0-.1.14l0,.06-11,19a1.44,1.44,0,0,0-.19.75h0v.12a12.49,12.49,0,0,0,25,0ZM49,14l9.27,16H39.73Z" transform="translate(-2.5 -2.5)"/><path d="M56,57.5H44.24L33.5,53.92V10a1.12,1.12,0,0,0,0-.32l16.9-4.22a1.5,1.5,0,0,0-.72-2.92l-36,9a1.5,1.5,0,0,0,.36,3,1.47,1.47,0,0,0,.36,0l16.14-4v43.5L19.76,57.5H8a1.5,1.5,0,0,0,0,3H56a1.5,1.5,0,0,0,0-3Z" transform="translate(-2.5 -2.5)"/></svg>