<?xml version="1.0" encoding="utf-8"?>
<!-- Generator: Adobe Illustrator 23.0.4, SVG Export Plug-In . SVG Version: 6.00 Build 0)  -->
<svg version="1.1" id="Layer_1" xmlns="http://www.w3.org/2000/svg" xmlns:xlink="http://www.w3.org/1999/xlink" x="0px" y="0px"
	 viewBox="0 0 64 64" style="enable-background:new 0 0 64 64;" xml:space="preserve">
<g>
	<path d="M62.42,27.15c-0.36-0.28-0.84-0.38-1.29-0.27l-12.12,3.08l-0.29-2.61c-0.05-0.45-0.3-0.84-0.67-1.09
		c-0.38-0.24-0.84-0.31-1.27-0.17L34.03,30.1l-0.31-2.75c-0.05-0.44-0.3-0.84-0.67-1.09c-0.38-0.24-0.84-0.31-1.27-0.17l-12.55,3.95
		l-0.06-15.15c0-0.82-0.67-1.49-1.49-1.49L2.51,13.32c-0.36-0.01-0.78,0.15-1.07,0.44C1.16,14.04,1,14.42,1,14.82V61.5
		C1,62.33,1.67,63,2.5,63h59c0.83,0,1.5-0.67,1.5-1.5V28.34C63,27.87,62.79,27.44,62.42,27.15z M45.55,43.12h6.84
		c0.27,0,0.5,0.23,0.5,0.5v5.85c0,0.27-0.23,0.5-0.5,0.5h-6.84c-0.27,0-0.5-0.23-0.5-0.5v-5.85C45.05,43.35,45.28,43.12,45.55,43.12
		z M28.05,49.47v-5.85c0-0.27,0.23-0.5,0.5-0.5h6.84c0.27,0,0.5,0.23,0.5,0.5v5.85c0,0.27-0.23,0.5-0.5,0.5h-6.84
		C28.28,49.97,28.05,49.74,28.05,49.47z M11.05,49.47v-5.85c0-0.27,0.23-0.5,0.5-0.5h6.84c0.27,0,0.5,0.23,0.5,0.5v5.85
		c0,0.27-0.23,0.5-0.5,0.5h-6.84C11.28,49.97,11.05,49.74,11.05,49.47z"/>
	<path d="M12.15,11.8c0.29,0.29,0.68,0.44,1.06,0.44s0.77-0.15,1.06-0.44l3.58-3.58c0.59-0.59,0.59-1.54,0-2.12s-1.54-0.59-2.12,0
		l-3.58,3.58C11.56,10.26,11.56,11.21,12.15,11.8z"/>
	<path d="M6.21,11.83c0.39,0,0.78-0.15,1.08-0.46l7.82-8.06c0.58-0.6,0.56-1.54-0.03-2.12s-1.54-0.56-2.12,0.03L5.13,9.28
		c-0.58,0.6-0.56,1.54,0.03,2.12C5.45,11.69,5.83,11.83,6.21,11.83z"/>
</g>
</svg>
