<?xml version="1.0" encoding="utf-8"?>
<!-- Generator: Adobe Illustrator 23.0.4, SVG Export Plug-In . SVG Version: 6.00 Build 0)  -->
<svg version="1.1" id="Layer_1" xmlns="http://www.w3.org/2000/svg" xmlns:xlink="http://www.w3.org/1999/xlink" x="0px" y="0px"
	 viewBox="0 0 64 64" style="enable-background:new 0 0 64 64;" xml:space="preserve">
<g>
	<path d="M18,58.5H4.5v-53H18c0.83,0,1.5-0.67,1.5-1.5S18.83,2.5,18,2.5H3C2.17,2.5,1.5,3.17,1.5,4v56c0,0.83,0.67,1.5,1.5,1.5h15
		c0.83,0,1.5-0.67,1.5-1.5S18.83,58.5,18,58.5z"/>
	<path d="M61,2.5H46c-0.83,0-1.5,0.67-1.5,1.5s0.67,1.5,1.5,1.5h13.5v53H46c-0.83,0-1.5,0.67-1.5,1.5s0.67,1.5,1.5,1.5h15
		c0.83,0,1.5-0.67,1.5-1.5V4C62.5,3.17,61.83,2.5,61,2.5z"/>
	<path d="M50,16.5H14c-0.83,0-1.5,0.67-1.5,1.5s0.67,1.5,1.5,1.5h36c0.83,0,1.5-0.67,1.5-1.5S50.83,16.5,50,16.5z"/>
	<path d="M50,44.5H14c-0.83,0-1.5,0.67-1.5,1.5s0.67,1.5,1.5,1.5h36c0.83,0,1.5-0.67,1.5-1.5S50.83,44.5,50,44.5z"/>
	<path d="M50,30.5H14c-0.83,0-1.5,0.67-1.5,1.5s0.67,1.5,1.5,1.5h36c0.83,0,1.5-0.67,1.5-1.5S50.83,30.5,50,30.5z"/>
</g>
</svg>
