<?xml version="1.0" encoding="utf-8"?>
<!-- Generator: Adobe Illustrator 24.3.0, SVG Export Plug-In . SVG Version: 6.00 Build 0)  -->
<svg version="1.1" id="Layer_1" xmlns="http://www.w3.org/2000/svg" xmlns:xlink="http://www.w3.org/1999/xlink" x="0px" y="0px"
	 viewBox="0 0 64 64" style="enable-background:new 0 0 64 64;" xml:space="preserve">
<g>
	<path d="M31.84,37.35c-1.97,0-3.88,0.29-5.7,0.82c-1.98-0.72-4.04-1.09-6.15-1.09c-10.69,0-19.39,9.53-19.39,21.25
		c0,0.83,0.67,1.5,1.5,1.5h7.77c-0.03,0.55-0.06,1.11-0.06,1.67c0,0.83,0.67,1.5,1.5,1.5h41.04c0.83,0,1.5-0.67,1.5-1.5
		C53.86,48.18,43.99,37.35,31.84,37.35z M3.68,56.83C4.37,47.47,11.42,40.08,20,40.08c0.52,0,1.03,0.03,1.54,0.09
		c-5.76,3.36-10,9.44-11.3,16.66H3.68z"/>
	<path d="M20,34.96c2.21,0,4.34-0.89,6.03-2.46c1.67,1.24,3.67,1.97,5.82,1.97c5.86,0,10.62-5.38,10.62-11.99
		c0-0.83-0.67-1.5-1.5-1.5h-7.6l0.13-8.96c0.01-0.83-0.65-1.51-1.48-1.52c-0.03,0-0.05,0.01-0.08,0.01c-0.03,0-0.07-0.01-0.1-0.01
		c-3.18,0-6.04,1.6-7.98,4.11C22.65,14,21.34,13.67,20,13.67c-5.21,0-9.45,4.77-9.45,10.64S14.79,34.96,20,34.96z M20,16.67
		c0.8,0,1.59,0.18,2.33,0.53c-0.7,1.6-1.1,3.39-1.1,5.29c0,3.03,1.01,5.8,2.66,7.91c-1.12,1.01-2.46,1.56-3.89,1.56
		c-3.56,0-6.45-3.43-6.45-7.64S16.44,16.67,20,16.67z"/>
	<path d="M60,11h-7.5V4.5c0-1.66-1.34-3-3-3s-3,1.34-3,3V11H39c-1.66,0-3,1.34-3,3s1.34,3,3,3h7.5v8.5c0,1.66,1.34,3,3,3s3-1.34,3-3
		V17H60c1.66,0,3-1.34,3-3S61.66,11,60,11z"/>
</g>
</svg>
