<?xml version="1.0" encoding="utf-8"?>
<!-- Generator: Adobe Illustrator 23.0.4, SVG Export Plug-In . SVG Version: 6.00 Build 0)  -->
<svg version="1.1" id="Layer_1" xmlns="http://www.w3.org/2000/svg" xmlns:xlink="http://www.w3.org/1999/xlink" x="0px" y="0px"
	 viewBox="0 0 64 64" style="enable-background:new 0 0 64 64;" xml:space="preserve">
<g>
	<path d="M37.25,33.23c-2.33,0-4.59,0.35-6.74,0.99c-2.33-0.87-4.78-1.31-7.26-1.31c-12.48,0-22.64,11.14-22.64,24.84
		c0,0.83,0.67,1.5,1.5,1.5h9.48c-0.05,0.74-0.09,1.49-0.09,2.25c0,0.83,0.67,1.5,1.5,1.5h48.5c0.83,0,1.5-0.67,1.5-1.5
		C63,45.91,51.45,33.23,37.25,33.23z M3.66,56.25c0.7-11.34,9.21-20.34,19.59-20.34c0.9,0,1.78,0.08,2.66,0.21
		c-7.15,3.87-12.44,11.27-13.96,20.12H3.66z"/>
	<path d="M23.25,29.86c2.61,0,5.14-1.07,7.11-2.98c1.97,1.52,4.34,2.41,6.89,2.41c6.77,0,12.28-6.23,12.28-13.89
		S44.02,1.5,37.25,1.5c-3.75,0-7.12,1.92-9.37,4.94c-1.44-0.77-3.02-1.19-4.63-1.19c-6.01,0-10.9,5.52-10.9,12.31
		S17.24,29.86,23.25,29.86z M23.25,8.25c1.07,0,2.13,0.27,3.11,0.76c-0.88,1.91-1.38,4.08-1.38,6.38c0,3.62,1.24,6.91,3.25,9.38
		c-1.4,1.35-3.14,2.09-4.97,2.09c-4.35,0-7.9-4.17-7.9-9.31S18.9,8.25,23.25,8.25z"/>
</g>
</svg>
