<?xml version="1.0" encoding="utf-8"?>
<!-- Generator: Adobe Illustrator 23.0.4, SVG Export Plug-In . SVG Version: 6.00 Build 0)  -->
<svg version="1.1" id="Layer_1" xmlns="http://www.w3.org/2000/svg" xmlns:xlink="http://www.w3.org/1999/xlink" x="0px" y="0px"
	 viewBox="0 0 64 64" style="enable-background:new 0 0 64 64;" xml:space="preserve">
<style type="text/css">
	.st0{fill:none;}
</style>
<g>
	<path class="st0" d="M16.28,31.94H9.72c-0.55,0-1,0.45-1,1v4.44c0,0.55,0.45,1,1,1h6.56c0.55,0,1-0.45,1-1v-4.44
		C17.28,32.39,16.83,31.94,16.28,31.94z"/>
	<path class="st0" d="M60.06,20.06V18c0-1.93-1.57-3.5-3.5-3.5H7.44c-1.93,0-3.5,1.57-3.5,3.5v2.06H60.06z"/>
	<path class="st0" d="M3.94,27.06V46c0,1.93,1.57,3.5,3.5,3.5h49.11c1.93,0,3.5-1.57,3.5-3.5V27.06H3.94z M19.28,37.39
		c0,1.65-1.35,3-3,3H9.72c-1.65,0-3-1.35-3-3v-4.44c0-1.65,1.35-3,3-3h6.56c1.65,0,3,1.35,3,3V37.39z"/>
	<path d="M56.56,11.5H7.44c-3.58,0-6.5,2.92-6.5,6.5v28c0,3.58,2.92,6.5,6.5,6.5h49.11c3.58,0,6.5-2.92,6.5-6.5V18
		C63.06,14.42,60.14,11.5,56.56,11.5z M7.44,14.5h49.11c1.93,0,3.5,1.57,3.5,3.5v2.06H3.94V18C3.94,16.07,5.51,14.5,7.44,14.5z
		 M56.56,49.5H7.44c-1.93,0-3.5-1.57-3.5-3.5V27.06h56.11V46C60.06,47.93,58.49,49.5,56.56,49.5z"/>
	<path d="M16.28,29.94H9.72c-1.65,0-3,1.35-3,3v4.44c0,1.65,1.35,3,3,3h6.56c1.65,0,3-1.35,3-3v-4.44
		C19.28,31.29,17.93,29.94,16.28,29.94z M17.28,37.39c0,0.55-0.45,1-1,1H9.72c-0.55,0-1-0.45-1-1v-4.44c0-0.55,0.45-1,1-1h6.56
		c0.55,0,1,0.45,1,1V37.39z"/>
</g>
</svg>
