<?xml version="1.0" encoding="utf-8"?>
<!-- Generator: Adobe Illustrator 23.0.4, SVG Export Plug-In . SVG Version: 6.00 Build 0)  -->
<svg version="1.1" id="Layer_1" xmlns="http://www.w3.org/2000/svg" xmlns:xlink="http://www.w3.org/1999/xlink" x="0px" y="0px"
	 viewBox="0 0 64 64" style="enable-background:new 0 0 64 64;" xml:space="preserve">
<g>
	<path d="M32,7.5C14.63,7.5,0.5,21.63,0.5,39c0,5.54,1.46,10.98,4.22,15.75c0.41,0.72,1.33,0.96,2.05,0.55
		c0.72-0.42,0.96-1.33,0.55-2.05C4.82,48.94,3.5,44.01,3.5,39c0-15.71,12.79-28.5,28.5-28.5S60.5,23.29,60.5,39
		c0,5.01-1.32,9.94-3.81,14.25c-0.41,0.72-0.17,1.63,0.55,2.05c0.24,0.14,0.49,0.2,0.75,0.2c0.52,0,1.02-0.27,1.3-0.75
		C62.04,49.98,63.5,44.54,63.5,39C63.5,21.63,49.37,7.5,32,7.5z"/>
	<path d="M32,11.5c-0.83,0-1.5,0.67-1.5,1.5v2c0,0.83,0.67,1.5,1.5,1.5s1.5-0.67,1.5-1.5v-2C33.5,12.17,32.83,11.5,32,11.5z"/>
	<path d="M7,40.5h2c0.83,0,1.5-0.67,1.5-1.5S9.83,37.5,9,37.5H7c-0.83,0-1.5,0.67-1.5,1.5S6.17,40.5,7,40.5z"/>
	<path d="M55,37.5c-0.83,0-1.5,0.67-1.5,1.5s0.67,1.5,1.5,1.5h2c0.83,0,1.5-0.67,1.5-1.5s-0.67-1.5-1.5-1.5H55z"/>
	<path d="M11.43,29.15c0.19,0.08,0.38,0.11,0.57,0.11c0.59,0,1.15-0.35,1.39-0.93c0.32-0.77-0.05-1.64-0.81-1.96l-1.85-0.77
		c-0.76-0.32-1.64,0.05-1.96,0.81s0.05,1.64,0.81,1.96L11.43,29.15z"/>
	<path d="M19.78,19.88c0.38,0,0.77-0.15,1.06-0.44c0.59-0.59,0.59-1.54,0-2.12l-1.41-1.41c-0.59-0.59-1.54-0.59-2.12,0
		c-0.59,0.59-0.59,1.54,0,2.12l1.41,1.41C19.02,19.74,19.4,19.88,19.78,19.88z"/>
	<path d="M44.72,20.15l1.41-1.41c0.59-0.59,0.59-1.54,0-2.12c-0.59-0.59-1.54-0.59-2.12,0l-1.41,1.41c-0.59,0.59-0.59,1.54,0,2.12
		c0.29,0.29,0.68,0.44,1.06,0.44S44.43,20.44,44.72,20.15z"/>
	<path d="M52.15,29.27c0.19,0,0.39-0.04,0.57-0.11l1.85-0.77c0.76-0.32,1.13-1.19,0.81-1.96c-0.32-0.77-1.19-1.13-1.96-0.81
		l-1.85,0.77c-0.76,0.32-1.13,1.19-0.81,1.96C51.01,28.92,51.56,29.27,52.15,29.27z"/>
	<path d="M11.43,48.61l-1.85,0.77c-0.77,0.32-1.13,1.19-0.81,1.96c0.24,0.58,0.8,0.93,1.39,0.93c0.19,0,0.39-0.04,0.57-0.11
		l1.85-0.77c0.77-0.32,1.13-1.19,0.81-1.96C13.07,48.66,12.19,48.29,11.43,48.61z"/>
	<path d="M54.57,49.38l-1.85-0.77c-0.77-0.32-1.64,0.05-1.96,0.81c-0.32,0.77,0.05,1.64,0.81,1.96l1.85,0.77
		c0.19,0.08,0.38,0.11,0.57,0.11c0.59,0,1.15-0.35,1.39-0.93C55.7,50.57,55.34,49.7,54.57,49.38z"/>
	<path d="M20.79,26.08c-0.62-0.55-1.57-0.49-2.12,0.13c-0.55,0.62-0.49,1.57,0.13,2.12l12.21,10.79c0.29,0.25,0.64,0.38,0.99,0.38
		c0.41,0,0.83-0.17,1.12-0.51c0.55-0.62,0.49-1.57-0.13-2.12L20.79,26.08z"/>
</g>
</svg>
