<?xml version="1.0" encoding="utf-8"?>
<!-- Generator: Adobe Illustrator 23.0.4, SVG Export Plug-In . SVG Version: 6.00 Build 0)  -->
<svg version="1.1" id="Layer_3" xmlns="http://www.w3.org/2000/svg" xmlns:xlink="http://www.w3.org/1999/xlink" x="0px" y="0px"
	 viewBox="0 0 64 64" style="enable-background:new 0 0 64 64;" xml:space="preserve">
<g>
	<path d="M61.5,16.5v-6.11c0-3.03-2.47-5.5-5.5-5.5h-8.5V3c0-0.83-0.67-1.5-1.5-1.5S44.5,2.17,44.5,3v1.89h-25V3
		c0-0.83-0.67-1.5-1.5-1.5S16.5,2.17,16.5,3v1.89H8c-3.03,0-5.5,2.47-5.5,5.5v6.11V56c0,3.03,2.47,5.5,5.5,5.5h48
		c3.03,0,5.5-2.47,5.5-5.5V16.5z M28.5,43.5h7v8h-7V43.5z M35.5,34.5h-7v-8h7V34.5z M19.5,43.5v8h-7v-8H19.5z M19.5,34.5h-7v-8h7
		V34.5z M44.5,26.5h7v8h-7V26.5z M8,7.89h48c1.38,0,2.5,1.12,2.5,2.5v6.11h-53v-6.11C5.5,9.01,6.62,7.89,8,7.89z"/>
	<path d="M20,13.5h13c0.83,0,1.5-0.67,1.5-1.5s-0.67-1.5-1.5-1.5H20c-0.83,0-1.5,0.67-1.5,1.5S19.17,13.5,20,13.5z"/>
	<path d="M39,13.5h5c0.83,0,1.5-0.67,1.5-1.5s-0.67-1.5-1.5-1.5h-5c-0.83,0-1.5,0.67-1.5,1.5S38.17,13.5,39,13.5z"/>
</g>
</svg>
