<?xml version="1.0" encoding="utf-8"?>
<!-- Generator: Adobe Illustrator 24.2.1, SVG Export Plug-In . SVG Version: 6.00 Build 0)  -->
<svg version="1.1" id="Layer_1" xmlns="http://www.w3.org/2000/svg" xmlns:xlink="http://www.w3.org/1999/xlink" x="0px" y="0px"
	 viewBox="0 0 64 64" style="enable-background:new 0 0 64 64;" xml:space="preserve">
<g>
	<path d="M12,58.5H4.5V52c0-0.83-0.67-1.5-1.5-1.5S1.5,51.17,1.5,52v8c0,0.83,0.67,1.5,1.5,1.5h9c0.83,0,1.5-0.67,1.5-1.5
		S12.83,58.5,12,58.5z"/>
	<path d="M61,50.5c-0.83,0-1.5,0.67-1.5,1.5v6.5H52c-0.83,0-1.5,0.67-1.5,1.5s0.67,1.5,1.5,1.5h9c0.83,0,1.5-0.67,1.5-1.5v-8
		C62.5,51.17,61.83,50.5,61,50.5z"/>
	<path d="M61,2.5h-9h-8h-8h-8h-8h-8H3C2.17,2.5,1.5,3.17,1.5,4v8v8v8v4c0,0.83,0.67,1.5,1.5,1.5h58c0.83,0,1.5-0.67,1.5-1.5v-4v-8
		v-8V4C62.5,3.17,61.83,2.5,61,2.5z M4.5,28v-8v-8v-0.5h55V12v8v8v2.5h-55V28z M20,5.5h8h8h8h8h7.5v3h-55v-3H12H20z"/>
	<path d="M61,34.5c-0.83,0-1.5,0.67-1.5,1.5v8c0,0.83,0.67,1.5,1.5,1.5s1.5-0.67,1.5-1.5v-8C62.5,35.17,61.83,34.5,61,34.5z"/>
	<path d="M3,45.5c0.83,0,1.5-0.67,1.5-1.5v-8c0-0.83-0.67-1.5-1.5-1.5S1.5,35.17,1.5,36v8C1.5,44.83,2.17,45.5,3,45.5z"/>
	<path d="M44,58.5h-8c-0.83,0-1.5,0.67-1.5,1.5s0.67,1.5,1.5,1.5h8c0.83,0,1.5-0.67,1.5-1.5S44.83,58.5,44,58.5z"/>
	<path d="M28,58.5h-8c-0.83,0-1.5,0.67-1.5,1.5s0.67,1.5,1.5,1.5h8c0.83,0,1.5-0.67,1.5-1.5S28.83,58.5,28,58.5z"/>
</g>
</svg>
