<?xml version="1.0" encoding="utf-8"?>
<!-- Generator: Adobe Illustrator 24.2.1, SVG Export Plug-In . SVG Version: 6.00 Build 0)  -->
<svg version="1.1" id="Layer_1" xmlns="http://www.w3.org/2000/svg" xmlns:xlink="http://www.w3.org/1999/xlink" x="0px" y="0px"
	 viewBox="0 0 64 64" style="enable-background:new 0 0 64 64;" xml:space="preserve">
<style type="text/css">
	.st0{fill:none;}
</style>
<g>
	<polygon class="st0" points="4.5,44 4.5,52 4.5,58.5 12,58.5 20,58.5 28,58.5 30.5,58.5 30.5,39.5 4.5,39.5 	"/>
	<polygon class="st0" points="4.5,36 4.5,36.5 30.5,36.5 30.5,33.5 4.5,33.5 	"/>
	<path d="M4.5,4v1.5H12c0.83,0,1.5-0.67,1.5-1.5S12.83,2.5,12,2.5H3C3.83,2.5,4.5,3.17,4.5,4z"/>
	<path d="M3,13.5c0.83,0,1.5-0.67,1.5-1.5V5.5H3C2.17,5.5,1.5,4.83,1.5,4v8C1.5,12.83,2.17,13.5,3,13.5z"/>
	<path d="M3,5.5h1.5V4c0-0.83-0.67-1.5-1.5-1.5S1.5,3.17,1.5,4S2.17,5.5,3,5.5z"/>
	<path d="M59.5,60v-1.5H52c-0.83,0-1.5,0.67-1.5,1.5s0.67,1.5,1.5,1.5h9C60.17,61.5,59.5,60.83,59.5,60z"/>
	<path d="M61,2.5h-9c-0.83,0-1.5,0.67-1.5,1.5s0.67,1.5,1.5,1.5h7.5V4C59.5,3.17,60.17,2.5,61,2.5z"/>
	<path d="M4.5,32v1.5h26V32c0-0.83,0.67-1.5,1.5-1.5H3C3.83,30.5,4.5,31.17,4.5,32z"/>
	<path d="M30.5,60v-1.5H28c0.83,0,1.5,0.67,1.5,1.5s-0.67,1.5-1.5,1.5h4C31.17,61.5,30.5,60.83,30.5,60z"/>
	<path d="M18.5,60c0-0.83,0.67-1.5,1.5-1.5h-8c0.83,0,1.5,0.67,1.5,1.5s-0.67,1.5-1.5,1.5h8C19.17,61.5,18.5,60.83,18.5,60z"/>
	<path d="M13.5,60c0-0.83-0.67-1.5-1.5-1.5H4.5V60c0,0.83-0.67,1.5-1.5,1.5h9C12.83,61.5,13.5,60.83,13.5,60z"/>
	<path d="M61,50.5c-0.83,0-1.5,0.67-1.5,1.5v6.5H61c0.83,0,1.5,0.67,1.5,1.5v-8C62.5,51.17,61.83,50.5,61,50.5z"/>
	<path d="M61,58.5h-1.5V60c0,0.83,0.67,1.5,1.5,1.5s1.5-0.67,1.5-1.5S61.83,58.5,61,58.5z"/>
	<path d="M61,5.5h-1.5V12c0,0.83,0.67,1.5,1.5,1.5s1.5-0.67,1.5-1.5V4C62.5,4.83,61.83,5.5,61,5.5z"/>
	<path d="M62.5,4c0-0.83-0.67-1.5-1.5-1.5S59.5,3.17,59.5,4v1.5H61C61.83,5.5,62.5,4.83,62.5,4z"/>
	<path d="M3,50.5c0.83,0,1.5,0.67,1.5,1.5v-8c0,0.83-0.67,1.5-1.5,1.5S1.5,44.83,1.5,44v8C1.5,51.17,2.17,50.5,3,50.5z"/>
	<path d="M3,34.5c0.83,0,1.5,0.67,1.5,1.5v-2.5H3c-0.83,0-1.5-0.67-1.5-1.5v4C1.5,35.17,2.17,34.5,3,34.5z"/>
	<path d="M3,33.5h1.5V32c0-0.83-0.67-1.5-1.5-1.5S1.5,31.17,1.5,32S2.17,33.5,3,33.5z"/>
	<path d="M3,58.5h1.5V52c0-0.83-0.67-1.5-1.5-1.5S1.5,51.17,1.5,52v8C1.5,59.17,2.17,58.5,3,58.5z"/>
	<path d="M4.5,60v-1.5H3c-0.83,0-1.5,0.67-1.5,1.5s0.67,1.5,1.5,1.5S4.5,60.83,4.5,60z"/>
	<path d="M32,33.5h-1.5v3H32c0.83,0,1.5,0.67,1.5,1.5v-6C33.5,32.83,32.83,33.5,32,33.5z"/>
	<path d="M32,39.5h-1.5v19H32c0.83,0,1.5,0.67,1.5,1.5V38C33.5,38.83,32.83,39.5,32,39.5z"/>
	<path d="M32,30.5c-0.83,0-1.5,0.67-1.5,1.5v1.5H32c0.83,0,1.5-0.67,1.5-1.5S32.83,30.5,32,30.5z"/>
	<path d="M32,58.5h-1.5V60c0,0.83,0.67,1.5,1.5,1.5s1.5-0.67,1.5-1.5S32.83,58.5,32,58.5z"/>
	<rect x="4.5" y="36.5" width="26" height="3"/>
	<path d="M32,36.5h-1.5v3H32c0.83,0,1.5-0.67,1.5-1.5S32.83,36.5,32,36.5z"/>
	<path d="M20,5.5h8c0.83,0,1.5-0.67,1.5-1.5S28.83,2.5,28,2.5h-8c-0.83,0-1.5,0.67-1.5,1.5S19.17,5.5,20,5.5z"/>
	<path d="M44,2.5h-8c-0.83,0-1.5,0.67-1.5,1.5s0.67,1.5,1.5,1.5h8c0.83,0,1.5-0.67,1.5-1.5S44.83,2.5,44,2.5z"/>
	<path d="M61,18.5c-0.83,0-1.5,0.67-1.5,1.5v8c0,0.83,0.67,1.5,1.5,1.5s1.5-0.67,1.5-1.5v-8C62.5,19.17,61.83,18.5,61,18.5z"/>
	<path d="M61,34.5c-0.83,0-1.5,0.67-1.5,1.5v8c0,0.83,0.67,1.5,1.5,1.5s1.5-0.67,1.5-1.5v-8C62.5,35.17,61.83,34.5,61,34.5z"/>
	<path d="M3,45.5c0.83,0,1.5-0.67,1.5-1.5v-4.5H3c-0.83,0-1.5-0.67-1.5-1.5v6C1.5,44.83,2.17,45.5,3,45.5z"/>
	<path d="M3,36.5h1.5V36c0-0.83-0.67-1.5-1.5-1.5S1.5,35.17,1.5,36v2C1.5,37.17,2.17,36.5,3,36.5z"/>
	<path d="M3,39.5h1.5v-3H3c-0.83,0-1.5,0.67-1.5,1.5S2.17,39.5,3,39.5z"/>
	<path d="M3,29.5c0.83,0,1.5-0.67,1.5-1.5v-8c0-0.83-0.67-1.5-1.5-1.5S1.5,19.17,1.5,20v8C1.5,28.83,2.17,29.5,3,29.5z"/>
	<path d="M44,58.5h-8c-0.83,0-1.5,0.67-1.5,1.5s0.67,1.5,1.5,1.5h8c0.83,0,1.5-0.67,1.5-1.5S44.83,58.5,44,58.5z"/>
	<path d="M29.5,60c0-0.83-0.67-1.5-1.5-1.5h-8c-0.83,0-1.5,0.67-1.5,1.5s0.67,1.5,1.5,1.5h8C28.83,61.5,29.5,60.83,29.5,60z"/>
</g>
</svg>
