<?xml version="1.0" encoding="utf-8"?>
<!-- Generator: Adobe Illustrator 24.2.1, SVG Export Plug-In . SVG Version: 6.00 Build 0)  -->
<svg version="1.1" id="Layer_1" xmlns="http://www.w3.org/2000/svg" xmlns:xlink="http://www.w3.org/1999/xlink" x="0px" y="0px"
	 viewBox="0 0 64 64" style="enable-background:new 0 0 64 64;" xml:space="preserve">
<style type="text/css">
	.st0{fill:none;}
</style>
<g>
	<polygon class="st0" points="44,5.5 36,5.5 33.5,5.5 33.5,8.5 59.5,8.5 59.5,5.5 52,5.5 	"/>
	<polygon class="st0" points="33.5,58.5 36,58.5 44,58.5 52,58.5 59.5,58.5 59.5,52 59.5,44 59.5,36 59.5,28 59.5,20 59.5,12 
		59.5,11.5 33.5,11.5 	"/>
	<path d="M12,2.5H3c0.83,0,1.5,0.67,1.5,1.5v1.5H12c0.83,0,1.5-0.67,1.5-1.5S12.83,2.5,12,2.5z"/>
	<path d="M12,58.5H4.5V60c0,0.83-0.67,1.5-1.5,1.5h9c0.83,0,1.5-0.67,1.5-1.5S12.83,58.5,12,58.5z"/>
	<path d="M1.5,4v8c0,0.83,0.67,1.5,1.5,1.5s1.5-0.67,1.5-1.5V5.5H3C2.17,5.5,1.5,4.83,1.5,4z"/>
	<path d="M3,2.5C2.17,2.5,1.5,3.17,1.5,4S2.17,5.5,3,5.5h1.5V4C4.5,3.17,3.83,2.5,3,2.5z"/>
	<path d="M33.5,4v1.5H36c-0.83,0-1.5-0.67-1.5-1.5s0.67-1.5,1.5-1.5h-4C32.83,2.5,33.5,3.17,33.5,4z"/>
	<path d="M45.5,4c0,0.83-0.67,1.5-1.5,1.5h8c-0.83,0-1.5-0.67-1.5-1.5s0.67-1.5,1.5-1.5h-8C44.83,2.5,45.5,3.17,45.5,4z"/>
	<path d="M50.5,4c0,0.83,0.67,1.5,1.5,1.5h7.5V4c0-0.83,0.67-1.5,1.5-1.5h-9C51.17,2.5,50.5,3.17,50.5,4z"/>
	<path d="M50.5,60c0-0.83,0.67-1.5,1.5-1.5h-8c0.83,0,1.5,0.67,1.5,1.5s-0.67,1.5-1.5,1.5h8C51.17,61.5,50.5,60.83,50.5,60z"/>
	<path d="M34.5,60c0-0.83,0.67-1.5,1.5-1.5h-2.5V60c0,0.83-0.67,1.5-1.5,1.5h4C35.17,61.5,34.5,60.83,34.5,60z"/>
	<path d="M59.5,60v-1.5H52c-0.83,0-1.5,0.67-1.5,1.5s0.67,1.5,1.5,1.5h9C60.17,61.5,59.5,60.83,59.5,60z"/>
	<path d="M3,58.5h1.5V52c0-0.83-0.67-1.5-1.5-1.5S1.5,51.17,1.5,52v8C1.5,59.17,2.17,58.5,3,58.5z"/>
	<path d="M4.5,60v-1.5H3c-0.83,0-1.5,0.67-1.5,1.5s0.67,1.5,1.5,1.5S4.5,60.83,4.5,60z"/>
	<path d="M32,8.5h1.5v-3H32c-0.83,0-1.5-0.67-1.5-1.5v6C30.5,9.17,31.17,8.5,32,8.5z"/>
	<path d="M32,58.5h1.5v-47H32c-0.83,0-1.5-0.67-1.5-1.5v50C30.5,59.17,31.17,58.5,32,58.5z"/>
	<path d="M32,5.5h1.5V4c0-0.83-0.67-1.5-1.5-1.5S30.5,3.17,30.5,4S31.17,5.5,32,5.5z"/>
	<path d="M33.5,60v-1.5H32c-0.83,0-1.5,0.67-1.5,1.5s0.67,1.5,1.5,1.5S33.5,60.83,33.5,60z"/>
	<path d="M61,13.5c-0.83,0-1.5-0.67-1.5-1.5v8c0-0.83,0.67-1.5,1.5-1.5s1.5,0.67,1.5,1.5v-8C62.5,12.83,61.83,13.5,61,13.5z"/>
	<path d="M61,45.5c-0.83,0-1.5-0.67-1.5-1.5v8c0-0.83,0.67-1.5,1.5-1.5s1.5,0.67,1.5,1.5v-8C62.5,44.83,61.83,45.5,61,45.5z"/>
	<path d="M61,29.5c-0.83,0-1.5-0.67-1.5-1.5v8c0-0.83,0.67-1.5,1.5-1.5s1.5,0.67,1.5,1.5v-8C62.5,28.83,61.83,29.5,61,29.5z"/>
	<path d="M61,50.5c-0.83,0-1.5,0.67-1.5,1.5v6.5H61c0.83,0,1.5,0.67,1.5,1.5v-8C62.5,51.17,61.83,50.5,61,50.5z"/>
	<path d="M61,58.5h-1.5V60c0,0.83,0.67,1.5,1.5,1.5s1.5-0.67,1.5-1.5S61.83,58.5,61,58.5z"/>
	<path d="M61,5.5h-1.5v3H61c0.83,0,1.5,0.67,1.5,1.5V4C62.5,4.83,61.83,5.5,61,5.5z"/>
	<path d="M61,11.5h-1.5V12c0,0.83,0.67,1.5,1.5,1.5s1.5-0.67,1.5-1.5v-2C62.5,10.83,61.83,11.5,61,11.5z"/>
	<path d="M59.5,4v1.5H61c0.83,0,1.5-0.67,1.5-1.5S61.83,2.5,61,2.5S59.5,3.17,59.5,4z"/>
	<rect x="33.5" y="8.5" width="26" height="3"/>
	<path d="M32,11.5h1.5v-3H32c-0.83,0-1.5,0.67-1.5,1.5S31.17,11.5,32,11.5z"/>
	<path d="M61,8.5h-1.5v3H61c0.83,0,1.5-0.67,1.5-1.5S61.83,8.5,61,8.5z"/>
	<path d="M28,2.5h-8c-0.83,0-1.5,0.67-1.5,1.5s0.67,1.5,1.5,1.5h8c0.83,0,1.5-0.67,1.5-1.5S28.83,2.5,28,2.5z"/>
	<path d="M34.5,4c0,0.83,0.67,1.5,1.5,1.5h8c0.83,0,1.5-0.67,1.5-1.5S44.83,2.5,44,2.5h-8C35.17,2.5,34.5,3.17,34.5,4z"/>
	<path d="M61,18.5c-0.83,0-1.5,0.67-1.5,1.5v8c0,0.83,0.67,1.5,1.5,1.5s1.5-0.67,1.5-1.5v-8C62.5,19.17,61.83,18.5,61,18.5z"/>
	<path d="M61,34.5c-0.83,0-1.5,0.67-1.5,1.5v8c0,0.83,0.67,1.5,1.5,1.5s1.5-0.67,1.5-1.5v-8C62.5,35.17,61.83,34.5,61,34.5z"/>
	<path d="M3,45.5c0.83,0,1.5-0.67,1.5-1.5v-8c0-0.83-0.67-1.5-1.5-1.5S1.5,35.17,1.5,36v8C1.5,44.83,2.17,45.5,3,45.5z"/>
	<path d="M3,29.5c0.83,0,1.5-0.67,1.5-1.5v-8c0-0.83-0.67-1.5-1.5-1.5S1.5,19.17,1.5,20v8C1.5,28.83,2.17,29.5,3,29.5z"/>
	<path d="M45.5,60c0-0.83-0.67-1.5-1.5-1.5h-8c-0.83,0-1.5,0.67-1.5,1.5s0.67,1.5,1.5,1.5h8C44.83,61.5,45.5,60.83,45.5,60z"/>
	<path d="M28,58.5h-8c-0.83,0-1.5,0.67-1.5,1.5s0.67,1.5,1.5,1.5h8c0.83,0,1.5-0.67,1.5-1.5S28.83,58.5,28,58.5z"/>
</g>
</svg>
