<?xml version="1.0" encoding="utf-8"?>
<!-- Generator: Adobe Illustrator 23.0.4, SVG Export Plug-In . SVG Version: 6.00 Build 0)  -->
<svg version="1.1" id="Layer_1" xmlns="http://www.w3.org/2000/svg" xmlns:xlink="http://www.w3.org/1999/xlink" x="0px" y="0px"
	 viewBox="0 0 64 64" style="enable-background:new 0 0 64 64;" xml:space="preserve">
<g>
	<path d="M60,38.5c-0.83,0-1.5,0.67-1.5,1.5v18.5h-53V40c0-0.83-0.67-1.5-1.5-1.5S2.5,39.17,2.5,40v20c0,0.83,0.67,1.5,1.5,1.5h56
		c0.83,0,1.5-0.67,1.5-1.5V40C61.5,39.17,60.83,38.5,60,38.5z"/>
	<path d="M30.5,45.38l-9.44-9.44c-0.59-0.59-1.54-0.59-2.12,0s-0.59,1.54,0,2.12l12,12c0.14,0.14,0.31,0.25,0.49,0.33
		c0.01,0,0.02,0,0.02,0.01c0.17,0.07,0.35,0.11,0.55,0.11s0.38-0.04,0.55-0.11c0.01,0,0.02,0,0.02-0.01
		c0.19-0.08,0.35-0.19,0.49-0.33l12-12c0.59-0.59,0.59-1.54,0-2.12s-1.54-0.59-2.12,0l-9.44,9.44V15c0-0.83-0.67-1.5-1.5-1.5
		s-1.5,0.67-1.5,1.5V45.38z"/>
</g>
</svg>
