<?xml version="1.0" encoding="utf-8"?>
<!-- Generator: Adobe Illustrator 23.0.4, SVG Export Plug-In . SVG Version: 6.00 Build 0)  -->
<svg version="1.1" id="Layer_1" xmlns="http://www.w3.org/2000/svg" xmlns:xlink="http://www.w3.org/1999/xlink" x="0px" y="0px"
	 viewBox="0 0 64 64" style="enable-background:new 0 0 64 64;" xml:space="preserve">
<style type="text/css">
	.st0{fill:none;}
</style>
<g>
	<polygon class="st0" points="43.23,7.74 43.23,19.89 55.38,19.89 	"/>
	<path class="st0" d="M57.5,22.89H41.73c-0.83,0-1.5-0.67-1.5-1.5V5.62H22.5v45.36h35V22.89z M26.18,12.12h10.36
		c0.83,0,1.5,0.67,1.5,1.5s-0.67,1.5-1.5,1.5H26.18c-0.83,0-1.5-0.67-1.5-1.5S25.35,12.12,26.18,12.12z M26.18,19.67h10.36
		c0.83,0,1.5,0.67,1.5,1.5s-0.67,1.5-1.5,1.5H26.18c-0.83,0-1.5-0.67-1.5-1.5S25.35,19.67,26.18,19.67z M26.18,27.23h27.64
		c0.83,0,1.5,0.67,1.5,1.5s-0.67,1.5-1.5,1.5H26.18c-0.83,0-1.5-0.67-1.5-1.5S25.35,27.23,26.18,27.23z M53.82,45.35H26.18
		c-0.83,0-1.5-0.67-1.5-1.5s0.67-1.5,1.5-1.5h27.64c0.83,0,1.5,0.67,1.5,1.5S54.65,45.35,53.82,45.35z M53.82,37.79H26.18
		c-0.83,0-1.5-0.67-1.5-1.5s0.67-1.5,1.5-1.5h27.64c0.83,0,1.5,0.67,1.5,1.5S54.65,37.79,53.82,37.79z"/>
	<path class="st0" d="M19.56,52.86h-9.37c-0.83,0-1.5-0.67-1.5-1.5s0.67-1.5,1.5-1.5h9.32v-4.56h-9.32c-0.83,0-1.5-0.67-1.5-1.5
		s0.67-1.5,1.5-1.5h9.32v-4.56h-9.32c-0.83,0-1.5-0.67-1.5-1.5s0.67-1.5,1.5-1.5h9.32v-4.56h-9.32c-0.83,0-1.5-0.67-1.5-1.5
		s0.67-1.5,1.5-1.5h9.32v-4.56h-9.32c-0.83,0-1.5-0.67-1.5-1.5s0.67-1.5,1.5-1.5h9.32v-6.5h-13V58.5h35v-4.52H21
		C20.3,53.98,19.72,53.51,19.56,52.86z"/>
	<path d="M60.39,20.84c0-0.01,0-0.01-0.01-0.02c-0.08-0.19-0.19-0.35-0.33-0.49L42.79,3.06c-0.14-0.14-0.31-0.25-0.49-0.33
		c-0.01,0-0.02,0-0.02-0.01c-0.17-0.07-0.35-0.11-0.55-0.11H21c-0.83,0-1.5,0.67-1.5,1.5v6.02H5c-0.83,0-1.5,0.67-1.5,1.5V60
		c0,0.83,0.67,1.5,1.5,1.5h38c0.83,0,1.5-0.67,1.5-1.5v-6.02H59c0.83,0,1.5-0.67,1.5-1.5V21.39C60.5,21.2,60.46,21.01,60.39,20.84z
		 M22.5,50.98V5.62h17.73v15.77c0,0.83,0.67,1.5,1.5,1.5H57.5v28.09H22.5z M43.23,7.74l12.15,12.15H43.23V7.74z M41.5,58.5h-35
		V13.14h13v6.5h-9.32c-0.83,0-1.5,0.67-1.5,1.5s0.67,1.5,1.5,1.5h9.32v4.56h-9.32c-0.83,0-1.5,0.67-1.5,1.5s0.67,1.5,1.5,1.5h9.32
		v4.56h-9.32c-0.83,0-1.5,0.67-1.5,1.5s0.67,1.5,1.5,1.5h9.32v4.56h-9.32c-0.83,0-1.5,0.67-1.5,1.5s0.67,1.5,1.5,1.5h9.32v4.56
		h-9.32c-0.83,0-1.5,0.67-1.5,1.5s0.67,1.5,1.5,1.5h9.37c0.17,0.64,0.75,1.12,1.44,1.12h20.5V58.5z"/>
	<path d="M53.82,42.35H26.18c-0.83,0-1.5,0.67-1.5,1.5s0.67,1.5,1.5,1.5h27.64c0.83,0,1.5-0.67,1.5-1.5S54.65,42.35,53.82,42.35z"/>
	<path d="M53.82,34.79H26.18c-0.83,0-1.5,0.67-1.5,1.5s0.67,1.5,1.5,1.5h27.64c0.83,0,1.5-0.67,1.5-1.5S54.65,34.79,53.82,34.79z"/>
	<path d="M26.18,30.23h27.64c0.83,0,1.5-0.67,1.5-1.5s-0.67-1.5-1.5-1.5H26.18c-0.83,0-1.5,0.67-1.5,1.5S25.35,30.23,26.18,30.23z"
		/>
	<path d="M26.18,22.67h10.36c0.83,0,1.5-0.67,1.5-1.5s-0.67-1.5-1.5-1.5H26.18c-0.83,0-1.5,0.67-1.5,1.5S25.35,22.67,26.18,22.67z"
		/>
	<path d="M26.18,15.12h10.36c0.83,0,1.5-0.67,1.5-1.5s-0.67-1.5-1.5-1.5H26.18c-0.83,0-1.5,0.67-1.5,1.5S25.35,15.12,26.18,15.12z"
		/>
</g>
</svg>
