<?xml version="1.0" encoding="utf-8"?>
<!-- Generator: Adobe Illustrator 24.3.0, SVG Export Plug-In . SVG Version: 6.00 Build 0)  -->
<svg version="1.1" id="Layer_1" xmlns="http://www.w3.org/2000/svg" xmlns:xlink="http://www.w3.org/1999/xlink" x="0px" y="0px"
	 viewBox="0 0 64 64" style="enable-background:new 0 0 64 64;" xml:space="preserve">
<style type="text/css">
	.st0{fill:none;}
</style>
<g>
	<path class="st0" d="M57.6,12.73c0.35,0.34,0.54,0.82,0.54,1.31c0,0.49-0.19,0.96-0.54,1.31l-2.67,2.68l0,0l2.68-2.68
		c0.34-0.34,0.53-0.81,0.55-1.31c0-0.49-0.19-0.96-0.54-1.31l-6.34-6.34c-0.37-0.36-0.84-0.54-1.32-0.54c0.48,0,0.95,0.18,1.31,0.54
		L57.6,12.73z"/>
	<polygon class="st0" points="7.9,56.63 7.91,56.63 10.52,46.18 	"/>
	<path d="M12,33.55c0.83,0,1.5-0.67,1.5-1.5s-0.67-1.5-1.5-1.5H6.99c-0.83,0-1.5-0.67-1.5-1.5V7.04c0-0.83,0.67-1.5,1.5-1.5H29
		c0.83,0,1.5,0.67,1.5,1.5V12c0,0.83,0.67,1.5,1.5,1.5s1.5-0.67,1.5-1.5V7.04c0-2.48-2.02-4.5-4.5-4.5H6.99
		c-2.48,0-4.5,2.02-4.5,4.5v22.01c0,2.48,2.02,4.5,4.5,4.5H12z"/>
	<path d="M57,31.49h-5c-0.83,0-1.5,0.67-1.5,1.5c0,0.83,0.67,1.5,1.5,1.5h5c0.83,0,1.5,0.67,1.5,1.5V58c0,0.83-0.67,1.5-1.5,1.5
		H34.99c-0.83,0-1.5-0.67-1.5-1.5v-6c0-0.83-0.67-1.5-1.5-1.5s-1.5,0.67-1.5,1.5v6c0,2.48,2.02,4.5,4.5,4.5H57
		c2.48,0,4.5-2.02,4.5-4.5V35.99C61.5,33.51,59.48,31.49,57,31.49z"/>
	<path d="M21,16.5c-2.48,0-4.5,2.02-4.5,4.5v7c0,0.83,0.67,1.5,1.5,1.5s1.5-0.67,1.5-1.5v-7c0-0.83,0.67-1.5,1.5-1.5h7
		c0.83,0,1.5-0.67,1.5-1.5s-0.67-1.5-1.5-1.5H21z"/>
	<path d="M44.51,36v7.01c0,0.83-0.67,1.5-1.5,1.5H36c-0.83,0-1.5,0.67-1.5,1.5s0.67,1.5,1.5,1.5h7.01c2.48,0,4.5-2.02,4.5-4.5V36
		c0-0.83-0.67-1.5-1.5-1.5S44.51,35.17,44.51,36z"/>
	<polygon class="st0" points="10.52,46.18 7.91,56.63 18.35,54.02 	"/>
	<path class="st0" d="M45.97,9.07l8.95,8.96l2.67-2.68c0.35-0.35,0.54-0.82,0.54-1.31c0-0.49-0.19-0.97-0.54-1.31l-6.33-6.34
		c-0.36-0.36-0.84-0.54-1.31-0.54c-0.48,0-0.95,0.18-1.31,0.54L45.97,9.07z"/>
	<path d="M51.23,21.8l-30.1,30.97l-9.38-9.37l30.4-30.41l-2.01-2.01L8.46,42.66l-4.47,17.9l17.9-4.48l31.39-32.3L51.23,21.8z
		 M7.9,56.64l0-0.01L7.9,56.64l2.61-10.46l7.85,7.85L7.9,56.64z"/>
	<polygon points="18.35,54.02 7.91,56.63 7.9,56.64 18.36,54.03 10.52,46.18 	"/>
	<path d="M59.62,17.38c0.88-0.88,1.38-2.07,1.38-3.34c-0.01-1.26-0.49-2.44-1.38-3.33l-6.34-6.34c-1.83-1.83-4.83-1.83-6.66,0
		l-4.69,4.7l13,13L59.62,17.38z M45.96,9.07l2.68-2.68c0.37-0.36,0.84-0.54,1.32-0.54c0.48,0,0.95,0.18,1.32,0.54l6.34,6.34
		c0.35,0.35,0.54,0.82,0.54,1.31c-0.02,0.5-0.21,0.97-0.55,1.31l-2.68,2.68l0,0l0,0L45.96,9.07z"/>
	<path d="M45.97,9.07l2.68-2.68c0.36-0.36,0.84-0.54,1.31-0.54c-0.48,0-0.95,0.18-1.32,0.54L45.97,9.07l8.95,8.96l0,0L45.97,9.07z"
		/>
</g>
</svg>
