<?xml version="1.0" encoding="utf-8"?>
<!-- Generator: Adobe Illustrator 25.0.0, SVG Export Plug-In . SVG Version: 6.00 Build 0)  -->
<svg version="1.1" id="Layer_1" xmlns="http://www.w3.org/2000/svg" xmlns:xlink="http://www.w3.org/1999/xlink" x="0px" y="0px"
	 viewBox="0 0 64 64" style="enable-background:new 0 0 64 64;" xml:space="preserve">
<g>
	<path d="M53.26,39.68c-0.83,0-1.5,0.67-1.5,1.5v5.61c0,0.44-0.09,0.86-0.24,1.25l-4.02-3.58c-0.62-0.55-1.57-0.49-2.12,0.12
		c-0.55,0.62-0.49,1.57,0.12,2.12l3.83,3.4c-0.34,0.11-0.7,0.19-1.07,0.19H7.74c-0.38,0-0.73-0.08-1.07-0.19l15.11-13.43
		c0.62-0.55,0.67-1.5,0.12-2.12c-0.55-0.62-1.5-0.68-2.12-0.12L4.48,48.04c-0.15-0.39-0.24-0.81-0.24-1.25V18
		c0-0.41,0.08-0.8,0.22-1.17c0.01,0.01,0.02,0.02,0.02,0.03L27.04,35.8c0.28,0.24,0.62,0.35,0.96,0.35c0.43,0,0.85-0.18,1.15-0.54
		c0.53-0.63,0.45-1.58-0.18-2.11L6.59,14.71c0.36-0.13,0.74-0.21,1.15-0.21h40.52c0.4,0,0.79,0.08,1.15,0.21l-3.49,2.93
		c-0.63,0.53-0.72,1.48-0.18,2.11c0.3,0.35,0.72,0.54,1.15,0.54c0.34,0,0.68-0.12,0.96-0.35l3.67-3.08
		c0.01-0.01,0.02-0.02,0.02-0.03c0.13,0.37,0.22,0.76,0.22,1.17v5.83c0,0.83,0.67,1.5,1.5,1.5s1.5-0.67,1.5-1.5V18
		c0-3.58-2.92-6.5-6.5-6.5H7.74c-3.58,0-6.5,2.92-6.5,6.5v28.79c0,3.58,2.92,6.5,6.5,6.5h40.52c3.58,0,6.5-2.92,6.5-6.5v-5.61
		C54.76,40.35,54.09,39.68,53.26,39.68z"/>
	<path d="M61.5,29c0-0.83-0.67-1.5-1.5-1.5H44.5V22c0-0.16-0.03-0.31-0.08-0.45c-0.01-0.02-0.01-0.04-0.02-0.07
		c-0.06-0.17-0.16-0.32-0.27-0.46c-0.01-0.01-0.01-0.02-0.02-0.03c-0.01-0.01-0.01-0.01-0.02-0.01c-0.12-0.13-0.27-0.24-0.44-0.32
		c-0.01-0.01-0.03-0.02-0.04-0.02c-0.16-0.07-0.33-0.11-0.51-0.12c-0.02,0-0.04-0.01-0.06-0.01c-0.02,0-0.03-0.01-0.05-0.01
		c-0.16,0-0.31,0.03-0.46,0.08c-0.02,0.01-0.04,0.01-0.06,0.02c-0.17,0.06-0.32,0.16-0.46,0.27c-0.01,0.01-0.02,0.01-0.03,0.02
		l-11,9.96c-0.18,0.16-0.3,0.37-0.38,0.58c-0.01,0.02-0.01,0.04-0.01,0.06c-0.05,0.15-0.09,0.3-0.09,0.46
		c-0.01,0.14,0.03,0.28,0.06,0.42c0.01,0.03,0.01,0.07,0.02,0.1c0.07,0.22,0.18,0.42,0.35,0.6l11,11c0.14,0.14,0.31,0.25,0.49,0.33
		c0.01,0,0.02,0,0.02,0.01c0.17,0.07,0.35,0.11,0.55,0.11s0.38-0.04,0.55-0.11c0.01,0,0.02,0,0.02-0.01
		c0.37-0.15,0.66-0.45,0.82-0.82c0-0.01,0-0.02,0.01-0.02c0.07-0.17,0.11-0.35,0.11-0.55v-5.5H60c0.83,0,1.5-0.67,1.5-1.5V29z"/>
</g>
</svg>
