<?xml version="1.0" encoding="utf-8"?>
<!-- Generator: Adobe Illustrator 23.0.3, SVG Export Plug-In . SVG Version: 6.00 Build 0)  -->
<svg version="1.1" id="Layer_1" xmlns="http://www.w3.org/2000/svg" xmlns:xlink="http://www.w3.org/1999/xlink" x="0px" y="0px"
	 viewBox="0 0 64 64" style="enable-background:new 0 0 64 64;" xml:space="preserve">
<path d="M61.5,15c0-3.58-2.92-6.5-6.5-6.5H9c-3.58,0-6.5,2.92-6.5,6.5v33c0,3.58,2.92,6.5,6.5,6.5h46c3.58,0,6.5-2.92,6.5-6.5V15z
	 M55,11.5c0.43,0,0.83,0.09,1.21,0.23c-0.06,0.04-0.12,0.07-0.18,0.12L32,32.04L7.96,11.85c-0.06-0.05-0.12-0.08-0.18-0.12
	C8.17,11.59,8.57,11.5,9,11.5H55z M9,51.5c-0.38,0-0.74-0.08-1.09-0.19L25,36.12c0.62-0.55,0.67-1.5,0.12-2.12
	c-0.55-0.62-1.5-0.68-2.12-0.12L5.73,49.23C5.59,48.85,5.5,48.43,5.5,48V15c0-0.43,0.09-0.83,0.23-1.21
	c0.08,0.13,0.18,0.26,0.31,0.36l25,21c0.01,0.01,0.02,0.01,0.02,0.01c0.12,0.1,0.26,0.17,0.4,0.23c0.03,0.01,0.06,0.02,0.09,0.03
	c0.14,0.05,0.29,0.08,0.45,0.08c0,0,0,0,0,0c0,0,0,0,0,0s0,0,0,0c0,0,0,0,0,0c0.15,0,0.3-0.03,0.44-0.08
	c0.03-0.01,0.06-0.02,0.09-0.03c0.14-0.06,0.28-0.13,0.4-0.23c0.01-0.01,0.02-0.01,0.02-0.01l25-21c0.13-0.11,0.22-0.23,0.31-0.36
	c0.14,0.38,0.23,0.79,0.23,1.21v33c0,0.43-0.09,0.85-0.23,1.23L41,33.88c-0.62-0.55-1.57-0.49-2.12,0.12
	c-0.55,0.62-0.49,1.57,0.12,2.12l17.09,15.19c-0.35,0.11-0.71,0.19-1.09,0.19H9z"/>
</svg>
