<?xml version="1.0" encoding="utf-8"?>
<!-- Generator: Adobe Illustrator 24.2.3, SVG Export Plug-In . SVG Version: 6.00 Build 0)  -->
<svg version="1.1" id="Layer_1" xmlns="http://www.w3.org/2000/svg" xmlns:xlink="http://www.w3.org/1999/xlink" x="0px" y="0px"
	 viewBox="0 0 64 64" style="enable-background:new 0 0 64 64;" xml:space="preserve">
<style type="text/css">
	.st0{fill:none;}
</style>
<g>
	<path class="st0" d="M32,5.5C17.39,5.5,5.5,17.39,5.5,32S17.39,58.5,32,58.5S58.5,46.61,58.5,32S46.61,5.5,32,5.5z M45.41,42.59
		c0.78,0.78,0.78,2.05,0,2.83C45.02,45.8,44.51,46,44,46s-1.02-0.2-1.41-0.59L32,34.83L21.41,45.41C21.02,45.8,20.51,46,20,46
		s-1.02-0.2-1.41-0.59c-0.78-0.78-0.78-2.05,0-2.83L29.17,32L18.59,21.41c-0.78-0.78-0.78-2.05,0-2.83c0.78-0.78,2.05-0.78,2.83,0
		L32,29.17l10.59-10.59c0.78-0.78,2.05-0.78,2.83,0c0.78,0.78,0.78,2.05,0,2.83L34.83,32L45.41,42.59z"/>
	<path d="M32,2.5C15.73,2.5,2.5,15.73,2.5,32c0,16.27,13.23,29.5,29.5,29.5c16.27,0,29.5-13.23,29.5-29.5
		C61.5,15.73,48.27,2.5,32,2.5z M32,58.5C17.39,58.5,5.5,46.61,5.5,32S17.39,5.5,32,5.5S58.5,17.39,58.5,32S46.61,58.5,32,58.5z"/>
	<path d="M21.41,18.59c-0.78-0.78-2.05-0.78-2.83,0c-0.78,0.78-0.78,2.05,0,2.83L29.17,32L32,29.17L21.41,18.59z"/>
	<path d="M42.59,45.41C42.98,45.8,43.49,46,44,46s1.02-0.2,1.41-0.59c0.78-0.78,0.78-2.05,0-2.83L34.83,32L32,34.83L42.59,45.41z"/>
	<path d="M18.59,42.59c-0.78,0.78-0.78,2.05,0,2.83C18.98,45.8,19.49,46,20,46s1.02-0.2,1.41-0.59L32,34.83L29.17,32L18.59,42.59z"
		/>
	<path d="M45.41,18.59c-0.78-0.78-2.05-0.78-2.83,0L32,29.17L34.83,32l10.59-10.59C46.2,20.63,46.2,19.37,45.41,18.59z"/>
	<rect x="30" y="30" transform="matrix(0.7071 -0.7071 0.7071 0.7071 -13.2548 32)" width="4" height="4"/>
</g>
</svg>
