<?xml version="1.0" encoding="utf-8"?>
<!-- Generator: Adobe Illustrator 23.0.4, SVG Export Plug-In . SVG Version: 6.00 Build 0)  -->
<svg version="1.1" id="Layer_1" xmlns="http://www.w3.org/2000/svg" xmlns:xlink="http://www.w3.org/1999/xlink" x="0px" y="0px"
	 viewBox="0 0 64 64" style="enable-background:new 0 0 64 64;" xml:space="preserve">
<style type="text/css">
	.st0{fill:none;}
</style>
<g>
	<path class="st0" d="M31.92,6.21c-14.18,0-25.71,11.54-25.71,25.71s11.54,25.71,25.71,25.71S57.64,46.1,57.64,31.92
		S46.1,6.21,31.92,6.21z M31.9,50.87c-1.45,0-2.63-1.18-2.63-2.63c0-1.45,1.18-2.63,2.63-2.63s2.63,1.18,2.63,2.63
		C34.53,49.69,33.35,50.87,31.9,50.87z M34.47,38.36c0,1.38-1.12,2.49-2.5,2.49c0,0-0.01,0-0.01,0c-1.38,0-2.5-1.13-2.49-2.51
		l0.07-23.75c0-1.38,1.12-2.49,2.5-2.49c0,0,0.01,0,0.01,0c1.38,0,2.5,1.13,2.49,2.51L34.47,38.36z"/>
	<path d="M31.9,45.61c-1.45,0-2.63,1.18-2.63,2.63c0,1.45,1.18,2.63,2.63,2.63s2.63-1.18,2.63-2.63
		C34.53,46.79,33.35,45.61,31.9,45.61z"/>
	<path d="M31.92,1.81c-16.6,0-30.11,13.51-30.11,30.11c0,16.6,13.51,30.11,30.11,30.11c16.6,0,30.11-13.51,30.11-30.11
		C62.04,15.32,48.53,1.81,31.92,1.81z M31.92,57.64c-14.18,0-25.71-11.54-25.71-25.71S17.75,6.21,31.92,6.21
		s25.71,11.54,25.71,25.71S46.1,57.64,31.92,57.64z"/>
	<path d="M32.05,12.1C32.05,12.1,32.04,12.1,32.05,12.1c-1.38,0-2.5,1.11-2.51,2.49l-0.07,23.75c0,1.38,1.11,2.5,2.49,2.51
		c0,0,0.01,0,0.01,0c1.38,0,2.5-1.11,2.5-2.49l0.07-23.75C34.55,13.23,33.43,12.1,32.05,12.1z"/>
</g>
</svg>
