<?xml version="1.0" encoding="utf-8"?>
<!-- Generator: Adobe Illustrator 23.0.4, SVG Export Plug-In . SVG Version: 6.00 Build 0)  -->
<svg version="1.1" id="Layer_1" xmlns="http://www.w3.org/2000/svg" xmlns:xlink="http://www.w3.org/1999/xlink" x="0px" y="0px"
	 viewBox="0 0 64 64" style="enable-background:new 0 0 64 64;" xml:space="preserve">
<g>
	<path d="M61.39,3.45c0-0.01,0-0.02-0.01-0.02c-0.15-0.37-0.45-0.66-0.82-0.82c-0.01,0-0.02,0-0.02-0.01
		C60.38,2.54,60.19,2.5,60,2.5H47.08c-0.83,0-1.5,0.67-1.5,1.5s0.67,1.5,1.5,1.5h9.3L41.71,20.17c-0.59,0.59-0.59,1.54,0,2.12
		c0.29,0.29,0.68,0.44,1.06,0.44s0.77-0.15,1.06-0.44L58.5,7.62v9.3c0,0.83,0.67,1.5,1.5,1.5s1.5-0.67,1.5-1.5V4
		C61.5,3.81,61.46,3.62,61.39,3.45z"/>
	<path d="M55.69,19.73c-0.83,0-1.5,0.67-1.5,1.5V58.5H5.5V9.81h37.27c0.83,0,1.5-0.67,1.5-1.5s-0.67-1.5-1.5-1.5H4
		c-0.83,0-1.5,0.67-1.5,1.5V60c0,0.83,0.67,1.5,1.5,1.5h51.69c0.83,0,1.5-0.67,1.5-1.5V21.23C57.19,20.4,56.52,19.73,55.69,19.73z"
		/>
	<path d="M25.22,39.97l8.24,8.4c0.04,0.04,0.09,0.06,0.14,0.09c1.31,1.31,3.02,2.04,4.83,2.04c0,0,0,0,0,0
		c1.91,0,3.7-0.79,5.04-2.24c2.7-2.9,2.7-7.62,0-10.53c0,0,0,0-0.01,0c-0.04-0.05-0.06-0.1-0.1-0.14l-2.79-2.64
		c-0.6-0.57-1.55-0.54-2.12,0.06c-0.57,0.6-0.54,1.55,0.06,2.12l2.7,2.56c0.02,0.03,0.03,0.06,0.05,0.09c1.65,1.78,1.65,4.67,0,6.44
		c-0.76,0.82-1.77,1.28-2.84,1.28s-2.07-0.45-2.84-1.28c-0.04-0.04-0.09-0.06-0.13-0.09l-8.22-8.38c-0.01-0.01-0.01-0.01-0.02-0.01
		c-1.58-1.77-1.57-4.59,0.05-6.34c0.56-0.61,0.53-1.56-0.08-2.12c-0.61-0.56-1.56-0.53-2.12,0.08c-2.73,2.94-2.73,7.54,0,10.48
		C25.12,39.89,25.17,39.93,25.22,39.97z"/>
	<path d="M20.64,20.5c1.07,0,2.07,0.45,2.84,1.28c0.03,0.04,0.08,0.05,0.12,0.09l8.23,8.39c0.01,0.01,0.02,0.01,0.02,0.01
		c1.58,1.77,1.57,4.59-0.05,6.34c-0.56,0.61-0.53,1.56,0.08,2.12c0.29,0.27,0.65,0.4,1.02,0.4c0.4,0,0.8-0.16,1.1-0.48
		c2.73-2.94,2.73-7.54,0-10.48c-0.02-0.02-0.05-0.03-0.07-0.05l-8.32-8.48c-0.04-0.04-0.09-0.06-0.14-0.09
		c-1.31-1.31-3.02-2.04-4.83-2.04c0,0,0,0,0,0c-1.91,0-3.7,0.79-5.04,2.24c-2.65,2.85-2.69,7.45-0.14,10.36
		c0.03,0.04,0.04,0.08,0.08,0.12l2.9,2.82c0.29,0.28,0.67,0.42,1.05,0.42c0.39,0,0.78-0.15,1.07-0.45c0.58-0.59,0.56-1.54-0.03-2.12
		l-2.73-2.66c0,0,0-0.01,0-0.01c-1.65-1.78-1.65-4.67,0-6.44C18.57,20.95,19.58,20.5,20.64,20.5z"/>
</g>
</svg>
