<?xml version="1.0" encoding="utf-8"?>
<!-- Generator: Adobe Illustrator 23.0.3, SVG Export Plug-In . SVG Version: 6.00 Build 0)  -->
<svg version="1.1" id="Layer_1" xmlns="http://www.w3.org/2000/svg" xmlns:xlink="http://www.w3.org/1999/xlink" x="0px" y="0px"
	 viewBox="0 0 64 64" style="enable-background:new 0 0 64 64;" xml:space="preserve">
<g>
	<path d="M63.08,33.12c0.06-0.07,0.09-0.15,0.14-0.22c0.05-0.08,0.12-0.16,0.16-0.25c0.04-0.09,0.04-0.18,0.06-0.28
		c0.02-0.1,0.05-0.19,0.05-0.28c0-0.1-0.03-0.19-0.05-0.28c-0.02-0.09-0.02-0.19-0.06-0.28c-0.04-0.09-0.1-0.17-0.16-0.25
		c-0.05-0.07-0.08-0.15-0.14-0.22c-8.37-8.85-17.32-13.98-26.6-15.25c-2.98-0.4-6-0.4-8.98,0c-9.28,1.26-18.23,6.4-26.6,15.25
		c-0.06,0.07-0.09,0.15-0.14,0.22c-0.05,0.08-0.12,0.16-0.16,0.25c-0.04,0.09-0.04,0.19-0.06,0.28c-0.02,0.09-0.05,0.18-0.05,0.28
		c0,0.1,0.03,0.19,0.05,0.28c0.02,0.1,0.03,0.19,0.06,0.28c0.04,0.09,0.1,0.17,0.16,0.25c0.05,0.07,0.08,0.16,0.14,0.22
		c8.37,8.75,17.32,13.83,26.6,15.08C29,48.4,30.5,48.5,32,48.5c1.5,0,3-0.1,4.48-0.3C45.76,46.95,54.71,41.88,63.08,33.12z
		 M36.09,45.23c-2.71,0.37-5.46,0.37-8.17,0C19.7,44.12,11.69,39.69,4.1,32.08c7.59-7.7,15.6-12.18,23.82-13.3
		c2.71-0.37,5.46-0.37,8.17,0c8.22,1.12,16.22,5.6,23.82,13.3C52.31,39.69,44.3,44.12,36.09,45.23z"/>
	<path d="M41.5,32c0-5.24-4.26-9.5-9.5-9.5s-9.5,4.26-9.5,9.5s4.26,9.5,9.5,9.5S41.5,37.24,41.5,32z M32,25.5
		c3.58,0,6.5,2.92,6.5,6.5s-2.92,6.5-6.5,6.5s-6.5-2.92-6.5-6.5S28.42,25.5,32,25.5z"/>
</g>
</svg>
