<?xml version="1.0" encoding="utf-8"?>
<!-- Generator: Adobe Illustrator 23.0.4, SVG Export Plug-In . SVG Version: 6.00 Build 0)  -->
<svg version="1.1" id="Layer_1" xmlns="http://www.w3.org/2000/svg" xmlns:xlink="http://www.w3.org/1999/xlink" x="0px" y="0px"
	 viewBox="0 0 64 64" style="enable-background:new 0 0 64 64;" xml:space="preserve">
<path d="M42.61,32l16.7-16.7c2.93-2.93,2.93-7.68,0-10.61c-2.93-2.93-7.68-2.93-10.61,0L32,21.39L15.3,4.7
	c-2.93-2.93-7.68-2.93-10.61,0c-2.93,2.93-2.93,7.68,0,10.61L21.39,32L4.7,48.7c-2.93,2.93-2.93,7.68,0,10.61
	c1.46,1.46,3.38,2.2,5.3,2.2s3.84-0.73,5.3-2.2L32,42.61l16.7,16.7c1.46,1.46,3.38,2.2,5.3,2.2s3.84-0.73,5.3-2.2
	c2.93-2.93,2.93-7.68,0-10.61L42.61,32z"/>
</svg>
