<?xml version="1.0" encoding="utf-8"?>
<!-- Generator: Adobe Illustrator 23.0.3, SVG Export Plug-In . SVG Version: 6.00 Build 0)  -->
<svg version="1.1" id="Layer_1" xmlns="http://www.w3.org/2000/svg" xmlns:xlink="http://www.w3.org/1999/xlink" x="0px" y="0px"
	 viewBox="0 0 64 64" style="enable-background:new 0 0 64 64;" xml:space="preserve">
<path d="M61.5,21c0-3.58-2.92-6.5-6.5-6.5H33.5V12c0-3.03-2.47-5.5-5.5-5.5H8c-3.03,0-5.5,2.47-5.5,5.5v2.5v3V51
	c0,3.58,2.92,6.5,6.5,6.5h46c3.58,0,6.5-2.92,6.5-6.5V21z M5.5,12c0-1.38,1.12-2.5,2.5-2.5h20c1.38,0,2.5,1.12,2.5,2.5v2.5h-25V12z
	 M55,54.5H9c-1.93,0-3.5-1.57-3.5-3.5V17.5h28H55c1.93,0,3.5,1.57,3.5,3.5v30C58.5,52.93,56.93,54.5,55,54.5z"/>
</svg>
