<?xml version="1.0" encoding="utf-8"?>
<!-- Generator: Adobe Illustrator 23.0.4, SVG Export Plug-In . SVG Version: 6.00 Build 0)  -->
<svg version="1.1" id="Layer_1" xmlns="http://www.w3.org/2000/svg" xmlns:xlink="http://www.w3.org/1999/xlink" x="0px" y="0px"
	 viewBox="0 0 64 64" style="enable-background:new 0 0 64 64;" xml:space="preserve">
<style type="text/css">
	.st0{fill:none;}
</style>
<g>
	<path class="st0" d="M16,47H8c-1.38,0-2.5,1.12-2.5,2.5v7C5.5,57.88,6.62,59,8,59h8c1.38,0,2.5-1.12,2.5-2.5v-7
		C18.5,48.12,17.38,47,16,47z"/>
	<path class="st0" d="M8,17h8c1.38,0,2.5-1.12,2.5-2.5v-7C18.5,6.12,17.38,5,16,5H8C6.62,5,5.5,6.12,5.5,7.5v7
		C5.5,15.88,6.62,17,8,17z"/>
	<path d="M56,30.5H30c-0.83,0-1.5,0.67-1.5,1.5s0.67,1.5,1.5,1.5h26c0.83,0,1.5-0.67,1.5-1.5S56.83,30.5,56,30.5z"/>
	<path d="M30,12.5h26c0.83,0,1.5-0.67,1.5-1.5S56.83,9.5,56,9.5H30c-0.83,0-1.5,0.67-1.5,1.5S29.17,12.5,30,12.5z"/>
	<path d="M56,51.5H30c-0.83,0-1.5,0.67-1.5,1.5s0.67,1.5,1.5,1.5h26c0.83,0,1.5-0.67,1.5-1.5S56.83,51.5,56,51.5z"/>
	<path d="M8,20h8c3.03,0,5.5-2.47,5.5-5.5v-7C21.5,4.47,19.03,2,16,2H8C4.97,2,2.5,4.47,2.5,7.5v7C2.5,17.53,4.97,20,8,20z M5.5,7.5
		C5.5,6.12,6.62,5,8,5h8c1.38,0,2.5,1.12,2.5,2.5v7c0,1.38-1.12,2.5-2.5,2.5H8c-1.38,0-2.5-1.12-2.5-2.5V7.5z"/>
	<path d="M20,32.5c-0.83,0-1.5,0.67-1.5,1.5v1.5c0,1.38-1.12,2.5-2.5,2.5H8c-1.38,0-2.5-1.12-2.5-2.5v-7C5.5,27.12,6.62,26,8,26h8
		c0.71,0,1.4,0.31,1.87,0.85c0.55,0.62,1.5,0.68,2.12,0.13s0.68-1.5,0.13-2.12C19.08,23.68,17.58,23,16,23H8
		c-3.03,0-5.5,2.47-5.5,5.5v7C2.5,38.53,4.97,41,8,41h8c3.03,0,5.5-2.47,5.5-5.5V34C21.5,33.17,20.83,32.5,20,32.5z"/>
	<path d="M16,44H8c-3.03,0-5.5,2.47-5.5,5.5v7C2.5,59.53,4.97,62,8,62h8c3.03,0,5.5-2.47,5.5-5.5v-7C21.5,46.47,19.03,44,16,44z
		 M18.5,56.5c0,1.38-1.12,2.5-2.5,2.5H8c-1.38,0-2.5-1.12-2.5-2.5v-7C5.5,48.12,6.62,47,8,47h8c1.38,0,2.5,1.12,2.5,2.5V56.5z"/>
	<path d="M21.7,26.25l-8.3,6.96l-3.42-3.59c-0.57-0.6-1.52-0.62-2.12-0.05c-0.6,0.57-0.62,1.52-0.05,2.12l4.42,4.63
		c0.29,0.31,0.69,0.46,1.08,0.46c0.37,0,0.75-0.14,1.04-0.42c0.04-0.03,0.05-0.08,0.08-0.12l9.19-7.71
		c0.63-0.53,0.72-1.48,0.19-2.11S22.34,25.72,21.7,26.25z"/>
</g>
</svg>
