<?xml version="1.0" encoding="utf-8"?>
<!-- Generator: Adobe Illustrator 23.0.3, SVG Export Plug-In . SVG Version: 6.00 Build 0)  -->
<svg version="1.1" id="Layer_1" xmlns="http://www.w3.org/2000/svg" xmlns:xlink="http://www.w3.org/1999/xlink" x="0px" y="0px"
	 viewBox="0 0 64 64" style="enable-background:new 0 0 64 64;" xml:space="preserve">
<style type="text/css">
	.st0{fill:none;stroke:#000000;stroke-width:3;stroke-miterlimit:10;}
</style>
<path class="st0" d="M36.5,83.5"/>
<path d="M62.48,37.74c0-0.04-0.01-0.09-0.01-0.13c0-0.01,0-0.03-0.01-0.04c-0.01-0.04-0.02-0.07-0.03-0.1
	c-0.01-0.04-0.02-0.09-0.04-0.13c-0.01-0.02-0.01-0.03-0.02-0.05c0-0.01,0-0.01-0.01-0.02c-0.01-0.03-0.03-0.05-0.04-0.07
	c-0.02-0.04-0.04-0.08-0.06-0.12c-0.01-0.02-0.02-0.03-0.03-0.05c-0.02-0.03-0.04-0.06-0.07-0.09c-0.03-0.03-0.05-0.07-0.08-0.1
	c-0.01-0.01-0.03-0.03-0.04-0.04c-0.03-0.03-0.06-0.05-0.08-0.07c-0.03-0.03-0.06-0.05-0.09-0.08c-0.02-0.01-0.03-0.02-0.05-0.03
	c-0.03-0.02-0.07-0.04-0.1-0.06c-0.03-0.02-0.05-0.04-0.08-0.05l-9.34-4.48l-0.15-13.8c0-0.04-0.01-0.09-0.01-0.13
	c0-0.05-0.01-0.1-0.02-0.14c0-0.01,0-0.02,0-0.02c-0.01-0.05-0.03-0.09-0.04-0.13c-0.01-0.04-0.02-0.08-0.04-0.12
	c-0.02-0.05-0.05-0.1-0.07-0.14c-0.02-0.04-0.04-0.08-0.06-0.11c-0.01-0.01-0.01-0.02-0.02-0.03c-0.02-0.03-0.04-0.05-0.07-0.08
	c0,0,0,0,0-0.01c-0.03-0.04-0.06-0.07-0.09-0.11c-0.01-0.01-0.02-0.02-0.03-0.03c-0.03-0.03-0.06-0.05-0.09-0.08
	c-0.03-0.03-0.07-0.06-0.1-0.08c-0.01-0.01-0.02-0.01-0.03-0.02c-0.03-0.02-0.07-0.03-0.1-0.05c-0.01-0.01-0.03-0.02-0.04-0.02
	c-0.03-0.01-0.05-0.03-0.07-0.04l-0.02-0.01c0,0,0,0-0.01,0L26.68,6.06c-0.01-0.01-0.03-0.01-0.04-0.01
	c-0.05-0.02-0.11-0.04-0.16-0.05c-0.04-0.01-0.08-0.02-0.12-0.03c-0.05-0.01-0.1-0.01-0.16-0.02c-0.05,0-0.09-0.01-0.14-0.01
	c-0.05,0-0.1,0.01-0.15,0.01c-0.05,0.01-0.1,0.01-0.14,0.02c-0.04,0.01-0.09,0.02-0.13,0.04c-0.05,0.02-0.11,0.03-0.16,0.06
	c-0.01,0.01-0.03,0.01-0.04,0.02L9.36,13.64c-0.75,0.35-1.07,1.25-0.72,2C8.9,16.18,9.44,16.5,10,16.5c0.21,0,0.43-0.05,0.64-0.14
	L26.1,9.08l20.79,9.14l-20.12,8.72L3.2,17.02c0,0,0,0-0.01,0l-0.01,0C3.15,17,3.13,16.99,3.1,16.98c-0.06-0.02-0.13-0.05-0.2-0.06
	c-0.07-0.01-0.14-0.02-0.21-0.02c-0.03,0-0.05-0.01-0.08-0.01c0,0,0,0,0,0c-0.55,0-1.07,0.3-1.33,0.81
	c-0.02,0.04-0.04,0.07-0.06,0.11c0,0,0,0,0,0c-0.01,0.03-0.01,0.05-0.02,0.08c-0.02,0.07-0.05,0.13-0.06,0.2
	c-0.01,0.06-0.02,0.12-0.02,0.19c0,0.03-0.01,0.07-0.01,0.1l0,0.01c0,0,0,0,0,0L0.86,45.31c0,0,0,0,0,0l0,0.02
	c0,0.03,0.01,0.06,0.01,0.09c0,0.07,0.01,0.13,0.02,0.19c0.01,0.05,0.02,0.09,0.04,0.14c0.01,0.05,0.02,0.1,0.04,0.14
	c0.02,0.05,0.04,0.09,0.06,0.13c0.02,0.04,0.04,0.09,0.07,0.13c0.02,0.04,0.05,0.07,0.08,0.11c0.03,0.04,0.06,0.08,0.1,0.12
	c0.03,0.03,0.07,0.06,0.11,0.09c0.04,0.03,0.07,0.07,0.11,0.1c0.05,0.04,0.12,0.07,0.18,0.1c0.03,0.01,0.05,0.03,0.07,0.04
	l0.01,0.01c0,0,0,0,0.01,0l23.92,10.74c0,0,0,0,0,0c0.05,0.02,0.1,0.03,0.14,0.05c0.03,0.01,0.05,0.02,0.08,0.03
	c0.02,0.01,0.05,0.02,0.07,0.02c0.03,0.01,0.07,0.01,0.1,0.01c0.06,0.01,0.13,0.02,0.19,0.02c0.01,0,0.02,0,0.02,0c0,0,0,0,0,0
	c0,0,0,0,0,0c0,0,0.01,0,0.01,0c0.1,0,0.2-0.01,0.29-0.03c0.01,0,0.02-0.01,0.03-0.01c0.01,0,0.03-0.01,0.04-0.01
	c0.03-0.01,0.06-0.02,0.09-0.03c0.04-0.01,0.09-0.03,0.13-0.04c0,0,0.01,0,0.01,0l13.74-6.09l9.75,4.07
	c0.03,0.01,0.07,0.02,0.11,0.03c0.03,0.01,0.06,0.02,0.09,0.03c0.03,0.01,0.06,0.02,0.09,0.03c0.1,0.02,0.2,0.03,0.29,0.03
	c0,0,0,0,0,0c0,0,0,0,0,0s0,0,0,0c0,0,0,0,0,0c0.1,0,0.2-0.01,0.3-0.03c0.03-0.01,0.06-0.02,0.09-0.03
	c0.03-0.01,0.06-0.02,0.09-0.03c0.04-0.01,0.08-0.02,0.11-0.04c0,0,0,0,0,0l9.84-4.21c0,0,0.01,0,0.01,0l0.01,0
	c0.02-0.01,0.03-0.02,0.05-0.03c0.07-0.03,0.14-0.07,0.2-0.11c0.04-0.03,0.07-0.06,0.11-0.09c0.04-0.03,0.08-0.06,0.11-0.09
	c0.04-0.04,0.07-0.08,0.1-0.12c0.03-0.04,0.06-0.07,0.08-0.11c0.03-0.04,0.05-0.08,0.07-0.13c0.02-0.04,0.05-0.08,0.07-0.13
	c0.02-0.05,0.03-0.09,0.05-0.14c0.01-0.05,0.03-0.09,0.04-0.14c0.01-0.06,0.02-0.12,0.02-0.18c0-0.03,0.01-0.07,0.01-0.1l0.16-11.99
	c0-0.01,0-0.01,0-0.02C62.49,37.82,62.48,37.78,62.48,37.74z M50.97,45.13c-0.83,0-1.5,0.67-1.5,1.5v5.18l-7.34-3.06l0.06-8.84
	l8.25,3.64c0.04,0.02,0.08,0.03,0.12,0.04c0.04,0.01,0.07,0.02,0.11,0.03c0.13,0.03,0.25,0.05,0.38,0.05c0,0,0,0,0,0s0,0,0,0
	c0.13,0,0.25-0.02,0.38-0.05c0.03-0.01,0.07-0.02,0.1-0.03c0.04-0.01,0.08-0.02,0.12-0.04l7.81-3.39l-0.12,8.69l-6.87,2.94v-5.16
	C52.47,45.8,51.8,45.13,50.97,45.13z M26.65,33.67c-0.01,0-0.02,0-0.02,0c-0.82,0-1.49,0.66-1.5,1.48l-0.29,18.65L3.86,44.38
	l0.22-23.74l22.12,9.31c0.03,0.01,0.07,0.02,0.1,0.03c0.03,0.01,0.07,0.02,0.1,0.03c0.12,0.03,0.25,0.05,0.38,0.05c0,0,0,0,0,0
	s0,0,0,0c0.13,0,0.25-0.02,0.38-0.06c0.03-0.01,0.07-0.02,0.1-0.03c0.04-0.01,0.08-0.02,0.11-0.04l21.79-9.44l0.13,11.49l-4.67,2.05
	c-0.76,0.33-1.1,1.22-0.77,1.98c0.25,0.56,0.8,0.9,1.38,0.9c0.2,0,0.4-0.04,0.6-0.13l4.95-2.17l6.6,3.17l-6.32,2.75l-9.74-4.3
	c0,0,0,0,0,0c-0.08-0.04-0.17-0.06-0.26-0.08c-0.01,0-0.02-0.01-0.03-0.01c-0.03-0.01-0.06-0.01-0.08-0.01
	c-0.07-0.01-0.14-0.02-0.22-0.02c0,0,0,0-0.01,0c-0.01,0-0.02,0-0.02,0c-0.39,0-0.76,0.16-1.04,0.43c-0.04,0.04-0.07,0.08-0.1,0.12
	c-0.02,0.03-0.05,0.06-0.07,0.09c-0.14,0.2-0.23,0.43-0.26,0.69c-0.01,0.05-0.02,0.1-0.02,0.15c0,0,0,0,0,0.01l-0.07,11.17
	l-11.3,5.01l0.29-18.58C28.14,34.36,27.47,33.68,26.65,33.67z"/>
</svg>
