<?xml version="1.0" encoding="utf-8"?>
<!-- Generator: Adobe Illustrator 23.0.4, SVG Export Plug-In . SVG Version: 6.00 Build 0)  -->
<svg version="1.1" id="Layer_1" xmlns="http://www.w3.org/2000/svg" xmlns:xlink="http://www.w3.org/1999/xlink" x="0px" y="0px"
	 viewBox="0 0 64 64" style="enable-background:new 0 0 64 64;" xml:space="preserve">
<path d="M51.44,4.41c0.13-0.45,0.04-0.94-0.25-1.32c-0.28-0.38-0.73-0.6-1.2-0.6H14c-0.47,0-0.91,0.22-1.2,0.6
	c-0.28,0.38-0.37,0.86-0.24,1.32l8,28c0.07,0.25,0.2,0.47,0.38,0.65l3.64,3.64l1.94,15.49c0.04,0.3,0.16,0.58,0.36,0.8l7,8
	c0.29,0.33,0.7,0.51,1.13,0.51c0.15,0,0.29-0.02,0.44-0.07c0.56-0.17,0.98-0.66,1.05-1.25l2.94-23.49l3.64-3.64
	c0.18-0.18,0.31-0.4,0.38-0.65L51.44,4.41z"/>
</svg>
