<?xml version="1.0" encoding="utf-8"?>
<!-- Generator: Adobe Illustrator 23.0.4, SVG Export Plug-In . SVG Version: 6.00 Build 0)  -->
<svg version="1.1" id="Layer_1" xmlns="http://www.w3.org/2000/svg" xmlns:xlink="http://www.w3.org/1999/xlink" x="0px" y="0px"
	 viewBox="0 0 64 64" style="enable-background:new 0 0 64 64;" xml:space="preserve">
<style type="text/css">
	.st0{fill:none;}
</style>
<g>
	<path class="st0" d="M40.7,27.4c2.59,0,4.7-2.11,4.7-4.7c0-2.59-2.11-4.7-4.7-4.7S36,20.11,36,22.7C36,25.29,38.11,27.4,40.7,27.4z
		"/>
	<path class="st0" d="M23.4,18c-2.59,0-4.7,2.11-4.7,4.7c0,2.59,2.11,4.7,4.7,4.7c2.59,0,4.7-2.11,4.7-4.7
		C28.1,20.11,25.99,18,23.4,18z"/>
	<path d="M32.1,1.5C19.2,1.5,8.71,11.99,8.71,24.89V61c0,0.7,0.48,1.3,1.16,1.46c0.68,0.16,1.38-0.17,1.69-0.79l4.13-8.26l4.13,8.26
		c0.25,0.51,0.77,0.83,1.34,0.83s1.09-0.32,1.34-0.83l4.13-8.26l4.13,8.26c0.25,0.51,0.77,0.83,1.34,0.83s1.09-0.32,1.34-0.83
		l4.13-8.26l4.13,8.26c0.25,0.51,0.77,0.83,1.34,0.83s1.09-0.32,1.34-0.83l4.13-8.26l4.13,8.26c0.26,0.52,0.78,0.83,1.34,0.83
		c0.11,0,0.23-0.01,0.34-0.04c0.68-0.16,1.16-0.76,1.16-1.46V24.89C55.49,11.99,45,1.5,32.1,1.5z M40.7,18c2.59,0,4.7,2.11,4.7,4.7
		c0,2.59-2.11,4.7-4.7,4.7S36,25.29,36,22.7C36,20.11,38.11,18,40.7,18z M28.1,22.7c0,2.59-2.11,4.7-4.7,4.7
		c-2.59,0-4.7-2.11-4.7-4.7c0-2.59,2.11-4.7,4.7-4.7C25.99,18,28.1,20.11,28.1,22.7z"/>
</g>
</svg>
