<?xml version="1.0" encoding="utf-8"?>
<!-- Generator: Adobe Illustrator 23.0.4, SVG Export Plug-In . SVG Version: 6.00 Build 0)  -->
<svg version="1.1" id="Layer_1" xmlns="http://www.w3.org/2000/svg" xmlns:xlink="http://www.w3.org/1999/xlink" x="0px" y="0px"
	 viewBox="0 0 64 64" style="enable-background:new 0 0 64 64;" xml:space="preserve">
<style type="text/css">
	.st0{fill:none;}
</style>
<g>
	<path class="st0" d="M23.4,22.39c-0.17,0-0.31,0.14-0.31,0.31c0,0.17,0.14,0.31,0.31,0.31c0.17,0,0.31-0.14,0.31-0.31
		C23.71,22.53,23.57,22.39,23.4,22.39z"/>
	<path class="st0" d="M40.7,22.39c-0.17,0-0.31,0.14-0.31,0.31c0,0.17,0.14,0.31,0.31,0.31s0.31-0.14,0.31-0.31
		C41.01,22.53,40.87,22.39,40.7,22.39z"/>
	<path class="st0" d="M32.1,4.5c-11.24,0-20.39,9.15-20.39,20.39v29.76l2.63-5.26c0.25-0.51,0.77-0.83,1.34-0.83
		s1.09,0.32,1.34,0.83l4.13,8.26l4.13-8.26c0.25-0.51,0.77-0.83,1.34-0.83s1.09,0.32,1.34,0.83l4.13,8.26l4.13-8.26
		c0.25-0.51,0.77-0.83,1.34-0.83s1.09,0.32,1.34,0.83l4.13,8.26l4.13-8.26c0.25-0.51,0.77-0.83,1.34-0.83s1.09,0.32,1.34,0.83
		l2.63,5.26V24.89C52.49,13.65,43.34,4.5,32.1,4.5z M23.4,27.39c-2.59,0-4.69-2.1-4.69-4.69s2.1-4.69,4.69-4.69s4.69,2.1,4.69,4.69
		S25.99,27.39,23.4,27.39z M40.7,27.39c-2.58,0-4.69-2.1-4.69-4.69s2.1-4.69,4.69-4.69s4.69,2.1,4.69,4.69S43.29,27.39,40.7,27.39z"
		/>
	<path d="M32.1,1.5C19.2,1.5,8.71,11.99,8.71,24.89V61c0,0.7,0.48,1.3,1.16,1.46c0.68,0.16,1.38-0.17,1.69-0.79l4.13-8.26l4.13,8.26
		c0.25,0.51,0.77,0.83,1.34,0.83s1.09-0.32,1.34-0.83l4.13-8.26l4.13,8.26c0.25,0.51,0.77,0.83,1.34,0.83s1.09-0.32,1.34-0.83
		l4.13-8.26l4.13,8.26c0.25,0.51,0.77,0.83,1.34,0.83s1.09-0.32,1.34-0.83l4.13-8.26l4.13,8.26c0.26,0.52,0.78,0.83,1.34,0.83
		c0.11,0,0.23-0.01,0.34-0.04c0.68-0.16,1.16-0.76,1.16-1.46V24.89C55.49,11.99,45,1.5,32.1,1.5z M52.49,54.65l-2.63-5.26
		c-0.25-0.51-0.77-0.83-1.34-0.83s-1.09,0.32-1.34,0.83l-4.13,8.26l-4.13-8.26c-0.25-0.51-0.77-0.83-1.34-0.83s-1.09,0.32-1.34,0.83
		l-4.13,8.26l-4.13-8.26c-0.25-0.51-0.77-0.83-1.34-0.83s-1.09,0.32-1.34,0.83l-4.13,8.26l-4.13-8.26
		c-0.25-0.51-0.77-0.83-1.34-0.83s-1.09,0.32-1.34,0.83l-2.63,5.26V24.89c0-11.24,9.15-20.39,20.39-20.39
		c11.24,0,20.39,9.15,20.39,20.39V54.65z"/>
	<path d="M23.4,18.01c-2.59,0-4.69,2.1-4.69,4.69s2.1,4.69,4.69,4.69s4.69-2.1,4.69-4.69S25.99,18.01,23.4,18.01z M23.4,23.01
		c-0.17,0-0.31-0.14-0.31-0.31c0-0.17,0.14-0.31,0.31-0.31c0.17,0,0.31,0.14,0.31,0.31C23.71,22.87,23.57,23.01,23.4,23.01z"/>
	<path d="M40.7,18.01c-2.58,0-4.69,2.1-4.69,4.69s2.1,4.69,4.69,4.69s4.69-2.1,4.69-4.69S43.29,18.01,40.7,18.01z M40.7,23.01
		c-0.17,0-0.31-0.14-0.31-0.31c0-0.17,0.14-0.31,0.31-0.31s0.31,0.14,0.31,0.31C41.01,22.87,40.87,23.01,40.7,23.01z"/>
</g>
</svg>
