<?xml version="1.0" encoding="utf-8"?>
<!-- Generator: Adobe Illustrator 23.0.4, SVG Export Plug-In . SVG Version: 6.00 Build 0)  -->
<svg version="1.1" id="Layer_1" xmlns="http://www.w3.org/2000/svg" xmlns:xlink="http://www.w3.org/1999/xlink" x="0px" y="0px"
	 viewBox="0 0 64 64" style="enable-background:new 0 0 64 64;" xml:space="preserve">
<g>
	<path d="M23.85,5.98C23.84,5.98,23.84,5.98,23.85,5.98C23.84,5.98,23.84,5.98,23.85,5.98C23.84,5.98,23.84,5.98,23.85,5.98
		c-5.17,2.75-8.96,7.35-10.67,12.94s-1.14,11.52,1.61,16.69c2.75,5.17,7.34,8.96,12.94,10.67c2.12,0.65,4.28,0.97,6.43,0.97
		c3.54,0,7.05-0.87,10.26-2.58c5.17-2.75,8.96-7.34,10.67-12.94s1.14-11.52-1.61-16.69C47.8,4.38,34.51,0.31,23.85,5.98z
		 M51.46,17.81c0.91,2.09,1.42,4.29,1.54,6.52l-5.17,2.75c-0.58-2.01-1.38-4.06-2.36-6.08L51.46,17.81z M16.79,32.85
		c-0.91-2.09-1.42-4.29-1.53-6.52l5.18-2.76c0.58,1.99,1.36,4.03,2.36,6.08L16.79,32.85z M23.16,22.13l5.9-3.14l3.04,5.72
		l-6.65,3.54C24.45,26.18,23.69,24.11,23.16,22.13z M24.06,9.59l3.59,6.75l-5.14,2.73C21.87,14.95,22.38,11.47,24.06,9.59z
		 M33.5,27.36l3.04,5.72l-5.9,3.14c-1.35-1.55-2.64-3.34-3.79-5.32L33.5,27.36z M37.95,35.72l3.59,6.75
		c-2.49,0.35-5.66-1.18-8.73-4.01L37.95,35.72z M46.01,34.57c0.03,2.86-0.62,5.12-1.82,6.48l-3.59-6.74l5.15-2.74
		C45.91,32.6,46,33.61,46.01,34.57z M45.11,28.52l-5.91,3.14l-3.04-5.72l6.66-3.54C43.8,24.45,44.57,26.51,45.11,28.52z M34.74,23.3
		l-3.04-5.72l5.91-3.14c1.35,1.55,2.64,3.34,3.79,5.32L34.74,23.3z M30.3,14.93l-3.6-6.76c0.24-0.03,0.48-0.06,0.73-0.06
		c2.37,0,5.24,1.51,8.02,4.08L30.3,14.93z M19.42,13.43c-0.29,2.13-0.2,4.54,0.29,7.13l-4.32,2.3c0.14-1.03,0.34-2.05,0.65-3.06
		C16.76,17.44,17.92,15.29,19.42,13.43z M18.2,35.49l6-3.19c1.14,1.98,2.4,3.77,3.72,5.36l-5.18,2.75
		C20.96,39.07,19.42,37.42,18.2,35.49z M28.6,43.41c-1.01-0.31-1.97-0.71-2.9-1.17l4.32-2.3c1.87,1.84,3.82,3.28,5.74,4.23
		C33.38,44.38,30.95,44.13,28.6,43.41z M48.83,37.22c0.11-0.84,0.18-1.73,0.17-2.67c-0.02-1.42-0.19-2.92-0.47-4.45l4.32-2.3
		c-0.14,1.03-0.34,2.05-0.65,3.06C51.49,33.21,50.34,35.36,48.83,37.22z M50.06,15.16l-6.01,3.2c-1.14-1.98-2.4-3.77-3.72-5.36
		l5.18-2.75C47.27,11.57,48.82,13.21,50.06,15.16z M42.56,8.41l-4.32,2.3c-1.87-1.84-3.81-3.26-5.72-4.21
		c0.53-0.04,1.05-0.07,1.58-0.07C37.04,6.42,39.94,7.11,42.56,8.41z"/>
	<path d="M47.21,59.57H35.59v-6.85c3.94-0.21,7.83-1.27,11.41-3.18c0.73-0.39,1.01-1.3,0.62-2.03c-0.39-0.73-1.3-1.01-2.03-0.62
		c-5.76,3.06-12.37,3.7-18.61,1.79c-6.24-1.91-11.36-6.13-14.43-11.89C6.24,24.9,10.77,10.08,22.66,3.76
		c0.73-0.39,1.01-1.3,0.62-2.03c-0.39-0.73-1.3-1.01-2.03-0.62C7.9,8.21,2.81,24.85,9.91,38.2c3.44,6.47,9.19,11.21,16.2,13.35
		c2.13,0.65,4.31,1.03,6.48,1.15v6.86H20.98c-0.83,0-1.5,0.67-1.5,1.5s0.67,1.5,1.5,1.5h26.23c0.83,0,1.5-0.67,1.5-1.5
		S48.04,59.57,47.21,59.57z"/>
</g>
</svg>
