<?xml version="1.0" encoding="utf-8"?>
<!-- Generator: Adobe Illustrator 23.0.4, SVG Export Plug-In . SVG Version: 6.00 Build 0)  -->
<svg version="1.1" id="Layer_1" xmlns="http://www.w3.org/2000/svg" xmlns:xlink="http://www.w3.org/1999/xlink" x="0px" y="0px"
	 viewBox="0 0 64 64" style="enable-background:new 0 0 64 64;" xml:space="preserve">
<path d="M63.49,30.66c0-0.02,0-0.04-0.01-0.07c-0.01-0.18-0.06-0.34-0.13-0.5c-0.01-0.02-0.02-0.03-0.03-0.05
	c-0.08-0.16-0.19-0.31-0.32-0.43C63.01,29.62,63,29.61,63,29.6L33,2.88c-0.1-0.09-0.21-0.16-0.33-0.22
	c-0.02-0.01-0.04-0.02-0.06-0.03c-0.16-0.07-0.32-0.11-0.49-0.13c-0.02,0-0.04,0-0.07,0c-0.17-0.01-0.34,0.02-0.5,0.07
	c-0.02,0.01-0.04,0.02-0.07,0.02c-0.16,0.06-0.31,0.15-0.45,0.26C31.02,2.87,31.01,2.87,31,2.88L1,29.6
	C1,29.61,0.99,29.62,0.99,29.62c-0.13,0.12-0.24,0.27-0.32,0.43c-0.01,0.02-0.02,0.03-0.02,0.05c-0.07,0.15-0.11,0.32-0.13,0.5
	c0,0.02-0.01,0.04-0.01,0.07c0,0.02-0.01,0.04-0.01,0.06c0,0.16,0.03,0.3,0.07,0.44c0.01,0.02,0.01,0.04,0.02,0.07
	c0.06,0.17,0.15,0.32,0.27,0.46c0.01,0.01,0.01,0.02,0.02,0.03c0.01,0.01,0.02,0.02,0.03,0.03c0.05,0.05,0.1,0.09,0.15,0.14
	c0.03,0.02,0.05,0.05,0.08,0.07c0.06,0.04,0.12,0.07,0.18,0.1c0.03,0.01,0.05,0.03,0.08,0.04c0.08,0.04,0.17,0.06,0.26,0.08
	c0.01,0,0.02,0.01,0.03,0.01c0.1,0.02,0.2,0.03,0.31,0.03h7.5v28.56c0,0.83,0.67,1.5,1.5,1.5h14.25c0.83,0,1.5-0.67,1.5-1.5V41.5
	h10.5v19.29c0,0.83,0.67,1.5,1.5,1.5H53c0.83,0,1.5-0.67,1.5-1.5V32.22H62c0.1,0,0.21-0.01,0.31-0.03c0.01,0,0.02-0.01,0.03-0.01
	c0.09-0.02,0.18-0.05,0.26-0.08c0.03-0.01,0.06-0.03,0.09-0.05c0.06-0.03,0.12-0.06,0.18-0.1c0.03-0.02,0.06-0.05,0.09-0.07
	c0.05-0.04,0.1-0.08,0.15-0.13c0.01-0.01,0.02-0.02,0.03-0.03c0.01-0.01,0.01-0.02,0.02-0.03c0.11-0.13,0.21-0.29,0.27-0.46
	c0.01-0.02,0.01-0.04,0.02-0.07c0.04-0.14,0.07-0.29,0.07-0.44C63.5,30.7,63.49,30.68,63.49,30.66z"/>
</svg>
