<?xml version="1.0" encoding="utf-8"?>
<!-- Generator: Adobe Illustrator 24.2.3, SVG Export Plug-In . SVG Version: 6.00 Build 0)  -->
<svg version="1.1" id="Layer_1" xmlns="http://www.w3.org/2000/svg" xmlns:xlink="http://www.w3.org/1999/xlink" x="0px" y="0px"
	 viewBox="0 0 64 64" style="enable-background:new 0 0 64 64;" xml:space="preserve">
<style type="text/css">
	.st0{fill:none;}
</style>
<g>
	<path class="st0" d="M32,5.5C17.39,5.5,5.5,17.39,5.5,32S17.39,58.5,32,58.5S58.5,46.61,58.5,32S46.61,5.5,32,5.5z M34,48
		c0,1.1-0.9,2-2,2s-2-0.9-2-2V23c0-1.1,0.9-2,2-2s2,0.9,2,2V48z M33.96,16.39c-0.02,0.13-0.06,0.25-0.11,0.37
		c-0.05,0.13-0.12,0.24-0.19,0.35c-0.07,0.11-0.15,0.21-0.25,0.3C33.04,17.79,32.53,18,32,18c-0.13,0-0.26-0.01-0.39-0.04
		c-0.13-0.02-0.25-0.06-0.37-0.11c-0.13-0.05-0.24-0.12-0.35-0.19c-0.11-0.07-0.21-0.15-0.3-0.25c-0.1-0.09-0.18-0.19-0.25-0.3
		s-0.14-0.22-0.19-0.35c-0.05-0.12-0.08-0.24-0.11-0.37C30.01,16.26,30,16.13,30,16c0-0.53,0.21-1.04,0.59-1.42
		c0.09-0.09,0.19-0.17,0.3-0.24c0.11-0.07,0.22-0.14,0.35-0.19c0.12-0.05,0.24-0.08,0.37-0.11c0.65-0.13,1.34,0.08,1.8,0.54
		C33.79,14.96,34,15.47,34,16C34,16.13,33.99,16.26,33.96,16.39z"/>
	<path d="M32,2.5C15.73,2.5,2.5,15.73,2.5,32c0,16.27,13.23,29.5,29.5,29.5c16.27,0,29.5-13.23,29.5-29.5
		C61.5,15.73,48.27,2.5,32,2.5z M32,58.5C17.39,58.5,5.5,46.61,5.5,32S17.39,5.5,32,5.5S58.5,17.39,58.5,32S46.61,58.5,32,58.5z"/>
	<path d="M32,21c-1.1,0-2,0.9-2,2v25c0,1.1,0.9,2,2,2s2-0.9,2-2V23C34,21.9,33.1,21,32,21z"/>
	<path d="M31.61,14.04c-0.13,0.03-0.25,0.06-0.37,0.11c-0.13,0.05-0.24,0.12-0.35,0.19c-0.11,0.07-0.21,0.15-0.3,0.24
		C30.21,14.96,30,15.47,30,16c0,0.13,0.01,0.26,0.04,0.39c0.03,0.13,0.06,0.25,0.11,0.37c0.05,0.13,0.12,0.24,0.19,0.35
		s0.15,0.21,0.25,0.3c0.09,0.1,0.19,0.18,0.3,0.25c0.11,0.07,0.22,0.14,0.35,0.19c0.12,0.05,0.24,0.09,0.37,0.11
		C31.74,17.99,31.87,18,32,18c0.53,0,1.04-0.21,1.41-0.59c0.1-0.09,0.18-0.19,0.25-0.3c0.07-0.11,0.14-0.22,0.19-0.35
		c0.05-0.12,0.09-0.24,0.11-0.37C33.99,16.26,34,16.13,34,16c0-0.53-0.21-1.04-0.59-1.42C32.95,14.12,32.26,13.91,31.61,14.04z"/>
</g>
</svg>
