<?xml version="1.0" encoding="utf-8"?>
<!-- Generator: Adobe Illustrator 23.0.4, SVG Export Plug-In . SVG Version: 6.00 Build 0)  -->
<svg version="1.1" id="Layer_1" xmlns="http://www.w3.org/2000/svg" xmlns:xlink="http://www.w3.org/1999/xlink" x="0px" y="0px"
	 viewBox="0 0 64 64" style="enable-background:new 0 0 64 64;" xml:space="preserve">
<path d="M23.1,32.02l20.96-20.96c0.59-0.59,0.59-1.54,0-2.12c-0.59-0.59-1.54-0.59-2.12,0l-22,22c-0.07,0.07-0.1,0.16-0.16,0.24
	c-0.06,0.08-0.13,0.16-0.16,0.25c-0.04,0.09-0.04,0.19-0.06,0.28c-0.02,0.09-0.05,0.18-0.05,0.28c0,0.1,0.03,0.19,0.05,0.28
	c0.02,0.1,0.02,0.19,0.06,0.28c0.03,0.09,0.1,0.16,0.15,0.24c0.05,0.08,0.09,0.17,0.15,0.24l22,23c0.29,0.31,0.69,0.46,1.08,0.46
	c0.37,0,0.75-0.14,1.04-0.42c0.6-0.57,0.62-1.52,0.05-2.12L23.1,32.02z"/>
</svg>
