<?xml version="1.0" encoding="utf-8"?>
<!-- Generator: Adobe Illustrator 24.3.0, SVG Export Plug-In . SVG Version: 6.00 Build 0)  -->
<svg version="1.1" id="Layer_1" xmlns="http://www.w3.org/2000/svg" xmlns:xlink="http://www.w3.org/1999/xlink" x="0px" y="0px"
	 viewBox="0 0 64 64" style="enable-background:new 0 0 64 64;" xml:space="preserve">
<style type="text/css">
	.st0{fill:none;}
</style>
<g>
	<polygon class="st0" points="26.69,41.34 32,46.89 32,39.73 26.69,34.18 	"/>
	<polygon class="st0" points="28.83,32 28.81,32.01 32,32.01 32,32 	"/>
	<polygon class="st0" points="28.79,32.04 32,35.39 32,32.01 28.81,32.01 	"/>
	<polygon class="st0" points="32,24.58 37.69,18.89 37.69,12.13 32,17.83 	"/>
	<polygon class="st0" points="32,32 37.69,32 37.69,23.13 32,28.83 	"/>
	<rect x="32" y="32" class="st0" width="5.69" height="0.01"/>
	<polygon class="st0" points="32,32 32,28.83 28.83,32 	"/>
	<polygon class="st0" points="32,24.58 32,17.83 26.69,23.13 26.69,29.89 	"/>
	<path class="st0" d="M25.2,32c0-0.09,0.04-0.18,0.05-0.28c0.02-0.1,0.02-0.19,0.06-0.28c0.04-0.09,0.11-0.16,0.16-0.25
		c0.05-0.08,0.09-0.17,0.16-0.24l1.06-1.06v-6.76L17.83,32L25.2,32C25.19,32,25.2,32,25.2,32z"/>
	<path class="st0" d="M25.61,33.05c-0.07-0.07-0.1-0.15-0.15-0.23c-0.06-0.09-0.13-0.17-0.16-0.26c-0.04-0.09-0.04-0.19-0.05-0.28
		c-0.02-0.09-0.05-0.18-0.05-0.27h-7.38l-0.02,0.02l8.9,9.31v-7.16L25.61,33.05z"/>
	<path class="st0" d="M25.19,32.01c0,0,0-0.01,0-0.01h-7.37l-0.01,0.01H25.19z"/>
	<polygon class="st0" points="32,46.89 37.69,52.84 37.69,45.68 32,39.73 	"/>
	<polygon class="st0" points="32,32.01 32,35.39 37.69,41.34 37.69,32.01 	"/>
	<path d="M14.46,32.82c-0.06-0.09-0.13-0.17-0.16-0.26C14.34,32.65,14.41,32.73,14.46,32.82z"/>
	<polygon points="17.77,32.01 17.79,32.04 17.81,32.01 	"/>
	<path d="M14.25,31.72c0.02-0.1,0.02-0.19,0.06-0.28C14.27,31.53,14.27,31.62,14.25,31.72z"/>
	<polygon points="32,17.83 32,13.58 26.69,18.89 26.69,23.13 	"/>
	<path d="M37.69,12.13V8.51c-0.38,0-0.77,0.15-1.06,0.44L32,13.58v4.24L37.69,12.13z"/>
	<path d="M38.75,11.07c0.59-0.59,0.59-1.54,0-2.12c-0.29-0.29-0.68-0.44-1.06-0.44v3.62L38.75,11.07z"/>
	<path d="M16.78,30.98L17.76,32h0.07l8.87-8.87v-4.24L14.63,30.95c-0.07,0.07-0.1,0.16-0.16,0.24c0.06-0.09,0.1-0.18,0.18-0.26
		C15.25,30.36,16.2,30.38,16.78,30.98z"/>
	<polygon points="17.83,32 17.76,32 17.77,32.01 17.81,32.01 	"/>
	<path d="M14.19,32.01c0,0.09,0.04,0.18,0.05,0.27C14.23,32.19,14.2,32.1,14.19,32.01L14.19,32.01z"/>
	<path d="M14.2,32L14.2,32c0,0,0,0.01,0,0.01h0.01C14.2,32.01,14.2,32,14.2,32z"/>
	<polygon points="14.2,32 14.19,32 14.2,32 	"/>
	<path d="M14.2,32c0-0.09,0.04-0.18,0.05-0.28C14.23,31.81,14.2,31.9,14.2,32z"/>
	<path d="M14.3,32.56c-0.04-0.09-0.04-0.19-0.05-0.28C14.26,32.37,14.26,32.47,14.3,32.56z"/>
	<path d="M17.79,32.04l-1.04,1.04c-0.29,0.29-0.68,0.44-1.06,0.44s-0.77-0.15-1.06-0.44c-0.08-0.08-0.11-0.17-0.17-0.25
		c0.05,0.08,0.08,0.16,0.15,0.23l12.08,12.63v-4.34L17.79,32.04z"/>
	<path d="M14.31,31.43c0.04-0.09,0.11-0.16,0.16-0.25C14.42,31.27,14.35,31.34,14.31,31.43z"/>
	<polygon points="26.69,41.34 26.69,45.68 32,51.23 32,46.89 	"/>
	<path d="M38.73,56.1c0.6-0.57,0.62-1.52,0.05-2.12l-1.08-1.13v3.67C38.07,56.51,38.44,56.38,38.73,56.1z"/>
	<path d="M32,51.23l4.61,4.82c0.29,0.31,0.69,0.46,1.08,0.46h0v-3.67L32,46.89V51.23z"/>
	<path d="M14.2,32c0,0,0,0.01,0,0.01h3.57L17.76,32H14.2z"/>
	<path d="M17.76,32l-0.98-1.02c-0.57-0.6-1.52-0.62-2.12-0.05c-0.08,0.08-0.12,0.17-0.18,0.26c-0.06,0.08-0.13,0.16-0.16,0.25
		c-0.04,0.09-0.04,0.19-0.06,0.28C14.23,31.81,14.2,31.9,14.2,32c0,0,0,0,0,0H17.76z"/>
	<path d="M15.69,33.51c0.38,0,0.77-0.15,1.06-0.44l1.04-1.04l-0.02-0.02H14.2c0,0.09,0.03,0.18,0.05,0.27
		c0.02,0.09,0.02,0.19,0.05,0.28c0.04,0.09,0.11,0.17,0.16,0.26c0.06,0.09,0.09,0.18,0.17,0.25C14.92,33.37,15.31,33.51,15.69,33.51
		z"/>
	<path d="M25.25,31.72c0.02-0.1,0.02-0.19,0.06-0.28C25.27,31.53,25.27,31.62,25.25,31.72z"/>
	<path d="M26.69,30.52c0.4,0,0.79,0.15,1.08,0.46L28.76,32h0.07L32,28.83v-4.24l-5.31,5.31V30.52z"/>
	<polygon points="28.77,32.01 28.81,32.01 28.83,32 28.76,32 	"/>
	<polygon points="32,28.83 37.69,23.13 37.69,18.89 32,24.58 	"/>
	<path d="M25.46,32.82c-0.06-0.09-0.13-0.17-0.16-0.26C25.34,32.65,25.41,32.73,25.46,32.82z"/>
	<path d="M49.75,11.07c0.59-0.59,0.59-1.54,0-2.12c-0.59-0.59-1.54-0.59-2.12,0l-9.94,9.94v4.24L49.75,11.07z"/>
	<polygon points="25.2,32 25.19,32 25.2,32 	"/>
	<path d="M25.2,32L25.2,32c0,0,0,0.01,0,0.01h0.01C25.2,32.01,25.2,32,25.2,32z"/>
	<polygon points="28.79,32.04 28.81,32.01 28.77,32.01 	"/>
	<path d="M25.19,32.01c0,0.09,0.04,0.18,0.05,0.27C25.23,32.19,25.2,32.1,25.19,32.01L25.19,32.01z"/>
	<path d="M26.69,30.52v-0.63l-1.06,1.06c-0.07,0.07-0.1,0.16-0.16,0.24c0.06-0.09,0.1-0.18,0.18-0.26
		C25.95,30.65,26.32,30.52,26.69,30.52z"/>
	<polygon points="32,39.73 37.69,45.68 37.69,41.34 32,35.39 	"/>
	<path d="M27.75,33.07c-0.29,0.29-0.68,0.44-1.06,0.44v0.67L32,39.73v-4.34l-3.21-3.36L27.75,33.07z"/>
	<path d="M25.31,31.43c0.04-0.09,0.11-0.16,0.16-0.25C25.42,31.27,25.35,31.34,25.31,31.43z"/>
	<path d="M25.3,32.56c-0.04-0.09-0.04-0.19-0.05-0.28C25.26,32.37,25.26,32.47,25.3,32.56z"/>
	<path d="M47.61,56.05c0.29,0.31,0.69,0.46,1.08,0.46c0.37,0,0.75-0.14,1.04-0.42c0.6-0.57,0.62-1.52,0.05-2.12L37.69,41.34v4.34
		L47.61,56.05z"/>
	<path d="M25.63,33.07c-0.08-0.08-0.11-0.17-0.17-0.25c0.05,0.08,0.08,0.16,0.15,0.23l1.08,1.13v-0.67h0
		C26.31,33.51,25.92,33.37,25.63,33.07z"/>
	<path d="M25.2,32c0-0.09,0.04-0.18,0.05-0.28C25.23,31.81,25.2,31.9,25.2,32z"/>
	<polygon points="26.69,32.01 28.77,32.01 28.76,32 26.69,32 	"/>
	<path d="M26.69,32.01v1.5c0.38,0,0.77-0.15,1.06-0.44l1.04-1.04l-0.02-0.02H26.69z"/>
	<path d="M25.2,32.01c0,0.09,0.03,0.18,0.05,0.27c0.02,0.09,0.02,0.19,0.05,0.28c0.04,0.09,0.11,0.17,0.16,0.26
		c0.06,0.09,0.09,0.18,0.17,0.25c0.29,0.29,0.68,0.44,1.06,0.44h0v-1.5H25.2z"/>
	<path d="M28.76,32l-0.98-1.02c-0.29-0.31-0.69-0.46-1.08-0.46V32H28.76z"/>
	<path d="M25.2,32c0,0,0,0.01,0,0.01h1.49V32H25.2z"/>
	<path d="M26.69,32v-1.48c-0.37,0-0.75,0.13-1.04,0.41c-0.08,0.08-0.12,0.17-0.18,0.26c-0.06,0.08-0.13,0.16-0.16,0.25
		c-0.04,0.09-0.04,0.19-0.06,0.28C25.23,31.81,25.2,31.9,25.2,32c0,0,0,0,0,0H26.69z"/>
</g>
</svg>
