<?xml version="1.0" encoding="utf-8"?>
<!-- Generator: Adobe Illustrator 23.0.4, SVG Export Plug-In . SVG Version: 6.00 Build 0)  -->
<svg version="1.1" id="Layer_1" xmlns="http://www.w3.org/2000/svg" xmlns:xlink="http://www.w3.org/1999/xlink" x="0px" y="0px"
	 viewBox="0 0 64 64" style="enable-background:new 0 0 64 64;" xml:space="preserve">
<g>
	<path d="M55.76,24.57c4.48-5.1,4.3-12.89-0.56-17.76C50.22,1.84,42.2,1.75,37.11,6.53c-0.2,0.14-0.4,0.29-0.56,0.49l-4.4,5
		c-1.09,1.24-0.97,3.14,0.27,4.23C32.99,16.75,33.7,17,34.4,17c0.83,0,1.66-0.34,2.25-1.02l4.19-4.76c0.07-0.06,0.14-0.1,0.21-0.17
		c2.73-2.73,7.17-2.73,9.9,0c2.73,2.73,2.73,7.17,0,9.9c-0.14,0.14-0.27,0.3-0.37,0.46L36.82,35.94c-0.03,0.03-0.04,0.06-0.07,0.08
		c-2.76,2.6-6.97,2.56-9.67-0.14c-1.17-1.17-3.07-1.17-4.24,0c-1.17,1.17-1.17,3.07,0,4.24c2.46,2.46,5.71,3.81,9.16,3.81
		c3.45,0,6.7-1.35,9.16-3.81c0.08-0.08,0.14-0.17,0.21-0.26l14.01-14.8C55.53,24.91,55.65,24.74,55.76,24.57z"/>
	<path d="M25.37,47.99l-4.41,4.88c0,0-0.01,0.01-0.02,0.01c-1.32,1.32-3.08,2.05-4.95,2.05s-3.63-0.73-4.95-2.05
		c-2.73-2.73-2.73-7.17,0-9.9c0.14-0.14,0.27-0.3,0.37-0.46l13.75-14.53c0.03-0.03,0.04-0.06,0.07-0.09
		c2.76-2.6,6.97-2.56,9.67,0.14c0.59,0.59,1.35,0.88,2.12,0.88s1.54-0.29,2.12-0.88c1.17-1.17,1.17-3.07,0-4.24
		c-5.05-5.05-13.26-5.05-18.31,0c-0.08,0.08-0.14,0.17-0.21,0.26L6.62,38.87c-0.15,0.15-0.27,0.32-0.38,0.49
		c-4.48,5.1-4.3,12.89,0.56,17.76c2.46,2.46,5.72,3.81,9.19,3.81c3.19,0,6.2-1.15,8.58-3.25c0.2-0.13,0.38-0.28,0.55-0.47l4.7-5.2
		c1.11-1.23,1.02-3.13-0.21-4.24C28.38,46.66,26.48,46.76,25.37,47.99z"/>
</g>
</svg>
