<?xml version="1.0" encoding="utf-8"?>
<!-- Generator: Adobe Illustrator 23.0.4, SVG Export Plug-In . SVG Version: 6.00 Build 0)  -->
<svg version="1.1" id="Layer_1" xmlns="http://www.w3.org/2000/svg" xmlns:xlink="http://www.w3.org/1999/xlink" x="0px" y="0px"
	 viewBox="0 0 64 64" style="enable-background:new 0 0 64 64;" xml:space="preserve">
<path d="M53.5,24c0-11.85-9.64-21.5-21.5-21.5c-11.85,0-21.5,9.65-21.5,21.5c0,4.34,1.3,8.38,3.52,11.76L26.9,58.22
	c0.06,0.1,0.13,0.19,0.21,0.28c0.91,1.78,2.76,3,4.89,3c2.13,0,3.98-1.22,4.89-3c0.08-0.08,0.15-0.17,0.21-0.27l12.95-22.51
	c0.04-0.07,0.05-0.14,0.08-0.21C52.25,32.17,53.5,28.23,53.5,24z M32,13.5c5.79,0,10.5,4.71,10.5,10.5S37.79,34.5,32,34.5
	c-5.79,0-10.5-4.71-10.5-10.5S26.21,13.5,32,13.5z"/>
</svg>
