<?xml version="1.0" encoding="utf-8"?>
<!-- Generator: Adobe Illustrator 23.0.4, SVG Export Plug-In . SVG Version: 6.00 Build 0)  -->
<svg version="1.1" id="Layer_1" xmlns="http://www.w3.org/2000/svg" xmlns:xlink="http://www.w3.org/1999/xlink" x="0px" y="0px"
	 viewBox="0 0 64 64" style="enable-background:new 0 0 64 64;" xml:space="preserve">
<style type="text/css">
	.st0{fill:none;}
</style>
<g>
	<path class="st0" d="M30.48,43.99c-0.03,0.03-0.06,0.05-0.09,0.08l-0.71,6.42h4.65l-0.71-6.43c-0.03-0.03-0.06-0.05-0.09-0.08
		c-0.55-0.62-0.49-1.57,0.13-2.12c0.54-0.47,0.85-1.16,0.85-1.88c0-1.38-1.12-2.5-2.5-2.5c-1.38,0-2.5,1.12-2.5,2.5
		c0,0.72,0.31,1.4,0.85,1.88C30.97,42.42,31.03,43.37,30.48,43.99z"/>
	<path class="st0" d="M11.79,60.5h40.43V28.93H11.79V60.5z M26.5,40c0-3.03,2.47-5.5,5.5-5.5c3.03,0,5.5,2.47,5.5,5.5
		c0,1.12-0.35,2.21-0.98,3.12l0.97,8.72c0,0.03,0,0.06,0,0.09c0,0.03,0.01,0.05,0.01,0.08c0,0.02-0.01,0.04-0.01,0.07
		c0,0.05-0.01,0.11-0.02,0.16c-0.01,0.05-0.02,0.09-0.03,0.14c-0.01,0.05-0.03,0.1-0.04,0.14c-0.02,0.05-0.03,0.09-0.05,0.13
		c-0.02,0.04-0.04,0.09-0.07,0.13c-0.02,0.04-0.05,0.08-0.08,0.12c-0.03,0.04-0.06,0.08-0.09,0.11c-0.03,0.03-0.06,0.07-0.1,0.1
		c-0.04,0.03-0.08,0.07-0.12,0.1c-0.04,0.03-0.07,0.05-0.11,0.08c-0.04,0.03-0.09,0.05-0.13,0.07c-0.04,0.02-0.08,0.04-0.13,0.06
		c-0.05,0.02-0.1,0.03-0.14,0.04c-0.05,0.01-0.1,0.02-0.14,0.03c-0.02,0-0.05,0.01-0.07,0.02C36.11,53.5,36.06,53.5,36,53.5
		c0,0,0,0,0,0h-8c0,0,0,0,0,0c-0.05,0-0.11,0-0.16-0.01c-0.02,0-0.05-0.01-0.07-0.01c-0.05-0.01-0.1-0.02-0.15-0.03
		c-0.05-0.01-0.1-0.03-0.14-0.04c-0.05-0.02-0.09-0.04-0.13-0.06c-0.04-0.02-0.09-0.04-0.13-0.07c-0.04-0.03-0.08-0.05-0.12-0.08
		c-0.04-0.03-0.08-0.06-0.11-0.09c-0.04-0.03-0.07-0.07-0.1-0.1c-0.03-0.04-0.06-0.07-0.09-0.11c-0.03-0.04-0.06-0.08-0.08-0.12
		c-0.02-0.04-0.05-0.08-0.07-0.12c-0.02-0.04-0.04-0.09-0.06-0.14c-0.02-0.05-0.03-0.09-0.04-0.14c-0.01-0.05-0.02-0.09-0.03-0.14
		c-0.01-0.05-0.01-0.1-0.02-0.15c0-0.02-0.01-0.04-0.01-0.07c0-0.03,0.01-0.06,0.01-0.08c0-0.03,0-0.05,0-0.08l0.97-8.72
		C26.85,42.21,26.5,41.13,26.5,40z"/>
	<path class="st0" d="M21.5,16c0-0.1,0.01-0.2,0.03-0.29c0.3-5.58,4.92-10.03,10.58-10.03c5.41,0,9.88,4.08,10.52,9.32h2.1
		C44.07,8.55,38.62,3.5,32,3.5c-7.05,0-12.79,5.74-12.79,12.79v9.64h2.29V16z"/>
	<path d="M53.71,25.93H24.5v-9.64c0-4.19,3.41-7.6,7.6-7.6s7.6,3.41,7.6,7.6c0,0.25,0.07,0.48,0.17,0.69
		c0.2,0.59,0.75,1.03,1.42,1.03h5c0.83,0,1.5-0.67,1.5-1.5c0-0.06-0.01-0.12-0.02-0.18c0-0.01,0-0.03,0-0.04
		C47.79,7.58,40.7,0.5,32,0.5S16.21,7.58,16.21,16.29v9.64h-5.93c-0.83,0-1.5,0.67-1.5,1.5V62c0,0.83,0.67,1.5,1.5,1.5h43.43
		c0.83,0,1.5-0.67,1.5-1.5V27.43C55.21,26.6,54.54,25.93,53.71,25.93z M52.21,28.93V60.5H11.79V28.93H52.21z M19.21,16.29
		C19.21,9.24,24.95,3.5,32,3.5c6.62,0,12.07,5.05,12.72,11.5h-2.1c-0.64-5.24-5.11-9.32-10.52-9.32c-5.65,0-10.27,4.45-10.58,10.03
		C21.51,15.8,21.5,15.9,21.5,16v9.93h-2.29V16.29z"/>
	<path d="M26.51,51.92c0,0.03-0.01,0.05-0.01,0.08c0,0.02,0.01,0.04,0.01,0.07c0,0.05,0.01,0.1,0.02,0.15
		c0.01,0.05,0.02,0.09,0.03,0.14c0.01,0.05,0.03,0.09,0.04,0.14c0.02,0.05,0.03,0.09,0.06,0.14c0.02,0.04,0.04,0.08,0.07,0.12
		c0.03,0.04,0.05,0.08,0.08,0.12c0.03,0.04,0.06,0.07,0.09,0.11c0.03,0.04,0.07,0.07,0.1,0.1c0.04,0.03,0.07,0.06,0.11,0.09
		c0.04,0.03,0.08,0.06,0.12,0.08c0.04,0.03,0.08,0.05,0.13,0.07c0.04,0.02,0.09,0.04,0.13,0.06c0.05,0.02,0.09,0.03,0.14,0.04
		c0.05,0.01,0.1,0.02,0.15,0.03c0.02,0,0.05,0.01,0.07,0.01c0.05,0.01,0.11,0.01,0.16,0.01c0,0,0,0,0,0h8c0,0,0,0,0,0
		c0.05,0,0.11,0,0.16-0.01c0.02,0,0.05-0.01,0.07-0.02c0.05-0.01,0.1-0.02,0.14-0.03c0.05-0.01,0.1-0.03,0.14-0.04
		c0.04-0.02,0.09-0.04,0.13-0.06c0.05-0.02,0.09-0.05,0.13-0.07c0.04-0.02,0.08-0.05,0.11-0.08c0.04-0.03,0.08-0.06,0.12-0.1
		c0.03-0.03,0.07-0.07,0.1-0.1c0.03-0.04,0.06-0.07,0.09-0.11c0.03-0.04,0.05-0.08,0.08-0.12c0.02-0.04,0.05-0.08,0.07-0.13
		c0.02-0.04,0.04-0.09,0.05-0.13c0.02-0.05,0.03-0.09,0.04-0.14c0.01-0.05,0.02-0.09,0.03-0.14c0.01-0.05,0.01-0.11,0.02-0.16
		c0-0.02,0.01-0.04,0.01-0.07c0-0.03-0.01-0.05-0.01-0.08c0-0.03,0-0.06,0-0.09l-0.97-8.72c0.63-0.91,0.98-1.99,0.98-3.12
		c0-3.03-2.47-5.5-5.5-5.5c-3.03,0-5.5,2.47-5.5,5.5c0,1.13,0.35,2.21,0.98,3.12l-0.97,8.72C26.51,51.86,26.51,51.89,26.51,51.92z
		 M32,37.5c1.38,0,2.5,1.12,2.5,2.5c0,0.72-0.31,1.4-0.85,1.88c-0.62,0.55-0.68,1.5-0.13,2.12c0.03,0.03,0.06,0.05,0.09,0.08
		l0.71,6.43h-4.65l0.71-6.42c0.03-0.03,0.06-0.05,0.09-0.08c0.55-0.62,0.49-1.57-0.13-2.12C29.81,41.4,29.5,40.72,29.5,40
		C29.5,38.62,30.62,37.5,32,37.5z"/>
</g>
</svg>
