<?xml version="1.0" encoding="utf-8"?>
<!-- Generator: Adobe Illustrator 24.2.3, SVG Export Plug-In . SVG Version: 6.00 Build 0)  -->
<svg version="1.1" id="Layer_1" xmlns="http://www.w3.org/2000/svg" xmlns:xlink="http://www.w3.org/1999/xlink" x="0px" y="0px"
	 viewBox="0 0 64 64" style="enable-background:new 0 0 64 64;" xml:space="preserve">
<g>
	<path d="M28.5,60c0-0.83,0.67-1.5,1.5-1.5h-8c-1.38,0-2.5-1.12-2.5-2.5c0,0.83-0.67,1.5-1.5,1.5s-1.5-0.67-1.5-1.5
		c0,3.03,2.47,5.5,5.5,5.5h8C29.17,61.5,28.5,60.83,28.5,60z"/>
	<path d="M53.5,8c0-3.03-2.47-5.5-5.5-5.5h-8c0.83,0,1.5,0.67,1.5,1.5S40.83,5.5,40,5.5h8c1.38,0,2.5,1.12,2.5,2.5v24h3V8z"/>
	<path d="M50.5,32v24c0,1.38-1.12,2.5-2.5,2.5h-8c0.83,0,1.5,0.67,1.5,1.5s-0.67,1.5-1.5,1.5h8c3.03,0,5.5-2.47,5.5-5.5V32H50.5z"/>
	<path d="M28.5,4c0-0.83,0.67-1.5,1.5-1.5h-8c-3.03,0-5.5,2.47-5.5,5.5v8c0,0.83,0.67,1.5,1.5,1.5s1.5-0.67,1.5-1.5V8
		c0-1.38,1.12-2.5,2.5-2.5h8C29.17,5.5,28.5,4.83,28.5,4z"/>
	<path d="M18,54.5c0.83,0,1.5,0.67,1.5,1.5v-7.77c0-0.83-0.67-1.5-1.5-1.5s-1.5,0.67-1.5,1.5V56C16.5,55.17,17.17,54.5,18,54.5z"/>
	<circle cx="18" cy="56" r="1.5"/>
	<path d="M38.5,4c0-0.83,0.67-1.5,1.5-1.5H30c0.83,0,1.5,0.67,1.5,1.5S30.83,5.5,30,5.5h10C39.17,5.5,38.5,4.83,38.5,4z"/>
	<circle cx="40" cy="4" r="1.5"/>
	<circle cx="30" cy="4" r="1.5"/>
	<path d="M38.5,60c0-0.83,0.67-1.5,1.5-1.5H30c0.83,0,1.5,0.67,1.5,1.5s-0.67,1.5-1.5,1.5h10C39.17,61.5,38.5,60.83,38.5,60z"/>
	<circle cx="30" cy="60" r="1.5"/>
	<circle cx="40" cy="60" r="1.5"/>
	<path d="M30,30.79c-0.03-0.04-0.05-0.08-0.08-0.12c0.02,0.02,0.03,0.05,0.04,0.07C29.98,30.76,29.99,30.78,30,30.79z"/>
	<path d="M30.22,31.23c-0.02-0.04-0.03-0.09-0.05-0.13c0.01,0.03,0.02,0.06,0.03,0.09C30.2,31.2,30.21,31.21,30.22,31.23z"/>
	<path d="M30.16,33.14c0.02-0.04,0.04-0.08,0.05-0.13c-0.01,0.02-0.02,0.04-0.03,0.06C30.18,33.09,30.17,33.11,30.16,33.14z"/>
	<path d="M30.34,31.69c-0.01-0.04-0.01-0.08-0.02-0.12c0.01,0.03,0.01,0.06,0.01,0.09C30.34,31.67,30.34,31.68,30.34,31.69z"/>
	<path d="M29.91,33.57c0.03-0.04,0.06-0.08,0.08-0.12c-0.01,0.02-0.03,0.04-0.05,0.06C29.93,33.53,29.92,33.55,29.91,33.57z"/>
	<path d="M30.32,32.67c0.01-0.04,0.02-0.08,0.02-0.12c0,0.02-0.01,0.04-0.01,0.05C30.32,32.62,30.32,32.65,30.32,32.67z"/>
	<path d="M7,29.92C6.25,30.32,5.73,31.1,5.69,32H7V29.92z"/>
	<path d="M5.69,32c0,0.04-0.01,0.07-0.01,0.11c0,0.95,0.54,1.77,1.32,2.19V32H5.69z"/>
	<path d="M24.7,32H7v2.3c0.35,0.19,0.75,0.31,1.18,0.31h14.65l1.93-2.53L24.7,32z"/>
	<path d="M30.38,32.18c0-0.02,0.01-0.04,0.01-0.07c0-0.02,0-0.03-0.01-0.05c0,0.02,0,0.05,0,0.07
		C30.38,32.15,30.38,32.16,30.38,32.18z"/>
	<path d="M24.7,32l-1.76-2.39H8.18c-0.43,0-0.83,0.12-1.18,0.31V32H24.7z"/>
	<path d="M29.99,33.44c0.03-0.05,0.06-0.1,0.09-0.16c-0.01,0.02-0.02,0.03-0.03,0.05C30.03,33.37,30.02,33.41,29.99,33.44z"/>
	<path d="M30.17,31.1c-0.02-0.04-0.04-0.08-0.07-0.13c0.01,0.01,0.01,0.02,0.01,0.03C30.13,31.04,30.15,31.07,30.17,31.1z"/>
	<path d="M27.96,29.62c0.09,0,0.17,0.01,0.26,0.03c0.08,0.01,0.16,0.02,0.23,0.04c0.08,0.02,0.15,0.04,0.23,0.07
		c0.08,0.03,0.16,0.05,0.24,0.09c0.07,0.03,0.13,0.07,0.19,0.1c0.08,0.05,0.16,0.09,0.24,0.15c0.02,0.01,0.04,0.02,0.06,0.04
		c0.04,0.03,0.07,0.07,0.11,0.1c0.07,0.06,0.13,0.12,0.2,0.18c0.05,0.06,0.1,0.12,0.15,0.18c0.02,0.03,0.04,0.05,0.06,0.08
		c-0.01-0.01-0.02-0.03-0.03-0.04l-5.94-8.06c-0.82-1.11-2.38-1.35-3.5-0.53c-1.11,0.82-1.35,2.38-0.53,3.5l3.01,4.08h4.95
		C27.91,29.61,27.93,29.62,27.96,29.62z"/>
	<path d="M30.38,32.06c0-0.02,0-0.04,0-0.06h-0.01C30.38,32.02,30.38,32.04,30.38,32.06z"/>
	<path d="M30.37,31.96c0,0.01,0,0.03,0,0.04h0.01c0-0.04-0.01-0.07-0.02-0.11C30.37,31.91,30.37,31.94,30.37,31.96z"/>
	<path d="M30.34,32.55c0.01-0.06,0.02-0.12,0.02-0.17c0,0.03-0.01,0.05-0.01,0.08C30.35,32.48,30.35,32.52,30.34,32.55z"/>
	<path d="M30.21,33.01c0.02-0.06,0.04-0.11,0.06-0.17c-0.01,0.02-0.02,0.04-0.02,0.07C30.23,32.94,30.22,32.98,30.21,33.01z"/>
	<path d="M30.32,31.57c-0.01-0.05-0.03-0.1-0.04-0.15c0,0.01,0.01,0.03,0.01,0.04C30.3,31.5,30.31,31.53,30.32,31.57z"/>
	<path d="M24.83,32l1.07-1.41c0.51-0.66,1.28-1,2.06-0.98c-0.02,0-0.05-0.01-0.07-0.01h-4.95L24.7,32H24.83z"/>
	<path d="M29.97,30.74c-0.02-0.02-0.03-0.05-0.04-0.07c-0.02-0.03-0.04-0.05-0.06-0.08C29.9,30.64,29.93,30.69,29.97,30.74z"/>
	<path d="M29.11,29.94c0.08,0.05,0.16,0.09,0.24,0.15C29.27,30.03,29.19,29.99,29.11,29.94z"/>
	<path d="M30.37,32c0-0.01,0-0.03,0-0.04C30.37,31.97,30.37,31.99,30.37,32L30.37,32z"/>
	<path d="M29.51,30.23c0.07,0.06,0.14,0.12,0.2,0.18C29.65,30.34,29.58,30.29,29.51,30.23z"/>
	<path d="M28.22,29.64c0.08,0.01,0.15,0.02,0.23,0.04C28.37,29.66,28.3,29.65,28.22,29.64z"/>
	<path d="M30.34,31.66c-0.01-0.03-0.01-0.06-0.01-0.09c-0.01-0.04-0.02-0.07-0.03-0.11C30.31,31.52,30.32,31.59,30.34,31.66z"/>
	<polygon points="24.7,32 24.76,32.08 24.83,32 	"/>
	<path d="M30.2,31.19c-0.01-0.03-0.02-0.06-0.03-0.09c-0.01-0.03-0.04-0.06-0.05-0.09C30.15,31.07,30.18,31.13,30.2,31.19z"/>
	<path d="M28.68,29.75c0.08,0.03,0.16,0.05,0.24,0.09C28.84,29.8,28.76,29.78,28.68,29.75z"/>
	<path d="M30.19,33.07c0.01-0.02,0.02-0.04,0.03-0.06c0.01-0.03,0.02-0.07,0.03-0.1C30.23,32.96,30.21,33.01,30.19,33.07z"/>
	<path d="M30.33,32.6c0-0.02,0.01-0.04,0.01-0.05c0.01-0.03,0.01-0.06,0.01-0.09C30.34,32.5,30.34,32.55,30.33,32.6z"/>
	<path d="M29.95,33.51c0.01-0.02,0.03-0.04,0.05-0.06c0.02-0.03,0.04-0.07,0.06-0.11C30.02,33.39,29.98,33.45,29.95,33.51z"/>
	<path d="M30.37,32c0,0.04,0.01,0.09,0,0.13c0-0.02,0-0.05,0-0.07C30.38,32.04,30.38,32.02,30.37,32L30.37,32z"/>
	<path d="M30.36,32.37c0.01-0.07,0.01-0.13,0.02-0.19c0,0.03-0.01,0.07-0.01,0.1C30.37,32.31,30.37,32.34,30.36,32.37z"/>
	<path d="M30.08,33.29c0.03-0.05,0.05-0.1,0.08-0.15c-0.02,0.03-0.04,0.07-0.05,0.1C30.1,33.25,30.09,33.27,30.08,33.29z"/>
	<path d="M30.37,31.89c-0.01-0.07-0.01-0.13-0.02-0.2c0,0.03,0,0.06,0.01,0.09C30.36,31.82,30.36,31.85,30.37,31.89z"/>
	<path d="M30.28,31.42c-0.02-0.06-0.04-0.13-0.06-0.19c0.01,0.03,0.02,0.07,0.03,0.11C30.26,31.36,30.27,31.39,30.28,31.42z"/>
	<path d="M29.7,33.83c-0.06,0.07-0.14,0.13-0.21,0.19c-0.04,0.03-0.08,0.08-0.12,0.11c-0.02,0.01-0.03,0.02-0.05,0.03
		c-0.05,0.03-0.09,0.06-0.14,0.09c-0.08,0.05-0.17,0.1-0.25,0.14c-0.05,0.02-0.1,0.04-0.15,0.06c-0.1,0.04-0.19,0.07-0.29,0.09
		c-0.05,0.01-0.09,0.02-0.14,0.03c-0.15,0.03-0.3,0.05-0.45,0.05c0,0,0,0,0,0c0,0,0,0,0,0h-5.05l-2.96,3.88
		c-0.84,1.1-0.63,2.67,0.47,3.5c0.45,0.35,0.99,0.51,1.51,0.51c0.75,0,1.5-0.34,1.99-0.98l6.03-7.9c0.01-0.02,0.02-0.04,0.04-0.06
		c-0.02,0.03-0.04,0.05-0.07,0.08C29.8,33.71,29.75,33.77,29.7,33.83z"/>
	<path d="M30.27,32.84c0.02-0.06,0.04-0.11,0.05-0.17c-0.01,0.04-0.02,0.07-0.03,0.11C30.28,32.8,30.27,32.82,30.27,32.84z"/>
	<path d="M30.1,30.97c-0.03-0.06-0.06-0.12-0.1-0.18c0.02,0.04,0.04,0.08,0.06,0.12C30.08,30.93,30.09,30.95,30.1,30.97z"/>
	<path d="M29.7,33.83c-0.06,0.07-0.14,0.13-0.21,0.19C29.56,33.95,29.63,33.89,29.7,33.83z"/>
	<path d="M30.28,32.78c0.01-0.04,0.03-0.07,0.03-0.11c0.01-0.02,0.01-0.05,0.01-0.07C30.32,32.66,30.3,32.72,30.28,32.78z"/>
	<path d="M30.37,32.28c0-0.03,0.01-0.07,0.01-0.1c0-0.02,0-0.03,0-0.05C30.38,32.18,30.37,32.23,30.37,32.28z"/>
	<path d="M28.93,34.38c-0.05,0.02-0.1,0.04-0.15,0.06C28.83,34.42,28.88,34.4,28.93,34.38z"/>
	<path d="M27.89,34.61c-0.77,0-1.52-0.35-2.01-1.02l-1.11-1.51l-1.93,2.53L27.89,34.61C27.89,34.61,27.89,34.61,27.89,34.61z"/>
	<path d="M28.48,34.53c-0.05,0.01-0.09,0.02-0.14,0.03C28.39,34.56,28.43,34.54,28.48,34.53z"/>
	<path d="M29.32,34.15c-0.05,0.03-0.09,0.06-0.14,0.09C29.23,34.21,29.28,34.18,29.32,34.15z"/>
	<path d="M30.07,30.91c-0.02-0.04-0.04-0.08-0.06-0.12c-0.01-0.02-0.02-0.03-0.04-0.05C30,30.8,30.04,30.85,30.07,30.91z"/>
	<path d="M30.11,33.24c0.02-0.03,0.04-0.06,0.05-0.1c0.01-0.02,0.02-0.05,0.03-0.07C30.16,33.12,30.13,33.18,30.11,33.24z"/>
	<path d="M30.35,31.78c0-0.03,0-0.06-0.01-0.09c0-0.01-0.01-0.02-0.01-0.04C30.34,31.7,30.35,31.74,30.35,31.78z"/>
	<path d="M29.84,33.65c0.02-0.03,0.05-0.05,0.07-0.08c0.01-0.02,0.02-0.04,0.04-0.06C29.91,33.55,29.88,33.6,29.84,33.65z"/>
	<path d="M30.25,31.33c-0.01-0.03-0.02-0.07-0.03-0.11c0-0.01-0.01-0.03-0.02-0.04C30.22,31.24,30.23,31.28,30.25,31.33z"/>
	<path d="M30.05,33.34c0.01-0.02,0.02-0.03,0.03-0.05c0.01-0.02,0.01-0.03,0.02-0.05C30.09,33.27,30.07,33.3,30.05,33.34z"/>
	<path d="M28.78,34.44c-0.1,0.04-0.19,0.07-0.29,0.09C28.58,34.51,28.68,34.48,28.78,34.44z"/>
	<path d="M27.89,34.61c0.15,0,0.3-0.02,0.45-0.05C28.19,34.59,28.04,34.61,27.89,34.61C27.89,34.61,27.89,34.61,27.89,34.61z"/>
	<path d="M29.37,34.12c0.04-0.03,0.08-0.07,0.12-0.11c-0.06,0.05-0.11,0.1-0.17,0.14C29.34,34.14,29.35,34.13,29.37,34.12z"/>
	<path d="M29.84,33.65c-0.05,0.06-0.09,0.12-0.15,0.18C29.75,33.77,29.8,33.71,29.84,33.65z"/>
	<path d="M30.12,31.01c-0.01-0.01-0.01-0.02-0.01-0.03c-0.01-0.02-0.02-0.04-0.04-0.06C30.08,30.94,30.1,30.97,30.12,31.01z"/>
	<path d="M29.18,34.24c-0.08,0.05-0.17,0.1-0.25,0.14C29.01,34.34,29.1,34.29,29.18,34.24z"/>
	<path d="M30.35,32.45c0-0.03,0.01-0.05,0.01-0.08c0-0.03,0-0.06,0.01-0.09C30.36,32.34,30.36,32.4,30.35,32.45z"/>
	<path d="M30.24,32.91c0.01-0.02,0.02-0.04,0.02-0.07c0.01-0.02,0.01-0.04,0.02-0.06C30.27,32.83,30.26,32.87,30.24,32.91z"/>
	<path d="M29.4,30.12c-0.02-0.01-0.04-0.02-0.06-0.04c0.06,0.04,0.11,0.09,0.17,0.14C29.47,30.19,29.44,30.15,29.4,30.12z"/>
	<path d="M28.92,29.84c0.07,0.03,0.13,0.07,0.19,0.1C29.04,29.91,28.98,29.87,28.92,29.84z"/>
	<path d="M29.71,30.41c0.05,0.06,0.1,0.12,0.15,0.18C29.81,30.53,29.76,30.47,29.71,30.41z"/>
	<path d="M28.45,29.68c0.08,0.02,0.15,0.05,0.23,0.07C28.6,29.72,28.53,29.7,28.45,29.68z"/>
	<path d="M27.96,29.62c0.09,0,0.18,0.01,0.26,0.03C28.13,29.63,28.05,29.62,27.96,29.62z"/>
	<path d="M30.29,31.46c0-0.01-0.01-0.03-0.01-0.04c-0.01-0.03-0.02-0.06-0.03-0.09C30.26,31.37,30.28,31.42,30.29,31.46z"/>
	<path d="M30.37,31.96c0-0.02,0-0.05,0-0.07c0-0.04-0.01-0.07-0.02-0.11C30.36,31.84,30.37,31.9,30.37,31.96z"/>
	<path d="M30.34,31.66c-0.01-0.07-0.03-0.13-0.05-0.2c-0.01-0.04-0.03-0.09-0.04-0.13c-0.02-0.05-0.03-0.1-0.05-0.14
		c-0.02-0.06-0.05-0.12-0.08-0.18c-0.02-0.03-0.03-0.06-0.05-0.09c-0.03-0.06-0.06-0.11-0.1-0.17c-0.03-0.05-0.07-0.1-0.11-0.15
		c-0.05-0.06-0.1-0.13-0.15-0.18c-0.06-0.06-0.13-0.12-0.2-0.18c-0.06-0.05-0.11-0.1-0.17-0.14c-0.08-0.06-0.16-0.1-0.24-0.15
		c-0.06-0.04-0.12-0.07-0.19-0.1c-0.08-0.04-0.16-0.06-0.24-0.09c-0.07-0.03-0.15-0.05-0.23-0.07c-0.08-0.02-0.15-0.03-0.23-0.04
		c-0.09-0.01-0.17-0.02-0.26-0.03c-0.78-0.02-1.55,0.31-2.06,0.98L24.83,32h5.55c0-0.01,0-0.03,0-0.04c0-0.06-0.01-0.12-0.02-0.18
		C30.35,31.74,30.34,31.7,30.34,31.66z"/>
	<path d="M24.76,32.08l1.11,1.51c0.49,0.66,1.25,1.02,2.01,1.02c0.16,0,0.31-0.02,0.45-0.05c0.05-0.01,0.09-0.02,0.14-0.03
		c0.1-0.02,0.2-0.05,0.29-0.09c0.05-0.02,0.1-0.04,0.15-0.06c0.09-0.04,0.17-0.09,0.25-0.14c0.05-0.03,0.1-0.06,0.14-0.09
		c0.06-0.04,0.11-0.09,0.17-0.14c0.07-0.06,0.14-0.12,0.21-0.19c0.05-0.06,0.1-0.12,0.15-0.18c0.04-0.05,0.07-0.09,0.1-0.14
		c0.04-0.06,0.07-0.11,0.1-0.17c0.02-0.03,0.04-0.07,0.05-0.1c0.03-0.06,0.06-0.11,0.08-0.17c0.02-0.05,0.04-0.1,0.06-0.16
		c0.01-0.04,0.03-0.08,0.04-0.13c0.02-0.06,0.03-0.12,0.05-0.18c0.01-0.05,0.02-0.1,0.02-0.15c0.01-0.06,0.01-0.12,0.02-0.18
		c0-0.05,0.01-0.1,0.01-0.15c0-0.04,0-0.09,0-0.13h-5.55L24.76,32.08z"/>
</g>
</svg>
