<?xml version="1.0" encoding="utf-8"?>
<!-- Generator: Adobe Illustrator 24.2.3, SVG Export Plug-In . SVG Version: 6.00 Build 0)  -->
<svg version="1.1" id="Layer_1" xmlns="http://www.w3.org/2000/svg" xmlns:xlink="http://www.w3.org/1999/xlink" x="0px" y="0px"
	 viewBox="0 0 64 64" style="enable-background:new 0 0 64 64;" xml:space="preserve">
<style type="text/css">
	.st0{fill:none;}
</style>
<g>
	<path class="st0" d="M31.32,31.89c0,0.04-0.01,0.07-0.01,0.11H50.5V8c0-1.38-1.12-2.5-2.5-2.5h-8H30v24.2
		C30.78,30.12,31.32,30.94,31.32,31.89z"/>
	<path class="st0" d="M48,58.5c1.38,0,2.5-1.12,2.5-2.5V32H31.31c-0.04,0.9-0.56,1.68-1.31,2.08V58.5h10H48z"/>
	<path d="M28.5,60c0-0.83,0.67-1.5,1.5-1.5h-8c-1.38,0-2.5-1.12-2.5-2.5c0,0.83-0.67,1.5-1.5,1.5s-1.5-0.67-1.5-1.5
		c0,3.03,2.47,5.5,5.5,5.5h8C29.17,61.5,28.5,60.83,28.5,60z"/>
	<path d="M41.5,4c0,0.83-0.67,1.5-1.5,1.5h8c1.38,0,2.5,1.12,2.5,2.5v24h3V8c0-3.03-2.47-5.5-5.5-5.5h-8C40.83,2.5,41.5,3.17,41.5,4
		z"/>
	<path d="M50.5,32v24c0,1.38-1.12,2.5-2.5,2.5h-8c0.83,0,1.5,0.67,1.5,1.5s-0.67,1.5-1.5,1.5h8c3.03,0,5.5-2.47,5.5-5.5V32H50.5z"/>
	<path d="M28.5,4c0-0.83,0.67-1.5,1.5-1.5h-8c-3.03,0-5.5,2.47-5.5,5.5v8c0,0.83,0.67,1.5,1.5,1.5s1.5-0.67,1.5-1.5V8
		c0-1.38,1.12-2.5,2.5-2.5h8C29.17,5.5,28.5,4.83,28.5,4z"/>
	<path d="M18,54.5c0.83,0,1.5,0.67,1.5,1.5v-7.77c0-0.83-0.67-1.5-1.5-1.5s-1.5,0.67-1.5,1.5V56C16.5,55.17,17.17,54.5,18,54.5z"/>
	<circle cx="18" cy="56" r="1.5"/>
	<path d="M38.5,4c0-0.83,0.67-1.5,1.5-1.5H30c0.83,0,1.5,0.67,1.5,1.5S30.83,5.5,30,5.5h10C39.17,5.5,38.5,4.83,38.5,4z"/>
	<circle cx="40" cy="4" r="1.5"/>
	<path d="M28.5,4c0,0.83,0.67,1.5,1.5,1.5v-3C29.17,2.5,28.5,3.17,28.5,4z"/>
	<path d="M31.5,4c0-0.83-0.67-1.5-1.5-1.5v3C30.83,5.5,31.5,4.83,31.5,4z"/>
	<path d="M38.5,60c0-0.83,0.67-1.5,1.5-1.5H30c0.83,0,1.5,0.67,1.5,1.5s-0.67,1.5-1.5,1.5h10C39.17,61.5,38.5,60.83,38.5,60z"/>
	<path d="M28.5,60c0,0.83,0.67,1.5,1.5,1.5v-3C29.17,58.5,28.5,59.17,28.5,60z"/>
	<path d="M31.5,60c0-0.83-0.67-1.5-1.5-1.5v3C30.83,61.5,31.5,60.83,31.5,60z"/>
	<circle cx="40" cy="60" r="1.5"/>
	<path d="M12.3,32l1.76,2.39h14.76c0.43,0,0.83-0.12,1.18-0.31V32H12.3z"/>
	<path d="M6.84,30.86c-0.02,0.04-0.04,0.08-0.05,0.13c0.01-0.02,0.02-0.04,0.03-0.06C6.82,30.91,6.83,30.88,6.84,30.86z"/>
	<path d="M6.66,32.31c0.01,0.04,0.01,0.08,0.02,0.12c-0.01-0.03-0.01-0.06-0.01-0.09C6.66,32.33,6.66,32.32,6.66,32.31z"/>
	<path d="M7.09,30.43c-0.03,0.04-0.06,0.08-0.08,0.12c0.01-0.02,0.03-0.04,0.05-0.07C7.07,30.47,7.08,30.45,7.09,30.43z"/>
	<path d="M7,33.21c0.03,0.04,0.05,0.08,0.08,0.12c-0.02-0.02-0.03-0.05-0.04-0.07C7.02,33.24,7.01,33.22,7,33.21z"/>
	<path d="M6.78,32.77c0.02,0.04,0.03,0.09,0.05,0.13c-0.01-0.03-0.02-0.06-0.03-0.09C6.8,32.8,6.79,32.79,6.78,32.77z"/>
	<path d="M6.62,31.82c0,0.02-0.01,0.04-0.01,0.07c0,0.02,0,0.03,0.01,0.05c0-0.02,0-0.05,0-0.07C6.62,31.85,6.62,31.84,6.62,31.82z"
		/>
	<path d="M12.3,32H30v-2.3c-0.35-0.19-0.75-0.31-1.18-0.31H14.17l-1.93,2.53L12.3,32z"/>
	<path d="M31.31,32c0-0.04,0.01-0.07,0.01-0.11c0-0.95-0.54-1.77-1.32-2.19V32H31.31z"/>
	<path d="M6.68,31.33c-0.01,0.04-0.02,0.08-0.02,0.12c0-0.02,0.01-0.04,0.01-0.05C6.68,31.38,6.68,31.35,6.68,31.33z"/>
	<path d="M31.31,32H30v2.08C30.75,33.68,31.27,32.9,31.31,32z"/>
	<path d="M6.66,31.45c-0.01,0.06-0.02,0.12-0.02,0.17c0-0.03,0.01-0.05,0.01-0.08C6.65,31.52,6.65,31.48,6.66,31.45z"/>
	<path d="M9.11,34.39C9.11,34.39,9.11,34.39,9.11,34.39c-0.15,0-0.31-0.02-0.46-0.05c-0.05-0.01-0.1-0.02-0.15-0.04
		c-0.1-0.02-0.19-0.05-0.29-0.09c-0.05-0.02-0.11-0.04-0.16-0.07c-0.08-0.04-0.16-0.08-0.24-0.13c-0.05-0.03-0.11-0.06-0.16-0.1
		c-0.02-0.01-0.04-0.03-0.06-0.04c-0.04-0.03-0.07-0.07-0.11-0.1c-0.07-0.06-0.14-0.12-0.2-0.19c-0.05-0.06-0.1-0.12-0.15-0.18
		c-0.02-0.03-0.04-0.05-0.06-0.08c0.01,0.01,0.01,0.03,0.02,0.04l5.94,8.06c0.49,0.67,1.25,1.02,2.01,1.02
		c0.52,0,1.04-0.16,1.48-0.49c1.11-0.82,1.35-2.38,0.53-3.5l-3.01-4.08L9.11,34.39C9.11,34.39,9.11,34.39,9.11,34.39z"/>
	<path d="M6.79,30.99c-0.02,0.06-0.04,0.11-0.06,0.17c0.01-0.02,0.02-0.04,0.02-0.07C6.77,31.06,6.78,31.02,6.79,30.99z"/>
	<path d="M6.62,31.94c0,0.02,0,0.04,0,0.06h0.01C6.62,31.98,6.62,31.96,6.62,31.94z"/>
	<path d="M6.68,32.43c0.01,0.05,0.03,0.1,0.04,0.15c0-0.01-0.01-0.03-0.01-0.04C6.7,32.5,6.69,32.47,6.68,32.43z"/>
	<path d="M6.83,32.9c0.02,0.04,0.04,0.08,0.07,0.13c-0.01-0.01-0.01-0.02-0.01-0.03C6.87,32.96,6.85,32.93,6.83,32.9z"/>
	<path d="M6.63,32L6.63,32c-0.01,0.04,0,0.07,0.01,0.11c0-0.02,0-0.05,0-0.07C6.63,32.03,6.63,32.01,6.63,32z"/>
	<path d="M7.01,30.55c-0.03,0.05-0.06,0.11-0.09,0.16c0.01-0.02,0.02-0.03,0.03-0.05C6.97,30.63,6.98,30.59,7.01,30.55z"/>
	<path d="M7.82,34.02c-0.05-0.03-0.11-0.06-0.16-0.1C7.71,33.95,7.77,33.99,7.82,34.02z"/>
	<path d="M7.06,30.49c-0.02,0.02-0.03,0.04-0.05,0.07c-0.02,0.04-0.04,0.07-0.06,0.11C6.98,30.61,7.02,30.55,7.06,30.49z"/>
	<path d="M6.63,32c0,0.01,0,0.03,0,0.04C6.63,32.03,6.63,32.01,6.63,32L6.63,32z"/>
	<path d="M7.49,33.78c-0.07-0.06-0.14-0.12-0.2-0.19C7.35,33.66,7.42,33.72,7.49,33.78z"/>
	<polygon points="12.17,32 12.3,32 12.24,31.92 	"/>
	<path d="M6.8,32.81c0.01,0.03,0.02,0.06,0.03,0.09c0.01,0.03,0.04,0.06,0.05,0.09C6.85,32.93,6.83,32.87,6.8,32.81z"/>
	<path d="M6.63,32c0-0.04-0.01-0.09,0-0.13c0,0.02,0,0.05,0,0.07C6.62,31.96,6.62,31.98,6.63,32L6.63,32z"/>
	<path d="M6.66,32.34c0.01,0.03,0.01,0.06,0.01,0.09c0.01,0.04,0.02,0.07,0.03,0.11C6.69,32.48,6.68,32.41,6.66,32.34z"/>
	<path d="M7.03,33.26c0.02,0.02,0.03,0.05,0.04,0.07c0.02,0.03,0.04,0.05,0.06,0.08C7.1,33.36,7.07,33.31,7.03,33.26z"/>
	<path d="M12.17,32l-1.07,1.41c-0.49,0.64-1.24,0.98-1.99,0.98c0,0,0,0,0,0h4.95L12.3,32H12.17z"/>
	<path d="M6.82,30.93c-0.01,0.02-0.02,0.04-0.03,0.06c-0.01,0.03-0.02,0.07-0.03,0.1C6.77,31.04,6.79,30.98,6.82,30.93z"/>
	<path d="M8.22,34.22c-0.05-0.02-0.11-0.04-0.16-0.07C8.11,34.17,8.17,34.2,8.22,34.22z"/>
	<path d="M8.66,34.34c-0.05-0.01-0.1-0.02-0.15-0.04C8.56,34.32,8.61,34.33,8.66,34.34z"/>
	<path d="M6.67,31.4c0,0.02-0.01,0.04-0.01,0.05c-0.01,0.03-0.01,0.06-0.01,0.09C6.66,31.5,6.66,31.45,6.67,31.4z"/>
	<path d="M6.72,32.58c0.02,0.07,0.04,0.13,0.06,0.19c-0.01-0.03-0.02-0.07-0.03-0.11C6.74,32.64,6.73,32.61,6.72,32.58z"/>
	<path d="M6.73,31.16c-0.02,0.06-0.04,0.11-0.05,0.17c0.01-0.04,0.02-0.07,0.03-0.11C6.72,31.2,6.73,31.18,6.73,31.16z"/>
	<path d="M6.63,32.11c0.01,0.07,0.01,0.13,0.02,0.2c0-0.03-0.01-0.06-0.01-0.09C6.64,32.18,6.64,32.15,6.63,32.11z"/>
	<path d="M6.64,31.63c-0.01,0.07-0.01,0.13-0.02,0.19c0-0.03,0.01-0.07,0.01-0.1C6.63,31.69,6.63,31.66,6.64,31.63z"/>
	<path d="M6.9,33.03c0.03,0.06,0.06,0.12,0.1,0.18c-0.02-0.04-0.04-0.08-0.07-0.12C6.92,33.06,6.91,33.05,6.9,33.03z"/>
	<path d="M6.92,30.72c-0.03,0.05-0.05,0.1-0.07,0.14c0.02-0.03,0.04-0.06,0.05-0.1C6.9,30.75,6.91,30.73,6.92,30.72z"/>
	<path d="M7.3,30.17c0.06-0.07,0.13-0.12,0.2-0.18c0.04-0.04,0.08-0.08,0.13-0.11c0.01-0.01,0.03-0.02,0.04-0.03
		c0.08-0.05,0.16-0.1,0.24-0.14c0.06-0.03,0.12-0.07,0.19-0.1c0.07-0.03,0.15-0.05,0.23-0.08c0.08-0.03,0.16-0.06,0.24-0.07
		c0.07-0.02,0.14-0.02,0.21-0.03c0.1-0.01,0.19-0.03,0.28-0.03c0.02,0,0.03,0,0.05,0h5.05l2.96-3.88c0.84-1.1,0.63-2.67-0.47-3.5
		c-1.1-0.84-2.67-0.63-3.5,0.47l-6.03,7.9c-0.01,0.02-0.02,0.04-0.04,0.06c0.02-0.03,0.04-0.05,0.06-0.07
		C7.2,30.29,7.25,30.23,7.3,30.17z"/>
	<path d="M7.15,30.36c-0.02,0.03-0.04,0.05-0.06,0.07c-0.01,0.02-0.02,0.04-0.03,0.06C7.09,30.44,7.12,30.4,7.15,30.36z"/>
	<path d="M9.07,29.39c0.78-0.01,1.56,0.33,2.06,1.01l1.11,1.51l1.93-2.53H9.11C9.1,29.39,9.08,29.39,9.07,29.39z"/>
	<path d="M6.65,32.22c0,0.03,0,0.06,0.01,0.09c0,0.01,0.01,0.02,0.01,0.04C6.66,32.3,6.65,32.26,6.65,32.22z"/>
	<path d="M6.63,31.72c0,0.03-0.01,0.07-0.01,0.1c0,0.02,0,0.03,0,0.05C6.62,31.82,6.63,31.77,6.63,31.72z"/>
	<path d="M8.57,29.45c0.07-0.02,0.14-0.02,0.21-0.03C8.71,29.43,8.64,29.44,8.57,29.45z"/>
	<path d="M8.1,29.61c0.08-0.03,0.15-0.05,0.23-0.08C8.26,29.55,8.18,29.57,8.1,29.61z"/>
	<path d="M6.89,30.77c-0.02,0.03-0.04,0.06-0.05,0.1c-0.01,0.02-0.02,0.05-0.03,0.07C6.84,30.87,6.86,30.82,6.89,30.77z"/>
	<path d="M6.93,33.08c0.02,0.04,0.04,0.08,0.07,0.12c0.01,0.02,0.02,0.03,0.04,0.05C7,33.2,6.96,33.14,6.93,33.08z"/>
	<path d="M6.75,32.67c0.01,0.04,0.02,0.07,0.03,0.11c0.01,0.01,0.01,0.03,0.02,0.04C6.78,32.76,6.77,32.72,6.75,32.67z"/>
	<path d="M7.67,29.85c0.08-0.05,0.16-0.1,0.24-0.14C7.83,29.75,7.75,29.8,7.67,29.85z"/>
	<path d="M6.72,31.22c-0.01,0.04-0.03,0.07-0.03,0.11c-0.01,0.02-0.01,0.05-0.01,0.07C6.68,31.34,6.7,31.28,6.72,31.22z"/>
	<path d="M7.3,30.17c0.06-0.06,0.13-0.12,0.2-0.18C7.44,30.05,7.37,30.11,7.3,30.17z"/>
	<path d="M6.65,31.55c0,0.03-0.01,0.05-0.01,0.08c0,0.03,0,0.06-0.01,0.1C6.64,31.66,6.64,31.6,6.65,31.55z"/>
	<path d="M6.88,32.99c0.01,0.01,0.01,0.02,0.01,0.03c0.01,0.02,0.02,0.04,0.03,0.06C6.91,33.05,6.9,33.03,6.88,32.99z"/>
	<path d="M9.11,34.39C9.11,34.39,9.11,34.39,9.11,34.39c-0.16,0-0.31-0.02-0.46-0.05C8.81,34.37,8.96,34.39,9.11,34.39z"/>
	<path d="M6.71,32.54c0,0.01,0.01,0.03,0.01,0.04c0.01,0.03,0.02,0.06,0.03,0.09C6.74,32.62,6.72,32.58,6.71,32.54z"/>
	<path d="M6.63,32.04c0,0.02,0,0.05,0,0.07c0,0.04,0.01,0.07,0.02,0.11C6.64,32.16,6.63,32.1,6.63,32.04z"/>
	<path d="M6.95,30.67c-0.01,0.02-0.02,0.03-0.03,0.05c-0.01,0.02-0.01,0.03-0.02,0.05C6.91,30.73,6.93,30.7,6.95,30.67z"/>
	<path d="M7.92,29.71c0.06-0.03,0.12-0.07,0.19-0.1C8.04,29.63,7.98,29.67,7.92,29.71z"/>
	<path d="M7.15,30.36c0.05-0.06,0.1-0.13,0.15-0.18C7.25,30.23,7.2,30.29,7.15,30.36z"/>
	<path d="M7.63,29.88c-0.05,0.03-0.08,0.08-0.13,0.11c0.06-0.05,0.11-0.1,0.17-0.14C7.66,29.86,7.64,29.87,7.63,29.88z"/>
	<path d="M8.34,29.53c0.08-0.03,0.16-0.06,0.24-0.07C8.49,29.47,8.41,29.5,8.34,29.53z"/>
	<path d="M8.78,29.42c0.09-0.01,0.19-0.03,0.28-0.03C8.97,29.4,8.88,29.41,8.78,29.42z"/>
	<path d="M7.6,33.88c0.02,0.02,0.04,0.03,0.06,0.04c-0.06-0.04-0.12-0.09-0.17-0.14C7.53,33.81,7.56,33.85,7.6,33.88z"/>
	<path d="M8.06,34.15c-0.08-0.04-0.16-0.08-0.24-0.13C7.9,34.07,7.98,34.11,8.06,34.15z"/>
	<path d="M6.76,31.09c-0.01,0.02-0.02,0.04-0.02,0.07c-0.01,0.02-0.01,0.04-0.02,0.06C6.73,31.18,6.74,31.13,6.76,31.09z"/>
	<path d="M8.51,34.31c-0.1-0.02-0.2-0.05-0.29-0.09C8.32,34.25,8.41,34.28,8.51,34.31z"/>
	<path d="M7.29,33.59c-0.05-0.06-0.1-0.12-0.15-0.18C7.19,33.47,7.24,33.53,7.29,33.59z"/>
	<path d="M6.63,32.04c0,0.06,0.01,0.12,0.02,0.18c0.01,0.04,0.01,0.08,0.02,0.12c0.01,0.07,0.03,0.13,0.05,0.2
		c0.01,0.04,0.03,0.08,0.04,0.13c0.02,0.05,0.03,0.1,0.05,0.15c0.02,0.06,0.05,0.12,0.08,0.18c0.02,0.03,0.03,0.06,0.05,0.09
		c0.03,0.06,0.07,0.12,0.1,0.17c0.03,0.05,0.07,0.1,0.11,0.15c0.05,0.06,0.1,0.12,0.15,0.18c0.06,0.07,0.13,0.13,0.2,0.19
		c0.06,0.05,0.11,0.1,0.17,0.14c0.05,0.04,0.11,0.07,0.16,0.1c0.08,0.05,0.16,0.09,0.24,0.13c0.05,0.02,0.11,0.05,0.16,0.07
		c0.09,0.04,0.19,0.07,0.29,0.09c0.05,0.01,0.1,0.03,0.15,0.04c0.15,0.03,0.3,0.05,0.46,0.05c0.75,0,1.5-0.34,1.99-0.98L12.17,32
		H6.63C6.63,32.01,6.63,32.03,6.63,32.04z"/>
	<path d="M11.13,30.41c-0.5-0.68-1.28-1.03-2.06-1.01c-0.1,0-0.19,0.02-0.28,0.03c-0.07,0.01-0.14,0.01-0.21,0.03
		c-0.08,0.02-0.16,0.05-0.24,0.07c-0.08,0.03-0.16,0.05-0.23,0.08c-0.07,0.03-0.13,0.07-0.19,0.1c-0.08,0.04-0.16,0.09-0.24,0.14
		c-0.06,0.04-0.11,0.09-0.17,0.14c-0.07,0.06-0.14,0.12-0.2,0.18c-0.05,0.06-0.1,0.12-0.15,0.18c-0.03,0.04-0.07,0.09-0.1,0.13
		c-0.04,0.06-0.08,0.12-0.11,0.18c-0.02,0.03-0.04,0.07-0.05,0.1c-0.03,0.05-0.05,0.11-0.08,0.16c-0.02,0.05-0.04,0.11-0.06,0.16
		c-0.01,0.04-0.03,0.08-0.04,0.13c-0.02,0.06-0.03,0.12-0.05,0.18c-0.01,0.05-0.02,0.1-0.02,0.15c-0.01,0.06-0.01,0.12-0.02,0.18
		c0,0.05-0.01,0.1-0.01,0.15c0,0.04,0,0.09,0,0.13h5.55l0.06-0.08L11.13,30.41z"/>
</g>
</svg>
