<?xml version="1.0" encoding="utf-8"?>
<!-- Generator: Adobe Illustrator 23.0.4, SVG Export Plug-In . SVG Version: 6.00 Build 0)  -->
<svg version="1.1" id="Layer_1" xmlns="http://www.w3.org/2000/svg" xmlns:xlink="http://www.w3.org/1999/xlink" x="0px" y="0px"
	 viewBox="0 0 64 64" style="enable-background:new 0 0 64 64;" xml:space="preserve">
<style type="text/css">
	.st0{fill:none;}
</style>
<g>
	<polygon class="st0" points="35.5,7.62 35.5,22.5 50.38,22.5 	"/>
	<circle class="st0" cx="19.5" cy="21.5" r="2"/>
	<path class="st0" d="M11.5,58.5h41v-33H34c-0.83,0-1.5-0.67-1.5-1.5V5.5h-21V58.5z M48,53.5H16c-0.83,0-1.5-0.67-1.5-1.5
		s0.67-1.5,1.5-1.5h32c0.83,0,1.5,0.67,1.5,1.5S48.83,53.5,48,53.5z M29.06,25.94l6.76,6.76L39,29.88c0.59-0.53,1.5-0.5,2.06,0.06
		l8,8c0.43,0.43,0.56,1.07,0.33,1.63S48.61,40.5,48,40.5h-2h-6c0,0,0,0,0,0s0,0,0,0h-9H16c-0.61,0-1.15-0.37-1.39-0.93
		c-0.23-0.56-0.1-1.21,0.33-1.63l12-12C27.53,25.35,28.47,25.35,29.06,25.94z M19.5,16.5c2.76,0,5,2.24,5,5s-2.24,5-5,5s-5-2.24-5-5
		S16.74,16.5,19.5,16.5z M16,44.5h32c0.83,0,1.5,0.67,1.5,1.5s-0.67,1.5-1.5,1.5H16c-0.83,0-1.5-0.67-1.5-1.5S15.17,44.5,16,44.5z"
		/>
	<path d="M55.39,23.45c0-0.01,0-0.02-0.01-0.02c-0.08-0.19-0.19-0.35-0.33-0.49l-20-20c-0.14-0.14-0.31-0.25-0.49-0.33
		c-0.01,0-0.02,0-0.02-0.01C34.38,2.54,34.19,2.5,34,2.5H10C9.17,2.5,8.5,3.17,8.5,4v56c0,0.83,0.67,1.5,1.5,1.5h44
		c0.83,0,1.5-0.67,1.5-1.5V24C55.5,23.81,55.46,23.62,55.39,23.45z M35.5,7.62L50.38,22.5H35.5V7.62z M32.5,24
		c0,0.83,0.67,1.5,1.5,1.5h18.5v33h-41v-53h21V24z"/>
	<path d="M48,50.5H16c-0.83,0-1.5,0.67-1.5,1.5s0.67,1.5,1.5,1.5h32c0.83,0,1.5-0.67,1.5-1.5S48.83,50.5,48,50.5z"/>
	<path d="M14.61,39.57c0.23,0.56,0.78,0.93,1.39,0.93h15h9c0,0,0,0,0,0s0,0,0,0h6h2c0.61,0,1.15-0.37,1.39-0.93s0.1-1.21-0.33-1.63
		l-8-8c-0.56-0.56-1.46-0.59-2.06-0.06l-3.18,2.83l-6.76-6.76c-0.59-0.59-1.54-0.59-2.12,0l-12,12
		C14.51,38.37,14.38,39.01,14.61,39.57z"/>
	<path d="M19.5,26.5c2.76,0,5-2.24,5-5s-2.24-5-5-5s-5,2.24-5,5S16.74,26.5,19.5,26.5z M19.5,19.5c1.1,0,2,0.9,2,2s-0.9,2-2,2
		s-2-0.9-2-2S18.4,19.5,19.5,19.5z"/>
	<path d="M16,47.5h32c0.83,0,1.5-0.67,1.5-1.5s-0.67-1.5-1.5-1.5H16c-0.83,0-1.5,0.67-1.5,1.5S15.17,47.5,16,47.5z"/>
</g>
</svg>
