<?xml version="1.0" encoding="utf-8"?>
<!-- Generator: Adobe Illustrator 23.0.3, SVG Export Plug-In . SVG Version: 6.00 Build 0)  -->
<svg version="1.1" id="Layer_1" xmlns="http://www.w3.org/2000/svg" xmlns:xlink="http://www.w3.org/1999/xlink" x="0px" y="0px"
	 viewBox="0 0 64 64" style="enable-background:new 0 0 64 64;" xml:space="preserve">
<g>
	<path d="M10,24.5c-4.14,0-7.5,3.36-7.5,7.5s3.36,7.5,7.5,7.5s7.5-3.36,7.5-7.5S14.14,24.5,10,24.5z M10,36.5
		c-2.48,0-4.5-2.02-4.5-4.5s2.02-4.5,4.5-4.5s4.5,2.02,4.5,4.5S12.48,36.5,10,36.5z"/>
	<path d="M54,24.5c-4.14,0-7.5,3.36-7.5,7.5s3.36,7.5,7.5,7.5s7.5-3.36,7.5-7.5S58.14,24.5,54,24.5z M54,36.5
		c-2.48,0-4.5-2.02-4.5-4.5s2.02-4.5,4.5-4.5s4.5,2.02,4.5,4.5S56.48,36.5,54,36.5z"/>
	<path d="M32,24.5c-4.14,0-7.5,3.36-7.5,7.5s3.36,7.5,7.5,7.5s7.5-3.36,7.5-7.5S36.14,24.5,32,24.5z M32,36.5
		c-2.48,0-4.5-2.02-4.5-4.5s2.02-4.5,4.5-4.5s4.5,2.02,4.5,4.5S34.48,36.5,32,36.5z"/>
</g>
</svg>
