<?xml version="1.0" encoding="utf-8"?>
<!-- Generator: Adobe Illustrator 23.0.4, SVG Export Plug-In . SVG Version: 6.00 Build 0)  -->
<svg version="1.1" id="Layer_1" xmlns="http://www.w3.org/2000/svg" xmlns:xlink="http://www.w3.org/1999/xlink" x="0px" y="0px"
	 viewBox="0 0 64 64" style="enable-background:new 0 0 64 64;" xml:space="preserve">
<g>
	<path d="M53,20.5H27c-0.83,0-1.5,0.67-1.5,1.5s0.67,1.5,1.5,1.5h26c0.83,0,1.5-0.67,1.5-1.5S53.83,20.5,53,20.5z"/>
	<path d="M53,27.5H27c-0.83,0-1.5,0.67-1.5,1.5s0.67,1.5,1.5,1.5h26c0.83,0,1.5-0.67,1.5-1.5S53.83,27.5,53,27.5z"/>
	<path d="M53,34.5H27c-0.83,0-1.5,0.67-1.5,1.5s0.67,1.5,1.5,1.5h26c0.83,0,1.5-0.67,1.5-1.5S53.83,34.5,53,34.5z"/>
	<path d="M52,12.73h-6.63c-0.74-5.13-4.66-9-9.37-9H12c-5.5,0-9.5,4.51-9.5,10.73V26c0,4.47,2.46,8.43,6.09,10.01
		c0.3,3.55,1.14,13,1.47,14.35c0.17,0.67,0.77,1.11,1.45,1.11c0.06,0,0.12,0,0.18-0.01c0.68-0.08,1.21-0.62,1.31-1.29
		c0.47-2.69,1.34-5.25,2.57-7.61c1.21-2.31,2.35-3.89,3.23-4.94c0.41,1.82,1.22,3.5,2.42,4.88c2.51,2.9,5.58,3.22,6.78,3.23h16.39
		c0.93,0.94,2.42,2.75,4.04,5.84c1.22,2.33,2.08,4.87,2.56,7.54c0.05,0.72,0.61,1.31,1.33,1.39c0.06,0.01,0.11,0.01,0.17,0.01
		c0.68,0,1.29-0.46,1.46-1.14c0.33-1.35,1.16-10.8,1.47-14.35c3.63-1.58,6.09-5.55,6.09-10.01V23.46C61.5,17.24,57.5,12.73,52,12.73
		z M58.5,35c0,3.54-2.03,6.63-4.93,7.5c-0.59,0.18-1.01,0.7-1.06,1.31c-0.22,2.63-0.47,5.4-0.7,7.83c-0.23-0.5-0.46-0.99-0.72-1.47
		c-1.99-3.8-3.86-5.93-5.08-7.05c-0.28-0.25-0.64-0.4-1.01-0.4H28.01c-0.62,0-2.77-0.17-4.52-2.19C22.2,39.06,21.5,37.09,21.5,35
		V23.46c0-4.26,2.92-7.73,6.5-7.73h16h8c3.83,0,6.5,3.18,6.5,7.73V35z"/>
</g>
</svg>
