<?xml version="1.0" encoding="utf-8"?>
<!-- Generator: Adobe Illustrator 23.0.4, SVG Export Plug-In . SVG Version: 6.00 Build 0)  -->
<svg version="1.1" id="Layer_1" xmlns="http://www.w3.org/2000/svg" xmlns:xlink="http://www.w3.org/1999/xlink" x="0px" y="0px"
	 viewBox="0 0 64 64" style="enable-background:new 0 0 64 64;" xml:space="preserve">
<style type="text/css">
	.st0{fill:none;}
</style>
<g>
	<path class="st0" d="M34,5.5H6C5.73,5.5,5.5,5.73,5.5,6v4c0,0.27,0.23,0.5,0.5,0.5h28c0.27,0,0.5-0.23,0.5-0.5V6
		C34.5,5.73,34.27,5.5,34,5.5z"/>
	<path class="st0" d="M34,37.5H6c-0.27,0-0.5,0.23-0.5,0.5v4c0,0.27,0.23,0.5,0.5,0.5h28c0.27,0,0.5-0.23,0.5-0.5v-4
		C34.5,37.73,34.27,37.5,34,37.5z"/>
	<path class="st0" d="M34,21.5H6c-0.27,0-0.5,0.23-0.5,0.5v4c0,0.27,0.23,0.5,0.5,0.5h28c0.27,0,0.5-0.23,0.5-0.5v-4
		C34.5,21.73,34.27,21.5,34,21.5z"/>
	<path d="M34,2.5H6C4.07,2.5,2.5,4.07,2.5,6v4c0,1.93,1.57,3.5,3.5,3.5h28c1.93,0,3.5-1.57,3.5-3.5V6C37.5,4.07,35.93,2.5,34,2.5z
		 M34.5,10c0,0.27-0.23,0.5-0.5,0.5H6c-0.27,0-0.5-0.23-0.5-0.5V6c0-0.27,0.23-0.5,0.5-0.5h28c0.27,0,0.5,0.23,0.5,0.5V10z"/>
	<path d="M34,18.5H6c-1.93,0-3.5,1.57-3.5,3.5v4c0,1.93,1.57,3.5,3.5,3.5h28c1.93,0,3.5-1.57,3.5-3.5v-4
		C37.5,20.07,35.93,18.5,34,18.5z M34.5,26c0,0.27-0.23,0.5-0.5,0.5H6c-0.27,0-0.5-0.23-0.5-0.5v-4c0-0.27,0.23-0.5,0.5-0.5h28
		c0.27,0,0.5,0.23,0.5,0.5V26z"/>
	<path d="M34,34.5H6c-1.93,0-3.5,1.57-3.5,3.5v4c0,1.93,1.57,3.5,3.5,3.5h28c1.93,0,3.5-1.57,3.5-3.5v-4
		C37.5,36.07,35.93,34.5,34,34.5z M34.5,42c0,0.27-0.23,0.5-0.5,0.5H6c-0.27,0-0.5-0.23-0.5-0.5v-4c0-0.27,0.23-0.5,0.5-0.5h28
		c0.27,0,0.5,0.23,0.5,0.5V42z"/>
	<path d="M34,50.5H6c-1.93,0-3.5,1.57-3.5,3.5v4c0,1.93,1.57,3.5,3.5,3.5h28c1.93,0,3.5-1.57,3.5-3.5v-4
		C37.5,52.07,35.93,50.5,34,50.5z"/>
	<path d="M48,6.81h-1.28l3.23-2.64c0.64-0.52,0.74-1.47,0.21-2.11c-0.53-0.64-1.47-0.74-2.11-0.21l-6,4.91
		c-0.03,0.03-0.06,0.06-0.09,0.09c-0.01,0.01-0.02,0.01-0.03,0.02c-0.01,0.01-0.01,0.02-0.02,0.03c-0.12,0.13-0.22,0.28-0.29,0.44
		c-0.01,0.02-0.02,0.04-0.03,0.06c-0.06,0.16-0.09,0.33-0.09,0.5c0,0.02,0,0.04,0,0.07c0,0.17,0.04,0.33,0.1,0.5
		c0.01,0.02,0.02,0.04,0.03,0.06c0.05,0.12,0.12,0.24,0.2,0.34c0.03,0.03,0.06,0.05,0.08,0.08c0.01,0.01,0.01,0.03,0.03,0.04l6,5.89
		c0.29,0.29,0.67,0.43,1.05,0.43c0.39,0,0.78-0.15,1.07-0.45c0.58-0.59,0.57-1.54-0.02-2.12l-2.98-2.92H48
		c5.79,0,10.5,4.61,10.5,10.28v25.13c0,5.67-4.71,10.28-10.5,10.28h-4c-0.83,0-1.5,0.67-1.5,1.5s0.67,1.5,1.5,1.5h4
		c7.44,0,13.5-5.96,13.5-13.28V20.09C61.5,12.76,55.44,6.81,48,6.81z"/>
</g>
</svg>
