<?xml version="1.0" encoding="utf-8"?>
<!-- Generator: Adobe Illustrator 24.2.3, SVG Export Plug-In . SVG Version: 6.00 Build 0)  -->
<svg version="1.1" id="Layer_1" xmlns="http://www.w3.org/2000/svg" xmlns:xlink="http://www.w3.org/1999/xlink" x="0px" y="0px"
	 viewBox="0 0 64 64" style="enable-background:new 0 0 64 64;" xml:space="preserve">
<path d="M40,4h-8c0,0,0,0-0.01,0c-0.27,0-0.53,0.03-0.79,0.08c-0.1,0.02-0.19,0.06-0.28,0.09c-0.15,0.04-0.31,0.08-0.46,0.14
	c-0.11,0.05-0.21,0.11-0.31,0.17c-0.13,0.07-0.25,0.12-0.37,0.2c-0.11,0.07-0.2,0.16-0.29,0.24c-0.1,0.08-0.21,0.16-0.31,0.25
	c-0.19,0.19-0.35,0.39-0.5,0.61c0,0,0,0-0.01,0.01L21.86,16H8c-2.21,0-4,1.79-4,4v20c0,2.21,1.79,4,4,4h13.53l6.89,13.79
	c0.06,0.13,0.14,0.24,0.21,0.36c0.02,0.03,0.04,0.07,0.06,0.11c0.13,0.19,0.28,0.37,0.44,0.54c0.03,0.04,0.07,0.07,0.11,0.1
	c0.14,0.13,0.28,0.25,0.43,0.36c0.05,0.03,0.09,0.07,0.14,0.1c0.19,0.12,0.39,0.24,0.6,0.33c0.03,0.01,0.06,0.02,0.09,0.03
	c0.19,0.08,0.38,0.13,0.58,0.18c0.06,0.01,0.13,0.03,0.19,0.04C31.52,59.97,31.76,60,32,60c0,0,0.01,0,0.01,0H40c2.21,0,4-1.79,4-4
	V8C44,5.79,42.21,4,40,4z"/>
</svg>
