<?xml version="1.0" encoding="utf-8"?>
<!-- Generator: Adobe Illustrator 24.3.0, SVG Export Plug-In . SVG Version: 6.00 Build 0)  -->
<svg version="1.1" id="Layer_1" xmlns="http://www.w3.org/2000/svg" xmlns:xlink="http://www.w3.org/1999/xlink" x="0px" y="0px"
	 viewBox="0 0 64 64" style="enable-background:new 0 0 64 64;" xml:space="preserve">
<g>
	<path d="M31,58.5H11.5v-53h21V24c0,0.83,0.67,1.5,1.5,1.5h18.5V29c0,0.83,0.67,1.5,1.5,1.5s1.5-0.67,1.5-1.5v-5
		c0-0.19-0.04-0.38-0.11-0.55c0-0.01,0-0.02-0.01-0.02c-0.08-0.19-0.19-0.35-0.33-0.49l-20-20c-0.14-0.14-0.31-0.25-0.49-0.33
		c-0.01,0-0.02,0-0.02-0.01C34.38,2.54,34.19,2.5,34,2.5H10C9.17,2.5,8.5,3.17,8.5,4v56c0,0.83,0.67,1.5,1.5,1.5h21
		c0.83,0,1.5-0.67,1.5-1.5S31.83,58.5,31,58.5z M35.5,7.62L50.38,22.5H35.5V7.62z"/>
	<path d="M27,48.5H16c-0.83,0-1.5,0.67-1.5,1.5s0.67,1.5,1.5,1.5h11c0.83,0,1.5-0.67,1.5-1.5S27.83,48.5,27,48.5z"/>
	<path d="M27,39.75H16c-0.83,0-1.5,0.67-1.5,1.5s0.67,1.5,1.5,1.5h11c0.83,0,1.5-0.67,1.5-1.5S27.83,39.75,27,39.75z"/>
	<path d="M34,31H16c-0.83,0-1.5,0.67-1.5,1.5c0,0.83,0.67,1.5,1.5,1.5h18c0.83,0,1.5-0.67,1.5-1.5C35.5,31.67,34.83,31,34,31z"/>
	<path d="M16,25.25h12c0.83,0,1.5-0.67,1.5-1.5s-0.67-1.5-1.5-1.5H16c-0.83,0-1.5,0.67-1.5,1.5S15.17,25.25,16,25.25z"/>
	<path d="M16,16.5h12c0.83,0,1.5-0.67,1.5-1.5s-0.67-1.5-1.5-1.5H16c-0.83,0-1.5,0.67-1.5,1.5S15.17,16.5,16,16.5z"/>
	<path d="M47,33.5c-8,0-14.5,6.5-14.5,14.5S39,62.5,47,62.5S61.5,56,61.5,48S55,33.5,47,33.5z M47,59.5c-6.34,0-11.5-5.16-11.5-11.5
		S40.66,36.5,47,36.5S58.5,41.66,58.5,48S53.34,59.5,47,59.5z"/>
	<path d="M45.5,38v10c0,0,0,0,0,0c0,0.1,0.01,0.2,0.03,0.3c0.01,0.04,0.02,0.07,0.03,0.1c0.02,0.06,0.03,0.12,0.05,0.17
		c0.02,0.04,0.04,0.08,0.06,0.12c0.02,0.05,0.05,0.1,0.08,0.14c0.03,0.04,0.06,0.07,0.09,0.11c0.03,0.04,0.06,0.08,0.1,0.12
		c0.07,0.07,0.15,0.13,0.23,0.19c0,0,0,0,0,0l6,4c0.26,0.17,0.54,0.25,0.83,0.25c0.48,0,0.96-0.23,1.25-0.67
		c0.46-0.69,0.27-1.62-0.42-2.08L48.5,47.2V38c0-0.83-0.67-1.5-1.5-1.5S45.5,37.17,45.5,38z"/>
</g>
</svg>
