<?xml version="1.0" encoding="utf-8"?>
<!-- Generator: Adobe Illustrator 23.0.4, SVG Export Plug-In . SVG Version: 6.00 Build 0)  -->
<svg version="1.1" id="Layer_1" xmlns="http://www.w3.org/2000/svg" xmlns:xlink="http://www.w3.org/1999/xlink" x="0px" y="0px"
	 viewBox="0 0 64 64" style="enable-background:new 0 0 64 64;" xml:space="preserve">
<path d="M32.03,1.03C14.93,1.03,1.07,14.9,1.07,32s13.86,30.97,30.97,30.97S63,49.1,63,32S49.14,1.03,32.03,1.03z M21.13,44.59
	c-3.3,0-5.97-2.67-5.97-5.97c0-1.33,0.44-2.56,1.18-3.55l0.12-0.24c2.58-5.09,2.92-7.74-0.2-13.23c-0.69-0.97-1.1-2.16-1.1-3.45
	c0-3.3,2.67-5.97,5.97-5.97s5.97,2.67,5.97,5.97c0,1.11-0.31,2.14-0.84,3.03h0.02l-0.17,0.29c-3.21,5.61-2.89,8.25-0.3,13.36
	l0.14,0.28h-0.01c0.72,0.99,1.15,2.2,1.15,3.51C27.1,41.92,24.43,44.59,21.13,44.59z M32.22,54.92c-3.3,0-5.97-2.67-5.97-5.97
	c0-1.33,0.44-2.56,1.18-3.55l0.12-0.24c2.58-5.09,2.91-7.74-0.2-13.23c-0.69-0.97-1.1-2.16-1.1-3.45c0-3.3,2.67-5.97,5.97-5.97
	s5.97,2.67,5.97,5.97c0,1.11-0.31,2.14-0.84,3.03h0.02l-0.17,0.29c-3.21,5.61-2.89,8.25-0.3,13.36l0.14,0.28h-0.01
	c0.72,0.99,1.15,2.2,1.15,3.51C38.19,52.25,35.52,54.92,32.22,54.92z M48.48,21.19l-0.17,0.29c-3.21,5.61-2.89,8.25-0.3,13.36
	l0.14,0.28h-0.01c0.72,0.99,1.15,2.2,1.15,3.51c0,3.3-2.67,5.97-5.97,5.97s-5.97-2.67-5.97-5.97c0-1.33,0.44-2.56,1.18-3.55
	l0.12-0.24c2.58-5.09,2.92-7.74-0.2-13.23c-0.69-0.97-1.1-2.16-1.1-3.45c0-3.3,2.67-5.97,5.97-5.97s5.97,2.67,5.97,5.97
	c0,1.11-0.31,2.14-0.84,3.03H48.48z"/>
</svg>
