<?xml version="1.0" encoding="utf-8"?>
<!-- Generator: Adobe Illustrator 24.2.3, SVG Export Plug-In . SVG Version: 6.00 Build 0)  -->
<svg version="1.1" id="Layer_1" xmlns="http://www.w3.org/2000/svg" xmlns:xlink="http://www.w3.org/1999/xlink" x="0px" y="0px"
	 viewBox="0 0 64 64" style="enable-background:new 0 0 64 64;" xml:space="preserve">
<g>
	<path d="M60,30.5c-0.83,0-1.5,0.67-1.5,1.5v26.5h-53v-53H32c0.83,0,1.5-0.67,1.5-1.5S32.83,2.5,32,2.5H4C3.17,2.5,2.5,3.17,2.5,4
		v56c0,0.83,0.67,1.5,1.5,1.5h56c0.83,0,1.5-0.67,1.5-1.5V32C61.5,31.17,60.83,30.5,60,30.5z"/>
	<path d="M60,2.5H40c-0.19,0-0.38,0.04-0.55,0.11c-0.01,0-0.02,0-0.02,0.01c-0.37,0.15-0.66,0.45-0.82,0.82c0,0.01,0,0.02-0.01,0.02
		C38.54,3.62,38.5,3.81,38.5,4s0.04,0.38,0.11,0.55c0,0.01,0,0.02,0.01,0.02c0.08,0.19,0.19,0.35,0.33,0.49L47.88,14L14.94,46.94
		c-0.59,0.59-0.59,1.54,0,2.12c0.29,0.29,0.68,0.44,1.06,0.44s0.77-0.15,1.06-0.44L50,16.12l3.94,3.94c0,0,0,0,0,0l5,5
		c0.14,0.14,0.31,0.25,0.49,0.33c0.01,0,0.02,0,0.02,0.01c0.17,0.07,0.35,0.11,0.55,0.11s0.38-0.04,0.55-0.11
		c0.01,0,0.02,0,0.02-0.01c0.37-0.15,0.66-0.45,0.82-0.82c0-0.01,0-0.02,0.01-0.02c0.07-0.17,0.11-0.35,0.11-0.55V4
		C61.5,3.17,60.83,2.5,60,2.5z"/>
</g>
</svg>
