<?xml version="1.0" encoding="utf-8"?>
<!-- Generator: Adobe Illustrator 23.0.4, SVG Export Plug-In . SVG Version: 6.00 Build 0)  -->
<svg version="1.1" id="Layer_1" xmlns="http://www.w3.org/2000/svg" xmlns:xlink="http://www.w3.org/1999/xlink" x="0px" y="0px"
	 viewBox="0 0 64 64" style="enable-background:new 0 0 64 64;" xml:space="preserve">
<g>
	<path d="M35,59.5H7.24c-0.26-0.04-0.79-0.14-1.15-0.59C5.72,58.45,5.5,57.78,5.5,57.1V14.16c0-1.28,0.77-2.4,1.64-2.4h4.92
		c0.83,0,1.5-0.67,1.5-1.5s-0.67-1.5-1.5-1.5H7.14c-2.56,0-4.64,2.42-4.64,5.4V57.1c0,1.38,0.44,2.69,1.25,3.7
		c0.76,0.95,1.83,1.52,3.19,1.69L35,62.5c0.83,0,1.5-0.67,1.5-1.5S35.83,59.5,35,59.5z"/>
	<path d="M49.47,49.56c0-0.83-0.67-1.5-1.5-1.5s-1.5,0.67-1.5,1.5v7.53l0,0.12c0,0.01,0.05,0.9-0.6,1.7
		c-0.18,0.22-0.55,0.59-1.05,0.59H43c-0.83,0-1.5,0.67-1.5,1.5s0.67,1.5,1.5,1.5h1.83c1.28,0,2.51-0.62,3.39-1.71
		c1.27-1.58,1.28-3.31,1.25-3.74V49.56z"/>
	<path d="M39.99,11.75h4.84c0.87,0,1.64,1.12,1.64,2.4v17.68c0,0.83,0.67,1.5,1.5,1.5s1.5-0.67,1.5-1.5V14.16
		c0-2.98-2.08-5.4-4.64-5.4h-4.84c-0.83,0-1.5,0.67-1.5,1.5S39.16,11.75,39.99,11.75z"/>
	<path d="M19,13.5h14c2.48,0,4.5-2.02,4.5-4.5S35.48,4.5,33,4.5h-2.1c-0.46-2.28-2.48-4-4.9-4s-4.43,1.72-4.9,4H19
		c-2.48,0-4.5,2.02-4.5,4.5S16.52,13.5,19,13.5z M26,3.5c1.1,0,2,0.9,2,2s-0.9,2-2,2s-2-0.9-2-2S24.9,3.5,26,3.5z"/>
	<path d="M10,19.5h32c0.83,0,1.5-0.67,1.5-1.5s-0.67-1.5-1.5-1.5H10c-0.83,0-1.5,0.67-1.5,1.5S9.17,19.5,10,19.5z"/>
	<path d="M10,25.5h32c0.83,0,1.5-0.67,1.5-1.5s-0.67-1.5-1.5-1.5H10c-0.83,0-1.5,0.67-1.5,1.5S9.17,25.5,10,25.5z"/>
	<path d="M10,31.5h32c0.83,0,1.5-0.67,1.5-1.5s-0.67-1.5-1.5-1.5H10c-0.83,0-1.5,0.67-1.5,1.5S9.17,31.5,10,31.5z"/>
	<path d="M33.5,36c0-0.83-0.67-1.5-1.5-1.5H10c-0.83,0-1.5,0.67-1.5,1.5s0.67,1.5,1.5,1.5h22C32.83,37.5,33.5,36.83,33.5,36z"/>
	<path d="M24,40.5H10c-0.83,0-1.5,0.67-1.5,1.5s0.67,1.5,1.5,1.5h14c0.83,0,1.5-0.67,1.5-1.5S24.83,40.5,24,40.5z"/>
	<path d="M24,46.5H10c-0.83,0-1.5,0.67-1.5,1.5s0.67,1.5,1.5,1.5h14c0.83,0,1.5-0.67,1.5-1.5S24.83,46.5,24,46.5z"/>
	<path d="M24,52.5H10c-0.83,0-1.5,0.67-1.5,1.5s0.67,1.5,1.5,1.5h14c0.83,0,1.5-0.67,1.5-1.5S24.83,52.5,24,52.5z"/>
	<path d="M55.67,30.47l-0.72,0.26c-6.05,2.14-13.38,7.33-16.45,15.62c-2.34-1.92-3.56-3.66-4.22-5.92l-0.43-1.47l-7.95,6.67
		l1.03,0.75c2.06,1.5,8.34,7.4,10.99,12.42l1.05,1.99l0.78-2.11C43.93,47.33,50.51,41.88,61.08,41l1.72-0.14L55.67,30.47z"/>
</g>
</svg>
