<?xml version="1.0" encoding="utf-8"?>
<!-- Generator: Adobe Illustrator 23.0.4, SVG Export Plug-In . SVG Version: 6.00 Build 0)  -->
<svg version="1.1" xmlns="http://www.w3.org/2000/svg" xmlns:xlink="http://www.w3.org/1999/xlink" x="0px" y="0px"
	 viewBox="0 0 64 64" style="enable-background:new 0 0 64 64;" xml:space="preserve">
<style type="text/css">
	.st0{fill:none;}
</style>
<g id="Layer_1">
</g>
<g id="Layer_2">
	<g>
		<path class="st0" d="M43.5,38.53c-3.12,0-5.65,2.53-5.65,5.65s2.54,5.65,5.65,5.65s5.65-2.54,5.65-5.65S46.62,38.53,43.5,38.53z"
			/>
		<path class="st0" d="M34,25.5c-0.83,0-1.5-0.67-1.5-1.5V5.5h-21v53h23.72l0.03-1.33l-1.94,0.94c-0.54,0.26-1.19,0.18-1.64-0.22
			c-1.26-1.11-2.36-2.38-3.27-3.79c-0.32-0.5-0.32-1.15,0.01-1.65l1.21-1.81l-2.15-0.26c-0.6-0.07-1.09-0.5-1.26-1.07
			c-0.47-1.62-0.7-3.29-0.71-4.97c0-0.6,0.35-1.14,0.9-1.38l1.99-0.86l-1.67-1.4c-0.46-0.38-0.65-1-0.48-1.58
			c0.48-1.61,1.18-3.15,2.08-4.57c0.32-0.51,0.92-0.77,1.51-0.67l2.13,0.35l-0.65-2.08c-0.18-0.57,0-1.19,0.45-1.58
			c1.27-1.1,2.68-2.02,4.2-2.72c0.55-0.25,1.19-0.16,1.64,0.25l1.6,1.45l0.56-2.09c0.16-0.58,0.64-1.01,1.24-1.1
			c1.68-0.24,3.32-0.24,5,0c0.6,0.08,1.08,0.51,1.24,1.1l0.56,2.09l1.6-1.45c0.45-0.41,1.09-0.5,1.64-0.25
			c0.5,0.23,0.98,0.5,1.46,0.77V25.5H34z M21,51.5h-5c-0.83,0-1.5-0.67-1.5-1.5s0.67-1.5,1.5-1.5h5c0.83,0,1.5,0.67,1.5,1.5
			S21.83,51.5,21,51.5z M21,42.75h-5c-0.83,0-1.5-0.67-1.5-1.5s0.67-1.5,1.5-1.5h5c0.83,0,1.5,0.67,1.5,1.5S21.83,42.75,21,42.75z
			 M25,34h-9c-0.83,0-1.5-0.67-1.5-1.5c0-0.83,0.67-1.5,1.5-1.5h9c0.83,0,1.5,0.67,1.5,1.5C26.5,33.33,25.83,34,25,34z M28,25.25H16
			c-0.83,0-1.5-0.67-1.5-1.5s0.67-1.5,1.5-1.5h12c0.83,0,1.5,0.67,1.5,1.5S28.83,25.25,28,25.25z M28,16.5H16
			c-0.83,0-1.5-0.67-1.5-1.5s0.67-1.5,1.5-1.5h12c0.83,0,1.5,0.67,1.5,1.5S28.83,16.5,28,16.5z"/>
		<polygon class="st0" points="35.5,7.62 35.5,22.5 50.38,22.5 		"/>
		<path class="st0" d="M55.7,43.23c-0.05-0.55-0.11-1.02-0.2-1.45c-0.11-0.54,0.09-1.09,0.51-1.45l1.56-1.3
			c-0.26-0.7-0.57-1.38-0.93-2.04l-2.01,0.33c-0.55,0.09-1.1-0.13-1.44-0.57c-0.32-0.42-0.63-0.78-0.94-1.1
			c-0.38-0.4-0.52-0.97-0.35-1.5l0.61-1.95c0,0,0,0,0,0c-0.59-0.45-1.22-0.86-1.87-1.21l-1.51,1.37c-0.41,0.37-1,0.49-1.52,0.3
			c-0.47-0.17-0.93-0.31-1.38-0.41c-0.54-0.13-0.97-0.54-1.11-1.07l-0.53-1.98c-0.75-0.06-1.47-0.06-2.22,0l-0.53,1.98
			c-0.14,0.53-0.57,0.95-1.11,1.07c-0.45,0.1-0.91,0.24-1.38,0.41c-0.52,0.19-1.11,0.07-1.52-0.3L36.35,31
			c-0.65,0.36-1.28,0.76-1.87,1.21l0.62,1.95c0.17,0.53,0.03,1.1-0.35,1.5c-0.31,0.32-0.62,0.68-0.94,1.1
			c-0.34,0.44-0.89,0.66-1.44,0.57l-2.01-0.33c-0.36,0.66-0.67,1.34-0.93,2.04l1.56,1.3c0.42,0.35,0.62,0.91,0.51,1.45
			c-0.09,0.42-0.15,0.89-0.19,1.44c-0.05,0.55-0.39,1.03-0.9,1.25l-1.87,0.81c0.05,0.75,0.16,1.49,0.32,2.23l2.02,0.25
			c0.55,0.07,1.02,0.43,1.22,0.95c0.19,0.5,0.39,0.93,0.59,1.32c0.26,0.49,0.23,1.08-0.08,1.54l-1.13,1.69
			c0.44,0.6,0.93,1.17,1.46,1.69l1.83-0.89c0.5-0.24,1.09-0.19,1.54,0.14c0.42,0.31,0.82,0.57,1.21,0.79
			c0.48,0.27,0.77,0.79,0.76,1.34l-0.04,2.05c0.69,0.26,1.41,0.47,2.13,0.63l1.07-1.75c0.29-0.47,0.8-0.75,1.37-0.72l0.24,0.02
			c0.32,0.02,0.64,0.02,0.96,0l0.24-0.02c0.03,0,0.06,0,0.09,0c0.52,0,1.01,0.27,1.28,0.72l1.07,1.75c0.72-0.16,1.43-0.37,2.13-0.63
			l-0.04-2.05c-0.01-0.55,0.28-1.07,0.76-1.34c0.39-0.22,0.78-0.48,1.21-0.79c0.45-0.33,1.04-0.38,1.54-0.14l1.83,0.89
			c0.53-0.53,1.02-1.09,1.46-1.69l-1.13-1.69c-0.31-0.46-0.34-1.05-0.08-1.54c0.21-0.39,0.4-0.82,0.59-1.32
			c0.2-0.52,0.67-0.88,1.22-0.95l2.02-0.25c0.16-0.73,0.27-1.48,0.32-2.23l-1.87-0.81C56.09,44.26,55.75,43.78,55.7,43.23z
			 M43.5,52.83c-4.77,0-8.65-3.88-8.65-8.65s3.88-8.65,8.65-8.65s8.65,3.88,8.65,8.65S48.27,52.83,43.5,52.83z"/>
		<path d="M21,48.5h-5c-0.83,0-1.5,0.67-1.5,1.5s0.67,1.5,1.5,1.5h5c0.83,0,1.5-0.67,1.5-1.5S21.83,48.5,21,48.5z"/>
		<path d="M21,39.75h-5c-0.83,0-1.5,0.67-1.5,1.5s0.67,1.5,1.5,1.5h5c0.83,0,1.5-0.67,1.5-1.5S21.83,39.75,21,39.75z"/>
		<path d="M25,31h-9c-0.83,0-1.5,0.67-1.5,1.5c0,0.83,0.67,1.5,1.5,1.5h9c0.83,0,1.5-0.67,1.5-1.5C26.5,31.67,25.83,31,25,31z"/>
		<path d="M28,22.25H16c-0.83,0-1.5,0.67-1.5,1.5s0.67,1.5,1.5,1.5h12c0.83,0,1.5-0.67,1.5-1.5S28.83,22.25,28,22.25z"/>
		<path d="M28,13.5H16c-0.83,0-1.5,0.67-1.5,1.5s0.67,1.5,1.5,1.5h12c0.83,0,1.5-0.67,1.5-1.5S28.83,13.5,28,13.5z"/>
		<path d="M60.6,42.95l-1.99-0.86l1.67-1.4c0.46-0.38,0.65-1,0.48-1.58c-0.47-1.61-1.17-3.14-2.08-4.57
			c-0.32-0.51-0.92-0.77-1.51-0.67l-2.13,0.35l0.65-2.08c0.14-0.44,0.06-0.91-0.19-1.28V24c0-0.19-0.04-0.38-0.11-0.55
			c0-0.01,0-0.02-0.01-0.02c-0.08-0.19-0.19-0.35-0.33-0.49l-20-20c-0.14-0.14-0.31-0.25-0.49-0.33c-0.01,0-0.02,0-0.02-0.01
			C34.38,2.54,34.19,2.5,34,2.5H10C9.17,2.5,8.5,3.17,8.5,4v56c0,0.83,0.67,1.5,1.5,1.5h28c0.02,0,0.03,0,0.05-0.01
			c0.92,0.3,1.87,0.52,2.82,0.66c0.6,0.09,1.19-0.19,1.5-0.7l1.13-1.85l1.13,1.85c0.27,0.45,0.76,0.72,1.28,0.72
			c0.07,0,0.14,0,0.22-0.02c1.65-0.24,3.27-0.72,4.8-1.42c0.54-0.25,0.89-0.8,0.88-1.4l-0.05-2.17l1.94,0.94
			c0.54,0.26,1.19,0.18,1.64-0.22c1.26-1.11,2.36-2.38,3.27-3.79c0.32-0.5,0.32-1.15-0.01-1.65l-1.21-1.81l2.15-0.26
			c0.6-0.07,1.09-0.5,1.26-1.07c0.46-1.61,0.7-3.29,0.71-4.97C61.5,43.73,61.15,43.18,60.6,42.95z M51.04,27.84
			c-0.55-0.25-1.2-0.16-1.64,0.25l-1.6,1.45l-0.56-2.09c-0.16-0.58-0.64-1.01-1.24-1.1c-1.68-0.24-3.32-0.24-5,0
			c-0.6,0.08-1.08,0.51-1.24,1.1l-0.56,2.09l-1.6-1.45c-0.45-0.41-1.09-0.5-1.64-0.25c-1.52,0.7-2.93,1.62-4.2,2.72
			c-0.45,0.39-0.63,1.01-0.45,1.58l0.65,2.08l-2.13-0.35c-0.59-0.1-1.19,0.17-1.51,0.67c-0.9,1.42-1.6,2.96-2.08,4.57
			c-0.17,0.57,0.02,1.19,0.48,1.58l1.67,1.4l-1.99,0.86c-0.55,0.24-0.91,0.78-0.9,1.38c0.01,1.68,0.24,3.35,0.71,4.97
			c0.17,0.58,0.66,1,1.26,1.07l2.15,0.26l-1.21,1.81c-0.33,0.5-0.34,1.15-0.01,1.65c0.91,1.41,2.01,2.69,3.27,3.79
			c0.45,0.4,1.1,0.48,1.64,0.22l1.94-0.94l-0.03,1.33H11.5v-53h21V24c0,0.83,0.67,1.5,1.5,1.5h18.5v3.11
			C52.02,28.33,51.54,28.07,51.04,27.84z M35.5,7.62L50.38,22.5H35.5V7.62z M58.15,47.52l-2.02,0.25c-0.55,0.07-1.02,0.43-1.22,0.95
			c-0.19,0.5-0.39,0.94-0.59,1.32c-0.26,0.49-0.23,1.08,0.08,1.54l1.13,1.69c-0.44,0.6-0.93,1.17-1.46,1.69l-1.83-0.89
			c-0.5-0.24-1.09-0.19-1.54,0.14c-0.42,0.31-0.82,0.57-1.21,0.79c-0.48,0.27-0.77,0.79-0.76,1.34l0.04,2.05
			c-0.69,0.26-1.41,0.47-2.13,0.63l-1.07-1.75c-0.27-0.45-0.76-0.72-1.28-0.72c-0.03,0-0.06,0-0.09,0l-0.24,0.02
			c-0.32,0.02-0.64,0.02-0.96,0l-0.24-0.02c-0.57-0.04-1.08,0.24-1.37,0.72l-1.07,1.75c-0.72-0.16-1.43-0.37-2.13-0.63l0.04-2.05
			c0.01-0.55-0.28-1.07-0.76-1.34c-0.39-0.22-0.78-0.48-1.21-0.79c-0.45-0.33-1.04-0.38-1.54-0.14l-1.83,0.89
			c-0.53-0.53-1.02-1.09-1.46-1.69l1.13-1.69c0.31-0.46,0.34-1.05,0.08-1.54c-0.21-0.39-0.4-0.82-0.59-1.32
			c-0.2-0.52-0.67-0.88-1.22-0.95l-2.02-0.25c-0.16-0.73-0.27-1.48-0.32-2.23l1.87-0.81c0.51-0.22,0.85-0.7,0.9-1.25
			c0.05-0.55,0.11-1.02,0.19-1.44c0.11-0.54-0.09-1.1-0.51-1.45l-1.56-1.3c0.26-0.7,0.57-1.38,0.93-2.04l2.01,0.33
			c0.55,0.09,1.1-0.13,1.44-0.57c0.32-0.42,0.63-0.78,0.94-1.1c0.38-0.4,0.52-0.97,0.35-1.5l-0.62-1.95
			c0.59-0.45,1.22-0.86,1.87-1.21l1.51,1.37c0.41,0.37,1,0.49,1.52,0.3c0.47-0.17,0.93-0.31,1.38-0.41
			c0.54-0.13,0.97-0.54,1.11-1.07l0.53-1.98c0.75-0.06,1.47-0.06,2.22,0l0.53,1.98c0.14,0.53,0.57,0.95,1.11,1.07
			c0.45,0.1,0.91,0.24,1.38,0.41c0.52,0.19,1.11,0.07,1.52-0.3L50.65,31c0.65,0.36,1.27,0.76,1.87,1.21c0,0,0,0,0,0l-0.61,1.95
			c-0.17,0.53-0.03,1.1,0.35,1.5c0.31,0.32,0.62,0.68,0.94,1.1c0.34,0.44,0.88,0.66,1.44,0.57l2.01-0.33
			c0.36,0.66,0.67,1.34,0.93,2.04l-1.56,1.3c-0.42,0.35-0.62,0.91-0.51,1.45c0.09,0.42,0.15,0.9,0.2,1.45
			c0.05,0.55,0.39,1.03,0.9,1.25l1.87,0.81C58.41,46.04,58.31,46.78,58.15,47.52z"/>
		<path d="M43.5,35.53c-4.77,0-8.65,3.88-8.65,8.65s3.88,8.65,8.65,8.65s8.65-3.88,8.65-8.65S48.27,35.53,43.5,35.53z M43.5,49.83
			c-3.12,0-5.65-2.54-5.65-5.65s2.54-5.65,5.65-5.65s5.65,2.53,5.65,5.65S46.62,49.83,43.5,49.83z"/>
	</g>
</g>
</svg>
