<?xml version="1.0" encoding="utf-8"?>
<!-- Generator: Adobe Illustrator 23.0.4, SVG Export Plug-In . SVG Version: 6.00 Build 0)  -->
<svg version="1.1" id="Layer_1" xmlns="http://www.w3.org/2000/svg" xmlns:xlink="http://www.w3.org/1999/xlink" x="0px" y="0px"
	 viewBox="0 0 64 64" style="enable-background:new 0 0 64 64;" xml:space="preserve">
<style type="text/css">
	.st0{fill:none;}
</style>
<g>
	<path class="st0" d="M6.41,35.68c-2.55,2.55-2.55,6.71,0,9.26l12.65,12.65c2.55,2.55,6.71,2.55,9.26,0l29.34-29.35l2.37-23.67
		L35.74,6.35L6.41,35.68z M32.62,44.49c-0.12,0.73-0.76,1.25-1.48,1.25c-0.08,0-0.17-0.01-0.25-0.02L20.6,44
		c-0.09-0.02-0.18-0.04-0.26-0.07c-0.01,0-0.01,0-0.02-0.01c-0.15-0.06-0.29-0.14-0.41-0.24c-0.02-0.01-0.03-0.02-0.05-0.04
		c-0.12-0.1-0.21-0.22-0.29-0.35c-0.01-0.02-0.03-0.04-0.04-0.07c-0.07-0.14-0.13-0.29-0.15-0.45c0-0.01-0.01-0.02-0.01-0.03
		l-1.5-10.08c-0.12-0.82,0.44-1.58,1.26-1.7c0.82-0.13,1.58,0.44,1.7,1.26l1.34,9.01l9.22,1.54C32.21,42.9,32.76,43.67,32.62,44.49z
		 M35.1,42.35c-0.25,0.15-0.52,0.23-0.79,0.23c-0.5,0-0.99-0.25-1.27-0.71l-8.98-14.42c-0.44-0.7-0.22-1.63,0.48-2.07
		c0.7-0.44,1.63-0.22,2.07,0.48l8.98,14.42C36.01,40.99,35.8,41.92,35.1,42.35z M46.66,8.9c1.13-1.13,2.63-1.75,4.22-1.75
		c1.59,0,3.09,0.62,4.22,1.75c0,0,0,0,0,0c2.33,2.33,2.33,6.12,0,8.45c-1.16,1.16-2.69,1.75-4.22,1.75s-3.06-0.58-4.22-1.75
		c-1.13-1.13-1.75-2.63-1.75-4.22C44.91,11.52,45.53,10.02,46.66,8.9z M39.51,23.82c0.04,0.04,0.08,0.08,0.11,0.12
		c0.03,0.03,0.05,0.06,0.07,0.1c0.03,0.04,0.06,0.09,0.08,0.14c0.02,0.04,0.04,0.08,0.06,0.12c0.02,0.04,0.03,0.09,0.05,0.14
		c0.02,0.05,0.03,0.1,0.04,0.15c0,0.02,0.01,0.04,0.02,0.06l1.72,10.3c0.14,0.82-0.42,1.59-1.23,1.73
		c-0.08,0.01-0.17,0.02-0.25,0.02c-0.72,0-1.36-0.52-1.48-1.25l-1.54-9.22l-9.01-1.34c-0.82-0.12-1.38-0.88-1.26-1.7
		c0.12-0.82,0.89-1.38,1.7-1.26l10.08,1.5c0.02,0,0.03,0.01,0.05,0.01c0.06,0.01,0.12,0.03,0.18,0.05c0.04,0.01,0.07,0.02,0.1,0.04
		c0.05,0.02,0.11,0.05,0.16,0.08c0.03,0.02,0.07,0.04,0.1,0.06c0.05,0.03,0.09,0.07,0.13,0.1C39.46,23.77,39.49,23.79,39.51,23.82z"
		/>
	<path class="st0" d="M52.98,15.22c1.16-1.16,1.16-3.04,0-4.2c-0.56-0.56-1.31-0.87-2.1-0.87c-0.79,0-1.54,0.31-2.1,0.87
		s-0.87,1.31-0.87,2.1c0,0.79,0.31,1.54,0.87,2.1C49.94,16.38,51.82,16.38,52.98,15.22z"/>
	<path d="M31.39,42.76l-9.22-1.54l-1.34-9.01c-0.12-0.82-0.88-1.39-1.7-1.26c-0.82,0.12-1.38,0.88-1.26,1.7l1.5,10.08
		c0,0.01,0.01,0.02,0.01,0.03c0.03,0.16,0.08,0.31,0.15,0.45c0.01,0.02,0.03,0.04,0.04,0.07c0.08,0.13,0.18,0.25,0.29,0.35
		c0.02,0.01,0.03,0.02,0.05,0.04c0.12,0.1,0.26,0.19,0.41,0.24c0.01,0,0.01,0,0.02,0.01c0.08,0.03,0.17,0.06,0.26,0.07l10.3,1.72
		c0.08,0.01,0.17,0.02,0.25,0.02c0.72,0,1.36-0.52,1.48-1.25C32.76,43.67,32.21,42.9,31.39,42.76z"/>
	<path d="M39.19,23.58c-0.05-0.03-0.1-0.05-0.16-0.08c-0.03-0.01-0.07-0.02-0.1-0.04c-0.06-0.02-0.12-0.04-0.18-0.05
		c-0.02,0-0.03-0.01-0.05-0.01l-10.08-1.5c-0.82-0.12-1.58,0.44-1.7,1.26c-0.12,0.82,0.44,1.58,1.26,1.7l9.01,1.34l1.54,9.22
		c0.12,0.73,0.76,1.25,1.48,1.25c0.08,0,0.17-0.01,0.25-0.02c0.82-0.14,1.37-0.91,1.23-1.73l-1.72-10.3c0-0.02-0.01-0.04-0.02-0.06
		c-0.01-0.05-0.02-0.1-0.04-0.15c-0.02-0.05-0.03-0.09-0.05-0.14c-0.02-0.04-0.04-0.08-0.06-0.12c-0.03-0.05-0.05-0.09-0.08-0.14
		c-0.02-0.03-0.05-0.06-0.07-0.1c-0.04-0.04-0.07-0.09-0.11-0.12c-0.03-0.03-0.06-0.05-0.09-0.08c-0.04-0.04-0.09-0.07-0.13-0.1
		C39.26,23.62,39.22,23.6,39.19,23.58z"/>
	<path d="M26.6,25.87c-0.44-0.7-1.36-0.92-2.07-0.48c-0.7,0.44-0.92,1.36-0.48,2.07l8.98,14.42c0.28,0.46,0.77,0.71,1.27,0.71
		c0.27,0,0.54-0.07,0.79-0.23c0.7-0.44,0.92-1.36,0.48-2.07L26.6,25.87z"/>
	<path d="M62.69,2.57l-0.63-0.63c-0.31-0.31-0.74-0.46-1.17-0.44L34.96,3.4c-0.36,0.03-0.7,0.18-0.95,0.44L4.29,33.56
		c-3.72,3.72-3.72,9.78,0,13.5l12.65,12.65c1.86,1.86,4.31,2.79,6.75,2.79s4.89-0.93,6.75-2.79l29.72-29.72
		c0.25-0.24,0.4-0.57,0.43-0.91l2.53-25.3C63.17,3.33,63.01,2.89,62.69,2.57z M57.66,28.25L28.32,57.59c-2.55,2.55-6.71,2.55-9.26,0
		L6.41,44.94c-2.55-2.55-2.55-6.71,0-9.26L35.74,6.35l24.29-1.78L57.66,28.25z"/>
	<path d="M50.88,19.09c1.53,0,3.06-0.58,4.22-1.75c2.33-2.33,2.33-6.12,0-8.45c0,0,0,0,0,0c-1.13-1.13-2.63-1.75-4.22-1.75
		c-1.6,0-3.09,0.62-4.22,1.75c-1.13,1.13-1.75,2.63-1.75,4.22c0,1.6,0.62,3.09,1.75,4.22C47.82,18.51,49.35,19.09,50.88,19.09z
		 M48.78,11.02c0.56-0.56,1.31-0.87,2.1-0.87c0.79,0,1.54,0.31,2.1,0.87c1.16,1.16,1.16,3.04,0,4.2c-1.16,1.16-3.05,1.16-4.2,0
		c-0.56-0.56-0.87-1.31-0.87-2.1C47.91,12.32,48.22,11.58,48.78,11.02z"/>
</g>
</svg>
