<?xml version="1.0" encoding="utf-8"?>
<!-- Generator: Adobe Illustrator 23.0.4, SVG Export Plug-In . SVG Version: 6.00 Build 0)  -->
<svg version="1.1" id="Layer_1" xmlns="http://www.w3.org/2000/svg" xmlns:xlink="http://www.w3.org/1999/xlink" x="0px" y="0px"
	 viewBox="0 0 64 64" style="enable-background:new 0 0 64 64;" xml:space="preserve">
<style type="text/css">
	.st0{fill:none;}
</style>
<g>
	<path class="st0" d="M11.5,58.5h41v-33H34c-0.83,0-1.5-0.67-1.5-1.5V5.5h-21V58.5z M48,51.5H16c-0.83,0-1.5-0.67-1.5-1.5
		s0.67-1.5,1.5-1.5h32c0.83,0,1.5,0.67,1.5,1.5S48.83,51.5,48,51.5z M16,13.5h12c0.83,0,1.5,0.67,1.5,1.5s-0.67,1.5-1.5,1.5H16
		c-0.83,0-1.5-0.67-1.5-1.5S15.17,13.5,16,13.5z M16,22.25h12c0.83,0,1.5,0.67,1.5,1.5s-0.67,1.5-1.5,1.5H16
		c-0.83,0-1.5-0.67-1.5-1.5S15.17,22.25,16,22.25z M16,31h32c0.83,0,1.5,0.67,1.5,1.5c0,0.83-0.67,1.5-1.5,1.5H16
		c-0.83,0-1.5-0.67-1.5-1.5C14.5,31.67,15.17,31,16,31z M16,39.75h32c0.83,0,1.5,0.67,1.5,1.5s-0.67,1.5-1.5,1.5H16
		c-0.83,0-1.5-0.67-1.5-1.5S15.17,39.75,16,39.75z"/>
	<polygon class="st0" points="35.5,7.62 35.5,22.5 50.38,22.5 	"/>
	<path d="M55.39,23.45c0-0.01,0-0.02-0.01-0.02c-0.08-0.19-0.19-0.35-0.33-0.49l-20-20c-0.14-0.14-0.31-0.25-0.49-0.33
		c-0.01,0-0.02,0-0.02-0.01C34.38,2.54,34.19,2.5,34,2.5H10C9.17,2.5,8.5,3.17,8.5,4v56c0,0.83,0.67,1.5,1.5,1.5h44
		c0.83,0,1.5-0.67,1.5-1.5V24C55.5,23.81,55.46,23.62,55.39,23.45z M35.5,7.62L50.38,22.5H35.5V7.62z M32.5,24
		c0,0.83,0.67,1.5,1.5,1.5h18.5v33h-41v-53h21V24z"/>
	<path d="M48,48.5H16c-0.83,0-1.5,0.67-1.5,1.5s0.67,1.5,1.5,1.5h32c0.83,0,1.5-0.67,1.5-1.5S48.83,48.5,48,48.5z"/>
	<path d="M16,42.75h32c0.83,0,1.5-0.67,1.5-1.5s-0.67-1.5-1.5-1.5H16c-0.83,0-1.5,0.67-1.5,1.5S15.17,42.75,16,42.75z"/>
	<path d="M16,34h32c0.83,0,1.5-0.67,1.5-1.5c0-0.83-0.67-1.5-1.5-1.5H16c-0.83,0-1.5,0.67-1.5,1.5C14.5,33.33,15.17,34,16,34z"/>
	<path d="M16,25.25h12c0.83,0,1.5-0.67,1.5-1.5s-0.67-1.5-1.5-1.5H16c-0.83,0-1.5,0.67-1.5,1.5S15.17,25.25,16,25.25z"/>
	<path d="M16,16.5h12c0.83,0,1.5-0.67,1.5-1.5s-0.67-1.5-1.5-1.5H16c-0.83,0-1.5,0.67-1.5,1.5S15.17,16.5,16,16.5z"/>
</g>
</svg>
