<?xml version="1.0" encoding="utf-8"?>
<!-- Generator: Adobe Illustrator 23.0.4, SVG Export Plug-In . SVG Version: 6.00 Build 0)  -->
<svg version="1.1" id="Layer_1" xmlns="http://www.w3.org/2000/svg" xmlns:xlink="http://www.w3.org/1999/xlink" x="0px" y="0px"
	 viewBox="0 0 64 64" style="enable-background:new 0 0 64 64;" xml:space="preserve">
<g>
	<path d="M54,31.5c-0.83,0-1.5,0.67-1.5,1.5v25.5h-41v-53H32c0.83,0,1.5-0.67,1.5-1.5S32.83,2.5,32,2.5H10C9.17,2.5,8.5,3.17,8.5,4
		v56c0,0.83,0.67,1.5,1.5,1.5h44c0.83,0,1.5-0.67,1.5-1.5V33C55.5,32.17,54.83,31.5,54,31.5z"/>
	<path d="M46.94,19.06c0.29,0.29,0.68,0.44,1.06,0.44s0.77-0.15,1.06-0.44c0.59-0.59,0.59-1.54,0-2.12l-2-2
		c-0.59-0.59-1.54-0.59-2.12,0c-0.59,0.59-0.59,1.54,0,2.12L46.94,19.06z"/>
	<path d="M16,51.5h32c0.83,0,1.5-0.67,1.5-1.5s-0.67-1.5-1.5-1.5H16c-0.83,0-1.5,0.67-1.5,1.5S15.17,51.5,16,51.5z"/>
	<path d="M16,42.75h16c0.83,0,1.5-0.67,1.5-1.5s-0.67-1.5-1.5-1.5H16c-0.83,0-1.5,0.67-1.5,1.5S15.17,42.75,16,42.75z"/>
	<path d="M32,31H16c-0.83,0-1.5,0.67-1.5,1.5c0,0.83,0.67,1.5,1.5,1.5h16c0.83,0,1.5-0.67,1.5-1.5C33.5,31.67,32.83,31,32,31z"/>
	<path d="M29.5,15c0-0.83-0.67-1.5-1.5-1.5H16c-0.83,0-1.5,0.67-1.5,1.5s0.67,1.5,1.5,1.5h12C28.83,16.5,29.5,15.83,29.5,15z"/>
	<path d="M60,22H43V5c0-1.66-1.34-3-3-3s-3,1.34-3,3v17H20c-1.66,0-3,1.34-3,3s1.34,3,3,3h17v17c0,1.66,1.34,3,3,3s3-1.34,3-3V28h17
		c1.66,0,3-1.34,3-3S61.66,22,60,22z"/>
</g>
</svg>
