<?xml version="1.0" encoding="utf-8"?>
<!-- Generator: Adobe Illustrator 23.0.4, SVG Export Plug-In . SVG Version: 6.00 Build 0)  -->
<svg version="1.1" id="Layer_1" xmlns="http://www.w3.org/2000/svg" xmlns:xlink="http://www.w3.org/1999/xlink" x="0px" y="0px"
	 viewBox="0 0 64 64" style="enable-background:new 0 0 64 64;" xml:space="preserve">
<style type="text/css">
	.st0{fill:none;}
</style>
<g>
	<polygon class="st0" points="8.81,46.93 6.06,57.94 17.07,55.19 	"/>
	<path class="st0" d="M51.71,5.07c-0.76-0.76-2-0.76-2.77,0l-2.82,2.82l9.43,9.43l2.82-2.82c0.37-0.37,0.57-0.86,0.57-1.38
		c0-0.52-0.2-1.02-0.57-1.38L51.71,5.07z"/>
	<path d="M19.99,53.86L10.12,44l32-32L40,9.88L6.65,43.23L1.94,62.06l18.84-4.71l33.04-33.98l-2.15-2.09L19.99,53.86z M8.81,46.93
		l8.25,8.25l-11,2.75L8.81,46.93z"/>
	<path d="M60.5,9.62l-6.67-6.67c-1.93-1.93-5.08-1.93-7.01,0l-4.94,4.94l13.68,13.68l4.94-4.94c0.93-0.93,1.45-2.18,1.45-3.51
		C61.94,11.79,61.43,10.55,60.5,9.62z M58.38,14.5l-2.82,2.82l-9.43-9.43l2.82-2.82c0.76-0.76,2-0.76,2.77,0l6.67,6.67
		c0.37,0.37,0.57,0.86,0.57,1.38C58.94,13.65,58.74,14.14,58.38,14.5z"/>
</g>
</svg>
