<?xml version="1.0" encoding="utf-8"?>
<!-- Generator: Adobe Illustrator 23.0.4, SVG Export Plug-In . SVG Version: 6.00 Build 0)  -->
<svg version="1.1" id="Layer_1" xmlns="http://www.w3.org/2000/svg" xmlns:xlink="http://www.w3.org/1999/xlink" x="0px" y="0px"
	 viewBox="0 0 64 64" style="enable-background:new 0 0 64 64;" xml:space="preserve">
<path d="M60.75,47.86l-1.09-0.95c-5.11-4.54-13.22-6.05-17.59-6.55c-0.11-0.01-0.23-0.02-0.34-0.02c-0.9,0-1.77,0.41-2.34,1.12
	l-3.78,4.71c-3.19-1.76-6.72-4.81-9.79-8.51c-0.02-0.02-0.04-0.04-0.05-0.06c-3.01-3.43-5.24-7.09-6.42-10.52l5.26-3.01
	c0.89-0.51,1.46-1.44,1.51-2.47c0.19-4.4-0.03-12.64-3.74-18.43l-0.75-1.2c-0.55-0.89-1.52-1.41-2.54-1.41
	c-0.13,0-0.26,0.01-0.38,0.02L9.18,1.81C8,1.96,7.01,2.8,6.68,3.95c-4.74,16.49-1.72,32.26,8.29,43.29
	c8.04,10,20.23,15.51,34.34,15.51c2.33,0,4.73-0.15,7.13-0.45c1.19-0.15,2.17-0.98,2.51-2.13l2.7-9.21
	C61.99,49.84,61.64,48.63,60.75,47.86z M56.08,59.33c-2.32,0.29-4.57,0.43-6.77,0.43c-13.74,0-24.87-5.47-32.06-14.46
	C8.26,35.44,4.88,21.1,9.57,4.78l9.52-1.23l0.77,1.23c2.8,4.37,3.52,10.9,3.27,16.68l-7.3,4.17c1.04,4.69,3.91,9.64,7.69,13.94
	c3.66,4.4,8.49,8.56,12.96,10.32l5.26-6.55c5.75,0.65,12.08,2.39,15.96,5.83l1.09,0.95L56.08,59.33z"/>
</svg>
