<?xml version="1.0" encoding="utf-8"?>
<!-- Generator: Adobe Illustrator 23.0.3, SVG Export Plug-In . SVG Version: 6.00 Build 0)  -->
<svg version="1.1" id="Layer_1" xmlns="http://www.w3.org/2000/svg" xmlns:xlink="http://www.w3.org/1999/xlink" x="0px" y="0px"
	 viewBox="0 0 64 64" style="enable-background:new 0 0 64 64;" xml:space="preserve">
<path d="M30.11,0.5h-1.5v4.15C13.01,5.54,0.85,18.37,0.85,34.05c0,16.24,13.21,29.45,29.45,29.45c9.62,0,18.51-4.64,24.04-12.46
	l3.16,2l0.8-1.26c0.49-0.76,0.95-1.57,1.38-2.39c2.49-4.75,3.81-10.11,3.81-15.5C63.5,15.48,48.52,0.5,30.11,0.5z M30.3,60.5
	c-14.58,0-26.45-11.87-26.45-26.45c0-14.03,10.83-25.51,24.76-26.39v27.06l23.2,14.72C46.84,56.38,38.9,60.5,30.3,60.5z M57.03,48
	c-0.16,0.3-0.32,0.59-0.48,0.89L31.61,33.07V3.54C47.67,4.32,60.5,17.64,60.5,33.89C60.5,38.8,59.3,43.68,57.03,48z"/>
</svg>
