<?xml version="1.0" encoding="utf-8"?>
<!-- Generator: Adobe Illustrator 23.0.4, SVG Export Plug-In . SVG Version: 6.00 Build 0)  -->
<svg version="1.1" id="Layer_1" xmlns="http://www.w3.org/2000/svg" xmlns:xlink="http://www.w3.org/1999/xlink" x="0px" y="0px"
	 viewBox="0 0 64 64" style="enable-background:new 0 0 64 64;" xml:space="preserve">
<g>
	<path d="M60.51,49.5c0.01-0.02,0.01-0.03,0.02-0.05l0,0c1.97-5.65,2.97-11.5,2.97-17.39c0-5.83-0.98-11.61-2.91-17.21
		c-0.06-0.59-0.46-1.11-1.06-1.29c-17.9-5.39-37.17-5.39-55.06,0c-0.04,0.01-0.08,0.04-0.13,0.05c-0.04,0.02-0.08,0.03-0.11,0.05
		c-0.05,0.03-0.1,0.06-0.15,0.09c-0.03,0.02-0.06,0.04-0.09,0.06c-0.05,0.04-0.09,0.08-0.13,0.12c-0.03,0.03-0.06,0.06-0.09,0.09
		c-0.04,0.04-0.07,0.09-0.1,0.13c-0.03,0.04-0.05,0.07-0.07,0.11c-0.03,0.05-0.05,0.1-0.07,0.15c-0.01,0.03-0.03,0.06-0.04,0.09
		c-0.01,0.02-0.01,0.03-0.02,0.05c0,0,0,0,0,0C1.5,20.21,0.5,26.06,0.5,31.94c0,5.83,0.98,11.61,2.91,17.21
		c0.06,0.59,0.46,1.11,1.06,1.29c8.95,2.7,18.21,4.06,27.53,4.06c9.32,0,18.58-1.37,27.53-4.06c0,0,0.01,0,0.01-0.01
		c0.01,0,0.02-0.01,0.03-0.01c0.12-0.04,0.24-0.1,0.34-0.17c0.02-0.02,0.05-0.03,0.07-0.05c0.11-0.08,0.21-0.17,0.29-0.28
		c0.01-0.02,0.02-0.03,0.03-0.05c0.08-0.11,0.14-0.22,0.18-0.34C60.5,49.52,60.51,49.51,60.51,49.5z M6.12,47.78
		C4.39,42.63,3.5,37.3,3.5,31.94c0-5.31,0.87-10.6,2.58-15.72c16.86-4.93,34.93-4.93,51.8-0.01c1.73,5.16,2.62,10.48,2.62,15.84
		c0,5.31-0.87,10.6-2.58,15.72C41.06,52.7,22.99,52.7,6.12,47.78z"/>
	<polygon points="28.6,20.97 28.6,43.03 39.63,32 	"/>
</g>
</svg>
