<?xml version="1.0" encoding="utf-8"?>
<!-- Generator: Adobe Illustrator 24.2.3, SVG Export Plug-In . SVG Version: 6.00 Build 0)  -->
<svg version="1.1" id="Layer_1" xmlns="http://www.w3.org/2000/svg" xmlns:xlink="http://www.w3.org/1999/xlink" x="0px" y="0px"
	 viewBox="0 0 64 64" style="enable-background:new 0 0 64 64;" xml:space="preserve">
<path d="M56.31,34.52c0.1-0.18,0.18-0.37,0.26-0.56c0.05-0.11,0.11-0.23,0.15-0.34c0.06-0.16,0.08-0.33,0.12-0.5
	c0.03-0.15,0.08-0.29,0.1-0.44c0.02-0.16,0.01-0.32,0.02-0.49c0.01-0.16,0.02-0.31,0.02-0.47c-0.01-0.15-0.05-0.31-0.07-0.46
	c-0.03-0.17-0.04-0.34-0.08-0.5c-0.03-0.12-0.09-0.24-0.13-0.36c-0.07-0.2-0.13-0.39-0.22-0.58c-0.01-0.02-0.01-0.04-0.02-0.06
	c-0.05-0.1-0.12-0.18-0.17-0.27c-0.1-0.17-0.2-0.35-0.32-0.51c-0.1-0.13-0.21-0.24-0.32-0.36c-0.11-0.12-0.22-0.25-0.34-0.36
	c-0.15-0.13-0.31-0.24-0.47-0.35c-0.09-0.06-0.17-0.14-0.27-0.2l-40-24c-0.09-0.05-0.19-0.08-0.28-0.13
	c-0.16-0.09-0.33-0.17-0.5-0.24c-0.15-0.06-0.3-0.1-0.46-0.14c-0.16-0.04-0.31-0.09-0.47-0.12c-0.18-0.03-0.36-0.04-0.54-0.05
	C12.21,3.02,12.11,3,12,3c-0.04,0-0.08,0.01-0.13,0.01c-0.18,0-0.36,0.03-0.54,0.05c-0.15,0.02-0.3,0.03-0.45,0.07
	c-0.16,0.04-0.31,0.09-0.46,0.14c-0.16,0.05-0.31,0.1-0.46,0.16C9.82,3.5,9.69,3.59,9.55,3.67C9.41,3.75,9.27,3.82,9.14,3.91
	C9,4,8.88,4.12,8.76,4.22c-0.12,0.1-0.25,0.2-0.36,0.32C8.3,4.65,8.21,4.77,8.11,4.89C8,5.03,7.89,5.17,7.79,5.33
	c-0.02,0.04-0.05,0.06-0.07,0.1C7.66,5.52,7.63,5.62,7.58,5.71c-0.08,0.16-0.17,0.33-0.23,0.5C7.29,6.36,7.24,6.52,7.2,6.67
	C7.16,6.83,7.11,6.98,7.09,7.14C7.05,7.32,7.04,7.51,7.03,7.69C7.02,7.79,7,7.89,7,8v44c0,0.05,0.01,0.1,0.01,0.15
	c0.01,0.18,0.03,0.36,0.05,0.54c0.02,0.15,0.04,0.31,0.08,0.46c0.04,0.15,0.09,0.3,0.14,0.44c0.06,0.17,0.12,0.34,0.19,0.51
	c0.02,0.05,0.03,0.09,0.05,0.14c0.08,0.16,0.17,0.3,0.27,0.45c0.03,0.04,0.05,0.09,0.08,0.13c0.17,0.24,0.35,0.46,0.55,0.67
	c0.04,0.04,0.09,0.08,0.14,0.13c0.17,0.16,0.35,0.31,0.54,0.45c0.06,0.04,0.12,0.09,0.18,0.13c0.24,0.15,0.49,0.29,0.75,0.41
	c0.04,0.02,0.08,0.03,0.12,0.04c0.23,0.09,0.47,0.17,0.72,0.22c0.08,0.02,0.16,0.04,0.24,0.05C11.4,56.96,11.7,57,12,57
	c0.31,0,0.62-0.04,0.93-0.09c0.04-0.01,0.08-0.01,0.12-0.02c0.27-0.06,0.54-0.14,0.8-0.25c0.06-0.03,0.13-0.05,0.19-0.08
	c0.06-0.03,0.13-0.05,0.19-0.08l40-20c0.02-0.01,0.04-0.03,0.06-0.04c0.26-0.14,0.51-0.29,0.75-0.47c0.05-0.04,0.09-0.08,0.13-0.11
	c0.19-0.15,0.36-0.32,0.53-0.5c0.05-0.05,0.09-0.1,0.14-0.15c0.16-0.19,0.31-0.4,0.45-0.62C56.3,34.55,56.3,34.54,56.31,34.52z"/>
</svg>
