<?xml version="1.0" encoding="utf-8"?>
<!-- Generator: Adobe Illustrator 25.0.0, SVG Export Plug-In . SVG Version: 6.00 Build 0)  -->
<svg version="1.1" id="Layer_1" xmlns="http://www.w3.org/2000/svg" xmlns:xlink="http://www.w3.org/1999/xlink" x="0px" y="0px"
	 viewBox="0 0 64 64" style="enable-background:new 0 0 64 64;" xml:space="preserve">
<g>
	<path d="M60.94,5.41c-0.02-0.09-0.05-0.17-0.08-0.26c-0.03-0.1-0.05-0.2-0.09-0.3c-0.04-0.1-0.1-0.2-0.16-0.3
		c-0.04-0.07-0.07-0.15-0.12-0.22c-0.22-0.33-0.5-0.61-0.83-0.83c-0.07-0.05-0.14-0.08-0.21-0.12c-0.1-0.06-0.2-0.11-0.3-0.16
		c-0.1-0.04-0.2-0.06-0.3-0.09c-0.09-0.03-0.17-0.06-0.26-0.08C58.39,3.02,58.2,3,58,3H44.2c-1.66,0-3,1.34-3,3s1.34,3,3,3h6.56
		L39.88,19.88c-1.17,1.17-1.17,3.07,0,4.24C40.46,24.71,41.23,25,42,25s1.54-0.29,2.12-0.88L55,13.24v6.56c0,1.66,1.34,3,3,3
		s3-1.34,3-3V6C61,5.8,60.98,5.61,60.94,5.41z"/>
	<path d="M52,27.74c-1.1,0-2,0.9-2,2V58H6V14h27.22c1.1,0,2-0.9,2-2s-0.9-2-2-2H4c-1.1,0-2,0.9-2,2v48c0,1.1,0.9,2,2,2h48
		c1.1,0,2-0.9,2-2V29.74C54,28.63,53.1,27.74,52,27.74z"/>
</g>
</svg>
