<?xml version="1.0" encoding="utf-8"?>
<!-- Generator: Adobe Illustrator 23.0.4, SVG Export Plug-In . SVG Version: 6.00 Build 0)  -->
<svg version="1.1" id="Layer_1" xmlns="http://www.w3.org/2000/svg" xmlns:xlink="http://www.w3.org/1999/xlink" x="0px" y="0px"
	 viewBox="0 0 64 64" style="enable-background:new 0 0 64 64;" xml:space="preserve">
<g>
	<path d="M42,41.5H22c-0.83,0-1.5,0.67-1.5,1.5s0.67,1.5,1.5,1.5h20c0.83,0,1.5-0.67,1.5-1.5S42.83,41.5,42,41.5z"/>
	<path d="M42,46.5H22c-0.83,0-1.5,0.67-1.5,1.5s0.67,1.5,1.5,1.5h20c0.83,0,1.5-0.67,1.5-1.5S42.83,46.5,42,46.5z"/>
	<path d="M52.5,32.5c2.21,0,4-1.79,4-4s-1.79-4-4-4s-4,1.79-4,4S50.29,32.5,52.5,32.5z M52.5,27.5c0.55,0,1,0.45,1,1s-0.45,1-1,1
		s-1-0.45-1-1S51.95,27.5,52.5,27.5z"/>
	<path d="M61.5,25c0-3.03-2.47-5.5-5.5-5.5h-6.5v-12h-35v12H8c-3.03,0-5.5,2.47-5.5,5.5v16c0,3.03,2.47,5.5,5.5,5.5h6.5v9h35v-9H56
		c3.03,0,5.5-2.47,5.5-5.5V25z M17.5,10.5h29v9h-29V10.5z M46.5,52.5h-29v-6v-7.45l29-0.07V45V52.5z M56,43.5h-6.5v-7.53V35.5h-35
		v0.56v7.44H8c-1.38,0-2.5-1.12-2.5-2.5V25c0-1.38,1.12-2.5,2.5-2.5h6.5h35H56c1.38,0,2.5,1.12,2.5,2.5v16
		C58.5,42.38,57.38,43.5,56,43.5z"/>
</g>
</svg>
