<?xml version="1.0" encoding="utf-8"?>
<!-- Generator: Adobe Illustrator 23.0.4, SVG Export Plug-In . SVG Version: 6.00 Build 0)  -->
<svg version="1.1" id="Layer_1" xmlns="http://www.w3.org/2000/svg" xmlns:xlink="http://www.w3.org/1999/xlink" x="0px" y="0px"
	 viewBox="0 0 64 64" style="enable-background:new 0 0 64 64;" xml:space="preserve">
<style type="text/css">
	.st0{fill:none;}
</style>
<g>
	<path class="st0" d="M31.92,6.21c-14.18,0-25.71,11.54-25.71,25.71s11.54,25.71,25.71,25.71S57.64,46.1,57.64,31.92
		S46.1,6.21,31.92,6.21z M33.51,50.11h-0.02c-0.48,0.47-1.13,0.76-1.85,0.76c-0.72,0-1.37-0.29-1.85-0.76h-0.02v-0.02
		c-0.47-0.48-0.76-1.13-0.76-1.85c0-0.72,0.29-1.38,0.76-1.85v-0.02h0.02c0.48-0.47,1.13-0.76,1.85-0.76c0.72,0,1.38,0.29,1.85,0.76
		h0.02v0.02c0.47,0.48,0.76,1.13,0.76,1.85c0,0.72-0.29,1.37-0.76,1.85V50.11z M42.23,29.06c-0.01,0.02-0.02,0.04-0.03,0.06
		c-0.03,0.05-0.05,0.1-0.08,0.15c-0.78,1.51-1.55,2.32-2.65,3.24c-1.23,1.02-2.41,1.86-3.62,2.55c-0.79,0.45-1.45,1.35-1.65,2.22
		c-0.22,1-0.2,2.17-0.17,3.4l0.01,0.84c0.01,1.38-1.09,2.51-2.47,2.53c-0.01,0-0.02,0-0.03,0c-1.37,0-2.48-1.1-2.5-2.47l-0.01-0.79
		c-0.03-1.41-0.06-3.01,0.29-4.6c0.51-2.26,2.02-4.31,4.04-5.47c0.96-0.55,1.89-1.2,2.9-2.05c0.37-0.31,0.62-0.54,0.84-0.8
		c0.01-0.02,0.02-0.03,0.03-0.05c0.22-0.3,0.42-0.61,0.59-0.93c0.01-0.02,0.01-0.03,0.02-0.04c0.52-0.99,0.79-2.08,0.79-3.22
		c0-3.85-3.13-6.98-6.98-6.98c-1.98,0-3.88,0.85-5.21,2.33c-0.92,1.03-2.5,1.12-3.53,0.2c-1.03-0.92-1.12-2.5-0.2-3.53
		c2.27-2.54,5.53-3.99,8.93-3.99c6.61,0,11.98,5.38,11.98,11.98c0,1.9-0.44,3.73-1.29,5.4C42.24,29.04,42.24,29.05,42.23,29.06z"/>
	<path d="M31.55,11.65c-3.4,0-6.66,1.46-8.93,3.99c-0.92,1.03-0.83,2.61,0.2,3.53c1.03,0.92,2.61,0.83,3.53-0.2
		c1.32-1.48,3.22-2.33,5.21-2.33c3.85,0,6.98,3.13,6.98,6.98c0,1.14-0.27,2.23-0.79,3.22c-0.01,0.02-0.01,0.03-0.02,0.04
		c-0.17,0.32-0.37,0.63-0.59,0.93c-0.01,0.02-0.02,0.03-0.03,0.05c-0.22,0.26-0.47,0.49-0.84,0.8c-1.01,0.85-1.94,1.5-2.9,2.05
		c-2.02,1.16-3.53,3.2-4.04,5.47c-0.36,1.59-0.32,3.19-0.29,4.6l0.01,0.79c0.01,1.37,1.13,2.47,2.5,2.47c0.01,0,0.02,0,0.03,0
		c1.38-0.01,2.49-1.15,2.47-2.53l-0.01-0.84c-0.03-1.24-0.05-2.41,0.17-3.4c0.2-0.88,0.86-1.77,1.65-2.22
		c1.21-0.69,2.39-1.53,3.62-2.55c1.1-0.92,1.87-1.73,2.65-3.24c0.03-0.05,0.05-0.1,0.08-0.15c0.01-0.02,0.02-0.04,0.03-0.06
		c0.01-0.01,0.01-0.02,0.01-0.03c0.84-1.66,1.29-3.49,1.29-5.4C43.53,17.02,38.16,11.65,31.55,11.65z"/>
	<path d="M33.51,46.39v-0.02h-0.02c-0.48-0.47-1.13-0.76-1.85-0.76c-0.72,0-1.38,0.29-1.85,0.76h-0.02v0.02
		c-0.47,0.48-0.76,1.13-0.76,1.85c0,0.72,0.29,1.38,0.76,1.85v0.02h0.02c0.48,0.47,1.13,0.76,1.85,0.76c0.72,0,1.37-0.29,1.85-0.76
		h0.02v-0.02c0.47-0.48,0.76-1.13,0.76-1.85C34.27,47.52,33.98,46.86,33.51,46.39z"/>
	<path d="M31.92,1.81c-16.6,0-30.11,13.51-30.11,30.11c0,16.6,13.51,30.11,30.11,30.11c16.6,0,30.11-13.51,30.11-30.11
		C62.04,15.32,48.53,1.81,31.92,1.81z M31.92,57.64c-14.18,0-25.71-11.54-25.71-25.71S17.75,6.21,31.92,6.21
		s25.71,11.54,25.71,25.71S46.1,57.64,31.92,57.64z"/>
</g>
</svg>
