<?xml version="1.0" encoding="utf-8"?>
<!-- Generator: Adobe Illustrator 23.0.4, SVG Export Plug-In . SVG Version: 6.00 Build 0)  -->
<svg version="1.1" id="Layer_1" xmlns="http://www.w3.org/2000/svg" xmlns:xlink="http://www.w3.org/1999/xlink" x="0px" y="0px"
	 viewBox="0 0 64 64" style="enable-background:new 0 0 64 64;" xml:space="preserve">
<style type="text/css">
	.st0{fill:none;}
</style>
<g>
	<path class="st0" d="M31.95,56.14c-0.66,0-1.2,0.54-1.2,1.2s0.54,1.2,1.2,1.2s1.2-0.54,1.2-1.2S32.61,56.14,31.95,56.14z
		 M31.95,58.34c-0.55,0-1-0.45-1-1c0-0.55,0.45-1,1-1s1,0.45,1,1C32.95,57.89,32.5,58.34,31.95,58.34z"/>
	<circle cx="31.95" cy="57.34" r="1"/>
	<path d="M31.95,54.14c-1.76,0-3.2,1.44-3.2,3.2s1.44,3.2,3.2,3.2s3.2-1.44,3.2-3.2S33.72,54.14,31.95,54.14z M31.95,58.54
		c-0.66,0-1.2-0.54-1.2-1.2s0.54-1.2,1.2-1.2s1.2,0.54,1.2,1.2S32.61,58.54,31.95,58.54z"/>
	<path d="M48.05,28.16c0.01-0.01,0.01-0.02,0.01-0.03C49.33,25.62,50,22.87,50,20c0-9.93-8.08-18-18-18c-5.11,0-10,2.19-13.42,6
		c-1.1,1.23-1,3.13,0.23,4.24c1.23,1.1,3.13,1,4.24-0.23c2.28-2.54,5.54-4,8.94-4c6.62,0,12,5.38,12,12c0,1.95-0.46,3.83-1.34,5.52
		c-0.01,0.02-0.02,0.05-0.04,0.07c-0.29,0.56-0.63,1.09-1.02,1.61c-0.02,0.03-0.04,0.06-0.06,0.09c-0.39,0.47-0.84,0.88-1.47,1.4
		c-1.65,1.37-3.15,2.44-4.72,3.34c-2.93,1.68-5.2,4.76-5.93,8.03c-0.54,2.4-0.49,4.76-0.44,7.05c0.01,0.42,0.02,0.84,0.02,1.26
		c0.02,1.65,1.36,2.97,3,2.97c0.01,0,0.02,0,0.03,0c1.66-0.02,2.99-1.38,2.97-3.03c0-0.44-0.01-0.88-0.02-1.32
		c-0.04-2.02-0.08-3.93,0.3-5.61c0.37-1.66,1.57-3.28,3.06-4.13c1.86-1.07,3.69-2.35,5.58-3.94c1.65-1.38,2.79-2.59,3.95-4.82
		c0.05-0.09,0.1-0.18,0.14-0.27C48.03,28.2,48.04,28.18,48.05,28.16z"/>
</g>
</svg>
