<?xml version="1.0" encoding="utf-8"?>
<!-- Generator: Adobe Illustrator 23.0.4, SVG Export Plug-In . SVG Version: 6.00 Build 0)  -->
<svg version="1.1" id="Layer_1" xmlns="http://www.w3.org/2000/svg" xmlns:xlink="http://www.w3.org/1999/xlink" x="0px" y="0px"
	 viewBox="0 0 64 64" style="enable-background:new 0 0 64 64;" xml:space="preserve">
<g>
	<path d="M47.97,44.5c-0.83,0-1.5,0.67-1.5,1.5V57.1c0,1.28-0.77,2.4-1.64,2.4H7.14c-0.87,0-1.64-1.12-1.64-2.4V14.16
		c0-1.28,0.77-2.4,1.64-2.4h4.92c0.83,0,1.5-0.67,1.5-1.5s-0.67-1.5-1.5-1.5H7.14c-2.56,0-4.64,2.42-4.64,5.4V57.1
		c0,2.98,2.08,5.4,4.64,5.4h37.69c2.56,0,4.64-2.42,4.64-5.4V46C49.47,45.18,48.8,44.5,47.97,44.5z"/>
	<path d="M39.99,11.75h4.84c0.87,0,1.64,1.12,1.64,2.4v17.68c0,0.83,0.67,1.5,1.5,1.5s1.5-0.67,1.5-1.5V14.16
		c0-2.98-2.08-5.4-4.64-5.4h-4.84c-0.83,0-1.5,0.67-1.5,1.5S39.16,11.75,39.99,11.75z"/>
	<path d="M19,13.5h14c2.48,0,4.5-2.02,4.5-4.5S35.48,4.5,33,4.5h-2.1c-0.46-2.28-2.48-4-4.9-4s-4.43,1.72-4.9,4H19
		c-2.48,0-4.5,2.02-4.5,4.5S16.52,13.5,19,13.5z M26,3.5c1.1,0,2,0.9,2,2s-0.9,2-2,2s-2-0.9-2-2S24.9,3.5,26,3.5z"/>
	<path d="M32.8,50.24l0.01,0.01l-1.75,5.3l5.34-1.73l0.01,0.01l22.77-22.6l-0.93-0.92L35.5,52.91l-1.77-1.75l22.76-22.59l-0.93-0.92
		L32.8,50.24z M33.98,53.24l-0.86,0.28l0.28-0.85L33.98,53.24z"/>
	<path d="M60.87,29.52c0.45-0.44,0.45-1.16,0-1.6l-1.96-1.95c-0.45-0.44-1.17-0.44-1.61,0l-1.37,1.36l3.57,3.55L60.87,29.52z"/>
	<path d="M10,19.5h32c0.83,0,1.5-0.67,1.5-1.5s-0.67-1.5-1.5-1.5H10c-0.83,0-1.5,0.67-1.5,1.5S9.17,19.5,10,19.5z"/>
	<path d="M10,25.5h32c0.83,0,1.5-0.67,1.5-1.5s-0.67-1.5-1.5-1.5H10c-0.83,0-1.5,0.67-1.5,1.5S9.17,25.5,10,25.5z"/>
	<path d="M10,31.5h32c0.83,0,1.5-0.67,1.5-1.5s-0.67-1.5-1.5-1.5H10c-0.83,0-1.5,0.67-1.5,1.5S9.17,31.5,10,31.5z"/>
	<path d="M33.5,36c0-0.83-0.67-1.5-1.5-1.5H10c-0.83,0-1.5,0.67-1.5,1.5s0.67,1.5,1.5,1.5h22C32.83,37.5,33.5,36.83,33.5,36z"/>
	<path d="M24,40.5H10c-0.83,0-1.5,0.67-1.5,1.5s0.67,1.5,1.5,1.5h14c0.83,0,1.5-0.67,1.5-1.5S24.83,40.5,24,40.5z"/>
	<path d="M24,46.5H10c-0.83,0-1.5,0.67-1.5,1.5s0.67,1.5,1.5,1.5h14c0.83,0,1.5-0.67,1.5-1.5S24.83,46.5,24,46.5z"/>
	<path d="M24,52.5H10c-0.83,0-1.5,0.67-1.5,1.5s0.67,1.5,1.5,1.5h14c0.83,0,1.5-0.67,1.5-1.5S24.83,52.5,24,52.5z"/>
</g>
</svg>
