<?xml version="1.0" encoding="utf-8"?>
<!-- Generator: Adobe Illustrator 23.0.4, SVG Export Plug-In . SVG Version: 6.00 Build 0)  -->
<svg version="1.1" id="Layer_1" xmlns="http://www.w3.org/2000/svg" xmlns:xlink="http://www.w3.org/1999/xlink" x="0px" y="0px"
	 viewBox="0 0 64 64" style="enable-background:new 0 0 64 64;" xml:space="preserve">
<style type="text/css">
	.st0{fill:none;}
</style>
<g>
	<circle class="st0" cx="31.98" cy="7.21" r="3.71"/>
	<path d="M59.49,52.05c-4.63-3.9-5.45-7.51-6.1-10.4l-0.04-0.16c-0.6-2.62-0.53-4.56-0.45-6.8c0.08-2.4,0.18-5.11-0.48-9.22
		c-0.47-2.98-1.12-7.07-4.06-11.08c-3.99-5.45-7.92-7.54-9.76-8.27C38.06,2.93,35.3,0.5,31.98,0.5c-3.33,0-6.09,2.43-6.62,5.61
		c-1.84,0.74-5.77,2.82-9.76,8.28c-2.94,4.01-3.59,8.1-4.06,11.08c-0.65,4.1-0.56,6.82-0.48,9.22c0.08,2.24,0.14,4.18-0.45,6.8
		l-0.04,0.16c-0.66,2.9-1.47,6.5-6.1,10.4c-0.48,0.41-0.66,1.07-0.44,1.66C4.24,54.3,4.8,54.7,5.43,54.7h53.09
		c0.63,0,1.19-0.39,1.41-0.99C60.15,53.12,59.97,52.46,59.49,52.05z M31.98,3.5c2.05,0,3.71,1.67,3.71,3.71s-1.67,3.71-3.71,3.71
		s-3.71-1.67-3.71-3.71S29.93,3.5,31.98,3.5z"/>
	<path d="M39.27,55.82c-0.67-0.5-1.6-0.36-2.1,0.31c-1.23,1.65-3.11,2.62-5.16,2.65c-2.14,0.06-4.12-0.95-5.38-2.65
		c-0.49-0.67-1.43-0.8-2.1-0.31c-0.66,0.49-0.8,1.43-0.31,2.1c1.8,2.42,4.66,3.86,7.68,3.86c0.05,0,0.11,0,0.16,0
		c2.99-0.05,5.73-1.46,7.51-3.87C40.08,57.25,39.94,56.31,39.27,55.82z"/>
</g>
</svg>
