<?xml version="1.0" encoding="utf-8"?>
<!-- Generator: Adobe Illustrator 23.0.4, SVG Export Plug-In . SVG Version: 6.00 Build 0)  -->
<svg version="1.1" id="Layer_1" xmlns="http://www.w3.org/2000/svg" xmlns:xlink="http://www.w3.org/1999/xlink" x="0px" y="0px"
	 viewBox="0 0 64 64" style="enable-background:new 0 0 64 64;" xml:space="preserve">
<style type="text/css">
	.st0{fill:none;}
</style>
<g>
	<circle class="st0" cx="31.98" cy="7.21" r="3.71"/>
	<path class="st0" d="M50.52,42.56c-0.02-0.08-0.04-0.17-0.06-0.25l-0.04-0.16c-0.68-3-0.61-5.22-0.53-7.57
		c0.08-2.26,0.17-4.83-0.44-8.65c-0.45-2.83-1.01-6.35-3.52-9.78c-2.78-3.79-5.66-5.9-7.57-6.87c-0.01,0.02-0.02,0.05-0.03,0.07
		c-0.09,0.28-0.21,0.54-0.33,0.8c-0.02,0.05-0.05,0.1-0.07,0.15c-0.14,0.27-0.3,0.53-0.48,0.78c-0.04,0.05-0.07,0.1-0.11,0.15
		c-0.18,0.24-0.37,0.47-0.58,0.68c-0.01,0.01-0.02,0.02-0.03,0.03c-0.22,0.22-0.45,0.42-0.7,0.6c-0.05,0.04-0.1,0.08-0.16,0.12
		c-0.25,0.18-0.5,0.34-0.77,0.48c-0.04,0.02-0.08,0.04-0.12,0.06c-0.25,0.13-0.51,0.24-0.78,0.33c-0.05,0.02-0.1,0.04-0.15,0.05
		c-0.29,0.1-0.59,0.17-0.9,0.22c-0.07,0.01-0.13,0.02-0.2,0.03c-0.32,0.05-0.65,0.08-0.98,0.08c-0.33,0-0.66-0.03-0.98-0.08
		c-0.07-0.01-0.13-0.02-0.2-0.03c-0.31-0.05-0.61-0.13-0.9-0.22c-0.05-0.02-0.1-0.04-0.15-0.06c-0.27-0.09-0.53-0.2-0.78-0.33
		c-0.04-0.02-0.08-0.04-0.13-0.06c-0.27-0.14-0.52-0.3-0.77-0.48c-0.06-0.04-0.11-0.08-0.16-0.12c-0.24-0.19-0.48-0.38-0.69-0.6
		c-0.01-0.01-0.03-0.03-0.04-0.05c-0.2-0.21-0.39-0.43-0.57-0.67c-0.04-0.05-0.08-0.1-0.12-0.15c-0.17-0.24-0.33-0.5-0.47-0.77
		c-0.03-0.05-0.05-0.11-0.08-0.16c-0.12-0.25-0.23-0.52-0.33-0.79c-0.01-0.03-0.02-0.05-0.03-0.08c-1.91,0.98-4.79,3.08-7.57,6.87
		c-2.51,3.43-3.07,6.95-3.52,9.78c-0.61,3.82-0.52,6.38-0.44,8.65c0.08,2.35,0.16,4.56-0.52,7.57l-0.04,0.16
		c-0.01,0.04-0.02,0.09-0.03,0.14L50.52,42.56z"/>
	<path class="st0" d="M12.96,44.45c-0.6,2.1-1.61,4.61-3.87,7.25h45.78c-2.22-2.59-3.24-5.06-3.84-7.14L12.96,44.45z"/>
	<path d="M59.49,52.05c-4.63-3.9-5.45-7.51-6.1-10.4l-0.04-0.16c-0.6-2.62-0.53-4.56-0.45-6.8c0.08-2.4,0.18-5.11-0.48-9.22
		c-0.47-2.98-1.12-7.07-4.06-11.08c-3.99-5.45-7.92-7.54-9.76-8.27C38.06,2.93,35.3,0.5,31.98,0.5c-3.33,0-6.09,2.43-6.62,5.61
		c-1.84,0.74-5.77,2.82-9.76,8.28c-2.94,4.01-3.59,8.1-4.06,11.08c-0.65,4.1-0.56,6.82-0.48,9.22c0.08,2.24,0.14,4.18-0.45,6.8
		l-0.04,0.16c-0.66,2.9-1.47,6.5-6.1,10.4c-0.48,0.41-0.66,1.07-0.44,1.66C4.24,54.3,4.8,54.7,5.43,54.7h53.09
		c0.63,0,1.19-0.39,1.41-0.99C60.15,53.12,59.97,52.46,59.49,52.05z M31.98,3.5c2.05,0,3.71,1.67,3.71,3.71s-1.67,3.71-3.71,3.71
		s-3.71-1.67-3.71-3.71S29.93,3.5,31.98,3.5z M13.53,42.15c0.68-3,0.61-5.22,0.52-7.57c-0.08-2.26-0.17-4.83,0.44-8.65
		c0.45-2.83,1.01-6.35,3.52-9.78c2.78-3.79,5.66-5.9,7.57-6.87c0.01,0.03,0.02,0.05,0.03,0.08c0.09,0.27,0.2,0.53,0.33,0.79
		c0.03,0.05,0.05,0.11,0.08,0.16c0.14,0.27,0.3,0.52,0.47,0.77c0.04,0.05,0.08,0.1,0.12,0.15c0.18,0.23,0.36,0.46,0.57,0.67
		c0.01,0.01,0.03,0.03,0.04,0.05c0.22,0.22,0.45,0.41,0.69,0.6c0.05,0.04,0.11,0.08,0.16,0.12c0.25,0.18,0.5,0.34,0.77,0.48
		c0.04,0.02,0.08,0.04,0.13,0.06c0.25,0.13,0.51,0.24,0.78,0.33c0.05,0.02,0.1,0.04,0.15,0.06c0.29,0.1,0.59,0.17,0.9,0.22
		c0.07,0.01,0.13,0.02,0.2,0.03c0.32,0.05,0.65,0.08,0.98,0.08c0.33,0,0.66-0.03,0.98-0.08c0.07-0.01,0.13-0.02,0.2-0.03
		c0.31-0.05,0.61-0.13,0.9-0.22c0.05-0.02,0.1-0.04,0.15-0.05c0.27-0.1,0.53-0.21,0.78-0.33c0.04-0.02,0.08-0.04,0.12-0.06
		c0.27-0.14,0.53-0.31,0.77-0.48c0.05-0.04,0.1-0.08,0.16-0.12c0.24-0.19,0.48-0.38,0.7-0.6c0.01-0.01,0.02-0.02,0.03-0.03
		c0.21-0.21,0.4-0.44,0.58-0.68c0.04-0.05,0.07-0.1,0.11-0.15c0.18-0.25,0.33-0.51,0.48-0.78c0.03-0.05,0.05-0.1,0.07-0.15
		c0.13-0.26,0.24-0.53,0.33-0.8c0.01-0.02,0.02-0.05,0.03-0.07c1.91,0.98,4.79,3.08,7.57,6.87c2.51,3.43,3.07,6.95,3.52,9.78
		c0.61,3.82,0.52,6.38,0.44,8.65c-0.08,2.35-0.16,4.56,0.53,7.57l0.04,0.16c0.02,0.08,0.04,0.17,0.06,0.25l-37.05-0.11
		c0.01-0.05,0.02-0.1,0.03-0.14L13.53,42.15z M9.09,51.7c2.26-2.63,3.28-5.15,3.87-7.25l38.06,0.11c0.6,2.08,1.62,4.55,3.84,7.14
		H9.09z"/>
	<path d="M39.27,55.82c-0.67-0.5-1.6-0.36-2.1,0.31c-1.23,1.65-3.11,2.62-5.16,2.65c-2.14,0.06-4.12-0.95-5.38-2.65
		c-0.49-0.67-1.43-0.8-2.1-0.31c-0.66,0.49-0.8,1.43-0.31,2.1c1.8,2.42,4.66,3.86,7.68,3.86c0.05,0,0.11,0,0.16,0
		c2.99-0.05,5.73-1.46,7.51-3.87C40.08,57.25,39.94,56.31,39.27,55.82z"/>
</g>
</svg>
