<?xml version="1.0" encoding="utf-8"?>
<!-- Generator: Adobe Illustrator 23.0.4, SVG Export Plug-In . SVG Version: 6.00 Build 0)  -->
<svg version="1.1" id="Layer_1" xmlns="http://www.w3.org/2000/svg" xmlns:xlink="http://www.w3.org/1999/xlink" x="0px" y="0px"
	 viewBox="0 0 64 64" style="enable-background:new 0 0 64 64;" xml:space="preserve">
<g>
	<path d="M30.49,18.88c0-0.01,0-0.02,0-0.04c0-0.04-0.02-0.08-0.02-0.13c-0.01-0.04-0.01-0.08-0.02-0.12c0-0.01-0.01-0.03-0.01-0.04
		c-0.01-0.04-0.03-0.08-0.05-0.12c-0.02-0.04-0.03-0.08-0.05-0.11c-0.01-0.01-0.01-0.03-0.02-0.04c-0.02-0.03-0.04-0.06-0.06-0.09
		c-0.02-0.04-0.05-0.08-0.08-0.12c-0.01-0.01-0.02-0.03-0.03-0.04c-0.01-0.01-0.01-0.01-0.01-0.02l-12-14
		c-0.03-0.03-0.06-0.05-0.08-0.08c-0.03-0.03-0.05-0.06-0.08-0.08c-0.01-0.01-0.02-0.01-0.03-0.02c-0.04-0.04-0.09-0.06-0.14-0.09
		c-0.04-0.02-0.07-0.05-0.11-0.07c-0.05-0.02-0.09-0.04-0.14-0.06c-0.04-0.02-0.09-0.04-0.13-0.05c-0.05-0.01-0.09-0.02-0.14-0.03
		c-0.05-0.01-0.1-0.02-0.14-0.02c-0.05,0-0.1,0-0.14,0s-0.1,0-0.14,0c-0.05,0-0.1,0.02-0.14,0.02c-0.05,0.01-0.09,0.02-0.14,0.03
		c-0.04,0.01-0.09,0.03-0.13,0.05c-0.05,0.02-0.1,0.04-0.14,0.06c-0.04,0.02-0.07,0.05-0.11,0.07c-0.05,0.03-0.09,0.06-0.14,0.1
		c-0.01,0.01-0.02,0.01-0.03,0.02c-0.03,0.03-0.05,0.06-0.08,0.08c-0.03,0.03-0.06,0.05-0.08,0.08l-12,14
		c-0.01,0.01-0.01,0.01-0.01,0.02c-0.01,0.01-0.02,0.03-0.03,0.04c-0.03,0.04-0.05,0.08-0.08,0.12c-0.02,0.03-0.04,0.06-0.06,0.09
		c-0.01,0.01-0.01,0.03-0.02,0.04c-0.02,0.04-0.03,0.08-0.05,0.11c-0.02,0.04-0.03,0.08-0.05,0.12c0,0.01-0.01,0.02-0.01,0.04
		c-0.01,0.04-0.02,0.08-0.02,0.12c-0.01,0.04-0.02,0.08-0.02,0.13c0,0.01,0,0.02,0,0.04c0,0.04,0,0.08,0,0.13c0,0.04,0,0.08,0,0.12
		c0,0.01,0,0.03,0,0.04c0,0.04,0.02,0.08,0.02,0.13c0.01,0.04,0.01,0.08,0.02,0.12c0,0.01,0.01,0.03,0.01,0.04
		c0.01,0.04,0.03,0.07,0.05,0.11c0.02,0.04,0.03,0.08,0.05,0.12c0.01,0.01,0.02,0.03,0.02,0.04c0,0.01,0.01,0.02,0.01,0.02
		c0.01,0.02,0.03,0.03,0.04,0.05c0.03,0.04,0.05,0.09,0.09,0.13c0.01,0.01,0.01,0.02,0.02,0.02c0.02,0.02,0.04,0.04,0.06,0.06
		c0.03,0.03,0.05,0.06,0.08,0.08c0.01,0.01,0.02,0.03,0.04,0.04c0.01,0.01,0.02,0.01,0.03,0.01c0.05,0.04,0.1,0.07,0.15,0.1
		c0.04,0.02,0.08,0.05,0.12,0.07c0.05,0.02,0.09,0.04,0.14,0.06c0.03,0.01,0.06,0.02,0.09,0.03c0.04,0.01,0.07,0.03,0.11,0.04
		c0.11,0.03,0.22,0.04,0.33,0.04c0.01,0,0.01,0,0.02,0c0.01,0,0.02,0,0.03,0c0.11,0,0.22-0.02,0.32-0.04
		c0.03-0.01,0.07-0.02,0.1-0.03c0.03-0.01,0.06-0.02,0.09-0.03c0.05-0.02,0.11-0.05,0.16-0.07c0.02-0.01,0.04-0.01,0.06-0.02
		l9.28-5.41l-3.53,45c0,0.02,0,0.04,0,0.06c0,0.02-0.01,0.04-0.01,0.06c0,0.03,0.01,0.06,0.01,0.09c0,0.05,0.01,0.11,0.02,0.16
		c0.01,0.05,0.02,0.09,0.03,0.14c0.01,0.05,0.03,0.1,0.04,0.14c0.02,0.04,0.04,0.09,0.06,0.13c0.02,0.04,0.04,0.09,0.07,0.13
		c0.03,0.04,0.05,0.08,0.08,0.12c0.03,0.04,0.06,0.08,0.09,0.11c0.03,0.03,0.07,0.07,0.1,0.1c0.04,0.03,0.07,0.06,0.11,0.09
		c0.04,0.03,0.08,0.05,0.12,0.08c0.04,0.02,0.08,0.05,0.13,0.07c0.05,0.02,0.09,0.04,0.14,0.06c0.04,0.02,0.09,0.03,0.14,0.04
		c0.05,0.01,0.1,0.02,0.16,0.03c0.03,0,0.06,0.01,0.09,0.02c0.04,0,0.08,0,0.12,0c0,0,0,0,0,0h8c0,0,0,0,0,0c0.04,0,0.08,0,0.11,0
		c0.03,0,0.06-0.01,0.09-0.02c0.05-0.01,0.11-0.02,0.16-0.03c0.04-0.01,0.09-0.03,0.13-0.04c0.05-0.02,0.1-0.04,0.14-0.06
		c0.04-0.02,0.08-0.04,0.12-0.07c0.04-0.03,0.08-0.05,0.12-0.08c0.04-0.03,0.07-0.06,0.11-0.09c0.04-0.03,0.07-0.07,0.11-0.1
		c0.03-0.03,0.06-0.07,0.09-0.11c0.03-0.04,0.06-0.08,0.08-0.12c0.02-0.04,0.05-0.08,0.07-0.12c0.02-0.04,0.04-0.09,0.06-0.13
		c0.02-0.05,0.03-0.09,0.04-0.14c0.01-0.05,0.02-0.09,0.03-0.14c0.01-0.05,0.01-0.1,0.02-0.15c0-0.03,0.01-0.06,0.01-0.09
		c0-0.02-0.01-0.04-0.01-0.06c0-0.02,0-0.04,0-0.06l-3.46-44.96l9.21,5.37c0.02,0.01,0.04,0.01,0.06,0.02
		c0.05,0.03,0.1,0.05,0.16,0.07c0.03,0.01,0.06,0.02,0.09,0.03c0.03,0.01,0.07,0.02,0.1,0.03c0.11,0.03,0.21,0.04,0.32,0.04
		c0.01,0,0.02,0,0.03,0c0.01,0,0.01,0,0.02,0c0.11,0,0.22-0.02,0.33-0.04c0.04-0.01,0.07-0.02,0.11-0.04
		c0.03-0.01,0.06-0.02,0.09-0.03c0.05-0.02,0.09-0.04,0.14-0.06c0.04-0.02,0.08-0.05,0.12-0.07c0.05-0.03,0.1-0.07,0.15-0.1
		c0.01-0.01,0.02-0.01,0.03-0.01c0.01-0.01,0.02-0.03,0.04-0.04c0.03-0.03,0.05-0.05,0.08-0.08c0.02-0.02,0.04-0.04,0.06-0.06
		c0.01-0.01,0.01-0.02,0.02-0.02c0.03-0.04,0.06-0.09,0.09-0.13c0.01-0.02,0.03-0.03,0.04-0.05c0-0.01,0.01-0.02,0.01-0.02
		c0.01-0.01,0.02-0.03,0.02-0.04c0.02-0.04,0.03-0.08,0.05-0.12c0.02-0.04,0.03-0.07,0.05-0.11c0-0.01,0.01-0.03,0.01-0.04
		c0.01-0.04,0.02-0.08,0.02-0.12c0.01-0.04,0.02-0.08,0.02-0.13c0-0.01,0-0.03,0-0.04c0-0.04,0-0.08,0-0.12
		C30.49,18.97,30.5,18.93,30.49,18.88z"/>
	<path d="M60.26,46.8c0.02-0.03,0.04-0.06,0.06-0.1c0.01-0.01,0.01-0.02,0.02-0.04c0.02-0.04,0.03-0.08,0.05-0.12
		c0.02-0.04,0.03-0.08,0.05-0.12c0-0.01,0.01-0.02,0.01-0.04c0.01-0.04,0.02-0.08,0.02-0.12c0.01-0.04,0.02-0.08,0.02-0.12
		c0-0.01,0-0.02,0-0.04c0-0.04,0-0.09,0-0.13c0-0.04,0-0.08,0-0.12c0-0.01,0-0.02,0-0.04c0-0.04-0.02-0.08-0.02-0.13
		c-0.01-0.04-0.01-0.08-0.02-0.12c0-0.01-0.01-0.03-0.01-0.04c-0.01-0.04-0.03-0.07-0.04-0.11c-0.02-0.04-0.03-0.08-0.05-0.12
		c-0.01-0.01-0.02-0.03-0.02-0.04c0-0.01-0.01-0.02-0.01-0.02c-0.02-0.03-0.04-0.05-0.05-0.07c-0.03-0.04-0.05-0.08-0.08-0.11
		c-0.01-0.01-0.01-0.01-0.01-0.02c-0.01-0.01-0.01-0.01-0.02-0.02c-0.03-0.03-0.06-0.06-0.09-0.09c-0.02-0.02-0.04-0.05-0.07-0.07
		c-0.01-0.01-0.01-0.01-0.02-0.02c-0.01-0.01-0.03-0.02-0.04-0.03c-0.03-0.02-0.07-0.04-0.1-0.06c-0.04-0.02-0.07-0.05-0.11-0.07
		c-0.01-0.01-0.03-0.01-0.04-0.02c-0.03-0.01-0.06-0.02-0.09-0.04c-0.05-0.02-0.09-0.04-0.14-0.06c-0.01,0-0.02-0.01-0.04-0.01
		c-0.03-0.01-0.06-0.01-0.09-0.02c-0.05-0.01-0.1-0.02-0.15-0.03c-0.01,0-0.02,0-0.03,0c-0.04,0-0.07,0-0.11,0c-0.05,0-0.1,0-0.14,0
		c-0.01,0-0.02,0-0.03,0c-0.04,0-0.08,0.01-0.12,0.02c-0.05,0.01-0.09,0.02-0.13,0.03c-0.01,0-0.02,0.01-0.03,0.01
		c-0.04,0.01-0.07,0.03-0.11,0.04c-0.04,0.02-0.09,0.03-0.13,0.06c-0.01,0.01-0.02,0.01-0.04,0.02c-0.01,0-0.02,0.01-0.03,0.01
		l-9.28,5.41l3.53-45c0-0.02,0-0.04,0-0.06c0-0.02,0.01-0.04,0.01-0.06c0-0.03-0.01-0.06-0.01-0.09c0-0.05-0.01-0.1-0.02-0.15
		c-0.01-0.05-0.02-0.09-0.03-0.14c-0.01-0.05-0.03-0.1-0.04-0.14c-0.02-0.05-0.04-0.09-0.06-0.13c-0.02-0.04-0.04-0.09-0.07-0.13
		c-0.03-0.04-0.05-0.08-0.08-0.12c-0.03-0.04-0.06-0.08-0.09-0.11c-0.03-0.03-0.07-0.07-0.1-0.1c-0.04-0.03-0.07-0.06-0.11-0.09
		c-0.04-0.03-0.08-0.05-0.12-0.08c-0.04-0.03-0.09-0.05-0.13-0.07c-0.04-0.02-0.09-0.04-0.13-0.05c-0.05-0.02-0.09-0.03-0.14-0.04
		c-0.05-0.01-0.1-0.02-0.15-0.03c-0.03,0-0.06-0.01-0.09-0.02c-0.02,0-0.04,0-0.06,0C51.04,3.5,51.02,3.5,51,3.5h-8
		c-0.02,0-0.04,0.01-0.06,0.01c-0.02,0-0.04,0-0.06,0c-0.03,0-0.06,0.01-0.09,0.02c-0.05,0.01-0.1,0.01-0.15,0.03
		c-0.05,0.01-0.09,0.03-0.14,0.04c-0.05,0.02-0.09,0.03-0.13,0.05c-0.05,0.02-0.09,0.05-0.13,0.07c-0.04,0.02-0.08,0.05-0.12,0.08
		c-0.04,0.03-0.08,0.06-0.12,0.1c-0.03,0.03-0.07,0.06-0.1,0.1c-0.03,0.04-0.06,0.07-0.09,0.11c-0.03,0.04-0.06,0.07-0.08,0.11
		c-0.03,0.04-0.05,0.08-0.07,0.13c-0.02,0.04-0.04,0.09-0.06,0.13c-0.02,0.05-0.03,0.09-0.04,0.14c-0.01,0.05-0.02,0.09-0.03,0.14
		c-0.01,0.05-0.01,0.1-0.02,0.15c0,0.03-0.01,0.06-0.01,0.1c0,0.02,0.01,0.04,0.01,0.06c0,0.02,0,0.04,0,0.05l3.46,44.96l-9.21-5.37
		c-0.01,0-0.02-0.01-0.03-0.01c-0.01-0.01-0.03-0.02-0.04-0.02c-0.04-0.02-0.08-0.03-0.12-0.05c-0.04-0.02-0.08-0.04-0.12-0.05
		c-0.01,0-0.03-0.01-0.04-0.01c-0.04-0.01-0.07-0.02-0.11-0.02c-0.05-0.01-0.09-0.02-0.14-0.03c-0.01,0-0.02,0-0.04,0
		c-0.04,0-0.08,0-0.12,0c-0.04,0-0.09,0-0.13,0c-0.01,0-0.03,0-0.04,0c-0.04,0-0.09,0.02-0.13,0.02c-0.04,0.01-0.07,0.01-0.11,0.02
		c-0.01,0-0.03,0.01-0.04,0.01c-0.04,0.01-0.08,0.03-0.12,0.05c0,0-0.01,0-0.01,0c-0.03,0.01-0.06,0.02-0.09,0.04
		c-0.02,0.01-0.03,0.02-0.05,0.02c-0.04,0.02-0.07,0.04-0.1,0.07c0,0,0,0,0,0c-0.03,0.02-0.07,0.04-0.1,0.06
		c-0.01,0.01-0.03,0.02-0.04,0.03c-0.01,0.01-0.01,0.01-0.02,0.01c-0.03,0.02-0.04,0.05-0.07,0.07c-0.03,0.03-0.06,0.06-0.09,0.09
		c-0.01,0.01-0.01,0.01-0.02,0.02c-0.01,0.01-0.01,0.01-0.01,0.02c-0.03,0.04-0.05,0.07-0.08,0.11c-0.02,0.02-0.04,0.05-0.05,0.07
		c0,0.01-0.01,0.02-0.01,0.02c-0.01,0.01-0.02,0.03-0.02,0.04c-0.02,0.04-0.04,0.08-0.05,0.12c-0.01,0.04-0.03,0.07-0.04,0.11
		c0,0.01-0.01,0.03-0.01,0.04c-0.01,0.04-0.02,0.08-0.02,0.12c-0.01,0.04-0.02,0.08-0.02,0.13c0,0.01,0,0.02,0,0.04
		c0,0.04,0,0.08,0,0.12c0,0.04,0,0.09,0,0.13c0,0.01,0,0.02,0,0.04c0,0.04,0.01,0.08,0.02,0.12c0.01,0.04,0.01,0.08,0.02,0.12
		c0,0.01,0.01,0.02,0.01,0.04c0.01,0.04,0.03,0.08,0.05,0.12c0.02,0.04,0.03,0.08,0.05,0.12c0.01,0.01,0.01,0.02,0.02,0.04
		c0.02,0.03,0.04,0.06,0.06,0.1c0.02,0.04,0.05,0.08,0.08,0.11c0.01,0.01,0.02,0.02,0.03,0.04c0.01,0.01,0.01,0.02,0.02,0.02l12,14
		c0.02,0.02,0.05,0.04,0.07,0.06c0.03,0.03,0.06,0.07,0.09,0.1c0.01,0.01,0.02,0.01,0.03,0.02c0.12,0.1,0.26,0.18,0.4,0.23
		c0.03,0.01,0.06,0.02,0.09,0.03c0.15,0.05,0.3,0.08,0.45,0.08c0,0,0,0,0,0c0,0,0,0,0,0s0,0,0,0c0,0,0,0,0,0
		c0.15,0,0.31-0.03,0.45-0.08c0.03-0.01,0.06-0.02,0.09-0.03c0.14-0.06,0.28-0.13,0.4-0.23c0.01-0.01,0.02-0.01,0.03-0.02
		c0.04-0.03,0.06-0.07,0.09-0.1c0.02-0.02,0.05-0.04,0.07-0.06l12-14c0.01-0.01,0.01-0.01,0.02-0.02c0.01-0.01,0.02-0.02,0.03-0.04
		C60.21,46.88,60.23,46.84,60.26,46.8z"/>
</g>
</svg>
