<?xml version="1.0" encoding="utf-8"?>
<!-- Generator: Adobe Illustrator 24.2.3, SVG Export Plug-In . SVG Version: 6.00 Build 0)  -->
<svg version="1.1" id="Layer_1" xmlns="http://www.w3.org/2000/svg" xmlns:xlink="http://www.w3.org/1999/xlink" x="0px" y="0px"
	 viewBox="0 0 64 64" style="enable-background:new 0 0 64 64;" xml:space="preserve">
<g>
	<polygon points="6.12,32 7.62,33.5 30.5,33.5 30.5,32 	"/>
	<polygon points="33.5,32 33.5,33.5 56.38,33.5 57.88,32 	"/>
	<path d="M61.39,31.43c-0.08-0.19-0.19-0.35-0.33-0.49l0,0C61.21,31.08,61.31,31.25,61.39,31.43z"/>
	<path d="M61.5,32c0,0.19-0.04,0.37-0.11,0.55C61.46,32.38,61.5,32.19,61.5,32z"/>
	<polygon points="57.88,32 56.38,30.5 33.5,30.5 33.5,32 	"/>
	<path d="M61.39,31.45c0.07,0.18,0.11,0.36,0.11,0.55C61.5,31.81,61.46,31.62,61.39,31.45z"/>
	<path d="M2.94,30.94c-0.14,0.14-0.25,0.31-0.33,0.49C2.69,31.25,2.79,31.08,2.94,30.94L2.94,30.94z"/>
	<path d="M61.06,33.06c0.14-0.14,0.25-0.31,0.33-0.49C61.31,32.75,61.21,32.92,61.06,33.06L61.06,33.06z"/>
	<path d="M2.61,32.55C2.54,32.37,2.5,32.19,2.5,32C2.5,32.19,2.54,32.38,2.61,32.55z"/>
	<path d="M2.61,32.57c0.08,0.19,0.19,0.35,0.33,0.49l0,0C2.79,32.92,2.69,32.75,2.61,32.57z"/>
	<path d="M2.5,32c0-0.19,0.04-0.37,0.11-0.55C2.54,31.62,2.5,31.81,2.5,32z"/>
	<polygon points="30.5,32 30.5,30.5 7.62,30.5 6.12,32 	"/>
	<path d="M31.43,2.61c-0.19,0.08-0.35,0.19-0.49,0.33l0,0C31.08,2.79,31.25,2.69,31.43,2.61z"/>
	<path d="M30.94,61.06c0.14,0.14,0.31,0.25,0.49,0.33C31.25,61.31,31.08,61.21,30.94,61.06L30.94,61.06z"/>
	<polygon points="32,6.12 30.5,7.62 30.5,30.5 32,30.5 	"/>
	<polygon points="32,33.5 30.5,33.5 30.5,56.38 32,57.88 	"/>
	<path d="M33.06,2.94c-0.14-0.14-0.31-0.25-0.49-0.33C32.75,2.69,32.92,2.79,33.06,2.94L33.06,2.94z"/>
	<polygon points="32,30.5 33.5,30.5 33.5,7.62 32,6.12 	"/>
	<path d="M32,2.5c0.19,0,0.37,0.04,0.55,0.11C32.38,2.54,32.19,2.5,32,2.5z"/>
	<path d="M31.45,2.61C31.63,2.54,31.81,2.5,32,2.5C31.81,2.5,31.62,2.54,31.45,2.61z"/>
	<path d="M32.55,61.39c-0.18,0.07-0.36,0.11-0.55,0.11C32.19,61.5,32.38,61.46,32.55,61.39z"/>
	<path d="M32,61.5c-0.19,0-0.37-0.04-0.55-0.11C31.62,61.46,31.81,61.5,32,61.5z"/>
	<path d="M32.57,61.39c0.19-0.08,0.35-0.19,0.49-0.33l0,0C32.92,61.21,32.75,61.31,32.57,61.39z"/>
	<polygon points="32,57.88 33.5,56.38 33.5,33.5 32,33.5 	"/>
	<rect x="32" y="30.5" width="1.5" height="1.5"/>
	<rect x="30.5" y="30.5" width="1.5" height="1.5"/>
	<rect x="32" y="32" width="1.5" height="1.5"/>
	<rect x="30.5" y="32" width="1.5" height="1.5"/>
	<path d="M30.61,3.45c0-0.01,0-0.01,0.01-0.02c0.08-0.18,0.19-0.35,0.32-0.49l-8,8c-0.59,0.59-0.59,1.54,0,2.12
		c0.29,0.29,0.68,0.44,1.06,0.44s0.77-0.15,1.06-0.44l5.44-5.44V4C30.5,3.81,30.54,3.62,30.61,3.45z"/>
	<path d="M30.94,2.94L30.94,2.94c-0.14,0.14-0.25,0.31-0.33,0.49C30.69,3.25,30.79,3.08,30.94,2.94z"/>
	<path d="M30.94,5.06C30.65,4.77,30.5,4.38,30.5,4v3.62l1.5-1.5L30.94,5.06z"/>
	<path d="M30.5,4c0-0.19,0.04-0.37,0.11-0.55C30.54,3.62,30.5,3.81,30.5,4z"/>
	<path d="M30.61,60.55c-0.07-0.17-0.11-0.35-0.11-0.55v-3.62l-5.44-5.44c-0.59-0.59-1.54-0.59-2.12,0s-0.59,1.54,0,2.12l8,8
		c-0.14-0.14-0.25-0.31-0.32-0.49C30.61,60.56,30.61,60.55,30.61,60.55z"/>
	<path d="M30.94,58.94L32,57.88l-1.5-1.5V60C30.5,59.62,30.65,59.23,30.94,58.94z"/>
	<path d="M30.5,60c0,0.19,0.04,0.38,0.11,0.55C30.54,60.37,30.5,60.19,30.5,60z"/>
	<path d="M30.61,60.57c0.08,0.18,0.19,0.35,0.32,0.49l0,0C30.79,60.92,30.69,60.75,30.61,60.57z"/>
	<path d="M60.55,30.61c0.01,0,0.02,0,0.02,0.01c0.18,0.08,0.35,0.19,0.49,0.32l-8-8c-0.59-0.59-1.54-0.59-2.12,0
		c-0.59,0.59-0.59,1.54,0,2.12l5.44,5.44H60C60.19,30.5,60.38,30.54,60.55,30.61z"/>
	<path d="M60,30.5c0.19,0,0.37,0.04,0.55,0.11C60.38,30.54,60.19,30.5,60,30.5z"/>
	<path d="M58.94,30.94c0.29-0.29,0.68-0.44,1.06-0.44h-3.62l1.5,1.5L58.94,30.94z"/>
	<path d="M61.06,30.94L61.06,30.94c-0.14-0.14-0.31-0.25-0.49-0.33C60.75,30.69,60.92,30.79,61.06,30.94z"/>
	<path d="M33.39,60.55c0,0.01,0,0.02-0.01,0.02c-0.08,0.18-0.19,0.35-0.32,0.49l8-8c0.59-0.59,0.59-1.54,0-2.12s-1.54-0.59-2.12,0
		l-5.44,5.44V60C33.5,60.19,33.46,60.38,33.39,60.55z"/>
	<path d="M33.5,60c0,0.19-0.04,0.37-0.11,0.55C33.46,60.38,33.5,60.19,33.5,60z"/>
	<path d="M33.06,61.06L33.06,61.06c0.14-0.14,0.25-0.31,0.33-0.49C33.31,60.75,33.21,60.92,33.06,61.06z"/>
	<path d="M33.06,58.94c0.29,0.29,0.44,0.68,0.44,1.06v-3.62l-1.5,1.5L33.06,58.94z"/>
	<path d="M32.57,61.39c-0.01,0-0.02,0-0.02,0.01C32.55,61.39,32.56,61.39,32.57,61.39z"/>
	<path d="M31.45,61.39c-0.01,0-0.02,0-0.02-0.01C31.44,61.39,31.45,61.39,31.45,61.39z"/>
	<path d="M33.39,60.55c0,0.01,0,0.02-0.01,0.02C33.39,60.56,33.39,60.55,33.39,60.55z"/>
	<path d="M30.61,60.55c0,0.01,0,0.02,0.01,0.02C30.61,60.56,30.61,60.55,30.61,60.55z"/>
	<path d="M30.94,58.94c-0.29,0.29-0.44,0.68-0.44,1.06c0,0.19,0.04,0.37,0.11,0.55c0,0.01,0,0.02,0.01,0.02
		c0.07,0.18,0.18,0.35,0.33,0.49s0.31,0.25,0.49,0.33c0.01,0,0.02,0,0.02,0.01c0.18,0.07,0.36,0.11,0.55,0.11v-3.62L30.94,58.94z"/>
	<path d="M33.39,60.57c0-0.01,0-0.02,0.01-0.02c0.07-0.18,0.11-0.36,0.11-0.55c0-0.38-0.15-0.77-0.44-1.06L32,57.88v3.62
		c0.19,0,0.37-0.04,0.55-0.11c0.01,0,0.02,0,0.02-0.01c0.18-0.07,0.35-0.18,0.49-0.33S33.31,60.75,33.39,60.57z"/>
	<path d="M60.55,33.39c-0.17,0.07-0.35,0.11-0.55,0.11h-3.62l-5.44,5.44c-0.59,0.59-0.59,1.54,0,2.12c0.29,0.29,0.68,0.44,1.06,0.44
		s0.77-0.15,1.06-0.44l8-8c-0.14,0.14-0.31,0.25-0.49,0.32C60.56,33.39,60.55,33.39,60.55,33.39z"/>
	<path d="M60,33.5c0.19,0,0.38-0.04,0.55-0.11C60.37,33.46,60.19,33.5,60,33.5z"/>
	<path d="M60.57,33.39c0.18-0.08,0.35-0.19,0.49-0.32l0,0C60.92,33.21,60.75,33.31,60.57,33.39z"/>
	<path d="M58.94,33.06L57.88,32l-1.5,1.5H60C59.62,33.5,59.23,33.35,58.94,33.06z"/>
	<path d="M60.55,30.61c0.01,0,0.02,0,0.02,0.01C60.56,30.61,60.55,30.61,60.55,30.61z"/>
	<path d="M61.39,31.43c0,0.01,0,0.02,0.01,0.02C61.39,31.45,61.39,31.44,61.39,31.43z"/>
	<path d="M61.39,32.57c0-0.01,0-0.02,0.01-0.02C61.39,32.55,61.39,32.56,61.39,32.57z"/>
	<path d="M60.55,33.39c0.01,0,0.02,0,0.02-0.01C60.56,33.39,60.55,33.39,60.55,33.39z"/>
	<path d="M60.57,30.61c-0.01,0-0.02,0-0.02-0.01c-0.18-0.07-0.36-0.11-0.55-0.11c-0.38,0-0.77,0.15-1.06,0.44L57.88,32h3.62
		c0-0.19-0.04-0.37-0.11-0.55c0-0.01,0-0.02-0.01-0.02c-0.07-0.18-0.18-0.35-0.33-0.49C60.92,30.79,60.75,30.69,60.57,30.61z"/>
	<path d="M61.5,32h-3.62l1.06,1.06c0.29,0.29,0.68,0.44,1.06,0.44c0.19,0,0.37-0.04,0.55-0.11c0.01,0,0.02,0,0.02-0.01
		c0.18-0.07,0.35-0.18,0.49-0.33c0.14-0.14,0.25-0.31,0.33-0.49c0-0.01,0-0.02,0.01-0.02C61.46,32.37,61.5,32.19,61.5,32z"/>
	<path d="M3.45,30.61C3.62,30.54,3.81,30.5,4,30.5h3.62l5.44-5.44c0.59-0.59,0.59-1.54,0-2.12c-0.59-0.59-1.54-0.59-2.12,0l-8,8
		c0.14-0.14,0.3-0.25,0.49-0.32C3.44,30.61,3.44,30.61,3.45,30.61z"/>
	<path d="M3.43,30.61c-0.18,0.08-0.35,0.19-0.49,0.32l0,0C3.08,30.79,3.25,30.69,3.43,30.61z"/>
	<path d="M5.06,30.94L6.12,32l1.5-1.5H4C4.38,30.5,4.77,30.65,5.06,30.94z"/>
	<path d="M4,30.5c-0.19,0-0.38,0.04-0.55,0.11C3.63,30.54,3.81,30.5,4,30.5z"/>
	<path d="M3.45,33.39c-0.01,0-0.01,0-0.02-0.01c-0.18-0.08-0.35-0.19-0.49-0.32l8,8c0.29,0.29,0.68,0.44,1.06,0.44
		s0.77-0.15,1.06-0.44c0.59-0.59,0.59-1.54,0-2.12L7.62,33.5H4C3.81,33.5,3.62,33.46,3.45,33.39z"/>
	<path d="M2.94,33.06L2.94,33.06c0.14,0.14,0.31,0.25,0.49,0.33C3.25,33.31,3.08,33.21,2.94,33.06z"/>
	<path d="M5.06,33.06C4.77,33.35,4.38,33.5,4,33.5h3.62L6.12,32L5.06,33.06z"/>
	<path d="M4,33.5c-0.19,0-0.37-0.04-0.55-0.11C3.62,33.46,3.81,33.5,4,33.5z"/>
	<path d="M3.45,30.61c-0.01,0-0.01,0-0.02,0.01C3.44,30.61,3.45,30.61,3.45,30.61z"/>
	<path d="M2.61,31.45c0-0.01,0-0.02,0.01-0.02C2.61,31.44,2.61,31.44,2.61,31.45z"/>
	<path d="M3.45,33.39c-0.01,0-0.01,0-0.02-0.01C3.44,33.39,3.44,33.39,3.45,33.39z"/>
	<path d="M2.61,32.57c0-0.01,0-0.02-0.01-0.02C2.61,32.56,2.61,32.56,2.61,32.57z"/>
	<path d="M5.06,30.94C4.77,30.65,4.38,30.5,4,30.5c-0.19,0-0.37,0.04-0.55,0.11c-0.01,0-0.01,0-0.02,0.01
		c-0.18,0.07-0.35,0.18-0.49,0.33c-0.14,0.14-0.25,0.31-0.33,0.49c0,0.01,0,0.02-0.01,0.02C2.54,31.63,2.5,31.81,2.5,32h3.62
		L5.06,30.94z"/>
	<path d="M3.43,33.39c0.01,0,0.01,0,0.02,0.01C3.63,33.46,3.81,33.5,4,33.5c0.38,0,0.77-0.15,1.06-0.44L6.12,32H2.5
		c0,0.19,0.04,0.37,0.11,0.55c0,0.01,0,0.02,0.01,0.02c0.07,0.18,0.18,0.35,0.33,0.49C3.08,33.21,3.25,33.31,3.43,33.39z"/>
	<path d="M33.39,3.45C33.46,3.62,33.5,3.81,33.5,4v3.62l5.44,5.44c0.29,0.29,0.68,0.44,1.06,0.44s0.77-0.15,1.06-0.44
		c0.59-0.59,0.59-1.54,0-2.12l-8-8c0.14,0.14,0.25,0.3,0.32,0.49C33.39,3.44,33.39,3.44,33.39,3.45z"/>
	<path d="M33.06,5.06L32,6.12l1.5,1.5V4C33.5,4.38,33.35,4.77,33.06,5.06z"/>
	<path d="M33.39,3.43c-0.08-0.18-0.19-0.35-0.32-0.49l0,0C33.21,3.08,33.31,3.25,33.39,3.43z"/>
	<path d="M33.5,4c0-0.19-0.04-0.38-0.11-0.55C33.46,3.63,33.5,3.81,33.5,4z"/>
	<path d="M30.61,3.45c0-0.01,0-0.02,0.01-0.02C30.61,3.44,30.61,3.44,30.61,3.45z"/>
	<path d="M32.55,2.61c0.01,0,0.01,0,0.02,0.01C32.56,2.61,32.56,2.61,32.55,2.61z"/>
	<path d="M31.43,2.61c0.01,0,0.01,0,0.02-0.01C31.44,2.61,31.44,2.61,31.43,2.61z"/>
	<path d="M33.39,3.45c0-0.01,0-0.01-0.01-0.02C33.39,3.44,33.39,3.45,33.39,3.45z"/>
	<path d="M30.61,3.43c0,0.01,0,0.02-0.01,0.02C30.54,3.63,30.5,3.81,30.5,4c0,0.38,0.15,0.77,0.44,1.06L32,6.12V2.5
		c-0.19,0-0.37,0.04-0.55,0.11c-0.01,0-0.01,0-0.02,0.01c-0.18,0.07-0.35,0.18-0.49,0.33C30.79,3.08,30.69,3.25,30.61,3.43z"/>
	<path d="M33.06,5.06C33.35,4.77,33.5,4.38,33.5,4c0-0.19-0.04-0.37-0.11-0.55c0-0.01,0-0.02-0.01-0.02
		c-0.07-0.18-0.18-0.35-0.33-0.49c-0.14-0.14-0.31-0.25-0.49-0.33c-0.01,0-0.01,0-0.02-0.01C32.37,2.54,32.19,2.5,32,2.5v3.62
		L33.06,5.06z"/>
</g>
</svg>
