<?xml version="1.0" encoding="utf-8"?>
<!-- Generator: Adobe Illustrator 24.2.3, SVG Export Plug-In . SVG Version: 6.00 Build 0)  -->
<svg version="1.1" id="Layer_1" xmlns="http://www.w3.org/2000/svg" xmlns:xlink="http://www.w3.org/1999/xlink" x="0px" y="0px"
	 viewBox="0 0 64 64" style="enable-background:new 0 0 64 64;" xml:space="preserve">
<path d="M33.05,8.44c-0.04,0-0.09-0.01-0.13-0.01H17.92l3.19-3.53c0.56-0.61,0.51-1.56-0.11-2.12c-0.61-0.56-1.56-0.51-2.12,0.11
	l-5.46,6.03C13.4,8.96,13.39,9,13.36,9.03c-0.07,0.1-0.14,0.2-0.18,0.31c-0.03,0.08-0.06,0.16-0.08,0.24
	c-0.01,0.06-0.02,0.13-0.03,0.19c-0.01,0.13-0.01,0.26,0.01,0.39c0.01,0.07,0.03,0.13,0.05,0.19c0.03,0.11,0.08,0.21,0.14,0.32
	c0.06,0.1,0.12,0.19,0.2,0.27c0.02,0.03,0.03,0.06,0.06,0.08c0.03,0.03,0.07,0.04,0.11,0.06c0.03,0.02,0.06,0.05,0.09,0.07
	l5.19,5.87c0.3,0.34,0.71,0.51,1.12,0.51c0.35,0,0.71-0.12,0.99-0.38c0.62-0.55,0.68-1.5,0.13-2.12l-3.21-3.63h14.91
	c0.04,0,0.08,0.01,0.12,0.01c11.87,0,21.52,9.66,21.52,21.54c0,11.88-9.66,21.54-21.52,21.54s-21.52-9.66-21.52-21.54
	c0-2.41,0.4-4.78,1.18-7.04c0.27-0.78-0.15-1.64-0.93-1.91c-0.78-0.27-1.64,0.14-1.91,0.93c-0.89,2.57-1.34,5.27-1.34,8.02
	c0,13.53,11,24.54,24.52,24.54s24.52-11.01,24.52-24.54C57.52,19.47,46.54,8.47,33.05,8.44z"/>
</svg>
