<?xml version="1.0" encoding="utf-8"?>
<!-- Generator: Adobe Illustrator 23.0.3, SVG Export Plug-In . SVG Version: 6.00 Build 0)  -->
<svg version="1.1" id="Layer_1" xmlns="http://www.w3.org/2000/svg" xmlns:xlink="http://www.w3.org/1999/xlink" x="0px" y="0px"
	 viewBox="0 0 64 64" style="enable-background:new 0 0 64 64;" xml:space="preserve">
<style type="text/css">
	.st0{fill:none;stroke:#000000;stroke-width:3;stroke-miterlimit:10;}
</style>
<path class="st0" d="M36.5,83.5"/>
<path d="M62,0.5H19c-0.83,0-1.5,0.67-1.5,1.5v12.5H2c-0.83,0-1.5,0.67-1.5,1.5v46c0,0.83,0.67,1.5,1.5,1.5h43
	c0.83,0,1.5-0.67,1.5-1.5V49.5H62c0.83,0,1.5-0.67,1.5-1.5V2C63.5,1.17,62.83,0.5,62,0.5z M20.5,46.5V9.63h40V46.5H20.5z M20.5,6.63
	V3.5h40v3.13H20.5z M17.5,20.63h-14V17.5h14V20.63z M43.5,60.5h-40V23.63h14V48c0,0.83,0.67,1.5,1.5,1.5h24.5V60.5z"/>
</svg>
