<?xml version="1.0" encoding="utf-8"?>
<!-- Generator: Adobe Illustrator 24.3.0, SVG Export Plug-In . SVG Version: 6.00 Build 0)  -->
<svg version="1.1" id="Layer_1" xmlns="http://www.w3.org/2000/svg" xmlns:xlink="http://www.w3.org/1999/xlink" x="0px" y="0px"
	 viewBox="0 0 64 64" style="enable-background:new 0 0 64 64;" xml:space="preserve">
<style type="text/css">
	.st0{fill:none;}
</style>
<g>
	<polygon class="st0" points="32,28.44 32,32 35.56,32 	"/>
	<polygon class="st0" points="32,17.44 26.69,12.13 26.69,18.89 32,24.2 	"/>
	<polygon class="st0" points="32,28.44 26.69,23.13 26.69,32 32,32 	"/>
	<polygon class="st0" points="37.69,23.13 32,17.44 32,24.2 37.69,29.89 	"/>
	<rect x="26.69" y="32" class="st0" width="5.31" height="0.01"/>
	<path class="st0" d="M39.19,32.01c0,0.09-0.04,0.18-0.05,0.27c-0.02,0.09-0.02,0.19-0.05,0.28c-0.04,0.09-0.11,0.17-0.17,0.26
		c-0.05,0.08-0.08,0.16-0.14,0.23l-1.08,1.13v7.16l8.9-9.31l-0.02-0.02H39.19z"/>
	<polygon class="st0" points="35.56,32 32,32 32,32.01 35.57,32.01 	"/>
	<polygon class="st0" points="32,40.13 32,47.29 37.69,41.34 37.69,34.18 	"/>
	<polygon class="st0" points="35.57,32.01 32,32.01 32,35.79 35.59,32.04 	"/>
	<path class="st0" d="M38.73,30.93l0.02,0.02c0.07,0.07,0.1,0.15,0.15,0.22c0.06,0.09,0.13,0.17,0.17,0.26
		c0.04,0.09,0.04,0.18,0.06,0.28c0.02,0.1,0.05,0.19,0.06,0.29c0,0,0,0,0,0h7.37l-8.87-8.87v6.76L38.73,30.93z"/>
	<path class="st0" d="M39.19,32.01h7.38L46.56,32h-7.37C39.19,32,39.19,32.01,39.19,32.01z"/>
	<polygon class="st0" points="32,32.01 26.69,32.01 26.69,41.34 32,35.79 	"/>
	<polygon class="st0" points="32,40.13 26.69,45.68 26.69,52.84 32,47.29 	"/>
	<polygon points="46.59,32.04 46.62,32.01 46.57,32.01 	"/>
	<path d="M50.09,32.56c-0.04,0.09-0.11,0.17-0.17,0.26C49.98,32.73,50.05,32.66,50.09,32.56z"/>
	<path d="M25.63,8.95c-0.59,0.59-0.59,1.54,0,2.12l1.06,1.06V8.51C26.31,8.51,25.92,8.66,25.63,8.95z"/>
	<polygon points="50.19,32 50.19,32 50.19,32 	"/>
	<path d="M50.07,31.44c0.04,0.09,0.04,0.18,0.06,0.28C50.11,31.62,50.11,31.52,50.07,31.44z"/>
	<path d="M49.75,30.95l-0.02-0.02c0.08,0.07,0.11,0.16,0.17,0.25C49.85,31.1,49.82,31.02,49.75,30.95z"/>
	<path d="M32,13.2l-4.25-4.25c-0.29-0.29-0.68-0.44-1.06-0.44v3.62L32,17.44V13.2z"/>
	<polygon points="46.56,32 46.57,32.01 46.62,32.01 46.63,32 	"/>
	<polygon points="37.69,23.13 37.69,18.89 32,13.2 32,17.44 	"/>
	<path d="M50.19,32c0,0,0,0.01,0,0.01h0.01C50.19,32.01,50.19,32,50.19,32L50.19,32z"/>
	<path d="M50.14,32.28c0.02-0.09,0.05-0.18,0.05-0.27h-0.01C50.19,32.1,50.16,32.19,50.14,32.28z"/>
	<path d="M46.56,32h0.07l0.98-1.02c0.57-0.6,1.52-0.62,2.12-0.05L37.69,18.89v4.24L46.56,32z"/>
	<path d="M49.9,31.18c0.06,0.09,0.13,0.17,0.17,0.26C50.03,31.34,49.96,31.26,49.9,31.18z"/>
	<path d="M48.69,33.51c-0.38,0-0.77-0.15-1.06-0.44l-1.04-1.04l-8.9,9.31v4.34l12.08-12.63c0.06-0.07,0.09-0.15,0.14-0.23
		c-0.06,0.08-0.09,0.18-0.17,0.25C49.46,33.37,49.08,33.51,48.69,33.51z"/>
	<path d="M50.13,31.71c0.02,0.1,0.05,0.19,0.06,0.29C50.19,31.9,50.15,31.81,50.13,31.71z"/>
	<path d="M50.14,32.28c-0.02,0.09-0.02,0.19-0.05,0.28C50.12,32.47,50.12,32.38,50.14,32.28z"/>
	<path d="M25.61,53.98c-0.57,0.6-0.55,1.55,0.05,2.12c0.29,0.28,0.66,0.42,1.04,0.42h0v-3.67L25.61,53.98z"/>
	<polygon points="32,47.29 32,51.63 37.69,45.68 37.69,41.34 	"/>
	<path d="M26.69,52.84v3.67c0.4,0,0.79-0.16,1.08-0.46L32,51.63v-4.34L26.69,52.84z"/>
	<path d="M46.62,32.01h3.57c0,0,0-0.01,0-0.01h-3.56L46.62,32.01z"/>
	<path d="M46.62,32.01l-0.02,0.02l1.04,1.04c0.29,0.29,0.68,0.44,1.06,0.44s0.77-0.15,1.06-0.44c0.07-0.07,0.11-0.17,0.17-0.25
		c0.06-0.09,0.13-0.17,0.17-0.26c0.03-0.09,0.04-0.19,0.05-0.28c0.02-0.09,0.05-0.18,0.05-0.27H46.62z"/>
	<path d="M47.61,30.98L46.63,32h3.56c0,0,0,0,0,0c0-0.1-0.04-0.19-0.06-0.29c-0.02-0.09-0.02-0.19-0.06-0.28
		c-0.04-0.09-0.11-0.17-0.17-0.26c-0.06-0.08-0.1-0.17-0.17-0.25C49.13,30.36,48.18,30.38,47.61,30.98z"/>
	<polygon points="39.19,32 39.19,32 39.19,32 	"/>
	<polygon points="32,24.2 26.69,18.89 26.69,23.13 32,28.44 	"/>
	<path d="M39.07,31.44c0.04,0.09,0.04,0.18,0.06,0.28C39.11,31.62,39.11,31.52,39.07,31.44z"/>
	<path d="M39.19,32c0,0,0,0.01,0,0.01h0.01C39.19,32.01,39.19,32,39.19,32L39.19,32z"/>
	<path d="M38.75,30.95l-0.02-0.02c0.08,0.07,0.11,0.16,0.17,0.25C38.85,31.1,38.82,31.02,38.75,30.95z"/>
	<path d="M39.09,32.56c-0.04,0.09-0.11,0.17-0.17,0.26C38.98,32.73,39.05,32.66,39.09,32.56z"/>
	<path d="M37.69,29.89v0.63c0.37,0,0.75,0.13,1.04,0.41L37.69,29.89z"/>
	<polygon points="35.57,32.01 35.59,32.04 35.62,32.01 	"/>
	<polygon points="35.63,32 35.56,32 35.57,32.01 35.62,32.01 	"/>
	<path d="M39.14,32.28c0.02-0.09,0.05-0.18,0.05-0.27h-0.01C39.19,32.1,39.16,32.19,39.14,32.28z"/>
	<path d="M16.75,8.95c-0.59-0.59-1.54-0.59-2.12,0c-0.59,0.59-0.59,1.54,0,2.12l12.06,12.06v-4.24L16.75,8.95z"/>
	<path d="M35.63,32l0.98-1.02c0.29-0.31,0.69-0.46,1.08-0.46v-0.63L32,24.2v4.24L35.56,32H35.63z"/>
	<path d="M37.69,33.51L37.69,33.51c-0.38,0-0.77-0.15-1.06-0.44l-1.04-1.04L32,35.79v4.34l5.69-5.95V33.51z"/>
	<path d="M14.61,53.98c-0.57,0.6-0.55,1.55,0.05,2.12c0.29,0.28,0.66,0.42,1.04,0.42c0.4,0,0.79-0.16,1.08-0.46l9.92-10.37v-4.34
		L14.61,53.98z"/>
	<polygon points="32,35.79 26.69,41.34 26.69,45.68 32,40.13 	"/>
	<path d="M37.69,33.51v0.67l1.08-1.13c0.06-0.07,0.09-0.15,0.14-0.23c-0.06,0.08-0.09,0.18-0.17,0.25
		C38.46,33.37,38.08,33.51,37.69,33.51z"/>
	<path d="M39.13,31.71c0.02,0.1,0.05,0.19,0.06,0.29C39.19,31.9,39.15,31.81,39.13,31.71z"/>
	<path d="M39.14,32.28c-0.02,0.09-0.02,0.19-0.05,0.28C39.12,32.47,39.12,32.38,39.14,32.28z"/>
	<path d="M38.9,31.18c0.06,0.09,0.13,0.17,0.17,0.26C39.03,31.34,38.96,31.26,38.9,31.18z"/>
	<path d="M35.62,32.01l-0.02,0.02l1.04,1.04c0.29,0.29,0.68,0.44,1.06,0.44h0v-1.5H35.62z"/>
	<path d="M37.69,32.01v1.5c0.38,0,0.77-0.15,1.06-0.44c0.07-0.07,0.11-0.17,0.17-0.25c0.06-0.09,0.13-0.17,0.17-0.26
		c0.03-0.09,0.04-0.19,0.05-0.28c0.02-0.09,0.05-0.18,0.05-0.27H37.69z"/>
	<polygon points="37.69,32.01 37.69,32 35.63,32 35.62,32.01 	"/>
	<path d="M37.69,32.01h1.49c0,0,0-0.01,0-0.01h-1.5V32.01z"/>
	<path d="M39.19,32C39.19,32,39.19,32,39.19,32c0-0.1-0.04-0.19-0.05-0.29c-0.02-0.09-0.02-0.19-0.06-0.28
		c-0.04-0.09-0.11-0.17-0.17-0.26c-0.06-0.08-0.1-0.17-0.17-0.25c-0.29-0.28-0.66-0.41-1.04-0.41V32H39.19z"/>
	<path d="M37.69,30.52c-0.4,0-0.79,0.15-1.08,0.46L35.63,32h2.06V30.52z"/>
</g>
</svg>
