<?xml version="1.0" encoding="utf-8"?>
<!-- Generator: Adobe Illustrator 23.0.4, SVG Export Plug-In . SVG Version: 6.00 Build 0)  -->
<svg version="1.1" id="Layer_1" xmlns="http://www.w3.org/2000/svg" xmlns:xlink="http://www.w3.org/1999/xlink" x="0px" y="0px"
	 viewBox="0 0 64 64" style="enable-background:new 0 0 64 64;" xml:space="preserve">
<path d="M44.45,32.27c0.02-0.09,0.05-0.19,0.05-0.28c0-0.1-0.04-0.19-0.06-0.28c-0.02-0.09-0.02-0.19-0.06-0.28
	c-0.04-0.09-0.11-0.17-0.17-0.26c-0.05-0.07-0.08-0.16-0.15-0.22l-22-22c-0.59-0.59-1.54-0.59-2.12,0c-0.59,0.59-0.59,1.54,0,2.12
	L40.9,32.02L19.92,53.96c-0.57,0.6-0.55,1.55,0.05,2.12c0.29,0.28,0.66,0.42,1.04,0.42c0.4,0,0.79-0.16,1.08-0.46l22-23
	c0.07-0.07,0.1-0.16,0.15-0.24c0.05-0.08,0.12-0.16,0.16-0.25C44.43,32.46,44.43,32.36,44.45,32.27z"/>
</svg>
