<?xml version="1.0" encoding="utf-8"?>
<!-- Generator: Adobe Illustrator 23.0.4, SVG Export Plug-In . SVG Version: 6.00 Build 0)  -->
<svg version="1.1" id="Layer_1" xmlns="http://www.w3.org/2000/svg" xmlns:xlink="http://www.w3.org/1999/xlink" x="0px" y="0px"
	 viewBox="0 0 64 64" style="enable-background:new 0 0 64 64;" xml:space="preserve">
<g>
	<path d="M61.5,15.33c0-1.26-0.49-2.44-1.38-3.33l-8.2-8.2c-0.83-0.83-1.95-1.29-3.13-1.29H44h-2H18h-3H8C4.97,2.5,2.5,4.97,2.5,8
		v48c0,3.03,2.47,5.5,5.5,5.5h48c3.03,0,5.5-2.47,5.5-5.5V15.33z M11.5,55V35c0-0.83,0.7-1.5,1.57-1.5h37.86
		c0.87,0,1.57,0.67,1.57,1.5v20c0,0.83-0.7,1.5-1.57,1.5H13.07C12.2,56.5,11.5,55.83,11.5,55z M42,5.5c0.83,0,1.5,0.67,1.5,1.5v16
		c0,0.83-0.67,1.5-1.5,1.5H18c-0.83,0-1.5-0.67-1.5-1.5V7c0-0.83,0.67-1.5,1.5-1.5H42z"/>
	<rect x="34.5" y="7.5" width="6" height="15"/>
	<path d="M16,39.5h32c0.83,0,1.5-0.67,1.5-1.5s-0.67-1.5-1.5-1.5H16c-0.83,0-1.5,0.67-1.5,1.5S15.17,39.5,16,39.5z"/>
	<path d="M16,53.5h32c0.83,0,1.5-0.67,1.5-1.5s-0.67-1.5-1.5-1.5H16c-0.83,0-1.5,0.67-1.5,1.5S15.17,53.5,16,53.5z"/>
	<path d="M16,46.5h32c0.83,0,1.5-0.67,1.5-1.5s-0.67-1.5-1.5-1.5H16c-0.83,0-1.5,0.67-1.5,1.5S15.17,46.5,16,46.5z"/>
</g>
</svg>
