<?xml version="1.0" encoding="utf-8"?>
<!-- Generator: Adobe Illustrator 23.0.4, SVG Export Plug-In . SVG Version: 6.00 Build 0)  -->
<svg version="1.1" id="Layer_1" xmlns="http://www.w3.org/2000/svg" xmlns:xlink="http://www.w3.org/1999/xlink" x="0px" y="0px"
	 viewBox="0 0 64 64" style="enable-background:new 0 0 64 64;" xml:space="preserve">
<style type="text/css">
	.st0{fill:none;stroke:#000000;stroke-width:3;stroke-miterlimit:10;}
</style>
<path class="st0" d="M36.5,83.5"/>
<path d="M40.73,31.61l-0.11-0.11c-0.71-0.71-1.56-1.56-2.66-1.79c1.29-2.54,2.04-5.41,2.04-8.46C40,10.91,31.59,2.5,21.25,2.5
	S2.5,10.91,2.5,21.25S10.91,40,21.25,40c3.04,0,5.91-0.75,8.46-2.04c0.23,1.1,1.09,1.95,1.79,2.66l16.31,19.31l0.09,0.09
	c1.01,1.01,2.21,1.44,3.47,1.44c2.24,0,4.64-1.35,6.43-3.14l0.52-0.52c1.38-1.38,2.22-3.17,2.35-5.03c0.14-1.94-0.5-3.72-1.85-5.07
	L40.73,31.61z M5.5,21.25c0-8.68,7.07-15.75,15.75-15.75S37,12.57,37,21.25S29.93,37,21.25,37S5.5,29.93,5.5,21.25z M56.2,55.68
	l-0.52,0.52c-1.03,1.03-2.25,1.8-3.34,2.1c-1.41,0.39-2.03-0.12-2.27-0.36L33.82,38.7l-0.2-0.2c-0.28-0.28-0.78-0.77-0.94-1.06
	l4.76-4.76c0.28,0.16,0.78,0.66,1.06,0.94l18.26,16.26C58.2,51.32,57.95,53.93,56.2,55.68z"/>
</svg>
