<?xml version="1.0" encoding="utf-8"?>
<!-- Generator: Adobe Illustrator 24.2.3, SVG Export Plug-In . SVG Version: 6.00 Build 0)  -->
<svg version="1.1" id="Layer_1" xmlns="http://www.w3.org/2000/svg" xmlns:xlink="http://www.w3.org/1999/xlink" x="0px" y="0px"
	 viewBox="0 0 64 64" style="enable-background:new 0 0 64 64;" xml:space="preserve">
<g>
	<path d="M12,1.5H3C2.17,1.5,1.5,2.17,1.5,3v9c0,0.83,0.67,1.5,1.5,1.5s1.5-0.67,1.5-1.5V4.5H12c0.83,0,1.5-0.67,1.5-1.5
		S12.83,1.5,12,1.5z"/>
	<path d="M12,59.5H4.5V52c0-0.83-0.67-1.5-1.5-1.5S1.5,51.17,1.5,52v9c0,0.83,0.67,1.5,1.5,1.5h9c0.83,0,1.5-0.67,1.5-1.5
		S12.83,59.5,12,59.5z"/>
	<path d="M61,50.5c-0.83,0-1.5,0.67-1.5,1.5v7.5H52c-0.83,0-1.5,0.67-1.5,1.5s0.67,1.5,1.5,1.5h9c0.83,0,1.5-0.67,1.5-1.5v-9
		C62.5,51.17,61.83,50.5,61,50.5z"/>
	<path d="M61,1.5h-9c-0.83,0-1.5,0.67-1.5,1.5s0.67,1.5,1.5,1.5h7.5V12c0,0.83,0.67,1.5,1.5,1.5s1.5-0.67,1.5-1.5V3
		C62.5,2.17,61.83,1.5,61,1.5z"/>
	<path d="M28,1.5h-8c-0.83,0-1.5,0.67-1.5,1.5s0.67,1.5,1.5,1.5h8c0.83,0,1.5-0.67,1.5-1.5S28.83,1.5,28,1.5z"/>
	<path d="M44,1.5h-8c-0.83,0-1.5,0.67-1.5,1.5s0.67,1.5,1.5,1.5h8c0.83,0,1.5-0.67,1.5-1.5S44.83,1.5,44,1.5z"/>
	<path d="M61,18.5c-0.83,0-1.5,0.67-1.5,1.5v8c0,0.83,0.67,1.5,1.5,1.5s1.5-0.67,1.5-1.5v-8C62.5,19.17,61.83,18.5,61,18.5z"/>
	<path d="M61,34.5c-0.83,0-1.5,0.67-1.5,1.5v8c0,0.83,0.67,1.5,1.5,1.5s1.5-0.67,1.5-1.5v-8C62.5,35.17,61.83,34.5,61,34.5z"/>
	<path d="M3,45.5c0.83,0,1.5-0.67,1.5-1.5v-8c0-0.83-0.67-1.5-1.5-1.5S1.5,35.17,1.5,36v8C1.5,44.83,2.17,45.5,3,45.5z"/>
	<path d="M3,29.5c0.83,0,1.5-0.67,1.5-1.5v-8c0-0.83-0.67-1.5-1.5-1.5S1.5,19.17,1.5,20v8C1.5,28.83,2.17,29.5,3,29.5z"/>
	<path d="M44,59.5h-8c-0.83,0-1.5,0.67-1.5,1.5s0.67,1.5,1.5,1.5h8c0.83,0,1.5-0.67,1.5-1.5S44.83,59.5,44,59.5z"/>
	<path d="M28,59.5h-8c-0.83,0-1.5,0.67-1.5,1.5s0.67,1.5,1.5,1.5h8c0.83,0,1.5-0.67,1.5-1.5S28.83,59.5,28,59.5z"/>
</g>
</svg>
