<?xml version="1.0" encoding="utf-8"?>
<!-- Generator: Adobe Illustrator 23.0.4, SVG Export Plug-In . SVG Version: 6.00 Build 0)  -->
<svg version="1.1" id="Layer_1" xmlns="http://www.w3.org/2000/svg" xmlns:xlink="http://www.w3.org/1999/xlink" x="0px" y="0px"
	 viewBox="0 0 64 64" style="enable-background:new 0 0 64 64;" xml:space="preserve">
<style type="text/css">
	.st0{fill:none;}
</style>
<g>
	<circle class="st0" cx="32" cy="32" r="0.5"/>
	<circle class="st0" cx="22" cy="32" r="0.5"/>
	<circle class="st0" cx="42" cy="32" r="0.5"/>
	<path d="M32,28.5c-1.93,0-3.5,1.57-3.5,3.5s1.57,3.5,3.5,3.5s3.5-1.57,3.5-3.5S33.93,28.5,32,28.5z M32,32.5
		c-0.28,0-0.5-0.22-0.5-0.5s0.22-0.5,0.5-0.5s0.5,0.22,0.5,0.5S32.28,32.5,32,32.5z"/>
	<path d="M45.5,32c0-1.93-1.57-3.5-3.5-3.5s-3.5,1.57-3.5,3.5s1.57,3.5,3.5,3.5S45.5,33.93,45.5,32z M42,32.5
		c-0.28,0-0.5-0.22-0.5-0.5s0.22-0.5,0.5-0.5s0.5,0.22,0.5,0.5S42.28,32.5,42,32.5z"/>
	<path d="M22,28.5c-1.93,0-3.5,1.57-3.5,3.5s1.57,3.5,3.5,3.5s3.5-1.57,3.5-3.5S23.93,28.5,22,28.5z M22,32.5
		c-0.28,0-0.5-0.22-0.5-0.5s0.22-0.5,0.5-0.5s0.5,0.22,0.5,0.5S22.28,32.5,22,32.5z"/>
	<path d="M18.77,58.1c-1.5,0.23-3.06,0.48-4.53,0.38c-1.48-0.09-2.75-0.55-3.57-1.27c-1.26-1.11-1.77-3.12-1.38-5.38
		c0.24-1.41,0.75-2.78,1.29-4.23c0.31-0.82,0.62-1.67,0.89-2.54c0.39-1.26,0.68-2.54,0.85-3.81c0.43-3.19-0.04-5.8-1.4-7.76
		c-0.42-0.61-0.9-1.1-1.42-1.49c0.52-0.39,0.99-0.88,1.42-1.49c1.36-1.96,1.83-4.57,1.4-7.75c-0.17-1.27-0.46-2.55-0.85-3.81
		c-0.27-0.87-0.59-1.72-0.89-2.54c-0.54-1.45-1.05-2.83-1.29-4.23C8.9,9.91,9.41,7.9,10.67,6.79c0.82-0.73,2.09-1.18,3.57-1.27
		c1.47-0.09,3.02,0.15,4.53,0.38c0.82,0.13,1.58-0.44,1.71-1.25c0.13-0.82-0.44-1.58-1.25-1.71c-1.66-0.26-3.38-0.52-5.18-0.41
		c-1.51,0.1-3.67,0.52-5.36,2.02c-2.04,1.8-2.93,4.84-2.36,8.14c0.29,1.68,0.88,3.25,1.44,4.77c0.31,0.82,0.59,1.59,0.84,2.38
		c0.34,1.1,0.59,2.22,0.74,3.32c0.33,2.42,0.03,4.32-0.89,5.65c-0.88,1.27-2.16,1.7-5.07,1.7c-0.83,0-1.5,0.67-1.5,1.5
		s0.67,1.5,1.5,1.5c2.87,0,4.2,0.44,5.07,1.7c0.92,1.33,1.22,3.22,0.89,5.65c-0.15,1.1-0.4,2.22-0.74,3.32
		c-0.24,0.79-0.53,1.56-0.84,2.38c-0.57,1.52-1.15,3.09-1.44,4.77c-0.57,3.3,0.31,6.34,2.36,8.14c1.69,1.49,3.85,1.92,5.36,2.01
		c0.29,0.02,0.59,0.03,0.88,0.03c1.48,0,2.91-0.22,4.3-0.44c0.82-0.13,1.38-0.89,1.25-1.71C20.36,58.54,19.59,57.98,18.77,58.1z"/>
	<path d="M61,30.5c-2.87,0-4.2-0.44-5.07-1.7c-0.92-1.32-1.22-3.22-0.89-5.65c0.15-1.1,0.4-2.22,0.74-3.32
		c0.24-0.79,0.53-1.56,0.84-2.38c0.57-1.52,1.15-3.09,1.44-4.78c0.57-3.3-0.32-6.34-2.36-8.14C54,3.05,51.84,2.62,50.33,2.53
		c-1.79-0.11-3.51,0.15-5.18,0.41c-0.82,0.13-1.38,0.89-1.25,1.71c0.13,0.82,0.89,1.38,1.71,1.25c1.5-0.23,3.06-0.47,4.53-0.38
		c1.48,0.09,2.75,0.55,3.57,1.27c1.26,1.11,1.77,3.12,1.39,5.38c-0.24,1.41-0.75,2.78-1.3,4.23c-0.31,0.82-0.62,1.67-0.89,2.54
		c-0.39,1.26-0.67,2.54-0.84,3.81c-0.43,3.19,0.04,5.8,1.4,7.76c0.42,0.61,0.9,1.1,1.41,1.49c-0.52,0.39-0.99,0.88-1.41,1.49
		c-1.36,1.96-1.83,4.57-1.4,7.76c0.17,1.27,0.45,2.55,0.84,3.81c0.27,0.87,0.59,1.72,0.89,2.54c0.54,1.45,1.05,2.83,1.3,4.24
		c0.39,2.26-0.13,4.28-1.38,5.38c-0.83,0.73-2.09,1.18-3.57,1.27c-1.48,0.09-3.03-0.15-4.53-0.38c-0.82-0.13-1.58,0.43-1.71,1.25
		c-0.13,0.82,0.43,1.58,1.25,1.71c1.39,0.21,2.82,0.44,4.3,0.44c0.29,0,0.58-0.01,0.88-0.03c1.51-0.1,3.67-0.52,5.36-2.02
		c2.04-1.8,2.92-4.84,2.36-8.14c-0.29-1.68-0.88-3.26-1.44-4.78c-0.3-0.82-0.59-1.59-0.84-2.38c-0.34-1.1-0.59-2.21-0.74-3.32
		c-0.33-2.42-0.03-4.32,0.89-5.64c0.87-1.25,2.2-1.7,5.07-1.7c0.83,0,1.5-0.67,1.5-1.5S61.83,30.5,61,30.5z"/>
</g>
</svg>
