<?xml version="1.0" encoding="utf-8"?>
<!-- Generator: Adobe Illustrator 24.2.3, SVG Export Plug-In . SVG Version: 6.00 Build 0)  -->
<svg version="1.1" id="Layer_1" xmlns="http://www.w3.org/2000/svg" xmlns:xlink="http://www.w3.org/1999/xlink" x="0px" y="0px"
	 viewBox="0 0 64 64" style="enable-background:new 0 0 64 64;" xml:space="preserve">
<style type="text/css">
	.st0{fill:none;}
</style>
<g>
	<path class="st0" d="M32,5.5C17.39,5.5,5.5,17.39,5.5,32S17.39,58.5,32,58.5S58.5,46.61,58.5,32S46.61,5.5,32,5.5z M48.54,21.28
		l-20,24c-0.02,0.02-0.04,0.04-0.06,0.06c-0.02,0.02-0.04,0.05-0.06,0.08c-0.04,0.04-0.08,0.06-0.12,0.1
		c-0.05,0.04-0.09,0.08-0.14,0.12c-0.07,0.05-0.14,0.09-0.22,0.13c-0.05,0.03-0.09,0.05-0.14,0.08c-0.09,0.04-0.18,0.06-0.27,0.09
		c-0.04,0.01-0.08,0.03-0.12,0.04C27.27,45.98,27.14,46,27,46c0,0,0,0,0,0s0,0,0,0c-0.12,0-0.24-0.01-0.36-0.03
		c-0.04-0.01-0.08-0.02-0.11-0.03c-0.08-0.02-0.16-0.04-0.24-0.07c-0.05-0.02-0.09-0.04-0.14-0.06c-0.07-0.03-0.13-0.06-0.19-0.1
		c-0.05-0.03-0.09-0.06-0.14-0.09c-0.03-0.02-0.07-0.04-0.1-0.07c-0.02-0.02-0.04-0.04-0.06-0.06c-0.02-0.02-0.05-0.04-0.07-0.06
		l-10-10c-0.78-0.78-0.78-2.05,0-2.83c0.78-0.78,2.05-0.78,2.83,0l8.45,8.45l18.6-22.32c0.71-0.85,1.97-0.96,2.82-0.26
		C49.13,19.17,49.24,20.43,48.54,21.28z"/>
	<path d="M32,2.5C15.73,2.5,2.5,15.73,2.5,32c0,16.27,13.23,29.5,29.5,29.5c16.27,0,29.5-13.23,29.5-29.5
		C61.5,15.73,48.27,2.5,32,2.5z M32,58.5C17.39,58.5,5.5,46.61,5.5,32S17.39,5.5,32,5.5S58.5,17.39,58.5,32S46.61,58.5,32,58.5z"/>
	<path d="M26.64,45.97c-0.04-0.01-0.08-0.02-0.11-0.03C26.56,45.94,26.6,45.96,26.64,45.97z"/>
	<path d="M27,46c0.14,0,0.27-0.02,0.41-0.04C27.27,45.98,27.14,46,27,46C27,46,27,46,27,46z"/>
	<path d="M28.41,45.41c0.02-0.02,0.04-0.05,0.06-0.08c-0.06,0.06-0.12,0.12-0.18,0.17C28.34,45.48,28.38,45.45,28.41,45.41z"/>
	<path d="M27.8,45.83c-0.09,0.04-0.18,0.06-0.27,0.09C27.62,45.9,27.71,45.87,27.8,45.83z"/>
	<path d="M28.15,45.63c-0.07,0.05-0.14,0.09-0.22,0.13C28.01,45.72,28.09,45.68,28.15,45.63z"/>
	<path d="M26.29,45.87c-0.05-0.02-0.09-0.04-0.14-0.06C26.2,45.82,26.24,45.85,26.29,45.87z"/>
	<path d="M25.46,42.72l1.4-1.68l-8.45-8.45c-0.78-0.78-2.05-0.78-2.83,0c-0.78,0.78-0.78,2.05,0,2.83l10,10
		c0.02,0.02,0.05,0.04,0.07,0.06C24.87,44.76,24.78,43.54,25.46,42.72z"/>
	<path d="M25.96,45.7c-0.05-0.03-0.09-0.06-0.14-0.09C25.87,45.64,25.91,45.67,25.96,45.7z"/>
	<path d="M26.52,45.94c-0.08-0.02-0.16-0.04-0.24-0.07C26.37,45.9,26.44,45.92,26.52,45.94z"/>
	<path d="M28.3,45.51c-0.05,0.04-0.09,0.08-0.14,0.12C28.2,45.59,28.25,45.55,28.3,45.51z"/>
	<path d="M27.94,45.76c-0.05,0.03-0.09,0.05-0.14,0.08C27.84,45.81,27.89,45.78,27.94,45.76z"/>
	<path d="M45.46,18.72l-18.6,22.32l1.55,1.55c0.76,0.76,0.77,1.97,0.06,2.75c0.02-0.02,0.04-0.04,0.06-0.06l20-24
		c0.71-0.85,0.59-2.11-0.26-2.82C47.43,17.76,46.17,17.87,45.46,18.72z"/>
	<path d="M26.15,45.8c-0.07-0.03-0.13-0.06-0.19-0.1C26.02,45.74,26.09,45.77,26.15,45.8z"/>
	<path d="M27,46C27,46,27,46,27,46c-0.12,0-0.24-0.01-0.36-0.03C26.76,45.99,26.88,46,27,46z"/>
	<path d="M25.72,45.54c0.03,0.03,0.07,0.05,0.1,0.07c-0.06-0.04-0.11-0.09-0.17-0.14C25.68,45.49,25.7,45.52,25.72,45.54z"/>
	<path d="M27.53,45.92c-0.04,0.01-0.08,0.03-0.12,0.04C27.45,45.95,27.49,45.93,27.53,45.92z"/>
	<path d="M28.41,42.59l-1.55-1.55l-1.4,1.68c-0.69,0.83-0.59,2.04,0.19,2.75c0.05,0.05,0.11,0.09,0.17,0.14
		c0.04,0.03,0.09,0.07,0.14,0.09c0.06,0.04,0.13,0.07,0.19,0.1c0.05,0.02,0.09,0.04,0.14,0.06c0.08,0.03,0.16,0.05,0.24,0.07
		c0.04,0.01,0.08,0.02,0.11,0.03C26.76,45.99,26.88,46,27,46c0.14,0,0.27-0.02,0.41-0.04c0.04-0.01,0.08-0.03,0.12-0.04
		c0.09-0.02,0.18-0.05,0.27-0.09c0.05-0.02,0.1-0.05,0.14-0.08c0.07-0.04,0.15-0.08,0.22-0.13c0.05-0.04,0.1-0.08,0.14-0.12
		c0.06-0.05,0.12-0.11,0.18-0.17C29.19,44.55,29.17,43.34,28.41,42.59z"/>
</g>
</svg>
