<?xml version="1.0" encoding="utf-8"?>
<!-- Generator: Adobe Illustrator 25.0.0, SVG Export Plug-In . SVG Version: 6.00 Build 0)  -->
<svg version="1.1" id="Layer_1" xmlns="http://www.w3.org/2000/svg" xmlns:xlink="http://www.w3.org/1999/xlink" x="0px" y="0px"
	 viewBox="0 0 64 64" style="enable-background:new 0 0 64 64;" xml:space="preserve">
<path d="M56.23,49.46c0.01-0.06,0.04-0.13,0.04-0.19c0-0.06-0.02-0.12-0.03-0.18c-0.01-0.07-0.01-0.13-0.04-0.2
	c-0.02-0.06-0.07-0.11-0.1-0.16c-0.03-0.05-0.06-0.11-0.1-0.16c0,0-0.01-0.01-0.01-0.01c0,0,0-0.01-0.01-0.01l-7.94-7.82
	c-0.03-0.03-0.07-0.04-0.11-0.07c-0.06-0.04-0.11-0.08-0.18-0.11c-0.06-0.03-0.12-0.04-0.18-0.06c-0.06-0.02-0.12-0.03-0.18-0.03
	c-0.07,0-0.14,0.01-0.21,0.02c-0.04,0.01-0.08,0-0.13,0.01c-0.02,0-0.03,0.02-0.04,0.02c-0.06,0.02-0.12,0.06-0.18,0.1
	c-0.06,0.04-0.12,0.07-0.16,0.11c-0.01,0.01-0.03,0.02-0.04,0.03c-0.03,0.03-0.04,0.07-0.07,0.11c-0.04,0.06-0.09,0.11-0.12,0.18
	c-0.03,0.06-0.04,0.12-0.05,0.18c-0.02,0.06-0.03,0.12-0.04,0.19c0,0.07,0.01,0.14,0.02,0.2c0.01,0.04,0,0.09,0.01,0.13l1.83,6.06
	c-5.03-0.17-10.04-1.14-14.77-2.91c-5.53-2.06-10.68-5.21-15.06-9.24c-4.38-4.03-7.99-8.93-10.47-14.4
	C5.41,15.79,4.05,9.8,3.91,3.75C3.8,9.8,4.91,15.89,7.21,21.54c2.29,5.66,5.77,10.84,10.12,15.18c4.35,4.35,9.56,7.85,15.27,10.25
	c4.91,2.08,10.19,3.32,15.54,3.72c-0.01,0.01-0.02,0.02-0.02,0.04l-2.1,6.15C46,56.93,46,56.97,45.99,57.02
	c-0.01,0.07-0.03,0.14-0.03,0.21c0,0.07,0.02,0.13,0.03,0.19c0.01,0.06,0.02,0.12,0.05,0.18c0.03,0.06,0.07,0.12,0.11,0.18
	c0.03,0.04,0.04,0.08,0.08,0.12c0.01,0.01,0.02,0.01,0.03,0.02c0.05,0.05,0.11,0.08,0.18,0.12c0.05,0.03,0.1,0.07,0.16,0.1
	c0.01,0,0.02,0.01,0.03,0.02c0.11,0.04,0.22,0.05,0.32,0.05c0.12,0,0.23-0.02,0.34-0.06c0.03-0.01,0.06-0.03,0.09-0.05
	c0.08-0.04,0.15-0.08,0.21-0.13c0.02-0.01,0.04-0.02,0.05-0.03l8.31-7.94c0,0,0.01-0.01,0.01-0.01c0,0,0.01,0,0.01-0.01
	c0.04-0.04,0.06-0.1,0.1-0.15c0.04-0.06,0.09-0.11,0.11-0.17C56.21,49.59,56.21,49.52,56.23,49.46z M53.83,49.25L53.83,49.25
	L53.83,49.25C53.83,49.25,53.83,49.25,53.83,49.25z"/>
</svg>
