<?xml version="1.0" encoding="utf-8"?>
<!-- Generator: Adobe Illustrator 23.0.4, SVG Export Plug-In . SVG Version: 6.00 Build 0)  -->
<svg version="1.1" id="Layer_1" xmlns="http://www.w3.org/2000/svg" xmlns:xlink="http://www.w3.org/1999/xlink" x="0px" y="0px"
	 viewBox="0 0 64 64" style="enable-background:new 0 0 64 64;" xml:space="preserve">
<g>
	<path d="M56,2.5H8C4.97,2.5,2.5,4.97,2.5,8v48c0,3.03,2.47,5.5,5.5,5.5h48c3.03,0,5.5-2.47,5.5-5.5V8C61.5,4.97,59.03,2.5,56,2.5z
		 M58.5,56c0,1.38-1.12,2.5-2.5,2.5H8c-1.38,0-2.5-1.12-2.5-2.5V8c0-1.38,1.12-2.5,2.5-2.5h48c1.38,0,2.5,1.12,2.5,2.5V56z"/>
	<path d="M15,23h4c2.21,0,4-1.79,4-4c0-0.55-0.45-1-1-1s-1,0.45-1,1c0,1.1-0.9,2-2,2h-4c-1.1,0-2-0.9-2-2v-4c0-1.1,0.9-2,2-2h3
		c0.55,0,1-0.45,1-1s-0.45-1-1-1h-3c-2.21,0-4,1.79-4,4v4C11,21.21,12.79,23,15,23z"/>
	<path d="M51,12.5H29c-0.83,0-1.5,0.67-1.5,1.5s0.67,1.5,1.5,1.5h22c0.83,0,1.5-0.67,1.5-1.5S51.83,12.5,51,12.5z"/>
	<path d="M51,17.5H29c-0.83,0-1.5,0.67-1.5,1.5s0.67,1.5,1.5,1.5h22c0.83,0,1.5-0.67,1.5-1.5S51.83,17.5,51,17.5z"/>
	<path d="M51,27.5H29c-0.83,0-1.5,0.67-1.5,1.5s0.67,1.5,1.5,1.5h22c0.83,0,1.5-0.67,1.5-1.5S51.83,27.5,51,27.5z"/>
	<path d="M29,35.5h4c0.83,0,1.5-0.67,1.5-1.5s-0.67-1.5-1.5-1.5h-4c-0.83,0-1.5,0.67-1.5,1.5S28.17,35.5,29,35.5z"/>
	<path d="M19,41h-4c-2.21,0-4,1.79-4,4v4c0,2.21,1.79,4,4,4h4c2.21,0,4-1.79,4-4v-4C23,42.79,21.21,41,19,41z M21,49
		c0,1.1-0.9,2-2,2h-4c-1.1,0-2-0.9-2-2v-4c0-1.1,0.9-2,2-2h4c1.1,0,2,0.9,2,2V49z"/>
	<path d="M51,42.5H29c-0.83,0-1.5,0.67-1.5,1.5s0.67,1.5,1.5,1.5h22c0.83,0,1.5-0.67,1.5-1.5S51.83,42.5,51,42.5z"/>
	<path d="M40,47.5H29c-0.83,0-1.5,0.67-1.5,1.5s0.67,1.5,1.5,1.5h11c0.83,0,1.5-0.67,1.5-1.5S40.83,47.5,40,47.5z"/>
	<path d="M22.94,10.94L18,15.88l-1.94-1.94c-0.59-0.59-1.54-0.59-2.12,0c-0.59,0.59-0.59,1.54,0,2.12l3,3
		c0.29,0.29,0.68,0.44,1.06,0.44s0.77-0.15,1.06-0.44l6-6c0.59-0.59,0.59-1.54,0-2.12C24.47,10.35,23.53,10.35,22.94,10.94z"/>
	<path d="M22,33c-0.55,0-1,0.45-1,1c0,1.1-0.9,2-2,2h-4c-1.1,0-2-0.9-2-2v-4c0-1.1,0.9-2,2-2h3c0.55,0,1-0.45,1-1s-0.45-1-1-1h-3
		c-2.21,0-4,1.79-4,4v4c0,2.21,1.79,4,4,4h4c2.21,0,4-1.79,4-4C23,33.45,22.55,33,22,33z"/>
	<path d="M22.94,25.94L18,30.88l-1.94-1.94c-0.59-0.59-1.54-0.59-2.12,0c-0.59,0.59-0.59,1.54,0,2.12l3,3
		c0.29,0.29,0.68,0.44,1.06,0.44s0.77-0.15,1.06-0.44l6-6c0.59-0.59,0.59-1.54,0-2.12C24.47,25.35,23.53,25.35,22.94,25.94z"/>
</g>
</svg>
