<?xml version="1.0" encoding="utf-8"?>
<!-- Generator: Adobe Illustrator 23.0.4, SVG Export Plug-In . SVG Version: 6.00 Build 0)  -->
<svg version="1.1" id="Layer_1" xmlns="http://www.w3.org/2000/svg" xmlns:xlink="http://www.w3.org/1999/xlink" x="0px" y="0px"
	 viewBox="0 0 64 64" style="enable-background:new 0 0 64 64;" xml:space="preserve">
<g>
	<path d="M61.5,8c0-3.03-2.47-5.5-5.5-5.5H8C4.97,2.5,2.5,4.97,2.5,8v48c0,3.03,2.47,5.5,5.5,5.5h48c3.03,0,5.5-2.47,5.5-5.5V8z
		 M56,58.5H8c-1.38,0-2.5-1.12-2.5-2.5V8c0-1.38,1.12-2.5,2.5-2.5h48c1.38,0,2.5,1.12,2.5,2.5v48C58.5,57.38,57.38,58.5,56,58.5z"/>
	<path d="M15,23h4c2.21,0,4-1.79,4-4c0-0.55-0.45-1-1-1s-1,0.45-1,1c0,1.1-0.9,2-2,2h-4c-1.1,0-2-0.9-2-2v-4c0-1.1,0.9-2,2-2h3
		c0.55,0,1-0.45,1-1s-0.45-1-1-1h-3c-2.21,0-4,1.79-4,4v4C11,21.21,12.79,23,15,23z"/>
	<path d="M29,15.5h22c0.83,0,1.5-0.67,1.5-1.5s-0.67-1.5-1.5-1.5H29c-0.83,0-1.5,0.67-1.5,1.5S28.17,15.5,29,15.5z"/>
	<path d="M29,20.5h22c0.83,0,1.5-0.67,1.5-1.5s-0.67-1.5-1.5-1.5H29c-0.83,0-1.5,0.67-1.5,1.5S28.17,20.5,29,20.5z"/>
	<path d="M29,30.5h22c0.83,0,1.5-0.67,1.5-1.5s-0.67-1.5-1.5-1.5H29c-0.83,0-1.5,0.67-1.5,1.5S28.17,30.5,29,30.5z"/>
	<path d="M29,35.5h4c0.83,0,1.5-0.67,1.5-1.5s-0.67-1.5-1.5-1.5h-4c-0.83,0-1.5,0.67-1.5,1.5S28.17,35.5,29,35.5z"/>
	<path d="M51,42.5H29c-0.83,0-1.5,0.67-1.5,1.5s0.67,1.5,1.5,1.5h22c0.83,0,1.5-0.67,1.5-1.5S51.83,42.5,51,42.5z"/>
	<path d="M40,47.5H29c-0.83,0-1.5,0.67-1.5,1.5s0.67,1.5,1.5,1.5h11c0.83,0,1.5-0.67,1.5-1.5S40.83,47.5,40,47.5z"/>
	<path d="M16.06,13.94c-0.59-0.59-1.54-0.59-2.12,0c-0.59,0.59-0.59,1.54,0,2.12l3,3c0.29,0.29,0.68,0.44,1.06,0.44
		s0.77-0.15,1.06-0.44l6-6c0.59-0.59,0.59-1.54,0-2.12c-0.59-0.59-1.54-0.59-2.12,0L18,15.88L16.06,13.94z"/>
	<path d="M15,38h4c2.21,0,4-1.79,4-4c0-0.55-0.45-1-1-1s-1,0.45-1,1c0,1.1-0.9,2-2,2h-4c-1.1,0-2-0.9-2-2v-4c0-1.1,0.9-2,2-2h3
		c0.55,0,1-0.45,1-1s-0.45-1-1-1h-3c-2.21,0-4,1.79-4,4v4C11,36.21,12.79,38,15,38z"/>
	<path d="M18,34.5c0.38,0,0.77-0.15,1.06-0.44l6-6c0.59-0.59,0.59-1.54,0-2.12c-0.59-0.59-1.54-0.59-2.12,0L18,30.88l-1.94-1.94
		c-0.59-0.59-1.54-0.59-2.12,0c-0.59,0.59-0.59,1.54,0,2.12l3,3C17.23,34.35,17.62,34.5,18,34.5z"/>
	<path d="M22,48c-0.55,0-1,0.45-1,1c0,1.1-0.9,2-2,2h-4c-1.1,0-2-0.9-2-2v-4c0-1.1,0.9-2,2-2h3c0.55,0,1-0.45,1-1s-0.45-1-1-1h-3
		c-2.21,0-4,1.79-4,4v4c0,2.21,1.79,4,4,4h4c2.21,0,4-1.79,4-4C23,48.45,22.55,48,22,48z"/>
	<path d="M22.94,40.94L18,45.88l-1.94-1.94c-0.59-0.59-1.54-0.59-2.12,0s-0.59,1.54,0,2.12l3,3c0.29,0.29,0.68,0.44,1.06,0.44
		s0.77-0.15,1.06-0.44l6-6c0.59-0.59,0.59-1.54,0-2.12S23.53,40.35,22.94,40.94z"/>
</g>
</svg>
