<?xml version="1.0" encoding="utf-8"?>
<!-- Generator: Adobe Illustrator 23.0.4, SVG Export Plug-In . SVG Version: 6.00 Build 0)  -->
<svg version="1.1" id="Layer_1" xmlns="http://www.w3.org/2000/svg" xmlns:xlink="http://www.w3.org/1999/xlink" x="0px" y="0px"
	 viewBox="0 0 64 64" style="enable-background:new 0 0 64 64;" xml:space="preserve">
<style type="text/css">
	.st0{fill:none;}
</style>
<g>
	<circle class="st0" cx="22" cy="32" r="0.5"/>
	<circle class="st0" cx="32" cy="32" r="0.5"/>
	<circle class="st0" cx="42" cy="32" r="0.5"/>
	<path d="M5.86,32.02L25.21,5.89c0.49-0.67,0.35-1.61-0.31-2.1c-0.67-0.49-1.6-0.35-2.1,0.31l-20,27c-0.01,0.02-0.02,0.04-0.03,0.05
		c-0.03,0.04-0.06,0.09-0.08,0.14c-0.02,0.04-0.04,0.08-0.06,0.13c-0.02,0.05-0.03,0.09-0.05,0.14c-0.01,0.05-0.03,0.09-0.04,0.14
		c-0.01,0.05-0.01,0.09-0.02,0.14c-0.01,0.05-0.01,0.1-0.01,0.14c0,0.05,0,0.1,0.01,0.15c0,0.05,0.01,0.09,0.02,0.14
		c0.01,0.05,0.02,0.1,0.04,0.14c0.01,0.05,0.03,0.09,0.05,0.14c0.02,0.04,0.04,0.09,0.06,0.13c0.02,0.05,0.05,0.09,0.08,0.14
		c0.01,0.02,0.02,0.04,0.03,0.05l20,28c0.29,0.41,0.75,0.63,1.22,0.63c0.3,0,0.61-0.09,0.87-0.28c0.67-0.48,0.83-1.42,0.35-2.09
		L5.86,32.02z"/>
	<path d="M61.33,32.68c0.02-0.04,0.04-0.09,0.06-0.13c0.02-0.04,0.03-0.09,0.04-0.14c0.01-0.05,0.03-0.1,0.04-0.15
		c0.01-0.05,0.01-0.09,0.02-0.14c0-0.05,0.01-0.1,0.01-0.15c0-0.05,0-0.09-0.01-0.14c-0.01-0.05-0.01-0.1-0.02-0.14
		c-0.01-0.05-0.02-0.09-0.04-0.14c-0.01-0.05-0.03-0.1-0.05-0.14c-0.02-0.04-0.04-0.08-0.06-0.12c-0.03-0.05-0.05-0.1-0.09-0.14
		c-0.01-0.02-0.02-0.03-0.03-0.05l-20-27c-0.49-0.67-1.43-0.81-2.1-0.31c-0.67,0.49-0.81,1.43-0.31,2.1l19.35,26.12L38.78,59.13
		c-0.48,0.67-0.33,1.61,0.35,2.09c0.26,0.19,0.57,0.28,0.87,0.28c0.47,0,0.93-0.22,1.22-0.63l20-28c0.01-0.02,0.02-0.04,0.03-0.06
		C61.28,32.77,61.31,32.73,61.33,32.68z"/>
	<path d="M32,28.5c-1.93,0-3.5,1.57-3.5,3.5s1.57,3.5,3.5,3.5s3.5-1.57,3.5-3.5S33.93,28.5,32,28.5z M32,32.5
		c-0.28,0-0.5-0.22-0.5-0.5s0.22-0.5,0.5-0.5s0.5,0.22,0.5,0.5S32.28,32.5,32,32.5z"/>
	<path d="M42,35.5c1.93,0,3.5-1.57,3.5-3.5s-1.57-3.5-3.5-3.5s-3.5,1.57-3.5,3.5S40.07,35.5,42,35.5z M42,31.5
		c0.28,0,0.5,0.22,0.5,0.5s-0.22,0.5-0.5,0.5s-0.5-0.22-0.5-0.5S41.72,31.5,42,31.5z"/>
	<path d="M22,28.5c-1.93,0-3.5,1.57-3.5,3.5s1.57,3.5,3.5,3.5s3.5-1.57,3.5-3.5S23.93,28.5,22,28.5z M22,32.5
		c-0.28,0-0.5-0.22-0.5-0.5s0.22-0.5,0.5-0.5s0.5,0.22,0.5,0.5S22.28,32.5,22,32.5z"/>
</g>
</svg>
