<?xml version="1.0" encoding="utf-8"?>
<!-- Generator: Adobe Illustrator 24.3.0, SVG Export Plug-In . SVG Version: 6.00 Build 0)  -->
<svg version="1.1" id="Layer_1" xmlns="http://www.w3.org/2000/svg" xmlns:xlink="http://www.w3.org/1999/xlink" x="0px" y="0px"
	 viewBox="0 0 64 64" style="enable-background:new 0 0 64 64;" xml:space="preserve">
<g>
	<path d="M57,3.5H35.23c-0.01,0-0.01,0-0.01,0c-0.01,0-0.02,0-0.02,0c-0.4,0.01-0.77,0.18-1.03,0.45c0,0,0,0-0.01,0L5.39,33.53
		c-2.92,3.01-3.22,7.6-0.66,10.23l14.51,14.92c1.14,1.17,2.71,1.81,4.43,1.81c2.04,0,4.1-0.91,5.64-2.49l28.77-29.58
		c0,0,0-0.01,0.01-0.01c0.13-0.14,0.24-0.3,0.31-0.48c0.01-0.01,0.01-0.03,0.01-0.04c0.06-0.16,0.1-0.33,0.1-0.52V5
		C58.5,4.17,57.83,3.5,57,3.5z M27.16,55.92c-0.98,1.01-2.25,1.58-3.49,1.58c-0.64,0-1.55-0.16-2.28-0.91L6.88,41.67
		c-1.42-1.46-1.11-4.22,0.66-6.05L35.86,6.5H55.5v20.27L27.16,55.92z"/>
	<path d="M44,10.5c-4.14,0-7.5,3.36-7.5,7.5s3.36,7.5,7.5,7.5s7.5-3.36,7.5-7.5S48.14,10.5,44,10.5z M44,22.5
		c-2.48,0-4.5-2.02-4.5-4.5s2.02-4.5,4.5-4.5s4.5,2.02,4.5,4.5S46.48,22.5,44,22.5z"/>
</g>
</svg>
