<?xml version="1.0" encoding="utf-8"?>
<!-- Generator: Adobe Illustrator 24.3.0, SVG Export Plug-In . SVG Version: 6.00 Build 0)  -->
<svg version="1.1" id="Layer_1" xmlns="http://www.w3.org/2000/svg" xmlns:xlink="http://www.w3.org/1999/xlink" x="0px" y="0px"
	 viewBox="0 0 64 64" style="enable-background:new 0 0 64 64;" xml:space="preserve">
<path d="M57,3.5H35.23c-0.01,0-0.01,0-0.01,0c-0.01,0-0.02,0-0.02,0c-0.4,0.01-0.77,0.18-1.03,0.45c0,0,0,0-0.01,0L33.14,5H33v0.14
	L5.39,33.53c-1.8,1.85-2.6,4.29-2.36,6.51l-0.1,0.11l0.13,0.12c0.19,1.31,0.73,2.53,1.67,3.49l4.24,4.36l-0.04,0.04l1.09,1.04
	l9.22,9.48c1.14,1.17,2.71,1.81,4.43,1.81c2.04,0,4.1-0.91,5.64-2.49l28.77-29.58c0,0,0-0.01,0.01-0.01
	c0.13-0.14,0.24-0.3,0.31-0.48c0.01-0.01,0.01-0.03,0.01-0.04c0.06-0.16,0.1-0.33,0.1-0.52V5C58.5,4.17,57.83,3.5,57,3.5z M44,13.5
	c2.48,0,4.5,2.02,4.5,4.5s-2.02,4.5-4.5,4.5s-4.5-2.02-4.5-4.5S41.52,13.5,44,13.5z M27.15,55.92l0.02-0.02L27.15,55.92
	C27.15,55.92,27.15,55.92,27.15,55.92z"/>
</svg>
