<?xml version="1.0" encoding="utf-8"?>
<!-- Generator: Adobe Illustrator 23.0.4, SVG Export Plug-In . SVG Version: 6.00 Build 0)  -->
<svg version="1.1" id="Layer_1" xmlns="http://www.w3.org/2000/svg" xmlns:xlink="http://www.w3.org/1999/xlink" x="0px" y="0px"
	 viewBox="0 0 64 64" style="enable-background:new 0 0 64 64;" xml:space="preserve">
<g>
	<path d="M32,19.33c-0.83,0-1.5,0.67-1.5,1.5v4c0,0.83,0.67,1.5,1.5,1.5s1.5-0.67,1.5-1.5v-4C33.5,20,32.83,19.33,32,19.33z"/>
	<path d="M32,1c-0.83,0-1.5,0.67-1.5,1.5v4C30.5,7.33,31.17,8,32,8s1.5-0.67,1.5-1.5v-4C33.5,1.67,32.83,1,32,1z"/>
	<path d="M32,10.17c-0.83,0-1.5,0.67-1.5,1.5v4c0,0.83,0.67,1.5,1.5,1.5s1.5-0.67,1.5-1.5v-4C33.5,10.84,32.83,10.17,32,10.17z"/>
	<path d="M32,56c-0.83,0-1.5,0.67-1.5,1.5v4c0,0.83,0.67,1.5,1.5,1.5s1.5-0.67,1.5-1.5v-4C33.5,56.67,32.83,56,32,56z"/>
	<path d="M32,46.83c-0.83,0-1.5,0.67-1.5,1.5v4c0,0.83,0.67,1.5,1.5,1.5s1.5-0.67,1.5-1.5v-4C33.5,47.5,32.83,46.83,32,46.83z"/>
	<path d="M32,37.67c-0.83,0-1.5,0.67-1.5,1.5v4c0,0.83,0.67,1.5,1.5,1.5s1.5-0.67,1.5-1.5v-4C33.5,38.34,32.83,37.67,32,37.67z"/>
	<path d="M32,28.5c-0.83,0-1.5,0.67-1.5,1.5v4c0,0.83,0.67,1.5,1.5,1.5s1.5-0.67,1.5-1.5v-4C33.5,29.17,32.83,28.5,32,28.5z"/>
</g>
</svg>
