<?xml version="1.0" encoding="utf-8"?>
<!-- Generator: Adobe Illustrator 23.0.4, SVG Export Plug-In . SVG Version: 6.00 Build 0)  -->
<svg version="1.1" id="Layer_1" xmlns="http://www.w3.org/2000/svg" xmlns:xlink="http://www.w3.org/1999/xlink" x="0px" y="0px"
	 viewBox="0 0 64 64" style="enable-background:new 0 0 64 64;" xml:space="preserve">
<g>
	<path d="M24.83,30.5h-4c-0.83,0-1.5,0.67-1.5,1.5s0.67,1.5,1.5,1.5h4c0.83,0,1.5-0.67,1.5-1.5S25.66,30.5,24.83,30.5z"/>
	<path d="M6.5,30.5h-4C1.67,30.5,1,31.17,1,32s0.67,1.5,1.5,1.5h4C7.33,33.5,8,32.83,8,32S7.33,30.5,6.5,30.5z"/>
	<path d="M15.67,30.5h-4c-0.83,0-1.5,0.67-1.5,1.5s0.67,1.5,1.5,1.5h4c0.83,0,1.5-0.67,1.5-1.5S16.5,30.5,15.67,30.5z"/>
	<path d="M61.5,30.5h-4c-0.83,0-1.5,0.67-1.5,1.5s0.67,1.5,1.5,1.5h4c0.83,0,1.5-0.67,1.5-1.5S62.33,30.5,61.5,30.5z"/>
	<path d="M52.33,30.5h-4c-0.83,0-1.5,0.67-1.5,1.5s0.67,1.5,1.5,1.5h4c0.83,0,1.5-0.67,1.5-1.5S53.16,30.5,52.33,30.5z"/>
	<path d="M43.17,30.5h-4c-0.83,0-1.5,0.67-1.5,1.5s0.67,1.5,1.5,1.5h4c0.83,0,1.5-0.67,1.5-1.5S44,30.5,43.17,30.5z"/>
	<path d="M34,30.5h-4c-0.83,0-1.5,0.67-1.5,1.5s0.67,1.5,1.5,1.5h4c0.83,0,1.5-0.67,1.5-1.5S34.83,30.5,34,30.5z"/>
</g>
</svg>
