<?xml version="1.0" encoding="utf-8"?>
<!-- Generator: Adobe Illustrator 23.0.4, SVG Export Plug-In . SVG Version: 6.00 Build 0)  -->
<svg version="1.1" id="Layer_1" xmlns="http://www.w3.org/2000/svg" xmlns:xlink="http://www.w3.org/1999/xlink" x="0px" y="0px"
	 viewBox="0 0 64 64" style="enable-background:new 0 0 64 64;" xml:space="preserve">
<g>
	<path d="M32,26.33c0.83,0,1.5-0.67,1.5-1.5v-4c0-0.83-0.67-1.5-1.5-1.5s-1.5,0.67-1.5,1.5v4C30.5,25.66,31.17,26.33,32,26.33z"/>
	<path d="M32,8c0.83,0,1.5-0.67,1.5-1.5v-4C33.5,1.67,32.83,1,32,1s-1.5,0.67-1.5,1.5v4C30.5,7.33,31.17,8,32,8z"/>
	<path d="M32,17.17c0.83,0,1.5-0.67,1.5-1.5v-4c0-0.83-0.67-1.5-1.5-1.5s-1.5,0.67-1.5,1.5v4C30.5,16.5,31.17,17.17,32,17.17z"/>
	<path d="M34,30.5h-0.5V30c0-0.83-0.67-1.5-1.5-1.5s-1.5,0.67-1.5,1.5v2c0,0.83,0.67,1.5,1.5,1.5h2c0.83,0,1.5-0.67,1.5-1.5
		S34.83,30.5,34,30.5z"/>
	<path d="M61.6,30.5h-4c-0.83,0-1.5,0.67-1.5,1.5s0.67,1.5,1.5,1.5h4c0.83,0,1.5-0.67,1.5-1.5S62.43,30.5,61.6,30.5z"/>
	<path d="M52.4,30.5h-4c-0.83,0-1.5,0.67-1.5,1.5s0.67,1.5,1.5,1.5h4c0.83,0,1.5-0.67,1.5-1.5S53.23,30.5,52.4,30.5z"/>
	<path d="M43.2,30.5h-4c-0.83,0-1.5,0.67-1.5,1.5s0.67,1.5,1.5,1.5h4c0.83,0,1.5-0.67,1.5-1.5S44.03,30.5,43.2,30.5z"/>
</g>
</svg>
