<?xml version="1.0" encoding="utf-8"?>
<!-- Generator: Adobe Illustrator 24.2.1, SVG Export Plug-In . SVG Version: 6.00 Build 0)  -->
<svg version="1.1" id="Layer_1" xmlns="http://www.w3.org/2000/svg" xmlns:xlink="http://www.w3.org/1999/xlink" x="0px" y="0px"
	 viewBox="0 0 64 64" style="enable-background:new 0 0 64 64;" xml:space="preserve">
<style type="text/css">
	.st0{fill:none;}
</style>
<g>
	<rect x="18.5" y="25.5" class="st0" width="26" height="19"/>
	<rect x="18.5" y="19.5" class="st0" width="26" height="3"/>
	<path d="M10.94,50.94l-4,4c-0.59,0.59-0.59,1.54,0,2.12C7.23,57.35,7.62,57.5,8,57.5s0.77-0.15,1.06-0.44l4-4
		c0.59-0.59,0.59-1.54,0-2.12S11.53,50.35,10.94,50.94z"/>
	<path d="M9.06,6.94c-0.59-0.59-1.54-0.59-2.12,0c-0.59,0.59-0.59,1.54,0,2.12l4,4c0.29,0.29,0.68,0.44,1.06,0.44
		s0.77-0.15,1.06-0.44c0.59-0.59,0.59-1.54,0-2.12L9.06,6.94z"/>
	<path d="M53.06,50.94c-0.59-0.59-1.54-0.59-2.12,0s-0.59,1.54,0,2.12l4,4c0.29,0.29,0.68,0.44,1.06,0.44s0.77-0.15,1.06-0.44
		c0.59-0.59,0.59-1.54,0-2.12L53.06,50.94z"/>
	<path d="M52,13.5c0.38,0,0.77-0.15,1.06-0.44l4-4c0.59-0.59,0.59-1.54,0-2.12c-0.59-0.59-1.54-0.59-2.12,0l-4,4
		c-0.59,0.59-0.59,1.54,0,2.12C51.23,13.35,51.62,13.5,52,13.5z"/>
	<path d="M18.5,18v1.5h26V18c0-0.83,0.67-1.5,1.5-1.5H17C17.83,16.5,18.5,17.17,18.5,18z"/>
	<path d="M44.5,46v-1.5h-26V46c0,0.83-0.67,1.5-1.5,1.5h29C45.17,47.5,44.5,46.83,44.5,46z"/>
	<path d="M17,22.5h1.5v-3H17c-0.83,0-1.5-0.67-1.5-1.5v6C15.5,23.17,16.17,22.5,17,22.5z"/>
	<path d="M17,44.5h1.5v-19H17c-0.83,0-1.5-0.67-1.5-1.5v22C15.5,45.17,16.17,44.5,17,44.5z"/>
	<path d="M17,19.5h1.5V18c0-0.83-0.67-1.5-1.5-1.5s-1.5,0.67-1.5,1.5S16.17,19.5,17,19.5z"/>
	<path d="M18.5,46v-1.5H17c-0.83,0-1.5,0.67-1.5,1.5s0.67,1.5,1.5,1.5S18.5,46.83,18.5,46z"/>
	<path d="M46,19.5h-1.5v3H46c0.83,0,1.5,0.67,1.5,1.5v-6C47.5,18.83,46.83,19.5,46,19.5z"/>
	<path d="M46,25.5h-1.5v19H46c0.83,0,1.5,0.67,1.5,1.5V24C47.5,24.83,46.83,25.5,46,25.5z"/>
	<path d="M46,16.5c-0.83,0-1.5,0.67-1.5,1.5v1.5H46c0.83,0,1.5-0.67,1.5-1.5S46.83,16.5,46,16.5z"/>
	<path d="M46,44.5h-1.5V46c0,0.83,0.67,1.5,1.5,1.5s1.5-0.67,1.5-1.5S46.83,44.5,46,44.5z"/>
	<rect x="18.5" y="22.5" width="26" height="3"/>
	<path d="M17,25.5h1.5v-3H17c-0.83,0-1.5,0.67-1.5,1.5S16.17,25.5,17,25.5z"/>
	<path d="M46,22.5h-1.5v3H46c0.83,0,1.5-0.67,1.5-1.5S46.83,22.5,46,22.5z"/>
</g>
</svg>
