<?xml version="1.0" encoding="utf-8"?>
<!-- Generator: Adobe Illustrator 24.3.0, SVG Export Plug-In . SVG Version: 6.00 Build 0)  -->
<svg version="1.1" id="Layer_1" xmlns="http://www.w3.org/2000/svg" xmlns:xlink="http://www.w3.org/1999/xlink" x="0px" y="0px"
	 viewBox="0 0 64 64" style="enable-background:new 0 0 64 64;" xml:space="preserve">
<g>
	<path d="M3.65,28.64c0.01,0.01,0.02,0.02,0.03,0.04c0.01,0.03,0.02,0.05,0.04,0.08c0.02,0.03,0.05,0.06,0.07,0.09
		c0.03,0.04,0.05,0.08,0.08,0.11c0.02,0.03,0.04,0.05,0.07,0.08c0.05,0.05,0.1,0.09,0.15,0.13c0.04,0.03,0.07,0.06,0.1,0.08
		c0.02,0.01,0.04,0.03,0.06,0.04c0.07,0.04,0.14,0.07,0.22,0.1c0.04,0.02,0.08,0.04,0.12,0.05c0.01,0,0.02,0.01,0.04,0.01
		c0.11,0.03,0.23,0.05,0.35,0.05c0.01,0,0.02,0,0.03,0c0,0,0.01,0,0.01,0c0,0,0,0,0,0c0,0,0,0,0,0c0.12,0,0.24-0.02,0.36-0.05
		c0.03-0.01,0.07-0.02,0.1-0.03c0.02-0.01,0.03,0,0.05-0.01L32,19.78l26.49,9.63c0.02,0.01,0.04,0,0.05,0.01
		c0.03,0.01,0.07,0.03,0.1,0.03c0.12,0.03,0.24,0.05,0.36,0.05c0,0,0,0,0,0c0,0,0,0,0,0c0,0,0.01,0,0.01,0c0.01,0,0.02,0,0.03,0
		c0.12,0,0.24-0.02,0.35-0.05c0.01,0,0.02-0.01,0.04-0.01c0.04-0.01,0.08-0.04,0.12-0.05c0.07-0.03,0.15-0.06,0.22-0.1
		c0.02-0.01,0.04-0.02,0.06-0.04c0.04-0.02,0.07-0.06,0.11-0.09c0.05-0.04,0.1-0.08,0.15-0.13c0.02-0.02,0.05-0.05,0.07-0.08
		c0.03-0.04,0.05-0.08,0.08-0.11c0.02-0.03,0.05-0.05,0.07-0.09c0.01-0.02,0.02-0.05,0.03-0.07c0.01-0.02,0.02-0.03,0.03-0.04
		c0.01-0.03,0.02-0.06,0.03-0.09c0,0,0-0.01,0-0.01c0.01-0.01,0.02-0.02,0.02-0.04c0-0.01,0-0.01,0-0.02
		c0.01-0.03,0.01-0.05,0.02-0.08c0.01-0.04,0.02-0.09,0.03-0.13c0.01-0.03,0.01-0.05,0.02-0.08c0-0.02,0-0.05,0-0.07
		c0-0.05,0.01-0.09,0.01-0.14c0-0.03,0-0.06,0-0.08c0-0.02-0.01-0.05-0.01-0.07c0-0.05-0.01-0.09-0.02-0.14
		c-0.01-0.03-0.01-0.05-0.01-0.08c-0.01-0.02-0.02-0.04-0.02-0.06c-0.01-0.04-0.03-0.09-0.05-0.13c-0.01-0.02-0.02-0.05-0.03-0.07
		c-0.01-0.02-0.02-0.04-0.03-0.06c-0.02-0.04-0.05-0.08-0.07-0.12c-0.01-0.02-0.03-0.05-0.04-0.07c-0.01-0.02-0.03-0.03-0.05-0.05
		c-0.03-0.04-0.06-0.07-0.09-0.1c-0.02-0.02-0.04-0.04-0.06-0.06c-0.02-0.02-0.04-0.03-0.06-0.04c-0.04-0.03-0.07-0.06-0.11-0.08
		c-0.03-0.02-0.05-0.04-0.08-0.05c0,0-0.01-0.01-0.01-0.01l-27-15.81c-0.02-0.01-0.04-0.01-0.05-0.02c-0.05-0.03-0.1-0.05-0.15-0.07
		c-0.04-0.02-0.09-0.04-0.13-0.05c-0.04-0.01-0.09-0.02-0.13-0.03c-0.05-0.01-0.1-0.02-0.15-0.02c-0.04,0-0.09,0-0.13,0
		c-0.05,0-0.1,0-0.16,0.01c-0.04,0-0.09,0.01-0.13,0.02c-0.05,0.01-0.1,0.02-0.15,0.04c-0.04,0.01-0.08,0.03-0.12,0.04
		c-0.05,0.02-0.1,0.04-0.15,0.07c-0.02,0.01-0.03,0.01-0.05,0.02l-27,15.81c0,0-0.01,0.01-0.01,0.01c-0.03,0.02-0.05,0.03-0.07,0.05
		c-0.04,0.03-0.07,0.05-0.11,0.08c-0.02,0.02-0.04,0.03-0.06,0.05c-0.02,0.02-0.04,0.04-0.06,0.06c-0.03,0.03-0.06,0.07-0.09,0.1
		c-0.02,0.02-0.03,0.04-0.05,0.06c-0.02,0.02-0.03,0.04-0.04,0.07c-0.03,0.04-0.05,0.08-0.07,0.12c-0.01,0.02-0.03,0.04-0.04,0.06
		c-0.01,0.02-0.02,0.05-0.03,0.07c-0.02,0.04-0.03,0.08-0.05,0.13c-0.01,0.02-0.02,0.04-0.02,0.07c-0.01,0.03-0.01,0.05-0.01,0.08
		c-0.01,0.04-0.02,0.09-0.02,0.13c0,0.02-0.01,0.05-0.01,0.07c0,0.03,0,0.05,0,0.08c0,0.05,0,0.09,0.01,0.13
		c0,0.03,0,0.05,0.01,0.08c0,0.03,0.01,0.05,0.02,0.08c0.01,0.04,0.02,0.09,0.03,0.13c0.01,0.03,0.01,0.06,0.02,0.08
		c0,0,0,0.01,0,0.01c0,0.01,0.01,0.02,0.02,0.03c0,0.01,0.01,0.02,0.01,0.03C3.63,28.59,3.63,28.62,3.65,28.64z"/>
	<path d="M60.69,36.19c0-0.05,0-0.09-0.01-0.14c0-0.02,0-0.05,0-0.07c0-0.03-0.01-0.05-0.02-0.08c-0.01-0.05-0.02-0.09-0.03-0.14
		c-0.01-0.02-0.01-0.05-0.02-0.07c0-0.01,0-0.01,0-0.02c-0.01-0.02-0.02-0.04-0.03-0.06c-0.01-0.02-0.01-0.05-0.02-0.07
		c-0.01-0.02-0.03-0.04-0.04-0.06c-0.01-0.02-0.01-0.04-0.02-0.05c0,0,0-0.01-0.01-0.01c-0.02-0.03-0.03-0.05-0.05-0.08
		c-0.03-0.04-0.06-0.08-0.09-0.11c-0.01-0.02-0.03-0.04-0.04-0.05c-0.02-0.02-0.04-0.04-0.06-0.05c-0.03-0.03-0.07-0.07-0.11-0.1
		c-0.02-0.02-0.04-0.03-0.06-0.05c-0.02-0.01-0.04-0.02-0.06-0.04c-0.04-0.03-0.08-0.05-0.12-0.07c-0.02-0.01-0.04-0.03-0.07-0.04
		c-0.02-0.01-0.04-0.02-0.07-0.02c-0.04-0.02-0.09-0.03-0.13-0.05c-0.02-0.01-0.05-0.02-0.07-0.02c-0.02-0.01-0.05-0.01-0.07-0.01
		c-0.05-0.01-0.09-0.02-0.14-0.02c-0.02,0-0.05-0.01-0.07-0.01c-0.03,0-0.05,0-0.08,0c-0.05,0-0.09,0-0.14,0.01
		c-0.03,0-0.05,0-0.08,0c-0.03,0-0.05,0.01-0.08,0.02c-0.05,0.01-0.09,0.02-0.13,0.03c-0.03,0.01-0.05,0.01-0.08,0.02
		c-0.01,0-0.01,0-0.02,0L32.19,44.4L5.7,34.78c-0.01,0-0.01,0-0.02,0c-0.02-0.01-0.05-0.01-0.07-0.02
		c-0.05-0.01-0.09-0.03-0.14-0.03c-0.03-0.01-0.06-0.01-0.08-0.02c-0.02,0-0.04,0-0.06,0c-0.05,0-0.1-0.01-0.14-0.01
		c-0.03,0-0.06,0-0.09,0c-0.01,0-0.02,0-0.03,0c-0.01,0-0.02,0-0.03,0c-0.05,0-0.09,0.01-0.14,0.02c-0.03,0.01-0.06,0.01-0.09,0.02
		c-0.01,0-0.02,0.01-0.03,0.01c-0.01,0-0.02,0.01-0.03,0.01c-0.04,0.01-0.09,0.03-0.13,0.05c-0.03,0.01-0.05,0.02-0.08,0.03
		c-0.02,0.01-0.04,0.02-0.05,0.03c-0.04,0.02-0.08,0.04-0.12,0.07c-0.02,0.02-0.05,0.03-0.07,0.05c-0.02,0.01-0.03,0.03-0.05,0.04
		c-0.04,0.03-0.07,0.06-0.1,0.09c-0.02,0.02-0.05,0.04-0.07,0.06c-0.01,0.02-0.03,0.04-0.04,0.05c-0.03,0.03-0.06,0.07-0.08,0.11
		c-0.02,0.03-0.04,0.05-0.05,0.08c0,0-0.01,0.01-0.01,0.01c-0.01,0.02-0.02,0.04-0.03,0.06c-0.01,0.02-0.02,0.04-0.03,0.06
		c-0.01,0.02-0.01,0.04-0.02,0.07c-0.01,0.02-0.02,0.04-0.03,0.06c0,0.01,0,0.01,0,0.02c-0.01,0.03-0.01,0.05-0.02,0.08
		c-0.01,0.04-0.02,0.09-0.03,0.13c-0.01,0.03-0.01,0.05-0.02,0.08c0,0.03,0,0.05,0,0.08c0,0.05-0.01,0.09-0.01,0.14
		c0,0.03,0,0.05,0,0.08c0,0.02,0.01,0.05,0.01,0.07c0,0.04,0.01,0.09,0.02,0.13c0.01,0.03,0.01,0.05,0.01,0.08
		c0.01,0.02,0.02,0.05,0.02,0.07c0.01,0.04,0.03,0.08,0.05,0.13c0.01,0.02,0.02,0.05,0.03,0.07c0.01,0.02,0.03,0.04,0.04,0.07
		c0.02,0.04,0.04,0.08,0.07,0.12c0.01,0.02,0.03,0.05,0.04,0.07c0.01,0.02,0.03,0.04,0.05,0.06c0.03,0.03,0.06,0.07,0.09,0.1
		c0.02,0.02,0.04,0.04,0.06,0.06c0.02,0.02,0.04,0.03,0.06,0.04c0.04,0.03,0.07,0.06,0.11,0.08c0.03,0.02,0.05,0.04,0.08,0.05
		c0,0,0.01,0.01,0.01,0.01l27,15.81c0,0,0.01,0,0.01,0c0.08,0.05,0.17,0.08,0.26,0.11c0.03,0.01,0.07,0.03,0.1,0.04
		c0.08,0.02,0.16,0.02,0.24,0.03c0.05,0,0.09,0.02,0.14,0.02c0,0,0,0,0,0s0,0,0,0c0.05,0,0.09-0.01,0.14-0.02
		c0.08-0.01,0.17-0.01,0.24-0.03c0.03-0.01,0.07-0.03,0.1-0.04c0.09-0.03,0.18-0.06,0.27-0.11c0,0,0.01,0,0.01,0l27-15.81
		c0,0,0.01,0,0.01-0.01c0.03-0.02,0.05-0.04,0.08-0.05c0.04-0.03,0.08-0.06,0.11-0.09c0.02-0.01,0.04-0.03,0.05-0.04
		c0.02-0.02,0.04-0.04,0.06-0.06c0.03-0.03,0.06-0.07,0.09-0.1c0.01-0.02,0.03-0.03,0.05-0.05c0.02-0.02,0.03-0.05,0.04-0.07
		c0.03-0.04,0.05-0.08,0.07-0.12c0.01-0.02,0.03-0.04,0.04-0.06c0.01-0.02,0.02-0.05,0.03-0.07c0.02-0.04,0.03-0.08,0.05-0.13
		c0.01-0.02,0.02-0.04,0.02-0.07c0.01-0.03,0.01-0.05,0.01-0.08c0.01-0.04,0.02-0.09,0.02-0.13c0-0.02,0.01-0.05,0.01-0.07
		C60.69,36.25,60.69,36.22,60.69,36.19z"/>
</g>
</svg>
