<?xml version="1.0" encoding="utf-8"?>
<!-- Generator: Adobe Illustrator 23.0.4, SVG Export Plug-In . SVG Version: 6.00 Build 0)  -->
<svg version="1.1" id="Layer_1" xmlns="http://www.w3.org/2000/svg" xmlns:xlink="http://www.w3.org/1999/xlink" x="0px" y="0px"
	 viewBox="0 0 64 64" style="enable-background:new 0 0 64 64;" xml:space="preserve">
<g>
	<path d="M20.21,29.79c2.23,0,4.39-0.9,6.1-2.49c1.69,1.26,3.72,2,5.89,2c2.11,0,4.07-0.7,5.73-1.89c1.68,1.52,3.79,2.38,5.97,2.38
		c5.26,0,9.54-4.82,9.54-10.75S49.16,8.29,43.9,8.29c-1.28,0-2.54,0.29-3.71,0.85c-1.97-2.48-4.81-4.06-7.99-4.06
		c-3.22,0-6.11,1.62-8.07,4.16c-1.22-0.62-2.56-0.95-3.91-0.95c-5.26,0-9.54,4.82-9.54,10.75S14.95,29.79,20.21,29.79z M43.9,11.29
		c3.61,0,6.54,3.48,6.54,7.75s-2.94,7.75-6.54,7.75c-1.38,0-2.69-0.51-3.79-1.45c1.74-2.15,2.82-5.01,2.82-8.15
		c0-1.96-0.43-3.82-1.16-5.46C42.45,11.45,43.17,11.29,43.9,11.29z M32.2,8.08c4.26,0,7.73,4.09,7.73,9.11s-3.47,9.11-7.73,9.11
		s-7.73-4.09-7.73-9.11S27.94,8.08,32.2,8.08z M20.21,11.29c0.82,0,1.63,0.19,2.38,0.54c-0.71,1.62-1.12,3.44-1.12,5.36
		c0,3.07,1.03,5.87,2.7,8.01c-1.14,1.03-2.51,1.59-3.96,1.59c-3.61,0-6.54-3.48-6.54-7.75S16.6,11.29,20.21,11.29z"/>
	<path d="M43.9,31.97c-2.08,0-4.12,0.36-6.08,1.06c-1.8-0.52-3.68-0.79-5.62-0.79c-1.99,0-3.93,0.29-5.77,0.84
		c-2-0.73-4.09-1.11-6.22-1.11c-10.81,0-19.6,9.64-19.6,21.48c0,0.83,0.67,1.5,1.5,1.5h7.89c-0.04,0.57-0.06,1.14-0.06,1.71
		c0,0.83,0.67,1.5,1.5,1.5h41.53c0.83,0,1.5-0.67,1.5-1.5c0-0.58-0.02-1.15-0.06-1.71H62c0.83,0,1.5-0.67,1.5-1.5
		C63.5,41.61,54.71,31.97,43.9,31.97z M51.19,53.27c-0.01,0.06-0.02,0.12-0.02,0.18c0,0.21,0.05,0.42,0.13,0.6
		c0.04,0.37,0.07,0.74,0.09,1.11H13c0.7-11.11,9.03-19.92,19.19-19.92C41.78,35.24,49.72,43.07,51.19,53.27z M3.68,51.95
		c0.69-9.49,7.83-16.98,16.53-16.98c0.54,0,1.08,0.04,1.61,0.1c-5.85,3.39-10.16,9.56-11.47,16.89H3.68z M42.52,35.04
		c0.46-0.04,0.92-0.06,1.38-0.06c8.7,0,15.84,7.49,16.53,16.98h-6.39C52.72,44.6,48.39,38.42,42.52,35.04z"/>
</g>
</svg>
