<?xml version="1.0" encoding="utf-8"?>
<!-- Generator: Adobe Illustrator 24.0.0, SVG Export Plug-In . SVG Version: 6.00 Build 0)  -->
<svg version="1.1" id="Layer_1" xmlns="http://www.w3.org/2000/svg" xmlns:xlink="http://www.w3.org/1999/xlink" x="0px" y="0px"
	 viewBox="0 0 64 64" style="enable-background:new 0 0 64 64;" xml:space="preserve">
<style type="text/css">
	.st0{fill:none;}
</style>
<g>
	<ellipse class="st0" cx="32.2" cy="17.19" rx="7.73" ry="9.11"/>
	<path class="st0" d="M51.39,55.16c-0.7-11.11-9.03-19.92-19.19-19.92c-10.17,0-18.5,8.81-19.19,19.92H51.39z"/>
	<path d="M32.2,29.3c5.92,0,10.73-5.43,10.73-12.11S38.11,5.08,32.2,5.08s-10.73,5.43-10.73,12.11S26.28,29.3,32.2,29.3z M32.2,8.08
		c4.26,0,7.73,4.09,7.73,9.11s-3.47,9.11-7.73,9.11s-7.73-4.09-7.73-9.11S27.94,8.08,32.2,8.08z"/>
	<path d="M32.2,32.24c-12.28,0-22.26,10.96-22.26,24.42c0,0.83,0.67,1.5,1.5,1.5h41.53c0.83,0,1.5-0.67,1.5-1.5
		C54.46,43.2,44.47,32.24,32.2,32.24z M32.2,35.24c10.17,0,18.5,8.81,19.19,19.92H13C13.7,44.05,22.03,35.24,32.2,35.24z"/>
</g>
</svg>
