<?xml version="1.0" encoding="utf-8"?>
<!-- Generator: Adobe Illustrator 24.0.0, SVG Export Plug-In . SVG Version: 6.00 Build 0)  -->
<svg version="1.1" id="Layer_1" xmlns="http://www.w3.org/2000/svg" xmlns:xlink="http://www.w3.org/1999/xlink" x="0px" y="0px"
	 viewBox="0 0 64 64" style="enable-background:new 0 0 64 64;" xml:space="preserve">
<style type="text/css">
	.st0{fill:none;}
</style>
<g>
	<path class="st0" d="M57.39,54.5L32,10.98L6.61,54.5H57.39z M32,53c-1.65,0-3-1.35-3-3s1.35-3,3-3s3,1.35,3,3S33.65,53,32,53z
		 M29,20.89c0.04-0.03,0.07-0.06,0.11-0.09c0.04-0.03,0.08-0.05,0.12-0.08c0.04-0.02,0.08-0.05,0.13-0.07
		c0.05-0.02,0.09-0.04,0.14-0.06c0.04-0.02,0.09-0.03,0.14-0.04c0.05-0.01,0.1-0.02,0.16-0.03c0.03,0,0.05-0.01,0.08-0.02
		c0.02,0,0.05,0,0.07,0c0.02,0,0.04-0.01,0.06-0.01h4c0.02,0,0.04,0.01,0.07,0.01c0.02,0,0.05,0,0.07,0c0.03,0,0.05,0.01,0.08,0.02
		c0.05,0.01,0.1,0.02,0.16,0.03c0.05,0.01,0.09,0.03,0.14,0.04c0.05,0.02,0.09,0.04,0.14,0.06c0.04,0.02,0.09,0.04,0.13,0.07
		c0.04,0.02,0.08,0.05,0.12,0.08c0.04,0.03,0.08,0.06,0.11,0.09c0.04,0.03,0.07,0.07,0.1,0.1c0.03,0.04,0.06,0.07,0.09,0.11
		c0.03,0.04,0.06,0.08,0.08,0.12c0.02,0.04,0.05,0.08,0.07,0.12c0.02,0.04,0.04,0.09,0.06,0.13c0.02,0.05,0.03,0.09,0.04,0.14
		c0.01,0.05,0.02,0.09,0.03,0.14c0.01,0.05,0.01,0.1,0.02,0.16c0,0.03,0.01,0.05,0.01,0.08c0,0.02-0.01,0.04-0.01,0.07
		c0,0.02,0,0.05,0,0.07l-2,22c0,0,0,0.01,0,0.01c0,0.03-0.01,0.06-0.02,0.09c-0.01,0.05-0.02,0.09-0.03,0.14
		c-0.01,0.05-0.03,0.1-0.04,0.14c-0.02,0.04-0.03,0.09-0.05,0.13c-0.01,0.01-0.01,0.03-0.02,0.04c-0.02,0.03-0.03,0.06-0.05,0.09
		c-0.03,0.04-0.05,0.08-0.08,0.12c-0.03,0.04-0.06,0.08-0.09,0.11c-0.03,0.03-0.05,0.06-0.08,0.08c-0.01,0.01-0.02,0.02-0.03,0.03
		c-0.03,0.03-0.06,0.05-0.1,0.08c-0.04,0.03-0.08,0.05-0.12,0.08c-0.04,0.03-0.09,0.05-0.13,0.07c-0.03,0.01-0.05,0.03-0.08,0.04
		c-0.01,0.01-0.03,0.01-0.04,0.01c0,0-0.01,0-0.01,0c-0.05,0.02-0.09,0.03-0.14,0.04c-0.05,0.01-0.1,0.02-0.15,0.03
		c-0.03,0-0.06,0.01-0.08,0.02c-0.04,0-0.09,0.01-0.13,0.01c0,0,0,0,0,0c0,0,0,0,0,0c0,0,0,0,0,0s0,0,0,0c0,0,0,0,0,0c0,0,0,0,0,0
		c-0.04,0-0.09,0-0.13-0.01c-0.03,0-0.06-0.01-0.08-0.02c-0.05-0.01-0.1-0.02-0.15-0.03c-0.05-0.01-0.1-0.03-0.14-0.04
		c0,0-0.01,0-0.01,0c-0.01,0-0.03-0.01-0.04-0.01c-0.03-0.01-0.06-0.03-0.08-0.04c-0.05-0.02-0.09-0.05-0.13-0.07
		c-0.04-0.02-0.08-0.05-0.12-0.08c-0.03-0.03-0.07-0.05-0.1-0.08c-0.01-0.01-0.02-0.02-0.03-0.03c-0.03-0.03-0.05-0.05-0.08-0.08
		c-0.03-0.04-0.06-0.07-0.09-0.11c-0.03-0.04-0.06-0.08-0.08-0.12c-0.02-0.03-0.04-0.06-0.05-0.09c-0.01-0.01-0.01-0.03-0.02-0.04
		c-0.02-0.04-0.04-0.08-0.06-0.13c-0.02-0.05-0.03-0.09-0.04-0.14c-0.01-0.05-0.02-0.09-0.03-0.14c0-0.03-0.01-0.06-0.01-0.09
		c0,0,0-0.01,0-0.01l-2-22c0-0.02,0-0.04,0-0.07c0-0.02-0.01-0.05-0.01-0.07c0-0.03,0.01-0.06,0.01-0.08c0-0.05,0.01-0.1,0.02-0.15
		c0.01-0.05,0.02-0.1,0.03-0.14c0.01-0.05,0.03-0.09,0.04-0.14c0.02-0.05,0.04-0.09,0.06-0.13c0.02-0.04,0.04-0.08,0.07-0.13
		c0.03-0.04,0.05-0.08,0.08-0.12c0.03-0.04,0.06-0.07,0.09-0.11C28.93,20.96,28.96,20.92,29,20.89z"/>
	<circle class="st0" cx="32" cy="50" r="1"/>
	<path d="M61.29,56.75c0.02-0.04,0.05-0.09,0.07-0.13c0.02-0.04,0.03-0.09,0.05-0.13c0.02-0.05,0.03-0.09,0.04-0.14
		c0.01-0.04,0.02-0.09,0.02-0.13c0.01-0.05,0.01-0.11,0.02-0.16c0-0.02,0-0.03,0-0.05c0-0.03-0.01-0.06-0.01-0.09
		c0-0.05-0.01-0.11-0.02-0.16c-0.01-0.05-0.02-0.09-0.03-0.14c-0.01-0.05-0.03-0.09-0.04-0.14c-0.02-0.05-0.04-0.1-0.07-0.14
		c-0.01-0.03-0.02-0.06-0.04-0.08l-28-48c-0.01-0.02-0.03-0.04-0.05-0.06c-0.03-0.05-0.06-0.09-0.1-0.13
		c-0.03-0.04-0.06-0.07-0.09-0.1c-0.03-0.03-0.07-0.07-0.11-0.1c-0.04-0.03-0.08-0.06-0.13-0.09c-0.02-0.02-0.04-0.03-0.07-0.05
		c-0.02-0.01-0.04-0.01-0.05-0.02c-0.05-0.02-0.09-0.04-0.14-0.06c-0.04-0.02-0.09-0.04-0.14-0.05c-0.04-0.01-0.09-0.02-0.13-0.03
		c-0.05-0.01-0.1-0.02-0.15-0.02c-0.04,0-0.09,0-0.13,0c-0.05,0-0.1,0-0.16,0c-0.04,0-0.09,0.01-0.13,0.02
		c-0.05,0.01-0.11,0.02-0.16,0.04c-0.04,0.01-0.08,0.03-0.12,0.04c-0.05,0.02-0.11,0.04-0.16,0.07c-0.02,0.01-0.03,0.01-0.05,0.02
		c-0.02,0.01-0.04,0.03-0.06,0.04c-0.05,0.03-0.09,0.06-0.14,0.1c-0.04,0.03-0.07,0.06-0.1,0.09c-0.04,0.04-0.07,0.07-0.1,0.11
		c-0.03,0.04-0.06,0.08-0.09,0.13c-0.02,0.02-0.03,0.04-0.05,0.07l-28,48c-0.02,0.03-0.02,0.05-0.04,0.08
		c-0.02,0.05-0.05,0.09-0.07,0.15c-0.02,0.05-0.03,0.09-0.04,0.14c-0.01,0.05-0.02,0.09-0.03,0.14c-0.01,0.05-0.01,0.11-0.02,0.16
		c0,0.03-0.01,0.06-0.01,0.09c0,0.02,0,0.03,0,0.05c0,0.05,0.01,0.11,0.02,0.16c0.01,0.05,0.01,0.09,0.02,0.14
		c0.01,0.05,0.03,0.09,0.04,0.14c0.02,0.05,0.03,0.09,0.05,0.14c0.02,0.04,0.04,0.08,0.07,0.12c0.02,0.04,0.05,0.08,0.08,0.12
		c0.03,0.04,0.06,0.08,0.09,0.11c0.03,0.04,0.06,0.07,0.1,0.11c0.03,0.03,0.07,0.06,0.11,0.09c0.04,0.03,0.08,0.06,0.13,0.09
		c0.01,0.01,0.02,0.02,0.04,0.03c0.02,0.01,0.04,0.01,0.06,0.02c0.08,0.04,0.16,0.08,0.25,0.11c0.03,0.01,0.06,0.02,0.1,0.03
		c0.11,0.03,0.23,0.04,0.34,0.04c0,0,0,0,0.01,0c0,0,0,0,0,0c0,0,0,0,0,0h56c0,0,0,0,0,0c0,0,0,0,0,0c0,0,0,0,0,0
		c0.12,0,0.23-0.02,0.35-0.04c0.03-0.01,0.06-0.02,0.1-0.03c0.09-0.03,0.17-0.06,0.25-0.1c0.02-0.01,0.04-0.01,0.06-0.02
		c0.01-0.01,0.03-0.02,0.04-0.03c0.04-0.03,0.08-0.06,0.12-0.09c0.04-0.03,0.08-0.06,0.11-0.09c0.03-0.03,0.06-0.07,0.09-0.1
		c0.03-0.04,0.07-0.08,0.1-0.12C61.25,56.83,61.27,56.79,61.29,56.75z M32,10.98L57.39,54.5H6.61L32,10.98z"/>
	<path d="M28.81,21.1c-0.03,0.04-0.06,0.08-0.08,0.12c-0.02,0.04-0.05,0.08-0.07,0.13c-0.02,0.04-0.04,0.09-0.06,0.13
		c-0.02,0.05-0.03,0.09-0.04,0.14c-0.01,0.05-0.02,0.09-0.03,0.14c-0.01,0.05-0.01,0.1-0.02,0.15c0,0.03-0.01,0.06-0.01,0.08
		c0,0.02,0.01,0.05,0.01,0.07c0,0.02,0,0.04,0,0.07l2,22c0,0,0,0.01,0,0.01c0,0.03,0.01,0.06,0.01,0.09
		c0.01,0.05,0.02,0.1,0.03,0.14c0.01,0.05,0.03,0.1,0.04,0.14c0.02,0.04,0.03,0.09,0.06,0.13c0.01,0.01,0.01,0.03,0.02,0.04
		c0.02,0.03,0.03,0.06,0.05,0.09c0.02,0.04,0.05,0.08,0.08,0.12c0.03,0.04,0.06,0.08,0.09,0.11c0.03,0.03,0.05,0.06,0.08,0.08
		c0.01,0.01,0.02,0.02,0.03,0.03c0.03,0.03,0.06,0.05,0.1,0.08c0.04,0.03,0.08,0.05,0.12,0.08c0.04,0.03,0.09,0.05,0.13,0.07
		c0.03,0.01,0.05,0.03,0.08,0.04c0.01,0.01,0.03,0.01,0.04,0.01c0,0,0.01,0,0.01,0c0.05,0.02,0.09,0.03,0.14,0.04
		c0.05,0.01,0.1,0.02,0.15,0.03c0.03,0,0.06,0.01,0.08,0.02c0.04,0,0.09,0.01,0.13,0.01c0,0,0,0,0,0c0,0,0,0,0,0c0,0,0,0,0,0
		s0,0,0,0c0,0,0,0,0,0c0,0,0,0,0,0c0.04,0,0.09,0,0.13-0.01c0.03,0,0.06-0.01,0.08-0.02c0.05-0.01,0.1-0.02,0.15-0.03
		c0.05-0.01,0.1-0.03,0.14-0.04c0,0,0.01,0,0.01,0c0.01,0,0.03-0.01,0.04-0.01c0.03-0.01,0.06-0.03,0.08-0.04
		c0.05-0.02,0.09-0.05,0.13-0.07c0.04-0.02,0.08-0.05,0.12-0.08c0.03-0.03,0.07-0.05,0.1-0.08c0.01-0.01,0.02-0.02,0.03-0.03
		c0.03-0.03,0.05-0.05,0.08-0.08c0.03-0.04,0.06-0.07,0.09-0.11c0.03-0.04,0.06-0.08,0.08-0.12c0.02-0.03,0.04-0.06,0.05-0.09
		c0.01-0.01,0.01-0.03,0.02-0.04c0.02-0.04,0.04-0.08,0.05-0.13c0.02-0.05,0.03-0.09,0.04-0.14c0.01-0.05,0.02-0.09,0.03-0.14
		c0-0.03,0.01-0.06,0.02-0.09c0,0,0-0.01,0-0.01l2-22c0-0.02,0-0.05,0-0.07c0-0.02,0.01-0.04,0.01-0.07c0-0.03-0.01-0.05-0.01-0.08
		c0-0.05-0.01-0.1-0.02-0.16c-0.01-0.05-0.02-0.09-0.03-0.14c-0.01-0.05-0.03-0.1-0.04-0.14c-0.02-0.05-0.04-0.09-0.06-0.13
		c-0.02-0.04-0.04-0.08-0.07-0.12c-0.03-0.04-0.05-0.08-0.08-0.12c-0.03-0.04-0.06-0.07-0.09-0.11c-0.03-0.04-0.07-0.07-0.1-0.1
		c-0.04-0.03-0.07-0.06-0.11-0.09c-0.04-0.03-0.08-0.05-0.12-0.08c-0.04-0.03-0.08-0.05-0.13-0.07c-0.04-0.02-0.09-0.04-0.14-0.06
		c-0.04-0.02-0.09-0.03-0.14-0.04c-0.05-0.01-0.1-0.02-0.16-0.03c-0.03,0-0.05-0.01-0.08-0.02c-0.02,0-0.05,0-0.07,0
		c-0.02,0-0.04-0.01-0.07-0.01h-4c-0.02,0-0.04,0.01-0.06,0.01c-0.02,0-0.05,0-0.07,0c-0.03,0-0.05,0.01-0.08,0.02
		c-0.05,0.01-0.1,0.02-0.16,0.03c-0.05,0.01-0.09,0.03-0.14,0.04c-0.05,0.02-0.09,0.04-0.14,0.06c-0.04,0.02-0.09,0.04-0.13,0.07
		c-0.04,0.02-0.08,0.05-0.12,0.08c-0.04,0.03-0.08,0.06-0.11,0.09c-0.04,0.03-0.07,0.07-0.1,0.1C28.86,21.03,28.83,21.06,28.81,21.1
		z"/>
	<path d="M32,47c-1.65,0-3,1.35-3,3s1.35,3,3,3s3-1.35,3-3S33.65,47,32,47z M32,51c-0.55,0-1-0.45-1-1s0.45-1,1-1s1,0.45,1,1
		S32.55,51,32,51z"/>
</g>
</svg>
