<?xml version="1.0" encoding="utf-8"?>
<!-- Generator: Adobe Illustrator 23.0.4, SVG Export Plug-In . SVG Version: 6.00 Build 0)  -->
<svg version="1.1" id="Layer_1" xmlns="http://www.w3.org/2000/svg" xmlns:xlink="http://www.w3.org/1999/xlink" x="0px" y="0px"
	 viewBox="0 0 64 64" style="enable-background:new 0 0 64 64;" xml:space="preserve">
<style type="text/css">
	.st0{fill:none;}
</style>
<g>
	<path class="st0" d="M33.5,58.06l-13-4.64c-0.5-0.18-0.86-0.6-0.97-1.12l-1.82-9.12l-8.07-2.42l-2.92,4.37
		C11.47,54.25,21.02,60.5,32,60.5c0.5,0,1-0.01,1.5-0.04V58.06z"/>
	<path class="st0" d="M27.43,33.46l-2.42,1.21l2.15,4.3l5.67,3.78c0.42,0.28,0.67,0.75,0.67,1.25v3.38l0.59,0.59l4.54-3.78
		l0.79-3.94l-4.25-7.65L27.43,33.46z"/>
	<path class="st0" d="M44.68,10.88c-0.24,0.33-0.61,0.55-1.02,0.6l-6.99,0.9l-1.59,3.27c-0.22,0.45-0.64,0.76-1.13,0.83l-5.98,0.88
		L25.5,23.3v1.35l0.37,0.76l9.68-0.9c0.43-0.04,0.83,0.1,1.14,0.38l7.23,6.49l9-1.85c0.38-0.08,0.78,0,1.11,0.21l6.41,4.12
		c0.04-0.61,0.07-1.23,0.07-1.85c0-10.23-5.42-19.21-13.53-24.24L44.68,10.88z"/>
	<path class="st0" d="M52.91,32.59l-9.14,1.88c-0.47,0.1-0.95-0.04-1.3-0.35l-7.3-6.56l-10.06,0.94c-0.62,0.06-1.21-0.28-1.49-0.84
		l-0.97-2c-0.1-0.2-0.15-0.43-0.15-0.66v-2c0-0.2,0.04-0.39,0.12-0.58l2.92-7c0.2-0.49,0.65-0.83,1.17-0.91l6.03-0.89l1.6-3.29
		c0.22-0.45,0.66-0.77,1.16-0.83l7.15-0.92l1.67-2.29C40.59,4.51,36.41,3.5,32,3.5C16.29,3.5,3.5,16.29,3.5,32
		c0,3.48,0.63,6.81,1.77,9.89l2.48-3.72c0.37-0.55,1.05-0.8,1.68-0.6l10,3c0.53,0.16,0.93,0.6,1.04,1.14l1.83,9.17l13.2,4.71
		c0.6,0.21,1,0.78,1,1.41v3.14c11.9-1.9,21.36-11.18,23.52-22.98L52.91,32.59z M42.47,40.29l-1,5c-0.07,0.34-0.25,0.64-0.51,0.86
		l-6,5c-0.28,0.23-0.62,0.35-0.96,0.35c-0.38,0-0.77-0.15-1.06-0.44l-2-2C30.66,48.78,30.5,48.4,30.5,48v-3.2l-5.33-3.55
		c-0.22-0.14-0.39-0.34-0.51-0.58l-3-6c-0.37-0.74-0.07-1.64,0.67-2.01l4-2c0.16-0.08,0.33-0.13,0.51-0.15l9-1
		c0.61-0.07,1.18,0.23,1.48,0.76l5,9C42.48,39.58,42.54,39.95,42.47,40.29z"/>
	<path d="M63.5,32C63.5,14.63,49.37,0.5,32,0.5S0.5,14.63,0.5,32S14.63,63.5,32,63.5c0.83,0,1.65-0.04,2.46-0.11
		c0.17,0.07,0.35,0.11,0.54,0.11c0.3,0,0.57-0.09,0.8-0.24C51.39,61.38,63.5,48.08,63.5,32z M60.5,32c0,0.62-0.03,1.24-0.07,1.85
		l-6.41-4.12c-0.33-0.21-0.73-0.29-1.11-0.21l-9,1.85l-7.23-6.49c-0.31-0.28-0.72-0.42-1.14-0.38l-9.68,0.9l-0.37-0.76V23.3
		l2.48-5.94l5.98-0.88c0.49-0.07,0.91-0.38,1.13-0.83l1.59-3.27l6.99-0.9c0.41-0.05,0.78-0.27,1.02-0.6l2.28-3.12
		C55.08,12.79,60.5,21.77,60.5,32z M6.72,45.13l2.92-4.37l8.07,2.42l1.82,9.12c0.1,0.52,0.47,0.94,0.97,1.12l13,4.64v2.4
		c-0.5,0.03-1,0.04-1.5,0.04C21.02,60.5,11.47,54.25,6.72,45.13z M36.5,60.14V57c0-0.63-0.4-1.2-1-1.41l-13.2-4.71l-1.83-9.17
		c-0.11-0.54-0.51-0.98-1.04-1.14l-10-3c-0.63-0.19-1.31,0.05-1.68,0.6l-2.48,3.72C4.13,38.81,3.5,35.48,3.5,32
		C3.5,16.29,16.29,3.5,32,3.5c4.41,0,8.59,1.01,12.32,2.8l-1.67,2.29l-7.15,0.92c-0.5,0.06-0.94,0.38-1.16,0.83l-1.6,3.29
		l-6.03,0.89c-0.52,0.08-0.96,0.42-1.17,0.91l-2.92,7C22.54,22.61,22.5,22.8,22.5,23v2c0,0.23,0.05,0.45,0.15,0.66l0.97,2
		c0.27,0.56,0.87,0.9,1.49,0.84l10.06-0.94l7.3,6.56c0.35,0.32,0.84,0.45,1.3,0.35l9.14-1.88l7.11,4.56
		C57.86,48.96,48.4,58.25,36.5,60.14z"/>
	<path d="M37.31,30.27c-0.29-0.53-0.87-0.83-1.48-0.76l-9,1c-0.18,0.02-0.35,0.07-0.51,0.15l-4,2c-0.74,0.37-1.04,1.27-0.67,2.01
		l3,6c0.12,0.23,0.29,0.43,0.51,0.58l5.33,3.55V48c0,0.4,0.16,0.78,0.44,1.06l2,2c0.29,0.29,0.68,0.44,1.06,0.44
		c0.34,0,0.68-0.12,0.96-0.35l6-5c0.26-0.22,0.44-0.52,0.51-0.86l1-5c0.07-0.35,0.01-0.71-0.16-1.02L37.31,30.27z M38.63,44.19
		l-4.54,3.78l-0.59-0.59V44c0-0.5-0.25-0.97-0.67-1.25l-5.67-3.78l-2.15-4.3l2.42-1.21l7.74-0.86l4.25,7.65L38.63,44.19z"/>
</g>
</svg>
