<?xml version="1.0" standalone="no"?>
<!DOCTYPE svg PUBLIC "-//W3C//DTD SVG 20010904//EN"
 "http://www.w3.org/TR/2001/REC-SVG-20010904/DTD/svg10.dtd">
<svg version="1.0" xmlns="http://www.w3.org/2000/svg"
 width="1024.000000pt" height="1024.000000pt" viewBox="0 0 1024.000000 1024.000000"
 preserveAspectRatio="xMidYMid meet">
<metadata>
Created by potrace 1.11, written by Peter Selinger 2001-2013
</metadata>
<g transform="translate(0.000000,1024.000000) scale(0.100000,-0.100000)"
fill="#000000" stroke="none">
<path d="M4770 10209 c-1987 -134 -3729 -1434 -4428 -3304 -699 -1872 -241
-3976 1173 -5390 1118 -1119 2670 -1650 4245 -1454 1873 233 3475 1501 4138
3274 699 1872 241 3976 -1173 5390 -1044 1045 -2479 1583 -3955 1484z m-1195
-1859 c346 -94 611 -362 702 -709 21 -78 26 -121 26 -231 2 -223 -27 -318
-194 -625 -406 -748 -443 -1155 -164 -1810 57 -133 163 -346 219 -440 56 -93
89 -172 117 -281 33 -129 32 -330 -4 -464 -91 -346 -340 -603 -682 -706 -121
-36 -330 -45 -454 -20 -192 39 -350 120 -490 252 -344 324 -408 843 -152 1242
93 145 251 495 315 699 56 181 70 274 70 473 0 214 -14 293 -89 519 -52 154
-182 428 -285 600 -127 212 -164 339 -163 556 0 117 4 156 25 235 98 368 381
641 748 721 118 26 340 21 455 -11z m3565 19 c100 -15 251 -71 343 -125 112
-67 274 -229 341 -341 56 -96 110 -245 127 -353 7 -45 9 -126 6 -200 -8 -197
-42 -294 -206 -590 -100 -179 -189 -375 -240 -528 -109 -321 -119 -614 -31
-927 58 -204 217 -567 335 -761 61 -100 103 -207 127 -324 28 -133 21 -327
-16 -455 -79 -272 -262 -492 -511 -615 -164 -81 -229 -95 -435 -95 -206 0
-270 14 -435 95 -193 94 -349 250 -445 445 -78 159 -95 237 -94 440 0 156 2
177 28 260 30 98 86 217 136 291 42 60 163 314 228 476 164 410 188 740 80
1103 -58 194 -183 468 -319 695 -124 207 -165 359 -156 579 7 202 57 356 167
515 151 218 392 373 647 416 71 11 248 11 323 -1z m-1727 -1723 c177 -53 310
-131 434 -255 181 -183 270 -389 280 -651 9 -224 -28 -359 -168 -610 -385
-695 -453 -1092 -275 -1625 73 -216 205 -505 309 -674 54 -86 99 -206 123
-322 22 -111 15 -320 -15 -434 -71 -266 -266 -503 -516 -625 -165 -81 -229
-95 -435 -95 -153 0 -185 3 -254 23 -169 49 -318 136 -438 256 -123 123 -200
253 -255 433 -24 81 -27 102 -27 258 0 145 3 182 22 250 24 88 85 222 133 293
71 105 223 438 288 627 142 420 129 748 -45 1182 -49 122 -174 369 -244 483
-110 178 -160 347 -160 540 0 275 106 520 308 711 107 102 219 170 349 215
136 46 186 53 353 50 120 -3 160 -8 233 -30z"/>
</g>
</svg>
